<svg width="103" height="114" viewBox="0 0 103 114" fill="none" xmlns="http://www.w3.org/2000/svg">
<path d="M50 113.397C77.1145 113.397 99.0951 112.192 99.0951 110.705C99.0951 109.218 77.1145 108.013 50 108.013C22.8855 108.013 0.904907 109.218 0.904907 110.705C0.904907 112.192 22.8855 113.397 50 113.397Z" fill="#EBEBEB"/>
<path d="M2.12756 99.0726L12.1338 99.0124L22.1418 98.9898L42.156 98.9497L62.1703 98.9898L72.1765 99.0124L82.1845 99.0726L72.1765 99.1352L62.1703 99.1578L42.156 99.1979L22.1418 99.1578L12.1338 99.1352L2.12756 99.0726Z" fill="#263238"/>
<path d="M45.7939 108.686C45.1322 108.899 26.249 108.658 25.5362 108.192C25.2522 108.021 25.1386 105.267 25.0818 101.944V101.839C25.0685 101.151 25.061 100.448 25.0591 99.7286C25.0591 99.6292 25.0591 99.5326 25.0591 99.4446L25.9736 89.6494L38.6059 89.7715L37.362 99.4758V99.8621L37.2853 101.87V102.077C37.2853 102.077 44.4449 105.38 45.172 105.977C45.899 106.573 46.4585 108.473 45.7939 108.686Z" fill="#AD6359"/>
<path d="M45.7939 108.686C45.1322 108.899 26.249 108.658 25.5362 108.192C25.2522 108.021 25.1386 105.267 25.0818 101.944V101.839C25.0685 101.151 25.061 100.448 25.0591 99.7286C25.0591 99.6292 25.0591 99.5326 25.0591 99.4446L37.362 99.4758V99.8621L37.2853 101.87V102.077C37.2853 102.077 44.4449 105.38 45.172 105.977C45.899 106.573 46.4585 108.473 45.7939 108.686Z" fill="#EBEBEB"/>
<path d="M45.7968 108.683C45.456 108.794 40.327 108.783 35.3115 108.683C34.3033 108.663 33.3008 108.641 32.3437 108.615C28.7682 108.518 25.8117 108.371 25.5277 108.192C25.2437 108.013 25.1301 105.352 25.0762 102.074C25.0762 102.026 25.0762 101.981 25.0762 101.935C25.0762 101.89 25.0762 101.861 25.0762 101.827H25.0904L37.2598 101.847V102.057C37.2598 102.057 44.4478 105.38 45.172 105.974C45.8962 106.567 46.4585 108.473 45.7968 108.683Z" fill="#FFC727"/>
<path d="M45.5894 107.95C42.4086 107.831 29.5633 107.652 26.4081 107.777C26.3825 107.777 26.3825 107.797 26.4081 107.797C29.5605 107.984 42.4058 108.058 45.5894 108.001C45.6576 108.001 45.6576 107.953 45.5894 107.95Z" fill="#263238"/>
<path d="M38.6201 101.901C37.3705 101.651 35.8369 101.824 34.8685 102.705C34.8316 102.739 34.8685 102.793 34.9196 102.779C36.1213 102.409 37.359 102.168 38.6116 102.06C38.6327 102.061 38.6534 102.054 38.6691 102.04C38.6848 102.026 38.6942 102.006 38.6954 101.985C38.6965 101.964 38.6892 101.943 38.6751 101.927C38.661 101.912 38.6412 101.902 38.6201 101.901Z" fill="#263238"/>
<path d="M39.5176 102.458C38.268 102.208 36.7344 102.381 35.7659 103.262C35.729 103.296 35.7659 103.35 35.8171 103.335C37.0188 102.966 38.2564 102.725 39.5091 102.617C39.5301 102.618 39.5508 102.611 39.5665 102.597C39.5822 102.582 39.5917 102.563 39.5928 102.542C39.594 102.521 39.5867 102.5 39.5726 102.484C39.5584 102.468 39.5387 102.459 39.5176 102.458Z" fill="#263238"/>
<path d="M40.415 103.014C39.1654 102.765 37.6318 102.938 36.6634 103.818C36.6265 103.852 36.6634 103.906 36.7145 103.892C37.9163 103.522 39.1539 103.282 40.4065 103.173C40.4276 103.175 40.4483 103.167 40.464 103.153C40.4797 103.139 40.4892 103.119 40.4903 103.098C40.4914 103.077 40.4841 103.056 40.47 103.041C40.4559 103.025 40.4361 103.016 40.415 103.014Z" fill="#263238"/>
<path d="M35.3115 108.683C34.3033 108.663 33.3008 108.641 32.3437 108.615C28.7682 108.518 25.8117 108.371 25.5277 108.192C25.2437 108.013 25.1301 105.352 25.0762 102.074C25.0762 102.026 25.0762 101.981 25.0762 101.935C25.0762 101.89 25.0762 101.861 25.0762 101.827H25.0904C26.7631 102.997 32.6391 106.908 35.3115 108.683Z" fill="#263238"/>
<path d="M37.9925 101.893H24.3917C24.3917 101.893 27.1238 70.1273 27.0187 69.5735C26.8824 68.8635 26.0787 65.6486 25.008 61.4482C24.6729 60.1333 24.3122 58.7247 23.9345 57.2621C22.9206 53.3116 21.8017 48.992 20.8275 45.2347C19.3649 39.6058 18.2233 35.2322 18.2233 35.2322H29.748C29.748 35.2322 31.0913 39.4922 32.7868 45.0302C35.5473 54.033 39.2364 66.4239 39.6028 69.4371C40.1907 74.3021 37.9925 101.893 37.9925 101.893Z" fill="#37474F"/>
<path d="M37.3904 99.5723C35.3115 99.5297 35.9108 99.5127 33.8319 99.4928C32.8152 99.4928 26.1355 99.4246 25.1869 99.5837C25.1826 99.5853 25.1788 99.5882 25.1762 99.592C25.1735 99.5958 25.1721 99.6003 25.1721 99.605C25.1721 99.6096 25.1735 99.6141 25.1762 99.6179C25.1788 99.6217 25.1826 99.6247 25.1869 99.6263C26.1355 99.7825 32.8152 99.7228 33.8319 99.7143C35.9108 99.6916 35.3144 99.6746 37.3904 99.632C37.3968 99.63 37.4023 99.626 37.4063 99.6206C37.4102 99.6153 37.4123 99.6088 37.4123 99.6021C37.4123 99.5955 37.4102 99.589 37.4063 99.5836C37.4023 99.5783 37.3968 99.5743 37.3904 99.5723Z" fill="#263238"/>
<path d="M29.5747 67.6336C29.1288 65.6683 28.4614 63.7428 27.8707 61.8116C26.6911 57.8924 25.505 53.9742 24.3122 50.0569C23.7158 48.0973 23.1165 46.1395 22.5144 44.1837C22.2115 43.1954 21.9057 42.208 21.5971 41.2216C21.2961 40.256 20.9496 39.2989 20.677 38.3248C20.5662 37.9301 20.5066 38.1487 20.6486 38.6514C20.9326 39.6653 21.2166 40.6792 21.5148 41.6931C22.0998 43.6962 22.6896 45.6984 23.2841 47.6997C24.4617 51.6757 25.6517 55.6517 26.854 59.6277C27.4541 61.6251 28.0543 63.6197 28.6545 65.6115C28.9589 66.5611 29.2045 67.5286 29.3901 68.5083C29.5513 69.5319 29.5923 70.5708 29.5122 71.6039C29.3816 73.6857 29.143 75.7645 28.9442 77.8377C28.7454 79.9109 28.5608 81.9983 28.3762 84.0857C27.9975 88.2264 27.6189 92.3662 27.2402 96.5051C27.1929 97.0314 27.1484 97.5568 27.1067 98.0812C27.1067 98.2573 27.3595 98.2431 27.3907 98.0812C27.8394 93.986 28.1802 89.8793 28.5636 85.7784C28.947 81.6774 29.3276 77.6191 29.6996 73.5408C29.7962 72.5156 29.9041 71.4903 29.9041 70.4594C29.9008 69.5081 29.7903 68.5602 29.5747 67.6336Z" fill="#263238"/>
<path d="M28.4387 35.2322C27.6407 41.4234 26.1185 53.0305 25.008 61.4511C22.4066 51.2498 18.2233 35.2322 18.2233 35.2322H28.4387Z" fill="#263238"/>
<path d="M31.1424 108.87C30.4807 109.086 11.5975 108.916 10.8819 108.45C10.5979 108.28 10.4729 105.528 10.4047 102.202V102.097C10.3877 101.41 10.3763 100.703 10.3735 99.9869C10.3735 99.8875 10.3735 99.7909 10.3735 99.7029C10.3281 94.8948 10.6745 89.9077 10.6745 89.9077L23.0172 89.9844L22.6764 99.6887L22.6622 100.075L22.594 102.083V102.29C22.594 102.29 29.7906 105.587 30.5233 106.181C31.256 106.774 31.8041 108.657 31.1424 108.87Z" fill="#AD6359"/>
<path d="M31.1425 108.87C30.4807 109.086 11.5976 108.916 10.8819 108.45C10.5979 108.28 10.4729 105.528 10.4048 102.202V102.097C10.3877 101.41 10.3764 100.703 10.3735 99.9869C10.3735 99.8875 10.3735 99.791 10.3735 99.7029L22.6764 99.6887L22.6622 100.075L22.5941 102.083V102.29C22.5941 102.29 29.7906 105.587 30.5233 106.181C31.2561 106.775 31.8042 108.657 31.1425 108.87Z" fill="#EBEBEB"/>
<path d="M31.1425 108.87C30.4807 109.086 11.5976 108.916 10.8819 108.45C10.5979 108.28 10.4729 105.528 10.4048 102.202V102.097L22.5884 102.072V102.279C22.5884 102.279 29.7849 105.576 30.5177 106.17C31.2504 106.763 31.8042 108.657 31.1425 108.87Z" fill="#FFC727"/>
<path d="M30.9351 108.135C27.7543 108.03 14.9062 107.896 11.7538 108.033C11.7282 108.033 11.7254 108.053 11.7538 108.053C14.9033 108.229 27.7515 108.257 30.9351 108.189C31.0033 108.186 31.0033 108.138 30.9351 108.135Z" fill="#263238"/>
<path d="M23.943 102.114C22.6934 101.867 21.1598 102.046 20.1942 102.929C20.1572 102.963 20.1942 103.017 20.2453 103.006C21.4461 102.629 22.6838 102.383 23.9373 102.27C23.9556 102.268 23.9724 102.259 23.9848 102.245C23.9971 102.231 24.0042 102.213 24.0049 102.195C24.0056 102.176 23.9998 102.158 23.9884 102.143C23.9771 102.129 23.961 102.118 23.943 102.114Z" fill="#263238"/>
<path d="M24.8432 102.665C23.5936 102.421 22.0572 102.6 21.0944 103.483C21.0547 103.517 21.0944 103.571 21.1456 103.557C22.3468 103.182 23.5844 102.937 24.8376 102.824C24.8587 102.825 24.8792 102.817 24.8946 102.803C24.9101 102.788 24.9192 102.768 24.9199 102.747C24.9207 102.726 24.913 102.706 24.8986 102.69C24.8843 102.675 24.8643 102.666 24.8432 102.665Z" fill="#263238"/>
<path d="M25.7436 103.219C24.4911 102.975 22.9575 103.154 21.9919 104.037C21.955 104.071 21.9919 104.122 22.0459 104.111C23.2467 103.734 24.4845 103.489 25.7379 103.378C25.759 103.379 25.7795 103.371 25.795 103.357C25.8104 103.342 25.8195 103.322 25.8203 103.301C25.821 103.28 25.8134 103.26 25.799 103.244C25.7846 103.229 25.7647 103.22 25.7436 103.219Z" fill="#263238"/>
<path d="M29.3759 35.2322C29.3759 35.2322 29.1118 40.7475 27.8508 45.1154C27.7486 45.4761 27.6379 45.8311 27.5214 46.1719C26.3642 46.6374 25.252 47.2078 24.1986 47.8759C24.1986 47.8759 24.068 52.3119 23.9345 57.2479C23.7897 62.7802 23.6363 68.9515 23.6704 70.2579C23.7868 75.1541 23.0655 102.066 23.0655 102.066L9.46753 102.123C9.46753 102.123 11.9184 72.0585 11.9014 70.2636C11.8758 67.381 12.5575 54.6436 13.0829 45.3483C13.4066 39.6228 13.6707 35.2095 13.6707 35.2095L29.3759 35.2322Z" fill="#37474F"/>
<path d="M22.5968 99.6746C20.5208 99.6405 21.1172 99.6235 19.0411 99.6121C18.0244 99.6121 11.3419 99.578 10.3933 99.7399C10.3734 99.7399 10.3734 99.7797 10.3933 99.7825C11.3447 99.9359 18.0244 99.8478 19.0411 99.8336C21.1172 99.8024 20.5208 99.7882 22.5968 99.7371C22.6051 99.7371 22.613 99.7338 22.6189 99.7279C22.6248 99.7221 22.628 99.7141 22.628 99.7058C22.628 99.6976 22.6248 99.6896 22.6189 99.6838C22.613 99.6779 22.6051 99.6746 22.5968 99.6746Z" fill="#263238"/>
<path d="M14.8124 37.2202C14.5653 44.8058 14.3012 52.3943 13.9604 59.9742C13.6196 67.5542 13.1652 75.191 12.5404 82.7794C12.1854 87.0196 11.8531 92.9864 11.4044 97.2152C11.4044 97.2435 11.4442 97.2549 11.4499 97.2152C12.4382 89.6892 12.9863 80.3853 13.4719 72.811C13.9576 65.2368 14.2842 57.6568 14.5426 50.074C14.6875 45.7856 14.7982 41.4944 14.926 37.2031C14.909 37.1406 14.8153 37.1463 14.8124 37.2202Z" fill="#263238"/>
<path d="M28.0866 45.8452C26.7338 46.4096 25.4329 47.091 24.1986 47.8815C24.1895 47.8879 24.1831 47.8974 24.1805 47.9082C24.178 47.919 24.1795 47.9304 24.1847 47.9401C24.1899 47.9499 24.1986 47.9575 24.209 47.9613C24.2194 47.9652 24.2309 47.9651 24.2412 47.961C25.5505 47.322 26.8909 46.7086 28.1661 46.0014C28.1846 45.9897 28.198 45.9715 28.2038 45.9504C28.2095 45.9292 28.2072 45.9067 28.1973 45.8872C28.1874 45.8677 28.1705 45.8526 28.15 45.8448C28.1296 45.8371 28.1069 45.8372 28.0866 45.8452Z" fill="#263238"/>
<path d="M28.1605 41.1649C28.0724 41.6477 27.9531 42.1277 27.8509 42.6076C27.7487 43.0876 27.6805 43.5193 27.5669 43.9623C27.4697 44.3935 27.2509 44.7877 26.9364 45.0983C26.7575 45.263 26.5644 45.4079 26.3684 45.5584C26.269 45.6379 26.1583 45.7174 26.0532 45.7998C26.0532 45.7345 26.0787 45.6692 26.0901 45.6038L26.1838 45.0557C26.252 44.6468 26.3173 44.2406 26.3798 43.8317C26.5019 43.0308 26.6127 42.2186 26.7802 41.4262C26.7802 41.3921 26.7376 41.3808 26.732 41.4262C26.5303 42.2129 26.3116 42.9939 26.1355 43.7862C26.0503 44.1753 25.7465 46.0952 25.7351 46.2315C25.7237 46.3678 25.7095 46.5155 25.7039 46.6546C25.684 46.7979 25.684 46.9431 25.7039 47.0863C25.7039 47.1204 25.755 47.1147 25.7692 47.0863C25.8261 46.9524 25.867 46.8123 25.8913 46.6688C25.9254 46.5325 25.9566 46.3848 25.9793 46.2542C25.9793 46.2031 25.9964 46.152 26.0049 46.1008C26.1923 45.9844 26.3684 45.8339 26.5445 45.7061C26.7206 45.5783 26.9307 45.4221 27.1125 45.2801C27.4464 44.9996 27.6871 44.6242 27.8026 44.2037C27.9192 43.7513 27.9952 43.2894 28.0298 42.8235C28.0895 42.2754 28.1349 41.7272 28.2116 41.1848C28.2144 41.145 28.1661 41.1337 28.1605 41.1649Z" fill="#263238"/>
<path d="M24.6559 20.8136C25.4113 22.918 28.0639 27.6296 32.1393 31.3443C33.7155 32.7785 45.4418 31.8356 46.6034 31.384C47.4156 31.066 48.9322 25.1559 48.0774 24.622C46.4756 23.6195 35.9932 25.9312 35.5473 25.6955C34.8657 25.332 30.3501 22.3074 27.4448 19.4475C25.3233 17.3402 23.4063 17.3175 24.6559 20.8136Z" fill="#AD6359"/>
<path d="M27.672 27.0275L34.3232 24.3863C34.3232 24.3863 28.3592 19.2544 26.1724 18.2405C23.7158 17.1045 23.6704 18.604 24.5338 21.0265C25.3971 23.449 27.672 27.0275 27.672 27.0275Z" fill="#FFC727"/>
<path opacity="0.1" d="M27.672 27.0275L34.3232 24.3863C34.3232 24.3863 28.3592 19.2544 26.1724 18.2405C23.7158 17.1045 23.6704 18.604 24.5338 21.0265C25.3971 23.449 27.672 27.0275 27.672 27.0275Z" fill="black"/>
<path d="M32.9174 23.5881C32.6732 23.6421 30.5886 24.4401 30.1371 24.6162C29.6855 24.7923 27.8423 25.5222 27.3936 25.7522C27.3891 25.7522 27.3848 25.754 27.3816 25.7572C27.3784 25.7604 27.3766 25.7647 27.3766 25.7693C27.3766 25.7738 27.3784 25.7781 27.3816 25.7813C27.3848 25.7845 27.3891 25.7863 27.3936 25.7863C27.8764 25.6471 29.7395 24.9343 30.1995 24.7469C30.6596 24.5594 32.7101 23.7415 32.9231 23.6109C32.96 23.5881 32.9345 23.5881 32.9174 23.5881Z" fill="#263238"/>
<path d="M30.2365 26.0078L27.6805 27.0274C27.6805 27.0274 25.4085 23.4518 24.5565 21.0293C23.926 19.2571 23.7811 17.9735 24.707 17.8599L30.2365 26.0078Z" fill="#263238"/>
<path d="M12.1514 41.2359C12.194 41.2842 31.0061 41.4063 31.1794 41.216C31.4208 40.932 27.2431 20.5493 25.3205 18.0246C24.9115 17.485 22.3157 16.7494 20.8105 17.9763C17.6127 20.5806 14.8465 29.5209 14.1933 32.2189C13.1255 36.6521 11.9952 41.0598 12.1514 41.2359Z" fill="#FFC727"/>
<path opacity="0.1" d="M25.4255 18.1921H20.5691C20.6486 18.1183 20.7281 18.0501 20.8077 17.9848C20.8559 17.9454 20.9062 17.9084 20.9582 17.874H25.1415C25.2075 17.9183 25.2668 17.9719 25.3176 18.0331C25.3568 18.0838 25.3929 18.1369 25.4255 18.1921Z" fill="black"/>
<path opacity="0.1" d="M25.8799 19.098H19.7313C19.8194 18.9873 19.9074 18.8793 19.9983 18.7771H25.7408C25.7862 18.8765 25.8316 18.9844 25.8799 19.098Z" fill="black"/>
<path opacity="0.1" d="M26.232 20.0126H19.0724C19.1462 19.9018 19.2172 19.7967 19.2911 19.6917H26.1071L26.232 20.0126Z" fill="black"/>
<path opacity="0.1" d="M26.5416 20.9242H18.5129C18.5754 20.8163 18.6379 20.7084 18.7032 20.6033H26.428C26.4735 20.7084 26.5075 20.8163 26.5416 20.9242Z" fill="black"/>
<path opacity="0.1" d="M26.8313 21.8387H18.0273C18.0841 21.7308 18.1381 21.6229 18.1977 21.5178H26.7461C26.7632 21.6229 26.7973 21.7308 26.8313 21.8387Z" fill="black"/>
<path opacity="0.1" d="M27.101 22.7531H17.5558C17.6069 22.6451 17.658 22.5372 17.712 22.4321H26.9959L27.101 22.7531Z" fill="black"/>
<path opacity="0.1" d="M27.3595 23.6649H17.1355L17.2803 23.344H27.28C27.2999 23.4491 27.3283 23.557 27.3595 23.6649Z" fill="black"/>
<path opacity="0.1" d="M27.6066 24.5792H16.7407L16.877 24.2583H27.5214L27.6066 24.5792Z" fill="black"/>
<path opacity="0.1" d="M27.848 25.4938H16.3716C16.4113 25.3859 16.4539 25.2808 16.4994 25.1729H27.7657C27.7912 25.2921 27.8196 25.3859 27.848 25.4938Z" fill="black"/>
<path opacity="0.1" d="M28.0809 26.4054H16.0194C16.0592 26.2975 16.0989 26.1924 16.1415 26.0845H28.0014C28.0269 26.1924 28.0553 26.2975 28.0809 26.4054Z" fill="black"/>
<path opacity="0.1" d="M28.3109 27.3199H15.6871C15.7241 27.212 15.7638 27.1069 15.8036 26.999H28.2314C28.257 27.1069 28.2825 27.212 28.3109 27.3199Z" fill="black"/>
<path opacity="0.1" d="M28.5325 28.2314H15.3719C15.406 28.1263 15.4429 28.0184 15.4827 27.9133H28.4558L28.5325 28.2314Z" fill="black"/>
<path opacity="0.1" d="M28.7511 29.1461H15.068L15.1702 28.8252H28.6716L28.7511 29.1461Z" fill="black"/>
<path opacity="0.1" d="M28.9642 30.0604H14.7841C14.8153 29.9553 14.8465 29.8474 14.8806 29.7395H28.8903C28.9159 29.8361 28.9415 29.9553 28.9642 30.0604Z" fill="black"/>
<path opacity="0.1" d="M29.1771 30.9721H14.5199L14.6108 30.6541H29.0948C29.126 30.762 29.1516 30.8671 29.1771 30.9721Z" fill="black"/>
<path opacity="0.1" d="M29.3816 31.8866H14.2728C14.2984 31.7872 14.3268 31.6793 14.3552 31.5657H29.3106C29.3333 31.6736 29.3589 31.7787 29.3816 31.8866Z" fill="black"/>
<path opacity="0.1" d="M29.5861 32.8011H14.0513L14.128 32.4802H29.5151C29.552 32.5881 29.552 32.6961 29.5861 32.8011Z" fill="black"/>
<path opacity="0.1" d="M29.7848 33.7126H13.8297L13.9064 33.3945H29.7167L29.7848 33.7126Z" fill="black"/>
<path opacity="0.1" d="M29.978 34.6273H13.6083L13.685 34.3064H29.9099C29.9354 34.4143 29.9582 34.5194 29.978 34.6273Z" fill="black"/>
<path opacity="0.1" d="M30.1711 35.5416H13.3867L13.4634 35.2207H30.12C30.12 35.3286 30.1512 35.4365 30.1711 35.5416Z" fill="black"/>
<path opacity="0.1" d="M30.3585 36.4532H13.1652L13.2418 36.1323H30.2818C30.3159 36.2402 30.3386 36.3482 30.3585 36.4532Z" fill="black"/>
<path opacity="0.1" d="M30.5432 37.3678H12.9352C12.9636 37.2627 12.9891 37.1548 13.0147 37.0469H30.4722C30.5006 37.1548 30.5233 37.2627 30.5432 37.3678Z" fill="black"/>
<path opacity="0.1" d="M30.7221 38.2823H12.725C12.7505 38.1773 12.7733 38.0722 12.8017 37.9614H30.6596C30.688 38.0722 30.7022 38.1773 30.7221 38.2823Z" fill="black"/>
<path opacity="0.1" d="M30.8924 39.2081H12.512C12.5347 39.103 12.5602 38.998 12.5858 38.8872H30.8328C30.8527 38.9838 30.8726 39.0888 30.8924 39.2081Z" fill="black"/>
<path opacity="0.1" d="M31.0515 40.1085H12.3075C12.3274 40.0091 12.3501 39.9012 12.3785 39.7876H30.9947C31.0174 39.9012 31.0345 40.0063 31.0515 40.1085Z" fill="black"/>
<path opacity="0.1" d="M31.1822 41.0228H12.1542C12.1542 40.9376 12.1797 40.8297 12.2025 40.7019H31.1424C31.1623 40.8325 31.1737 40.9405 31.1822 41.0228Z" fill="black"/>
<path d="M24.4968 20.7482C23.8493 20.8448 21.9408 19.6605 21.2279 18.3825C21.1797 18.2944 21.5119 14.7586 21.4949 14.0515C21.4949 13.9066 25.9423 15.0767 25.9423 15.0767C25.7004 15.9642 25.5678 16.8778 25.5476 17.7974C25.5502 17.893 25.5616 17.988 25.5817 18.0814C25.5817 18.0956 25.5817 18.1098 25.5817 18.1297C25.6839 18.6977 25.4453 20.6176 24.4968 20.7482Z" fill="#AD6359"/>
<path d="M21.7817 14.0825C21.9607 15.1532 22.6792 18.1494 25.1329 18.1778C25.285 18.1796 25.437 18.1691 25.5873 18.1466V18.0983C25.5696 18.0046 25.5592 17.9096 25.5561 17.8143C25.5763 16.8947 25.7089 15.981 25.9509 15.0936C25.9509 15.0936 22.7672 14.2529 21.7817 14.0825Z" fill="#263238"/>
<path d="M21.9266 8.08738C21.1314 9.52442 21.0036 14.1423 21.8897 15.3635C23.1705 17.1356 25.7407 17.8229 27.3652 16.1757C28.9385 14.5768 28.9982 8.55598 27.9673 7.39726C26.4479 5.6961 23.1023 5.96022 21.9266 8.08738Z" fill="#AD6359"/>
<path d="M25.6953 11.7595C25.6953 11.7595 25.6726 11.7737 25.6726 11.7879C25.6726 12.0975 25.6186 12.4553 25.3346 12.549V12.5661C25.6811 12.5292 25.7464 12.0549 25.6953 11.7595Z" fill="#263238"/>
<path d="M25.4283 11.4272C24.9313 11.3732 24.8603 12.3729 25.3204 12.424C25.7805 12.4751 25.86 11.4726 25.4283 11.4272Z" fill="#263238"/>
<path d="M27.4078 11.8618C27.4078 11.8618 27.4306 11.876 27.4306 11.8902C27.3965 12.1998 27.4135 12.5605 27.6862 12.6826C27.6862 12.6826 27.6862 12.7025 27.6862 12.6996C27.3425 12.6258 27.3283 12.1487 27.4078 11.8618Z" fill="#263238"/>
<path d="M27.7089 11.5579C28.2087 11.5579 28.1775 12.5575 27.7089 12.5604C27.2403 12.5632 27.2801 11.5579 27.7089 11.5579Z" fill="#263238"/>
<path d="M25.008 11.092C25.1426 11.064 25.2753 11.028 25.4056 10.9841C25.5503 10.9649 25.6849 10.8991 25.789 10.7967C25.8154 10.7579 25.8281 10.7114 25.825 10.6645C25.8219 10.6177 25.8032 10.5732 25.7719 10.5382C25.7009 10.4769 25.6146 10.4357 25.5221 10.4193C25.4297 10.4028 25.3345 10.4115 25.2465 10.4445C25.0582 10.4846 24.8913 10.5928 24.7779 10.7484C24.755 10.7855 24.7433 10.8284 24.7441 10.872C24.7448 10.9156 24.7582 10.958 24.7824 10.9942C24.8067 11.0305 24.8408 11.0589 24.8808 11.0763C24.9208 11.0936 24.965 11.0991 25.008 11.092Z" fill="#263238"/>
<path d="M28.132 10.8592C28 10.8229 27.8701 10.7792 27.743 10.7285C27.5988 10.7003 27.4674 10.6267 27.3681 10.5184C27.3449 10.4776 27.3354 10.4305 27.3411 10.384C27.3467 10.3375 27.3671 10.294 27.3993 10.2599C27.4744 10.2035 27.5631 10.1679 27.6564 10.157C27.7497 10.146 27.8443 10.16 27.9304 10.1974C28.1151 10.2489 28.2747 10.366 28.3791 10.5269C28.4017 10.5649 28.4126 10.6088 28.4103 10.653C28.408 10.6972 28.3927 10.7398 28.3663 10.7753C28.3398 10.8108 28.3035 10.8377 28.2618 10.8527C28.2202 10.8676 28.175 10.8698 28.132 10.8592Z" fill="#263238"/>
<path d="M26.428 14.0684C26.2854 14.2295 26.1034 14.3508 25.8998 14.4206C25.7882 14.4574 25.6677 14.4574 25.5562 14.4206C25.3119 14.3382 25.3233 14.111 25.3829 13.9207C25.4153 13.8213 25.4591 13.726 25.5136 13.6367C25.7648 13.8741 26.0851 14.0253 26.428 14.0684Z" fill="#263238"/>
<path d="M25.9026 14.4205C25.791 14.4573 25.6705 14.4573 25.559 14.4205C25.3147 14.3381 25.3261 14.1109 25.3857 13.9207C25.5163 13.9316 25.6391 13.9873 25.7333 14.0784C25.8275 14.1695 25.8873 14.2903 25.9026 14.4205Z" fill="#FF9CBD"/>
<path d="M21.3842 12.2963C22.2362 12.1855 23.0541 9.52158 23.0541 9.52158C23.0541 9.52158 22.8724 10.6775 23.0939 10.6803C23.3154 10.6831 24.44 9.26031 24.707 8.12431C25.284 8.64335 25.9266 9.08448 26.6183 9.43638C27.601 9.8993 28.7512 10.0044 28.7796 9.82546C28.8562 9.3029 28.5864 7.87154 27.9474 7.26946C27.4888 6.80169 26.9149 6.4632 26.2836 6.28818C25.6523 6.11315 24.986 6.10779 24.352 6.27262C22.5742 6.66738 21.9721 7.69262 21.5972 8.48214C21.2223 9.27166 21.0718 12.336 21.3842 12.2963Z" fill="#263238"/>
<path d="M24.8489 13.4124C24.5937 13.3731 24.3546 13.2627 24.1592 13.0939C23.9637 12.9251 23.8198 12.7046 23.7439 12.4577C23.668 12.2108 23.6632 11.9476 23.73 11.6981C23.7969 11.4486 23.9326 11.223 24.1218 11.0471C24.3109 10.8713 24.5458 10.7522 24.7994 10.7037C25.0531 10.6552 25.3153 10.6791 25.556 10.7727C25.7967 10.8663 26.0062 11.0258 26.1604 11.233C26.3146 11.4402 26.4074 11.6866 26.428 11.9441C26.4461 12.1525 26.4165 12.3622 26.3414 12.5574C26.2664 12.7527 26.1479 12.9283 25.9948 13.0709C25.8418 13.2135 25.6584 13.3194 25.4583 13.3805C25.2583 13.4416 25.047 13.4564 24.8404 13.4237L24.8489 13.4124ZM25.2607 10.8791C25.1663 10.8687 25.0711 10.8687 24.9767 10.8791C24.6748 10.9153 24.3982 11.0654 24.2033 11.2987C24.0084 11.5321 23.9099 11.831 23.928 12.1345C23.9462 12.438 24.0795 12.7231 24.3008 12.9316C24.5221 13.1401 24.8147 13.2562 25.1187 13.2562C25.4228 13.2562 25.7153 13.1401 25.9366 12.9316C26.1579 12.7231 26.2913 12.438 26.3094 12.1345C26.3275 11.831 26.2291 11.5321 26.0342 11.2987C25.8393 11.0654 25.5626 10.9153 25.2607 10.8791Z" fill="#FFC727"/>
<path d="M28.0014 13.5346C27.4816 13.4494 27.0954 12.8417 27.1266 12.1146C27.1369 11.7713 27.254 11.4397 27.4618 11.1661C27.5429 11.0427 27.6546 10.9426 27.7861 10.8755C27.9175 10.8083 28.0642 10.7765 28.2116 10.7831C28.3591 10.7897 28.5023 10.8344 28.6272 10.913C28.7522 10.9916 28.8546 11.1013 28.9244 11.2314C29.1067 11.5212 29.1931 11.861 29.1714 12.2027C29.1402 12.9609 28.6546 13.5573 28.0894 13.5318C28.0602 13.5357 28.0307 13.5366 28.0014 13.5346ZM28.2854 10.9786H28.2172C28.0994 10.9781 27.9833 11.0062 27.8789 11.0606C27.7745 11.1151 27.6849 11.1942 27.618 11.291C27.4363 11.5382 27.3369 11.8363 27.334 12.143C27.3056 12.7991 27.6577 13.3472 28.1206 13.3671C28.5836 13.3869 28.9726 12.8729 29.0124 12.2311C29.03 11.9312 28.9535 11.6334 28.7937 11.3791C28.7413 11.2789 28.6672 11.1918 28.5768 11.124C28.4864 11.0561 28.382 11.0094 28.2712 10.9871L28.2854 10.9786Z" fill="#FFC727"/>
<path d="M26.3855 12.0918L26.2719 11.9441C26.4877 11.7794 26.9819 11.5664 27.2999 11.9441L27.1608 12.0634C26.8739 11.7226 26.4053 12.0748 26.3855 12.0918Z" fill="#FFC727"/>
<path d="M20.5209 12.228L20.3618 12.1371C20.4044 12.0633 20.7907 11.4101 21.2138 11.3618C21.637 11.3135 23.7698 11.5919 23.8863 11.6089L23.8607 11.7907C22.9913 11.6591 22.1152 11.5766 21.2365 11.5436C20.9525 11.5833 20.6231 12.0576 20.5209 12.228Z" fill="#FFC727"/>
<path d="M22.1112 11.9099C22.1112 11.9099 21.3785 10.2741 20.6543 10.5098C19.9301 10.7455 20.2908 12.9806 21.0036 13.4123C21.0913 13.476 21.1912 13.5211 21.2971 13.5446C21.403 13.5682 21.5125 13.5698 21.619 13.5493C21.7255 13.5288 21.8267 13.4866 21.9162 13.4254C22.0057 13.3643 22.0818 13.2854 22.1396 13.1936L22.1112 11.9099Z" fill="#AD6359"/>
<path d="M20.7736 11.146V11.1659C21.2706 11.4868 21.458 12.0434 21.5602 12.5859C21.5392 12.5258 21.5053 12.471 21.461 12.4253C21.4166 12.3796 21.3629 12.344 21.3035 12.321C21.2441 12.2981 21.1805 12.2883 21.1169 12.2923C21.0534 12.2964 20.9914 12.3142 20.9354 12.3445C20.9325 12.3462 20.9301 12.3487 20.9284 12.3517C20.9267 12.3547 20.9258 12.3581 20.9258 12.3615C20.9258 12.3649 20.9267 12.3683 20.9284 12.3713C20.9301 12.3743 20.9325 12.3768 20.9354 12.3786C21.0358 12.3658 21.1376 12.3846 21.2267 12.4325C21.3158 12.4803 21.3877 12.5548 21.4324 12.6455C21.5074 12.7978 21.5654 12.9578 21.6057 13.1226C21.6227 13.1766 21.7136 13.1652 21.7051 13.1226C21.8471 12.4212 21.4978 11.3562 20.7736 11.146Z" fill="#263238"/>
<path d="M26.5472 6.33796C26.0158 5.98823 25.436 5.71839 24.8262 5.53708C24.1418 5.3468 21.918 5.19344 21.3273 5.55696C20.7366 5.92048 20.2936 7.97096 20.2339 8.272C20.1743 8.57304 20.0436 10.4247 20.64 10.9643C21.2364 11.5039 21.759 8.40832 22.9575 7.52224C24.156 6.63616 26.5472 6.33796 26.5472 6.33796Z" fill="#FFC727"/>
<path opacity="0.1" d="M26.5473 6.33801C26.5473 6.33801 24.156 6.64473 22.9575 7.52229C21.759 8.39985 21.2393 11.4983 20.6401 10.9644C20.376 10.7258 20.2766 10.4162 20.2283 9.91357C20.5123 9.02464 21.0803 7.66712 21.9749 6.78956C22.8269 5.97732 24.1106 5.69617 25.4368 5.73877C25.8232 5.90691 26.1946 6.10737 26.5473 6.33801Z" fill="black"/>
<path d="M20.5521 12.8388C20.7339 12.018 21.9011 9.92207 22.9718 8.77755C24.0425 7.63303 26.7518 7.27519 27.1125 7.35755C27.9872 7.53647 28.2485 7.84887 28.399 7.78923C28.5495 7.72959 27.7373 6.93723 27.5129 6.74979C27.2886 6.56235 26.6609 6.11647 26.2832 6.06819C25.9055 6.01991 23.5 5.90915 22.4918 6.79239C21.4836 7.67563 19.8535 10.3254 19.9699 11.0808C19.9983 11.2626 20.2113 11.4074 20.2539 11.6658C20.305 12.0038 20.3164 12.3872 20.3817 12.6258C20.4271 12.8132 20.5351 12.9098 20.5521 12.8388Z" fill="#FFC727"/>
<path d="M20.6656 12.0094C20.6514 11.9441 20.6202 11.8873 20.6003 11.8248C20.5758 11.755 20.5596 11.6826 20.552 11.609C20.5554 11.4689 20.543 11.3288 20.5151 11.1915C20.476 11.0846 20.4246 10.9826 20.3617 10.8876C20.2838 10.7839 20.2437 10.6566 20.2481 10.5269C20.2481 10.5099 20.2226 10.5042 20.2197 10.5269C20.2224 10.767 20.2859 11.0025 20.4043 11.2114C20.4371 11.359 20.4571 11.5091 20.464 11.6601C20.4773 11.8009 20.5361 11.9335 20.6315 12.0378C20.6357 12.0394 20.6403 12.0398 20.6447 12.0391C20.6492 12.0383 20.6533 12.0364 20.6568 12.0335C20.6603 12.0306 20.6629 12.0269 20.6644 12.0227C20.666 12.0184 20.6664 12.0139 20.6656 12.0094Z" fill="#263238"/>
<path d="M21.0832 11.1547C20.9373 10.9575 20.8268 10.7365 20.7566 10.5015C20.7197 10.3907 20.6941 10.2743 20.66 10.1607C20.6259 10.0471 20.5606 9.89657 20.5265 9.76025H20.501C20.5351 9.90225 20.5464 10.0443 20.5777 10.1919C20.6063 10.3142 20.6423 10.4347 20.6856 10.5526C20.7263 10.6661 20.7776 10.7754 20.8389 10.8792C20.8966 10.9886 20.9758 11.0852 21.0718 11.1632L21.0832 11.1547Z" fill="#263238"/>
<path d="M21.5034 10.3878C21.3506 10.2179 21.2233 10.0265 21.1257 9.81983C21.032 9.61535 20.9525 9.40519 20.8729 9.19503C20.8729 9.18083 20.8417 9.19503 20.8445 9.19503C20.8825 9.42648 20.9483 9.65248 21.0405 9.86811C21.0877 9.96881 21.1458 10.064 21.2137 10.1521C21.2928 10.2454 21.3824 10.3293 21.4807 10.402C21.4807 10.402 21.5148 10.402 21.5034 10.3878Z" fill="#263238"/>
<path d="M21.9436 9.67203C21.8661 9.59895 21.8026 9.51233 21.7562 9.41643C21.6994 9.31419 21.6426 9.20911 21.5915 9.10119C21.5403 8.99327 21.4864 8.89955 21.4381 8.79731C21.3808 8.69692 21.345 8.58569 21.333 8.47071C21.333 8.47071 21.3075 8.45367 21.3046 8.47071C21.2978 8.58546 21.3142 8.70043 21.3529 8.80867C21.3894 8.93015 21.4369 9.04803 21.4949 9.16083C21.5502 9.27186 21.6128 9.37907 21.6823 9.48175C21.7376 9.57906 21.822 9.65655 21.9237 9.70327C21.9436 9.70043 21.9635 9.67203 21.9436 9.67203Z" fill="#263238"/>
<path d="M22.3243 8.70932C22.2589 8.62412 22.1936 8.53608 22.1368 8.4452C22.08 8.35432 22.0232 8.2606 21.9693 8.1612C21.9153 8.0618 21.8585 7.96524 21.8074 7.8772C21.8074 7.86016 21.779 7.8772 21.7818 7.8772C21.8102 7.98786 21.8472 8.09612 21.8926 8.20096C21.9394 8.29897 21.9925 8.39384 22.0516 8.48496C22.1096 8.5838 22.1741 8.67868 22.2447 8.76896C22.3107 8.85958 22.3924 8.93751 22.4861 8.999C22.5032 8.999 22.5202 8.999 22.5145 8.97344C22.4599 8.87937 22.3962 8.7909 22.3243 8.70932Z" fill="#263238"/>
<path d="M23.9629 7.86018C23.8998 7.74575 23.8306 7.63483 23.7556 7.5279C23.6758 7.41947 23.5904 7.3152 23.5 7.2155C23.3293 7.02038 23.1389 6.84336 22.932 6.68726C22.9178 6.68726 22.8979 6.68726 22.9092 6.70714C23.2529 7.09906 23.6136 7.47962 23.9515 7.87438L23.9629 7.86018Z" fill="#263238"/>
<path d="M24.5679 7.22395C24.5005 7.11121 24.4194 7.00723 24.3265 6.91439C24.1284 6.72349 23.9093 6.55579 23.6733 6.41455C23.6591 6.41455 23.642 6.41455 23.6562 6.43727C23.8493 6.61051 24.0481 6.78375 24.2242 6.96835C24.3154 7.05831 24.4017 7.15312 24.4827 7.25235C24.565 7.35175 24.6218 7.46819 24.6957 7.57327H24.7155C24.6899 7.44821 24.6397 7.32948 24.5679 7.22395Z" fill="#263238"/>
<path d="M25.3062 6.99972C25.2441 6.89108 25.1708 6.78923 25.0875 6.69584C24.9278 6.52257 24.7408 6.37673 24.5337 6.26416C24.5195 6.26416 24.5053 6.26416 24.5167 6.28688C24.7022 6.43734 24.8733 6.60467 25.0279 6.78672C25.1074 6.8776 25.1784 6.97132 25.2551 7.07072C25.3318 7.17012 25.3857 7.2752 25.4681 7.35472C25.4262 7.23124 25.372 7.1123 25.3062 6.99972Z" fill="#263238"/>
<path d="M25.86 6.65877C25.7833 6.57641 25.7038 6.49689 25.6215 6.41737C25.5444 6.33612 25.4553 6.26716 25.3573 6.21289C25.3431 6.21289 25.3318 6.21289 25.3431 6.23561C25.4937 6.39749 25.6271 6.55937 25.7862 6.72125C25.9096 6.88179 26.017 7.05395 26.1071 7.23529H26.1241C26.0956 7.02105 26.0037 6.82025 25.86 6.65877Z" fill="#263238"/>
<path d="M26.5075 6.61619C26.3688 6.44328 26.1981 6.29866 26.0048 6.19019C26.0048 6.19019 25.9764 6.20439 26.0048 6.21291C26.1757 6.34169 26.3269 6.49478 26.4535 6.66731C26.5815 6.83743 26.69 7.02127 26.7773 7.21543H26.7972C26.7494 6.99555 26.6502 6.79016 26.5075 6.61619Z" fill="#263238"/>
<path d="M27.28 7.11617C27.2655 7.06983 27.2484 7.02432 27.2289 6.97985C27.1856 6.89109 27.1343 6.80649 27.0755 6.72709C26.9504 6.57025 26.8106 6.4257 26.6581 6.29541C26.6581 6.29541 26.6268 6.29541 26.641 6.31813C26.7873 6.44744 26.917 6.59434 27.0273 6.75549C27.0816 6.83319 27.13 6.91483 27.1721 6.99973C27.192 7.04233 27.2119 7.08493 27.2289 7.12753C27.2425 7.17144 27.2596 7.21418 27.28 7.25533H27.3056C27.3048 7.20785 27.2962 7.16082 27.28 7.11617Z" fill="#263238"/>
<path d="M27.76 7.22396C27.7231 7.15267 27.6824 7.08346 27.6379 7.01664C27.5916 6.95025 27.5413 6.88671 27.4874 6.82636C27.4334 6.76388 27.3766 6.70424 27.3227 6.63892C27.3227 6.63892 27.2886 6.63892 27.3028 6.6588C27.3585 6.72066 27.4089 6.78716 27.4533 6.8576L27.5839 7.05356L27.7117 7.24952C27.7572 7.31768 27.7913 7.39152 27.8424 7.454H27.8623C27.8371 7.37364 27.8028 7.29644 27.76 7.22396Z" fill="#263238"/>
<path d="M18.9815 20.1034C16.4596 24.3634 12.0321 34.9055 13.7389 37.1434C16.0336 40.1339 23.3949 43.8458 25.7691 44.2093C26.7944 44.3684 29.3277 36.618 28.3251 36.1608C27.1153 35.6127 20.393 32.6079 20.3731 32.2047C20.3533 31.8014 21.2905 26.9052 21.5091 22.7162C21.7335 17.8399 20.3675 17.7689 18.9815 20.1034Z" fill="#AD6359"/>
<path d="M26.6439 36.2205C26.6439 36.2205 29.7679 35.7008 31.8041 35.4566C32.9401 35.3202 34.9281 35.2606 35.8171 35.5446C37.1433 35.9678 42.4172 38.5919 41.8066 39.8841C41.2557 41.0542 37.0127 38.2256 37.0127 38.2256C37.0127 38.2256 41.5567 40.6992 40.6252 41.9857C39.6937 43.2722 35.3343 39.4297 35.3343 39.4297C35.3343 39.4297 39.9351 42.0794 38.7763 43.2552C37.8988 44.1441 33.7439 40.8952 33.7439 40.8952C33.7439 40.8952 37.6829 43.1984 36.8224 44.1526C35.8682 45.2063 31.8467 42.4486 31.8467 42.4486C29.2453 44.502 27.1664 44.4168 25.6953 44.1782C25.3403 44.1271 26.6439 36.2205 26.6439 36.2205Z" fill="#AD6359"/>
<path d="M35.499 37.2685C36.0414 37.5525 36.5952 37.8109 37.1121 38.1205C37.629 38.4301 38.1345 38.7765 38.6201 39.1429C39.2633 39.6084 39.8512 40.1458 40.3724 40.7447C39.3699 39.7478 37.5324 38.5777 37.0184 38.2597C36.5043 37.9416 36.0016 37.5979 35.4876 37.277C35.4734 37.2799 35.4848 37.26 35.499 37.2685Z" fill="#263238"/>
<path d="M34.3147 39.1143C34.9934 39.4921 35.6807 39.8414 36.3424 40.2503C37.0041 40.6593 37.592 41.1023 38.2197 41.5454C38.2679 41.5795 38.2196 41.5937 38.1827 41.5624C37.538 41.1393 36.9076 40.7956 36.2544 40.381C35.6012 39.9663 34.9678 39.529 34.3033 39.1314C34.2919 39.1229 34.3033 39.1087 34.3147 39.1143Z" fill="#263238"/>
<path d="M33.0111 40.5173C34.0662 41.0698 35.0616 41.7293 35.9818 42.4854C36.0272 42.5223 35.9818 42.5365 35.9306 42.5024C34.9565 41.8294 34.1954 41.2926 32.9941 40.5542C32.9742 40.5428 32.9884 40.5059 33.0111 40.5173Z" fill="#263238"/>
<path d="M21.1599 27.8283H14.0031C14.0031 27.8283 17.6439 20.8475 19.294 19.0981C21.1485 17.1271 21.7506 18.5074 21.85 21.0861C21.9494 23.6648 21.1599 27.8283 21.1599 27.8283Z" fill="#FFC727"/>
<path opacity="0.1" d="M21.1599 27.8283H14.0031C14.0031 27.8283 17.6439 20.8475 19.294 19.0981C21.1485 17.1271 21.7506 18.5074 21.85 21.0861C21.9494 23.6648 21.1599 27.8283 21.1599 27.8283Z" fill="black"/>
<path d="M20.9809 26.6156C20.731 26.5786 18.5016 26.5644 18.016 26.573C17.5303 26.5815 15.548 26.59 15.0482 26.6411C15.0436 26.6411 15.0393 26.6429 15.0361 26.6461C15.0329 26.6493 15.0311 26.6536 15.0311 26.6582C15.0311 26.6627 15.0329 26.667 15.0361 26.6702C15.0393 26.6734 15.0436 26.6752 15.0482 26.6752C15.548 26.7206 17.5474 26.715 18.0415 26.7178C18.5357 26.7206 20.7424 26.6866 20.9866 26.6468C21.0036 26.644 20.998 26.6184 20.9809 26.6156Z" fill="#263238"/>
<path d="M49.7614 24.7241C50.0454 25.934 51.0309 27.5868 50.9372 28.5013C50.9226 28.7281 50.8351 28.9442 50.6877 29.1172C50.5403 29.2902 50.3409 29.4109 50.1193 29.4612C50.1193 29.4612 50.9088 30.1059 50.6873 30.9238C50.5737 31.3442 49.7983 31.5316 49.7983 31.5316C49.7983 31.5316 50.4089 32.0769 50.1675 32.7897C49.9716 33.3577 49.2275 33.46 49.2275 33.46C49.2275 33.46 49.5683 34.2552 49.1849 34.772C48.4067 35.82 43.3714 34.6812 43.0136 32.6506C42.846 31.7048 44.0615 32.0485 44.0615 32.0485C44.0615 32.0485 42.4342 31.1312 42.6415 30.086C42.8489 29.0409 44.3995 29.5862 44.3995 29.5862C44.3995 29.5862 42.8318 28.6831 43.1556 27.6209C43.4793 26.5588 44.9533 27.3369 44.9533 27.3369C44.9533 27.3369 44.0047 26.3259 44.4421 25.5704C45.1606 24.3237 47.319 26.5786 48.4863 26.5673L48.9861 24.7923L49.7614 24.7241Z" fill="#AD6359"/>
<path d="M50.3068 26.5191C50.1477 25.349 51.031 25.0621 51.1957 23.9375C51.3803 22.6851 49.8524 22.6765 49.0032 24.727L48.4863 26.5645L50.3068 26.5191Z" fill="#AD6359"/>
<path d="M49.1082 33.5026C49.112 33.5026 49.1156 33.5041 49.1182 33.5068C49.1209 33.5094 49.1224 33.5131 49.1224 33.5168C49.1224 33.5206 49.1209 33.5242 49.1182 33.5269C49.1156 33.5295 49.112 33.531 49.1082 33.531C47.2931 33.5652 45.5104 33.0472 43.9962 32.0457C43.9479 32.0145 43.982 31.9207 44.0416 31.9491C45.6464 32.7094 47.3531 33.2326 49.1082 33.5026Z" fill="#263238"/>
<path d="M49.8183 31.5544C49.8382 31.5544 49.8353 31.5913 49.8183 31.5913C48.0177 31.6112 45.8593 30.9836 44.3371 29.6261C44.2831 29.5806 44.2831 29.4869 44.3371 29.5352C45.4248 30.3616 48.1654 31.3272 49.8183 31.5544Z" fill="#263238"/>
<path d="M44.8881 27.2006C46.3989 28.4473 48.1597 29.0806 50.0597 29.4726C50.0824 29.4726 50.0739 29.5123 50.0597 29.5123C49.0771 29.5748 47.8928 29.1971 46.9953 28.8251C46.1568 28.4958 45.4187 27.9535 44.854 27.2517C44.8085 27.2261 44.8426 27.175 44.8881 27.2006Z" fill="#263238"/>
<path d="M42.5507 18.2148L55.3307 17.9933C55.9809 17.9852 56.6256 18.1129 57.2237 18.3682C57.8217 18.6234 58.36 19.0007 58.804 19.4758C60.7125 21.5035 62.442 24.8348 64.0892 29.66L51.3092 29.8815C49.662 25.0535 47.9325 21.7279 46.024 19.7001C45.5801 19.2246 45.042 18.847 44.4439 18.5912C43.8459 18.3355 43.2011 18.2073 42.5507 18.2148Z" fill="#EBEBEB"/>
<path d="M51.9653 27.8482C53.4649 27.7914 54.9672 27.7715 56.4667 27.7346C57.9662 27.6977 59.4658 27.6863 60.9653 27.6891C59.4658 27.7459 57.9662 27.7658 56.4667 27.8056C54.9672 27.8453 53.4677 27.8482 51.9653 27.8482Z" fill="#A6A6A6"/>
<path d="M61.6441 27.9277C61.5759 27.7516 61.5049 27.5698 61.4396 27.3824V27.3483H61.4737L62.0899 27.3142H62.1183V27.3398L62.2916 27.9078V27.9447H62.2547C62.0331 27.939 61.8258 27.9333 61.6441 27.9277ZM61.6441 27.9277C61.8571 27.9106 62.0587 27.8936 62.2603 27.8851L62.2319 27.9191L62.0473 27.3511L62.0814 27.3739C61.8769 27.3739 61.6725 27.3739 61.4651 27.3909L61.4907 27.3568C61.5305 27.5443 61.5759 27.7317 61.6441 27.9277Z" fill="#A6A6A6"/>
<path d="M61.9905 27.7034C61.9183 27.6504 61.8491 27.5935 61.7832 27.533H61.8286C61.7665 27.7278 61.6796 27.9139 61.5702 28.0868C61.6169 27.89 61.6864 27.6993 61.7775 27.5188L61.7974 27.479L61.823 27.5102C61.8826 27.5642 61.928 27.6295 61.9905 27.7034Z" fill="#FFC727"/>
<path d="M51.4995 26.5844C52.999 26.5276 54.5014 26.5106 56.0009 26.4708C57.5004 26.4311 59 26.4282 60.508 26.4282C59.0085 26.485 57.509 26.5049 56.0094 26.5418C54.5099 26.5787 53.0019 26.5901 51.4995 26.5844Z" fill="#A6A6A6"/>
<path d="M61.1641 26.6753C61.0959 26.5021 61.0249 26.3203 60.9596 26.13V26.0988H60.9937L61.61 26.0647H61.6384V26.0931L61.8116 26.6611V26.698H61.7747C61.5702 26.6895 61.36 26.6838 61.1641 26.6753ZM61.1641 26.6753L61.7804 26.6327L61.752 26.6696L61.5674 26.1016L61.6014 26.1272C61.397 26.1272 61.1925 26.1272 60.9852 26.1442L61.0107 26.1101C61.076 26.2947 61.1101 26.4822 61.1641 26.6753Z" fill="#A6A6A6"/>
<path d="M61.5247 26.4508C61.4519 26.3996 61.3827 26.3436 61.3174 26.2832H61.3628C61.3001 26.4779 61.2133 26.6639 61.1044 26.837C61.1506 26.6401 61.2202 26.4494 61.3117 26.269L61.3316 26.2292L61.3571 26.2605C61.4168 26.3088 61.4707 26.3798 61.5247 26.4508Z" fill="#FFC727"/>
<path d="M51.0338 25.3348C52.5333 25.278 54.0357 25.2609 55.5352 25.2212C57.0347 25.1814 58.5342 25.1729 60.0338 25.1786C58.5342 25.2354 57.0347 25.2524 55.5352 25.2922C54.0357 25.3319 52.5362 25.3405 51.0338 25.3348Z" fill="#A6A6A6"/>
<path d="M60.6983 25.4255C60.6301 25.2523 60.5591 25.0677 60.4938 24.8803V24.849H60.508C60.7153 24.832 60.9198 24.8263 61.1243 24.8149H61.1526V24.8405L61.3259 25.4085V25.4454H61.289C61.1015 25.4397 60.8942 25.4312 60.6983 25.4255ZM60.6983 25.4255C60.9113 25.4085 61.1129 25.3915 61.3145 25.3829L61.2861 25.4199L61.1015 24.8519L61.1356 24.8774C60.9311 24.8774 60.7267 24.8916 60.5193 24.8916L60.5449 24.8575C60.5989 25.045 60.6443 25.2296 60.6983 25.4255Z" fill="#A6A6A6"/>
<path d="M61.059 25.2011C60.9868 25.1482 60.9176 25.0913 60.8517 25.0307H60.8971C60.8353 25.2302 60.7485 25.4211 60.6387 25.5987C60.6849 25.4018 60.7545 25.2111 60.846 25.0307L60.8659 24.991L60.8914 25.0222C60.9511 25.0591 61.005 25.1301 61.059 25.2011Z" fill="#FFC727"/>
<path d="M50.4487 24.0852C51.9483 24.0284 53.4478 24.0086 54.9473 23.9716C56.4468 23.9347 57.9492 23.9234 59.4487 23.9262C57.9492 23.983 56.4496 24.0029 54.9501 24.0426C53.4506 24.0824 51.9511 24.0881 50.4487 24.0852Z" fill="#A6A6A6"/>
<path d="M60.1133 24.1759C60.0451 23.9999 59.9741 23.8181 59.9088 23.6307V23.5966H59.94C60.1445 23.5824 60.3519 23.5739 60.5563 23.5625H60.5819V23.5881L60.7551 24.1561V24.1901H60.7182C60.508 24.1873 60.3092 24.1816 60.1133 24.1759ZM60.1133 24.1759C60.3263 24.1589 60.5279 24.1419 60.7267 24.1333L60.7012 24.1674L60.5137 23.5994L60.5506 23.6221C60.3462 23.6221 60.1389 23.6392 59.9344 23.6392L59.9571 23.6051C60.011 23.7925 60.0593 23.98 60.1133 24.1759Z" fill="#A6A6A6"/>
<path d="M60.4739 23.9517C60.4017 23.8987 60.3325 23.8418 60.2666 23.7813H60.312C60.2475 23.9752 60.1607 24.161 60.0536 24.3351C60.1003 24.1383 60.1698 23.9476 60.2609 23.7671L60.2808 23.7273L60.3064 23.7585C60.366 23.8097 60.42 23.8721 60.4739 23.9517Z" fill="#FFC727"/>
<path d="M49.7955 22.8326C51.2951 22.7758 52.7946 22.7588 54.2941 22.719C55.7936 22.6792 57.2931 22.6736 58.7955 22.6764C57.296 22.7332 55.7936 22.7531 54.2941 22.79C52.7946 22.8269 51.2951 22.8383 49.7955 22.8326Z" fill="#A6A6A6"/>
<path d="M59.4572 22.9236C59.3918 22.7504 59.318 22.5686 59.2527 22.3783V22.3471H59.2896C59.4941 22.3329 59.6986 22.3243 59.903 22.313H59.9314V22.3414L60.1019 22.9094V22.9463H60.0649C59.8633 22.9378 59.656 22.9321 59.4572 22.9236ZM59.4572 22.9236L60.0734 22.881L60.0479 22.9179L59.8604 22.3499L59.8945 22.3755C59.69 22.3755 59.4856 22.3897 59.2783 22.3925L59.3038 22.3584C59.372 22.543 59.406 22.7362 59.4572 22.9236Z" fill="#A6A6A6"/>
<path d="M59.8179 22.7021C59.7479 22.6491 59.6797 22.5923 59.6134 22.5317H59.6589C59.5945 22.7262 59.5068 22.9122 59.3976 23.0855C59.4438 22.8886 59.5134 22.6979 59.6049 22.5175L59.6248 22.4778L59.6532 22.509C59.7114 22.5705 59.7664 22.635 59.8179 22.7021Z" fill="#FFC727"/>
<path d="M48.952 21.5177C50.4515 21.4609 51.9511 21.4438 53.4534 21.404C54.9558 21.3643 56.4525 21.3558 57.952 21.3615C56.4525 21.4183 54.9529 21.4353 53.4534 21.475C51.9539 21.5148 50.4544 21.5233 48.952 21.5177Z" fill="#A6A6A6"/>
<path d="M58.6166 21.6001C58.5484 21.4269 58.4774 21.2423 58.4121 21.0548V21.0236H58.4462C58.6507 21.0065 58.858 21.0009 59.0625 20.9895H59.0909V21.0151L59.2641 21.5831V21.62H59.2272C59.0199 21.6228 58.804 21.6143 58.6166 21.6001ZM58.6166 21.6001C58.8296 21.5831 59.0312 21.566 59.23 21.5575L59.2045 21.5944L59.0199 21.0264L59.054 21.0491C58.8495 21.0491 58.6421 21.0662 58.4377 21.0662L58.4632 21.0321C58.52 21.2281 58.5626 21.4127 58.6166 21.6001Z" fill="#A6A6A6"/>
<path d="M58.9772 21.3843C58.905 21.3313 58.8358 21.2744 58.7699 21.2139H58.8153C58.7532 21.4087 58.6663 21.5949 58.5569 21.7677C58.6029 21.5707 58.6725 21.38 58.7642 21.1997L58.7841 21.1599L58.8096 21.1912C58.8689 21.2525 58.9248 21.317 58.9772 21.3843Z" fill="#FFC727"/>
<path d="M47.958 20.2029C49.4575 20.1461 50.957 20.1262 52.4566 20.0864C53.9561 20.0467 55.4584 20.041 56.958 20.0438C55.4584 20.1006 53.9589 20.1205 52.4594 20.1574C50.9599 20.1944 49.4575 20.2057 47.958 20.2029Z" fill="#A6A6A6"/>
<path d="M57.6226 20.2908C57.5544 20.1175 57.4834 19.9358 57.4181 19.7483V19.7143H57.4522C57.6566 19.7143 57.864 19.6915 58.0685 19.6802H58.094V19.7057L58.2672 20.2737V20.3107H58.236C58.0259 20.305 57.8185 20.2993 57.6226 20.2908ZM57.6226 20.2908C57.8356 20.2908 58.0372 20.2595 58.236 20.251L58.2105 20.2851L58.023 19.7171L58.0599 19.7427L57.4436 19.7597L57.4664 19.7256C57.5203 19.9102 57.5686 20.0977 57.6226 20.2908Z" fill="#A6A6A6"/>
<path d="M57.9805 20.0693C57.9104 20.0144 57.8423 19.9576 57.776 19.8989H57.8214C57.7579 20.0977 57.6711 20.2884 57.563 20.4669C57.6097 20.2701 57.6792 20.0795 57.7703 19.8989L57.7902 19.8591L57.8157 19.8904C57.8737 19.9471 57.9287 20.0068 57.9805 20.0693Z" fill="#FFC727"/>
<path d="M46.4159 18.8851C47.9154 18.8283 49.4149 18.8112 50.9145 18.7715C52.414 18.7317 53.9163 18.7232 55.4159 18.7289C53.9163 18.7857 52.4168 18.8027 50.9173 18.8425C49.4178 18.8822 47.9154 18.8908 46.4159 18.8851Z" fill="#A6A6A6"/>
<path d="M56.0805 18.9761C56.0123 18.8028 55.9413 18.6211 55.876 18.4308V18.3996H55.9101C56.1145 18.3854 56.3219 18.3768 56.5263 18.3655H56.532V18.391L56.7053 18.959V18.996H56.6683C56.4837 18.9903 56.2764 18.9818 56.0805 18.9761ZM56.0805 18.9761C56.2935 18.959 56.4951 18.942 56.6939 18.9335L56.6683 18.9704L56.4809 18.4024L56.5178 18.428L55.9015 18.445L55.9243 18.4081C55.9782 18.5955 56.0265 18.7801 56.0805 18.9761Z" fill="#A6A6A6"/>
<path d="M56.4382 18.7602C56.3682 18.7072 56.3 18.6504 56.2338 18.5898H56.2792C56.2149 18.7883 56.1282 18.9789 56.0208 19.1578C56.067 18.9609 56.1366 18.7702 56.2281 18.5898L56.2479 18.55L56.2735 18.5813C56.3315 18.638 56.3865 18.6977 56.4382 18.7602Z" fill="#FFC727"/>
<path d="M42.6813 18.2149L55.4613 17.9934C53.7828 18.0218 52.1158 19.0414 51.0309 20.5494C48.259 24.4033 45.8876 36.3739 45.774 43.7181C45.7343 46.2258 46.7425 50.571 47.8132 55.1718C49.2332 61.2324 50.815 68.0995 50.5168 72.7571C50.2925 76.2645 49.2502 80.4734 48.1483 84.9265C47.1912 88.7804 46.2057 92.7678 45.6462 96.6699C44.9845 101.305 45.5497 106.789 46.805 107.948C47.1364 108.276 47.5297 108.535 47.9621 108.711C48.3945 108.886 48.8574 108.975 49.324 108.97L36.544 109.194C36.0779 109.198 35.6156 109.11 35.1837 108.935C34.7519 108.759 34.359 108.5 34.0278 108.172C32.7697 107.013 32.2045 101.529 32.8662 96.8914C33.4342 92.9921 34.414 89.0048 35.3683 85.1509C36.4702 80.6949 37.5125 76.4889 37.7397 72.9815C38.0237 68.3239 36.4418 61.4539 35.0332 55.3934C33.9625 50.7954 32.9543 46.4474 32.994 43.9425C33.1076 36.5982 35.479 24.6305 38.2509 20.7709C39.3358 19.2629 41.0028 18.2462 42.6813 18.2149Z" fill="#DBDBDB"/>
<path d="M56.1003 93.8241L68.8803 93.6025C66.1341 93.6508 62.9163 97.2463 59.5083 101.055C56.0322 104.934 52.4651 108.919 49.3326 108.973L36.5526 109.197C39.6766 109.14 43.2522 105.158 46.7283 101.276C50.1335 97.4706 53.3541 93.8723 56.1003 93.8241Z" fill="#C7C7C7"/>
<path d="M40.1453 108.504C41.6448 108.447 43.1443 108.427 44.6438 108.388C46.1433 108.348 47.6429 108.339 49.1424 108.345C47.6429 108.402 46.1433 108.419 44.6438 108.459C43.1443 108.498 41.6448 108.504 40.1453 108.504Z" fill="#A6A6A6"/>
<path d="M49.5229 108.601C49.5968 108.422 49.6678 108.229 49.7501 108.033V108.019H49.7672C49.9887 108.019 50.2102 108.019 50.4317 108.019H50.4885L50.463 108.07L50.196 108.638V108.655H50.1761L49.5229 108.601ZM49.5229 108.601H50.1818L50.1563 108.618L50.409 108.05L50.4403 108.101C50.2187 108.101 49.9972 108.101 49.7757 108.101L49.8013 108.087L49.5229 108.601Z" fill="#A6A6A6"/>
<path d="M50.1137 108.353C50.0796 108.304 50.0492 108.251 50.0228 108.197H50.0682C49.9028 108.388 49.7203 108.563 49.5229 108.72C49.6729 108.515 49.8422 108.325 50.0285 108.152L50.0625 108.121V108.163C50.0851 108.225 50.1022 108.289 50.1137 108.353Z" fill="#FFC727"/>
<path d="M41.5369 107.456C43.0364 107.399 44.5359 107.379 46.0354 107.34C47.5349 107.3 49.0345 107.291 50.5368 107.297C49.0373 107.354 47.5378 107.371 46.0383 107.411C44.5387 107.45 43.0364 107.459 41.5369 107.456Z" fill="#A6A6A6"/>
<path d="M50.9174 107.544C50.9884 107.365 51.0594 107.172 51.1446 106.976V106.962H51.1616C51.3831 106.962 51.6046 106.962 51.8262 106.962H51.883L51.8602 107.013L51.5933 107.581V107.598H51.5762L50.9174 107.544ZM50.9174 107.544H51.5734L51.5478 107.561L51.8006 106.993L51.8318 107.044C51.6103 107.044 51.3888 107.044 51.1673 107.044L51.1928 107.03L50.9174 107.544Z" fill="#A6A6A6"/>
<path d="M51.5052 107.297C51.4722 107.247 51.4419 107.195 51.4144 107.141H51.4626C51.2972 107.331 51.1147 107.506 50.9174 107.663C51.0663 107.458 51.2346 107.268 51.42 107.095L51.4541 107.064V107.107C51.4766 107.169 51.4937 107.232 51.5052 107.297Z" fill="#FFC727"/>
<path d="M42.9285 106.4C44.428 106.343 45.9275 106.323 47.427 106.283C48.9265 106.243 50.4289 106.235 51.9284 106.241C50.4289 106.297 48.9294 106.314 47.4299 106.354C45.9303 106.394 44.4308 106.402 42.9285 106.4Z" fill="#A6A6A6"/>
<path d="M52.309 106.488C52.3828 106.309 52.451 106.116 52.5362 105.92V105.906H52.556C52.7776 105.906 52.9991 105.906 53.2206 105.906H53.2774L53.2518 105.957L52.9849 106.525V106.542H52.9678L52.309 106.488ZM52.309 106.488H52.965L52.9394 106.505L53.1922 105.937L53.2263 105.988C53.0048 105.988 52.7832 105.988 52.5617 105.988L52.5844 105.974L52.309 106.488Z" fill="#A6A6A6"/>
<path d="M44.1694 105.343C45.6661 105.286 47.1685 105.267 48.668 105.227C50.1675 105.187 51.667 105.179 53.1666 105.184C51.667 105.241 50.1675 105.258 48.668 105.298C47.1685 105.338 45.669 105.346 44.1694 105.343Z" fill="#A6A6A6"/>
<path d="M53.5471 105.431C53.621 105.252 53.692 105.059 53.7743 104.863V104.849H53.7914C54.0129 104.849 54.2344 104.849 54.4559 104.849H54.5127L54.4872 104.9L54.2202 105.468V105.485H54.2003L53.5471 105.431ZM53.5471 105.431H54.206L54.1804 105.448L54.4332 104.88L54.4644 104.931C54.2429 104.931 54.0214 104.931 53.7999 104.931L53.8226 104.917L53.5471 105.431Z" fill="#A6A6A6"/>
<path d="M45.2998 104.287C46.7993 104.23 48.3017 104.21 49.8012 104.17C51.3007 104.13 52.8002 104.122 54.2998 104.125C52.8002 104.184 51.3007 104.201 49.8012 104.241C48.3017 104.281 46.8022 104.289 45.2998 104.287Z" fill="#A6A6A6"/>
<path d="M54.6803 104.375C54.7541 104.196 54.8251 104.003 54.9075 103.807V103.792H54.9274C55.1489 103.792 55.3704 103.792 55.5919 103.792H55.6487L55.6232 103.844L55.3562 104.412V104.429H55.3392L54.6803 104.375ZM54.6803 104.375H55.3392L55.3136 104.392L55.5664 103.824L55.5976 103.875C55.3761 103.875 55.1546 103.875 54.9331 103.875L54.9558 103.861L54.6803 104.375Z" fill="#A6A6A6"/>
<path d="M46.2256 103.23C47.7251 103.173 49.2246 103.154 50.7241 103.114C52.2237 103.074 53.726 103.066 55.2255 103.068C53.726 103.128 52.2265 103.145 50.727 103.185C49.2275 103.225 47.7279 103.233 46.2256 103.23Z" fill="#A6A6A6"/>
<path d="M55.6062 103.318C55.68 103.139 55.7482 102.946 55.8334 102.75V102.736H55.8533C56.0748 102.736 56.2963 102.736 56.5178 102.736H56.5746L56.5491 102.784L56.2821 103.352V103.369H56.2651L55.6062 103.318ZM55.6062 103.318H56.2622L56.2367 103.335L56.4894 102.767L56.5235 102.818C56.302 102.818 56.0805 102.818 55.859 102.818L55.8817 102.804L55.6062 103.318Z" fill="#A6A6A6"/>
<path d="M47.2679 102.174C48.7675 102.117 50.267 102.097 51.7665 102.057C53.266 102.018 54.7684 102.009 56.2679 102.012C54.7684 102.072 53.2689 102.089 51.7693 102.128C50.2698 102.168 48.7703 102.177 47.2679 102.174Z" fill="#A6A6A6"/>
<path d="M56.6484 102.256C56.7223 102.077 56.7904 101.884 56.8756 101.688H56.8955C57.117 101.688 57.3386 101.688 57.5601 101.688H57.6169L57.5913 101.737L57.3244 102.305V102.322H57.3073L56.6484 102.256ZM56.6484 102.256H57.3045L57.2789 102.273L57.5317 101.705L57.5658 101.756C57.3442 101.756 57.1227 101.756 56.9012 101.756L56.9239 101.742L56.6484 102.256Z" fill="#A6A6A6"/>
<path d="M48.2393 101.12C49.7388 101.063 51.2383 101.043 52.7378 101.004C54.2373 100.964 55.7397 100.955 57.2392 100.958C55.7397 101.018 54.2402 101.035 52.7407 101.075C51.2411 101.114 49.7388 101.12 48.2393 101.12Z" fill="#A6A6A6"/>
<path d="M57.6198 101.205C57.6908 101.026 57.7618 100.833 57.847 100.637V100.623H57.864C58.0855 100.623 58.3099 100.623 58.5314 100.623H58.5854L58.5626 100.671L58.2957 101.239V101.256H58.2786L57.6198 101.205ZM57.6198 101.205H58.2758L58.2502 101.222L58.503 100.654L58.5371 100.705C58.3127 100.705 58.0912 100.705 57.8697 100.705L57.8952 100.691L57.6198 101.205Z" fill="#A6A6A6"/>
<path d="M49.1479 100.061C50.6446 100.004 52.147 99.9841 53.6465 99.9444C55.146 99.9046 56.6455 99.8961 58.1451 99.8989C56.6455 99.9586 55.146 99.9756 53.6465 100.015C52.147 100.055 50.6446 100.064 49.1479 100.061Z" fill="#A6A6A6"/>
<path d="M58.52 100.149C58.5939 99.9699 58.6649 99.7768 58.7472 99.5808H58.7643C58.9858 99.5808 59.2073 99.5808 59.4288 99.5808H59.4856L59.4601 99.6291L59.1931 100.197V100.214H59.1732L58.52 100.149ZM58.52 100.149H59.1789H59.1533L59.4061 99.5808L59.4373 99.6319C59.2158 99.6319 58.9943 99.6319 58.7728 99.6319L58.7955 99.6177L58.52 100.149Z" fill="#A6A6A6"/>
<path d="M50.1449 99.0044C51.6444 98.9476 53.1439 98.9277 54.6435 98.888C56.143 98.8482 57.6425 98.8397 59.1449 98.8425C57.6453 98.9022 56.143 98.9192 54.6435 98.959C53.1439 98.9987 51.6444 99.0073 50.1449 99.0044Z" fill="#A6A6A6"/>
<path d="M59.5226 99.0924C59.5964 98.9134 59.6674 98.7203 59.7498 98.5244V98.5073H59.7668C59.9883 98.5073 60.2099 98.5073 60.4314 98.5073H60.4882L60.4655 98.5556L60.1985 99.1236V99.1406H60.1786L59.5226 99.0924ZM59.5226 99.0924H60.1815L60.1559 99.1066L60.4087 98.5386L60.4399 98.5897C60.2184 98.5897 59.9969 98.5897 59.7753 98.5897L59.8009 98.5755L59.5226 99.0924Z" fill="#A6A6A6"/>
<path d="M50.9713 97.9478C52.4708 97.891 53.9704 97.8711 55.4699 97.8313C56.9694 97.7916 58.4717 97.7831 59.9713 97.7859C58.4717 97.8455 56.9722 97.8626 55.4727 97.9023C53.9732 97.9421 52.4737 97.9506 50.9713 97.9478Z" fill="#A6A6A6"/>
<path d="M60.3518 98.033C60.4256 97.857 60.4938 97.6638 60.579 97.465V97.448H60.5989C60.8204 97.448 61.0419 97.448 61.2634 97.448H61.3202L61.2947 97.4963L61.0277 98.0643V98.0813H61.0107L60.3518 98.033ZM60.3518 98.033H61.0078H60.9823L61.235 97.465L61.2691 97.5162C61.0476 97.5162 60.8261 97.5162 60.6046 97.5162H60.6273L60.3518 98.033Z" fill="#A6A6A6"/>
<path d="M51.988 96.8914C53.4876 96.8346 54.9899 96.8147 56.4894 96.7749C57.989 96.7352 59.4885 96.7267 60.988 96.7295C59.4885 96.7891 57.989 96.8062 56.4894 96.8459C54.9899 96.8857 53.4961 96.8942 51.988 96.8914Z" fill="#A6A6A6"/>
<path d="M61.3743 96.9766C61.4481 96.8006 61.5191 96.6074 61.6015 96.4086V96.3916H61.6185C61.84 96.3916 62.0616 96.3916 62.2831 96.3916H62.3399L62.3143 96.4399L62.0474 97.0079V97.0249H62.0303L61.3743 96.9766ZM61.3743 96.9766H62.0331L62.0076 96.9908L62.2604 96.4228L62.2916 96.474C62.0701 96.474 61.8486 96.474 61.627 96.474L61.6497 96.4598L61.3743 96.9766Z" fill="#A6A6A6"/>
<path d="M53.2262 95.835C54.7257 95.7782 56.2252 95.7583 57.7248 95.7185C59.2243 95.6788 60.7238 95.6703 62.2262 95.6731C60.7266 95.7327 59.2243 95.7498 57.7248 95.7895C56.2252 95.8293 54.7257 95.8378 53.2262 95.835Z" fill="#A6A6A6"/>
<path d="M62.6039 95.92C62.6777 95.7439 62.7487 95.5508 62.8311 95.352V95.335H62.8481C63.0696 95.335 63.2912 95.335 63.5127 95.335H63.5695L63.5468 95.3832L63.2798 95.9512V95.9683H63.2599L62.6039 95.92ZM62.6039 95.92H63.2628H63.2372L63.49 95.352L63.5212 95.4031C63.2997 95.4031 63.0782 95.4031 62.8566 95.4031H62.8822L62.6039 95.92Z" fill="#A6A6A6"/>
<path d="M54.3765 94.7783C55.876 94.7215 57.3755 94.7017 58.875 94.6619C60.3745 94.6221 61.8741 94.6136 63.3736 94.6165C61.8769 94.6761 60.3745 94.6931 58.875 94.7329C57.3755 94.7727 55.876 94.7812 54.3765 94.7783Z" fill="#A6A6A6"/>
<path d="M63.7542 94.8721C63.828 94.6961 63.899 94.5029 63.9814 94.3041V94.2871H63.9984C64.2199 94.2871 64.4414 94.2871 64.663 94.2871H64.7197L64.697 94.3382L64.4301 94.9062V94.9233H64.4102L63.7542 94.8721ZM63.7542 94.8721H64.413L64.3875 94.8863L64.6402 94.3183L64.6715 94.3695C64.45 94.3695 64.2284 94.3695 64.0069 94.3695L64.0325 94.3553L63.7542 94.8721Z" fill="#A6A6A6"/>
<path d="M56.0946 93.83L68.8746 93.6084C72.5126 93.5431 74.7818 97.6668 76.9771 101.651C78.9026 105.147 80.7231 108.453 83.2706 108.408L70.4906 108.632C67.9346 108.675 66.1226 105.372 64.1971 101.876C62.0018 97.8883 59.7326 93.7675 56.0946 93.83Z" fill="#EBEBEB"/>
<path d="M81.5525 105.573L94.3325 105.349C91.5521 105.397 89.868 106.201 88.2407 106.988C86.761 107.7 85.3609 108.371 83.2763 108.408L70.4963 108.632C72.5837 108.595 73.981 107.925 75.4607 107.212C77.088 106.431 78.7721 105.622 81.5525 105.573Z" fill="#C7C7C7"/>
<path d="M74.9919 108.052C76.3012 107.996 77.6133 107.976 78.9225 107.936C80.2317 107.896 81.5438 107.888 82.8559 107.893C81.5467 107.95 80.2346 107.967 78.9253 108.007C77.6161 108.047 76.3012 108.055 74.9919 108.052Z" fill="#A6A6A6"/>
<path d="M83.228 108.141C83.299 107.962 83.37 107.769 83.4552 107.573V107.558H83.4723C83.6938 107.558 83.9153 107.558 84.1368 107.558H84.1936L84.1709 107.609L83.9039 108.177V108.195H83.8869L83.228 108.141ZM83.228 108.141H83.8841L83.8585 108.158L84.1113 107.59L84.1425 107.641C83.921 107.641 83.6995 107.641 83.4779 107.641L83.5035 107.627L83.228 108.141Z" fill="#A6A6A6"/>
<path d="M77.0709 107.195C78.4284 107.138 79.786 107.121 81.1435 107.081C82.501 107.042 83.8585 107.033 85.2189 107.036C83.8614 107.093 82.501 107.113 81.1435 107.152C79.786 107.192 78.4284 107.201 77.0709 107.195Z" fill="#A6A6A6"/>
<path d="M85.5966 107.283C85.6704 107.107 85.7414 106.914 85.8238 106.715V106.698H85.8408C86.0623 106.698 86.2838 106.698 86.5054 106.698H86.5622L86.5394 106.749L86.2725 107.317V107.337H86.2526L85.5966 107.283ZM85.5966 107.283H86.2554L86.2299 107.297L86.4826 106.729L86.5139 106.778H85.8493L85.8749 106.76L85.5966 107.283Z" fill="#A6A6A6"/>
<path d="M79.3798 106.4C80.7373 106.343 82.0948 106.323 83.4523 106.283C84.8098 106.243 86.1674 106.235 87.5277 106.241C86.1702 106.297 84.8127 106.314 83.4552 106.354C82.0976 106.394 80.7373 106.402 79.3798 106.4Z" fill="#A6A6A6"/>
<path d="M87.9083 106.488C87.9793 106.309 88.0503 106.116 88.1355 105.92V105.906H88.1526C88.3741 105.906 88.5956 105.906 88.8171 105.906H88.8739L88.8512 105.957L88.5842 106.525V106.542H88.5672L87.9083 106.488ZM87.9083 106.488H88.5644L88.5388 106.505L88.7916 105.937L88.8228 105.988C88.6013 105.988 88.3798 105.988 88.1582 105.988L88.1838 105.974L87.9083 106.488Z" fill="#A6A6A6"/>
<path d="M81.5496 105.573L94.3296 105.349C95.6757 105.326 102.523 108.385 102.813 108.515L90.0326 108.737C89.743 108.606 82.8986 105.55 81.5496 105.573Z" fill="#EBEBEB"/>
<path d="M47.5207 7.89429C47.3977 9.07841 46.948 10.205 46.2217 11.1483C45.4954 12.0916 44.5212 12.8144 43.4078 13.236C42.2945 13.6576 41.0859 13.7613 39.9169 13.5357C38.748 13.3101 37.6648 12.764 36.7884 11.9583L33.5735 12.4298L35.1809 9.65226C34.8129 8.74801 34.6558 7.77177 34.7215 6.79771C34.7873 5.82365 35.0742 4.87739 35.5605 4.03082C36.0467 3.18426 36.7196 2.45966 37.5278 1.91207C38.336 1.36448 39.2585 1.0083 40.225 0.870612C41.1915 0.732919 42.1767 0.817326 43.1057 1.11742C44.0347 1.41752 44.8831 1.9254 45.5864 2.6025C46.2898 3.2796 46.8295 4.10809 47.1647 5.02503C47.4998 5.94197 47.6216 6.92324 47.5207 7.89429Z" fill="white"/>
<path d="M47.5207 7.89426C47.3946 9.07847 46.9457 10.2053 46.2228 11.1517C46.0472 11.3865 45.8576 11.6103 45.6548 11.822C45.4411 12.0258 45.2143 12.2155 44.9761 12.39C44.5026 12.7451 43.9816 13.0319 43.4283 13.242C42.8734 13.458 42.2914 13.5966 41.6987 13.6538C41.4022 13.6807 41.1042 13.6864 40.8069 13.6708C40.5088 13.6633 40.2116 13.633 39.918 13.5799C38.7333 13.3621 37.6328 12.8182 36.7401 12.0094L36.8139 12.0321L33.6047 12.5263L33.3718 12.5604L33.4883 12.3559L35.0872 9.57271V9.68347C34.7092 8.76284 34.5481 7.76755 34.6166 6.77469C34.6851 5.78183 34.9811 4.81805 35.4819 3.95802C35.9825 3.10123 36.6698 2.36832 37.4927 1.81382C38.5169 1.13307 39.7136 0.757383 40.9431 0.730549C42.1727 0.703716 43.3846 1.02683 44.4376 1.66226C45.4906 2.29768 46.3413 3.21925 46.8907 4.31959C47.4401 5.41992 47.6654 6.65372 47.5406 7.87722L47.5207 7.89426ZM47.5207 7.89426C47.6234 6.92697 47.5025 5.94902 47.1675 5.0358C46.8325 4.12258 46.2923 3.29849 45.5884 2.62704C44.8846 1.9556 44.036 1.45474 43.108 1.16307C42.1801 0.871407 41.1975 0.796725 40.2361 0.944782C39.2815 1.08961 38.3729 1.45206 37.5807 2.0041C36.797 2.55605 36.1421 3.27105 35.6609 4.10002C35.1876 4.93214 34.909 5.8607 34.846 6.81594C34.783 7.77117 34.9374 8.72826 35.2973 9.6153L35.3201 9.6721L35.2888 9.72606L33.6729 12.4979L33.5564 12.3303L36.7741 11.8788H36.8196L36.8508 11.9072C37.7089 12.7109 38.774 13.2597 39.9265 13.4919C40.214 13.5498 40.5055 13.5849 40.7984 13.597C41.0906 13.6183 41.3839 13.6183 41.676 13.597C42.2587 13.5501 42.8321 13.423 43.38 13.2193C43.9348 13.018 44.4572 12.7367 44.9306 12.3843C45.1678 12.2084 45.3944 12.0187 45.6094 11.8163C45.812 11.6075 46.0017 11.3865 46.1774 11.1546C46.9181 10.213 47.3832 9.08438 47.5207 7.89426Z" fill="#263238"/>
<path d="M40.3781 10.8903L37.6346 8.11279L38.5576 7.20399L40.1594 8.82563L43.4879 3.60571L44.5813 4.30151L40.3781 10.8903Z" fill="#FFC727"/>
</svg>
