<svg width="177" height="217" viewBox="0 0 177 217" fill="none" xmlns="http://www.w3.org/2000/svg">
<path d="M176.064 208.27C176.064 208.351 136.67 208.42 88.0877 208.42C39.5049 208.42 0.102661 208.351 0.102661 208.27C0.102661 208.189 39.4884 208.114 88.0877 208.114C136.687 208.114 176.064 208.184 176.064 208.27Z" fill="#263238"/>
<path d="M38.8701 191.744L39.2848 204.482L42.5206 214.466C42.5759 214.636 42.5956 214.816 42.5786 214.994C42.5616 215.172 42.5083 215.344 42.4219 215.501C42.3355 215.657 42.2178 215.794 42.0763 215.904C41.9348 216.013 41.7723 216.092 41.599 216.136C41.3969 216.187 41.1854 216.19 40.9822 216.142C40.7791 216.095 40.5902 216 40.4317 215.864C38.3837 214.108 30.8931 207.616 30.9136 206.684C30.9136 205.599 29.5773 193.27 29.5773 193.27L38.8701 191.744Z" fill="#FFC100"/>
<path d="M41.599 216.12L30.847 205.809L30.8778 206.321C30.9026 206.788 31.0933 207.231 31.4154 207.57C32.2755 208.471 34.7075 210.918 40.3805 215.823C40.5429 215.965 40.7379 216.063 40.9479 216.111C41.1579 216.158 41.3763 216.153 41.5837 216.095L41.599 216.12Z" fill="#E0E0E0"/>
<path d="M33.2483 201.554C33.4126 201.66 33.5314 201.824 33.5815 202.013C33.6317 202.203 33.6096 202.404 33.5196 202.578C33.4209 202.751 33.2577 202.877 33.0658 202.93C32.8739 202.983 32.6689 202.957 32.4956 202.859C32.3218 202.747 32.196 202.575 32.143 202.375C32.0899 202.175 32.1135 201.963 32.2089 201.779C32.3315 201.616 32.5125 201.507 32.714 201.474C32.9154 201.442 33.1216 201.489 33.2892 201.605" fill="white"/>
<path d="M38.3785 210.724C38.4502 210.755 38.7011 210.068 39.4383 209.669C39.8944 209.458 40.3858 209.335 40.8873 209.306C40.8873 209.275 40.7337 209.188 40.4316 209.162C40.037 209.136 39.6435 209.227 39.3001 209.423C38.9562 209.616 38.6753 209.904 38.4911 210.253C38.3529 210.524 38.3478 210.714 38.3785 210.724Z" fill="#263238"/>
<path d="M39.3821 212.378C39.7334 212.149 40.0994 211.944 40.4777 211.763C40.884 211.663 41.2961 211.588 41.7117 211.538C41.5094 211.424 41.2824 211.362 41.0505 211.355C40.8185 211.349 40.5886 211.399 40.3804 211.502C39.6432 211.763 39.336 212.347 39.3821 212.378Z" fill="#263238"/>
<path d="M36.566 208.64C37.0849 208.25 37.6307 207.898 38.1993 207.585C38.8062 207.357 39.4291 207.174 40.063 207.037C39.3881 206.944 38.7007 207.046 38.0813 207.33C37.462 207.614 36.9363 208.068 36.566 208.64Z" fill="#263238"/>
<path d="M36.1155 204.769C36.1564 204.841 36.8425 204.508 37.7539 204.426C38.6652 204.344 39.4076 204.518 39.4281 204.426C38.9141 204.13 38.3122 204.025 37.7283 204.129C37.1326 204.148 36.5622 204.375 36.1155 204.769Z" fill="#263238"/>
<path d="M35.9005 201.032C36.4443 200.82 37.0145 200.684 37.5952 200.627C38.178 200.657 38.7537 200.769 39.3053 200.96C39.3053 200.929 39.1773 200.781 38.8752 200.627C38.475 200.434 38.0344 200.339 37.5901 200.351C37.1453 200.358 36.7085 200.471 36.3152 200.678C36.0234 200.847 35.88 201.006 35.9005 201.032Z" fill="#263238"/>
<path d="M37.5337 199.936C37.5732 199.768 37.5732 199.592 37.5337 199.424C37.4656 198.986 37.3125 198.565 37.0832 198.185C36.9346 197.895 36.698 197.661 36.4073 197.514C36.3068 197.474 36.1962 197.467 36.0913 197.494C35.9865 197.52 35.8928 197.579 35.8236 197.663C35.6943 197.83 35.6338 198.041 35.6547 198.252C35.7074 198.677 35.9071 199.071 36.2193 199.366C36.5314 199.66 36.9365 199.837 37.3648 199.864C37.7902 199.886 38.2123 199.78 38.5771 199.56C38.942 199.34 39.2329 199.017 39.4128 198.63C39.457 198.533 39.48 198.428 39.48 198.321C39.48 198.214 39.457 198.108 39.4128 198.011C39.3579 197.917 39.2748 197.844 39.1755 197.801C39.0761 197.757 38.9656 197.747 38.8598 197.77C38.5505 197.856 38.2696 198.022 38.0457 198.252C37.7158 198.542 37.4401 198.889 37.2316 199.276C37.1435 199.412 37.0859 199.565 37.0627 199.726C37.3663 199.229 37.7405 198.779 38.1737 198.39C38.3785 198.199 38.6261 198.06 38.8956 197.985C38.9536 197.972 39.0143 197.978 39.0687 198.002C39.1231 198.026 39.1684 198.067 39.1977 198.118C39.2212 198.184 39.2311 198.254 39.2266 198.323C39.2222 198.393 39.2037 198.461 39.1721 198.523C39.007 198.851 38.7514 199.124 38.4356 199.311C38.1198 199.498 37.7571 199.59 37.3904 199.578C37.0289 199.551 36.6871 199.403 36.4204 199.158C36.1536 198.912 35.9776 198.584 35.9209 198.226C35.9029 198.08 35.9394 197.932 36.0233 197.811C36.0599 197.765 36.1105 197.731 36.1677 197.715C36.2248 197.7 36.2855 197.703 36.3408 197.724C36.5882 197.846 36.7921 198.04 36.9244 198.282C37.2244 198.793 37.4307 199.353 37.5337 199.936Z" fill="#263238"/>
<path d="M63.6713 193.618L63.0108 203.146C63.0108 203.146 72.4777 207.017 72.5238 208.778L54.0048 208.164L54.4246 193.275L63.6713 193.618Z" fill="#FFC100"/>
<path d="M57.3123 202.153C57.1281 202.199 56.9679 202.312 56.8628 202.471C56.7577 202.629 56.7153 202.82 56.744 203.008C56.7858 203.19 56.8954 203.349 57.0505 203.453C57.2056 203.556 57.3945 203.597 57.5785 203.566C57.7694 203.514 57.9343 203.393 58.0412 203.227C58.1481 203.06 58.1894 202.86 58.1571 202.665C58.0949 202.48 57.9636 202.327 57.7908 202.237C57.618 202.148 57.4171 202.128 57.2304 202.184" fill="#E0E0E0"/>
<path d="M54.0048 208.174L54.1072 206.674L71.8275 207.826C71.8275 207.826 72.6364 208.215 72.5238 208.788L54.0048 208.174Z" fill="#E0E0E0"/>
<path d="M63.3181 203.064C63.3181 203.151 62.8573 203.177 62.4016 203.453C61.9459 203.73 61.7001 204.104 61.6182 204.063C61.5363 204.022 61.6848 203.51 62.2429 203.182C62.8009 202.854 63.3385 203.008 63.3181 203.064Z" fill="#263238"/>
<path d="M65.2329 203.93C65.2329 204.017 64.854 204.16 64.5315 204.534C64.2089 204.907 64.1116 205.307 64.0195 205.297C63.9273 205.286 63.8914 204.785 64.2959 204.324C64.7004 203.863 65.2329 203.843 65.2329 203.93Z" fill="#263238"/>
<path d="M66.2569 206.29C66.175 206.29 66.0624 205.855 66.3132 205.363C66.5641 204.872 66.9891 204.692 67.0249 204.769C67.0608 204.846 66.7945 205.102 66.5949 205.507C66.3952 205.911 66.3491 206.285 66.2569 206.29Z" fill="#263238"/>
<path d="M63.2259 200.873C63.1849 200.955 62.7753 200.817 62.2633 200.837C61.7513 200.858 61.3468 201.001 61.3008 200.919C61.2547 200.837 61.6489 200.53 62.2531 200.52C62.8572 200.509 63.272 200.806 63.2259 200.873Z" fill="#263238"/>
<path d="M63.3232 198.948C63.0105 199.027 62.6818 199.014 62.376 198.912C62.0426 198.844 61.7192 198.734 61.4134 198.584C61.2359 198.496 61.0648 198.395 60.9014 198.282C60.7986 198.223 60.7068 198.147 60.63 198.057C60.5723 197.991 60.5384 197.908 60.5338 197.821C60.5291 197.733 60.554 197.647 60.6044 197.576C60.6526 197.515 60.7141 197.465 60.7842 197.432C60.8543 197.398 60.9311 197.381 61.0089 197.381C61.1253 197.384 61.2407 197.403 61.352 197.437C61.5491 197.494 61.7409 197.568 61.9254 197.658C62.233 197.808 62.5147 198.007 62.76 198.246C63.1747 198.661 63.3129 198.999 63.272 199.02C63.231 199.04 63.0262 198.758 62.6012 198.415C62.3561 198.209 62.0839 198.037 61.7923 197.903C61.6267 197.83 61.4555 197.77 61.2803 197.724C61.0857 197.663 60.9168 197.658 60.8656 197.724C60.8144 197.791 60.84 197.77 60.8656 197.827C60.9246 197.891 60.9917 197.948 61.0652 197.996C61.2206 198.101 61.3812 198.198 61.5465 198.287C61.8287 198.441 62.1254 198.566 62.4323 198.661C62.735 198.738 63.0325 198.834 63.3232 198.948Z" fill="#263238"/>
<path d="M63.2003 199.076C63.0366 198.803 62.9614 198.487 62.9853 198.17C62.9837 197.62 63.1268 197.08 63.4 196.603C63.4542 196.482 63.5389 196.378 63.6457 196.299C63.7525 196.221 63.8778 196.172 64.0093 196.157C64.0917 196.162 64.171 196.19 64.2381 196.238C64.3052 196.286 64.3572 196.352 64.3882 196.429C64.4325 196.538 64.4601 196.654 64.4701 196.772C64.5036 196.979 64.5036 197.19 64.4701 197.396C64.4096 197.741 64.2634 198.065 64.0451 198.338C63.6662 198.81 63.2874 198.907 63.2771 198.85C63.2669 198.794 63.569 198.641 63.8659 198.19C64.0331 197.929 64.1431 197.636 64.1885 197.33C64.2115 197.151 64.2115 196.971 64.1885 196.792C64.1629 196.593 64.0963 196.434 64.0195 196.449C63.9427 196.465 63.7686 196.587 63.6867 196.746C63.5885 196.908 63.5062 197.08 63.441 197.258C63.3267 197.554 63.256 197.864 63.231 198.18C63.1645 198.722 63.2515 199.066 63.2003 199.076Z" fill="#263238"/>
<path d="M25.599 99.5941L28.3331 202.015L42.9456 201.579L46.4272 96.1023L25.599 99.5941Z" fill="#263238"/>
<path d="M55.9657 95.9282C55.9657 95.9282 66.8099 139.346 67.1427 146.749C67.4755 154.153 64.8233 200.448 64.8233 200.448H50.518L51.7161 147.712L40.8719 103.137L43.4985 96.1586L55.9657 95.9282Z" fill="#263238"/>
<path d="M47.1389 101.258C47.1443 101.306 47.1443 101.354 47.1389 101.402V101.806C47.1389 102.185 47.1082 102.702 47.0826 103.368C47.0211 104.74 46.929 106.696 46.8214 109.102C46.5706 113.961 46.2275 120.643 45.8486 128.046C45.4698 135.45 45.0704 142.1 44.8246 146.959C44.6813 149.366 44.5584 151.316 44.4765 152.694C44.4304 153.354 44.3946 153.876 44.369 154.23C44.369 154.394 44.3434 154.532 44.3331 154.634C44.3386 154.68 44.3386 154.727 44.3331 154.772C44.3274 154.727 44.3274 154.68 44.3331 154.634C44.3331 154.527 44.3331 154.394 44.3331 154.23C44.3331 153.851 44.369 153.329 44.3946 152.668C44.456 151.296 44.5482 149.34 44.6557 146.934C44.9066 142.075 45.2496 135.393 45.6234 127.99C45.9971 120.586 46.4016 113.935 46.673 109.076C46.8163 106.67 46.9341 104.719 47.0211 103.347C47.0672 102.687 47.103 102.164 47.1286 101.786C47.1286 101.622 47.1542 101.489 47.1645 101.381C47.149 101.342 47.1403 101.3 47.1389 101.258Z" fill="#455A64"/>
<path d="M45.5312 40.2534C45.5312 40.2534 50.8406 66.5907 50.9174 74.0096C50.9942 81.4285 53.6003 95.9283 53.6003 95.9283H30.632L30.12 55.8029L28.4816 43.8374L31.9324 38.912L45.5312 40.2534Z" fill="#F5F5F5"/>
<path d="M45.8127 41.0265C45.8127 41.0265 51.2963 42.6393 52.7452 44.6668C53.887 46.2694 55.4332 76.5593 55.4332 76.5593L57.7679 103.245L55.4691 103.03L52.223 93.0406L45.8127 41.0265Z" fill="#FFC100"/>
<path d="M52.7452 44.6669L68.2281 58.8749L87.2796 52.7001L91.0787 60.7027L70.7472 69.9187C67.8441 71.1577 66.0214 70.4768 64.0041 68.8589L53.3392 60.3187L52.7452 44.6669Z" fill="#FFC100"/>
<path d="M83.7366 55.2498C83.7877 55.3485 83.798 55.4632 83.7655 55.5695C83.7329 55.6757 83.6601 55.765 83.5625 55.8181C83.5142 55.844 83.4612 55.86 83.4066 55.8652C83.3521 55.8704 83.297 55.8648 83.2446 55.8486C83.1923 55.8324 83.1436 55.806 83.1015 55.7709C83.0594 55.7358 83.0247 55.6927 82.9993 55.6441C82.9726 55.5962 82.9558 55.5434 82.9498 55.4889C82.9439 55.4344 82.9489 55.3792 82.9647 55.3267C82.9804 55.2742 83.0066 55.2254 83.0415 55.1831C83.0765 55.1409 83.1196 55.1061 83.1683 55.0809C83.2664 55.0294 83.3806 55.0183 83.4868 55.0498C83.5929 55.0814 83.6826 55.1532 83.7366 55.2498Z" fill="#263238"/>
<path d="M83.368 55.8796C83.3257 55.8874 83.2823 55.8874 83.24 55.8796C83.1856 55.8632 83.1349 55.8363 83.091 55.8002C83.047 55.7642 83.0107 55.7198 82.984 55.6697C82.9328 55.5682 82.9218 55.4512 82.9533 55.342C82.9886 55.2341 83.0643 55.144 83.1645 55.0906C83.2646 55.0372 83.3816 55.0245 83.4909 55.0553C83.6005 55.0888 83.6925 55.1642 83.7469 55.2652C83.8001 55.366 83.8112 55.4839 83.7776 55.5929C83.7618 55.6475 83.735 55.6984 83.6989 55.7424C83.6628 55.7864 83.6182 55.8226 83.5677 55.8489C83.5048 55.876 83.4361 55.8866 83.368 55.8796ZM83.368 55.045C83.3021 55.0457 83.2373 55.0614 83.1785 55.0911C83.0851 55.1432 83.0154 55.2294 82.984 55.3317C82.9532 55.4342 82.9643 55.5446 83.0147 55.6389C83.0657 55.7333 83.152 55.8035 83.2547 55.8343C83.3574 55.865 83.4682 55.8537 83.5625 55.8028C83.6092 55.7787 83.6505 55.7454 83.6839 55.7049C83.7173 55.6644 83.7422 55.6176 83.7571 55.5673C83.7882 55.4631 83.7771 55.351 83.7264 55.2549C83.6919 55.1899 83.6403 55.1354 83.5771 55.0975C83.514 55.0596 83.4416 55.0397 83.368 55.0399V55.045Z" fill="#263238"/>
<path d="M85.334 54.871C85.3851 54.9697 85.3954 55.0844 85.3629 55.1906C85.3303 55.2969 85.2575 55.3861 85.1599 55.4393C85.1116 55.4651 85.0586 55.4811 85.004 55.4864C84.9495 55.4916 84.8944 55.4859 84.842 55.4698C84.7897 55.4536 84.741 55.4272 84.6989 55.392C84.6568 55.3569 84.6221 55.3138 84.5967 55.2652C84.57 55.2173 84.5532 55.1646 84.5472 55.1101C84.5413 55.0556 84.5463 55.0004 84.5621 54.9479C84.5778 54.8954 84.604 54.8465 84.6389 54.8043C84.6739 54.7621 84.717 54.7273 84.7657 54.702C84.814 54.6752 84.8671 54.6583 84.922 54.6523C84.9769 54.6462 85.0325 54.6512 85.0854 54.667C85.1383 54.6827 85.1876 54.7089 85.2303 54.7439C85.273 54.7789 85.3083 54.8221 85.334 54.871Z" fill="#263238"/>
<path d="M84.9654 55.5008C84.9231 55.5086 84.8798 55.5086 84.8374 55.5008C84.783 55.4844 84.7324 55.4575 84.6884 55.4214C84.6445 55.3854 84.6081 55.341 84.5814 55.2909C84.5287 55.1895 84.518 55.0715 84.5515 54.9623C84.585 54.8531 84.6602 54.7615 84.7606 54.7072C84.862 54.6545 84.98 54.6437 85.0892 54.6772C85.1984 54.7108 85.29 54.7859 85.3443 54.8864C85.3976 54.9872 85.4087 55.1051 85.375 55.2141C85.3415 55.3237 85.2661 55.4157 85.1651 55.4701C85.1017 55.4949 85.0335 55.5054 84.9654 55.5008ZM84.9654 54.6611C84.8993 54.6637 84.8345 54.6812 84.776 54.7123C84.6817 54.7633 84.6114 54.8496 84.5807 54.9523C84.55 55.055 84.5613 55.1658 84.6122 55.2601C84.6366 55.3075 84.6706 55.3492 84.712 55.3827C84.7535 55.4162 84.8014 55.4407 84.8528 55.4547C84.9048 55.4745 84.9603 55.4834 85.0159 55.4808C85.0715 55.4781 85.126 55.4641 85.1759 55.4394C85.2258 55.4148 85.2701 55.3801 85.3059 55.3376C85.3418 55.2951 85.3686 55.2456 85.3845 55.1922C85.4004 55.1389 85.4051 55.0829 85.3983 55.0276C85.3916 54.9724 85.3735 54.9191 85.3452 54.8712C85.3169 54.8233 85.2791 54.7817 85.234 54.7491C85.1889 54.7164 85.1376 54.6935 85.0832 54.6816C85.0434 54.6689 85.0021 54.662 84.9603 54.6611H84.9654Z" fill="#263238"/>
<path d="M86.8496 54.5638C86.8764 54.6121 86.8933 54.6652 86.8994 54.7201C86.9054 54.775 86.9004 54.8306 86.8846 54.8835C86.8689 54.9364 86.8427 54.9857 86.8077 55.0284C86.7727 55.0711 86.7295 55.1064 86.6806 55.1321C86.5819 55.1832 86.4672 55.1935 86.361 55.161C86.2547 55.1284 86.1655 55.0556 86.1123 54.958C86.0865 54.9097 86.0705 54.8567 86.0652 54.8021C86.06 54.7476 86.0657 54.6925 86.0819 54.6401C86.098 54.5878 86.1244 54.5391 86.1596 54.497C86.1947 54.4549 86.2378 54.4202 86.2864 54.3949C86.3343 54.3681 86.387 54.3513 86.4415 54.3453C86.496 54.3394 86.5512 54.3444 86.6037 54.3602C86.6563 54.3759 86.7051 54.4021 86.7473 54.4371C86.7895 54.472 86.8243 54.5151 86.8496 54.5638Z" fill="#263238"/>
<path d="M86.486 55.1935C86.4437 55.2013 86.4003 55.2013 86.358 55.1935C86.2543 55.1604 86.167 55.0891 86.1138 54.994C86.0606 54.899 86.0454 54.7873 86.0713 54.6815C86.0872 54.6276 86.114 54.5774 86.1501 54.5342C86.1863 54.4911 86.2309 54.4558 86.2812 54.4307C86.331 54.4037 86.3855 54.3868 86.4418 54.3809C86.4981 54.3751 86.555 54.3804 86.6092 54.3966C86.6634 54.4127 86.7139 54.4395 86.7578 54.4752C86.8017 54.5109 86.8381 54.5549 86.8649 54.6047C86.9176 54.7061 86.9284 54.8241 86.8948 54.9333C86.8613 55.0425 86.7862 55.1341 86.6857 55.1884C86.6203 55.2047 86.5522 55.2065 86.486 55.1935ZM86.486 54.359C86.4202 54.3596 86.3554 54.3754 86.2966 54.4051C86.2023 54.456 86.132 54.5423 86.1013 54.6451C86.0706 54.7478 86.0819 54.8585 86.1328 54.9529C86.1566 54.9997 86.1898 55.0412 86.2303 55.0746C86.2709 55.1081 86.3178 55.1329 86.3683 55.1475C86.4724 55.1785 86.5845 55.1675 86.6806 55.1167C86.7749 55.0658 86.8452 54.9795 86.8759 54.8767C86.9066 54.774 86.8953 54.6633 86.8444 54.5689C86.8088 54.504 86.7561 54.4501 86.692 54.4131C86.6279 54.3761 86.5549 54.3574 86.4809 54.359H86.486Z" fill="#263238"/>
<path d="M87.4691 53.0995L88.9437 52.5619L92.328 59.6889L90.8893 60.3033L87.4691 53.0995Z" fill="#E0E0E0"/>
<path d="M53.242 50.2834C53.2939 50.545 53.323 50.8105 53.329 51.077C53.3853 51.6402 53.4621 52.3673 53.5543 53.2479C53.7642 55.127 54.0663 57.6306 54.3632 60.4159C54.6602 63.2012 54.9213 65.7458 55.034 67.5839C55.0954 68.5055 55.121 69.253 55.1261 69.7702C55.1451 70.0366 55.1365 70.3042 55.1005 70.5689C55.0525 70.307 55.0268 70.0415 55.0237 69.7753C54.9879 69.2633 54.9316 68.5158 54.8445 67.5993C54.6807 65.7663 54.4093 63.2319 54.097 60.4313C53.7847 57.6306 53.5184 55.1065 53.3648 53.2633C53.288 52.3417 53.2471 51.5942 53.2266 51.077C53.2055 50.8126 53.2106 50.5468 53.242 50.2834Z" fill="#263238"/>
<path d="M56.6262 53.8368C56.3866 55.1301 56.0616 56.406 55.6534 57.6563C55.3278 58.9293 54.919 60.1796 54.4297 61.399C54.6658 60.1055 54.9891 58.8294 55.3974 57.5795C55.7222 56.3057 56.1327 55.0553 56.6262 53.8368Z" fill="#263238"/>
<path d="M68.0644 63.6723C67.8981 63.4774 67.7805 63.2457 67.7213 62.9965C67.3401 61.8163 67.4206 60.5356 67.9466 59.4125C68.0391 59.1733 68.1843 58.958 68.3716 58.7827C68.0618 59.5614 67.8553 60.3773 67.7571 61.2096C67.752 62.0404 67.8553 62.8683 68.0644 63.6723Z" fill="#263238"/>
<path d="M66.2927 80.1331L68.2742 80.2867L67.4908 88.5503L65.5759 88.3353L66.2927 80.1331Z" fill="#E0E0E0"/>
<path d="M31.9325 39.4854L21.247 46.3001C20.031 47.1622 19.1252 48.3934 18.664 49.8109C18.2029 51.2285 18.211 52.7569 18.687 54.1695L26.879 79.918L23.9248 103.316L47.3437 102.323L46.7702 92.0831L44.7837 73.733C44.416 70.3305 43.5697 66.9969 42.2697 63.831L31.9325 39.4854Z" fill="#FFC100"/>
<path d="M20.7708 55.5775L31.4563 77.9416C31.8824 78.833 32.5028 79.6176 33.2718 80.2378C34.0409 80.858 34.939 81.298 35.9004 81.5257L65.5555 88.5503L66.3132 79.918L43.6777 71.4239L32.2908 49.5717C31.8802 48.7846 31.3127 48.0899 30.6233 47.5305C29.9339 46.971 29.1373 46.5586 28.2825 46.3188C27.4277 46.079 26.5328 46.0167 25.653 46.1359C24.7733 46.255 23.9272 46.5531 23.167 47.0117C21.7533 47.8671 20.7186 49.229 20.2734 50.8203C19.8283 52.4116 20.0061 54.1127 20.7708 55.5775Z" fill="#FFC100"/>
<path d="M66.3133 79.918C66.271 79.9144 66.2295 79.904 66.1904 79.8873L65.8423 79.7695L64.5008 79.2883L59.5344 77.4604L42.7972 71.2038H42.7511V71.1526L40.7799 67.2511C38.9264 63.6364 37.0781 60.2316 35.3476 57.1596C34.4823 55.6236 33.6477 54.1746 32.8592 52.823L31.7124 50.8671C31.528 50.5497 31.3437 50.2476 31.1492 49.966C30.966 49.6832 30.7642 49.4129 30.545 49.157C29.7818 48.2476 28.8032 47.5436 27.6983 47.109C26.8654 46.77 25.9706 46.6095 25.0717 46.638C24.3004 46.6488 23.5438 46.8511 22.8701 47.2268C22.9073 47.1928 22.9486 47.1636 22.993 47.1398C23.1167 47.0533 23.2488 46.9796 23.3872 46.9196C23.9185 46.689 24.4879 46.5588 25.0666 46.5356C25.9812 46.4884 26.8954 46.635 27.7495 46.9657C28.8882 47.4031 29.8988 48.1197 30.6884 49.0495C30.9147 49.3083 31.1234 49.582 31.313 49.8687C31.5178 50.1606 31.7072 50.4626 31.8864 50.7801L33.0487 52.7257C33.8474 54.091 34.6854 55.5349 35.5626 57.0572C37.3034 60.1292 39.1466 63.5238 41.0205 67.1436C41.7015 68.4799 42.3671 69.7958 42.9866 71.0553L42.9149 70.9887L59.6215 77.3273L64.5572 79.2268L65.8832 79.7388L66.2263 79.877L66.3133 79.918Z" fill="#263238"/>
<path d="M61.2752 85.2991C61.2752 85.4105 61.231 85.5172 61.1523 85.596C61.0735 85.6747 60.9667 85.719 60.8554 85.719C60.744 85.719 60.6373 85.6747 60.5585 85.596C60.4798 85.5172 60.4355 85.4105 60.4355 85.2991C60.4355 85.1878 60.4798 85.081 60.5585 85.0022C60.6373 84.9235 60.744 84.8793 60.8554 84.8793C60.9667 84.8793 61.0735 84.9235 61.1523 85.0022C61.231 85.081 61.2752 85.1878 61.2752 85.2991Z" fill="#263238"/>
<path d="M60.84 85.7292C60.7549 85.7292 60.6718 85.704 60.6011 85.6567C60.5303 85.6094 60.4752 85.5423 60.4426 85.4637C60.4101 85.3851 60.4016 85.2986 60.4182 85.2152C60.4348 85.1318 60.4757 85.0551 60.5359 84.995C60.596 84.9348 60.6727 84.8939 60.7561 84.8773C60.8395 84.8607 60.926 84.8692 61.0046 84.9018C61.0832 84.9343 61.1503 84.9894 61.1976 85.0602C61.2448 85.1309 61.2701 85.214 61.2701 85.2991C61.2701 85.4132 61.2248 85.5226 61.1441 85.6032C61.0634 85.6839 60.9541 85.7292 60.84 85.7292ZM60.84 84.8946C60.76 84.8946 60.6818 84.9183 60.6153 84.9628C60.5488 85.0072 60.4969 85.0704 60.4663 85.1443C60.4357 85.2182 60.4277 85.2995 60.4433 85.378C60.4589 85.4565 60.4974 85.5285 60.554 85.5851C60.6105 85.6417 60.6826 85.6802 60.7611 85.6958C60.8395 85.7114 60.9209 85.7034 60.9948 85.6728C61.0687 85.6422 61.1319 85.5903 61.1763 85.5238C61.2207 85.4573 61.2445 85.3791 61.2445 85.2991C61.2445 85.1918 61.2019 85.0889 61.126 85.0131C61.0501 84.9372 60.9473 84.8946 60.84 84.8946Z" fill="#263238"/>
<path d="M62.888 85.719C62.888 85.8021 62.8634 85.8832 62.8173 85.9523C62.7711 86.0213 62.7056 86.0751 62.6288 86.1069C62.5521 86.1387 62.4677 86.147 62.3863 86.1308C62.3048 86.1146 62.23 86.0746 62.1713 86.0159C62.1126 85.9572 62.0726 85.8824 62.0564 85.8009C62.0402 85.7195 62.0485 85.6351 62.0803 85.5584C62.1121 85.4817 62.1659 85.4161 62.2349 85.3699C62.304 85.3238 62.3851 85.2992 62.4682 85.2992C62.5795 85.2992 62.6863 85.3434 62.765 85.4222C62.8438 85.5009 62.888 85.6077 62.888 85.719Z" fill="#263238"/>
<path d="M62.4425 86.1491C62.3575 86.1491 62.2743 86.1239 62.2036 86.0766C62.1329 86.0294 62.0777 85.9622 62.0452 85.8836C62.0126 85.805 62.0041 85.7185 62.0207 85.6351C62.0373 85.5517 62.0783 85.4751 62.1384 85.4149C62.1986 85.3548 62.2752 85.3138 62.3586 85.2972C62.4421 85.2806 62.5285 85.2891 62.6071 85.3217C62.6857 85.3542 62.7529 85.4094 62.8001 85.4801C62.8474 85.5508 62.8726 85.634 62.8726 85.719C62.8713 85.8327 62.8255 85.9413 62.7452 86.0217C62.6648 86.102 62.5562 86.1478 62.4425 86.1491ZM62.4425 85.3145C62.3625 85.3145 62.2843 85.3383 62.2178 85.3827C62.1513 85.4272 62.0995 85.4903 62.0688 85.5642C62.0382 85.6381 62.0302 85.7195 62.0458 85.7979C62.0614 85.8764 62.1 85.9485 62.1565 86.005C62.2131 86.0616 62.2852 86.1001 62.3636 86.1157C62.4421 86.1313 62.5234 86.1233 62.5973 86.0927C62.6712 86.0621 62.7344 86.0103 62.7788 85.9437C62.8233 85.8772 62.847 85.799 62.847 85.719C62.847 85.6117 62.8044 85.5089 62.7285 85.433C62.6527 85.3572 62.5498 85.3145 62.4425 85.3145Z" fill="#263238"/>
<path d="M63.9274 86.5843C64.1593 86.5843 64.3472 86.3963 64.3472 86.1645C64.3472 85.9326 64.1593 85.7446 63.9274 85.7446C63.6955 85.7446 63.5076 85.9326 63.5076 86.1645C63.5076 86.3963 63.6955 86.5843 63.9274 86.5843Z" fill="#263238"/>
<path d="M63.912 86.5945C63.8269 86.5945 63.7438 86.5693 63.6731 86.5221C63.6023 86.4748 63.5472 86.4076 63.5147 86.329C63.4821 86.2504 63.4736 86.164 63.4902 86.0806C63.5068 85.9971 63.5478 85.9205 63.6079 85.8603C63.668 85.8002 63.7447 85.7592 63.8281 85.7426C63.9115 85.726 63.998 85.7346 64.0766 85.7671C64.1552 85.7997 64.2224 85.8548 64.2696 85.9255C64.3169 85.9962 64.3421 86.0794 64.3421 86.1645C64.3408 86.2781 64.295 86.3867 64.2147 86.4671C64.1343 86.5475 64.0257 86.5932 63.912 86.5945ZM63.912 85.76C63.832 85.76 63.7538 85.7837 63.6873 85.8281C63.6208 85.8726 63.5689 85.9358 63.5383 86.0097C63.5077 86.0836 63.4997 86.1649 63.5153 86.2434C63.5309 86.3218 63.5694 86.3939 63.626 86.4505C63.6826 86.507 63.7546 86.5456 63.8331 86.5612C63.9116 86.5768 63.9929 86.5688 64.0668 86.5381C64.1407 86.5075 64.2039 86.4557 64.2483 86.3892C64.2928 86.3227 64.3165 86.2444 64.3165 86.1645C64.3165 86.0572 64.2739 85.9543 64.198 85.8784C64.1222 85.8026 64.0193 85.76 63.912 85.76Z" fill="#263238"/>
<path d="M65.5555 88.5504C65.5081 88.5581 65.4596 88.5581 65.4122 88.5504L64.9974 88.4582L63.4 88.0742L57.5325 86.6304C52.5814 85.4169 45.7565 83.6966 38.1686 81.9404C37.2214 81.7152 36.2845 81.536 35.3578 81.2851C34.4275 81.0626 33.5605 80.63 32.8234 80.0204C32.1768 79.3707 31.656 78.6069 31.2874 77.7676L30.1712 75.4329L26.3158 67.328L23.7558 61.8598C23.4691 61.2249 23.2438 60.7283 23.0749 60.3699L22.9008 59.9756C22.8794 59.9331 22.8623 59.8885 22.8496 59.8425C22.8496 59.8425 22.8803 59.8835 22.9264 59.9654C22.9725 60.0473 23.039 60.1907 23.121 60.3443L23.8531 61.8188C24.4829 63.1193 25.3891 64.9676 26.495 67.246C27.601 69.5244 28.9168 72.2841 30.3811 75.3203C30.7446 76.078 31.1235 76.8563 31.5024 77.6499C31.8675 78.458 32.3758 79.1935 33.0026 79.8208C33.7101 80.4032 34.5423 80.8149 35.4346 81.024C36.3408 81.2697 37.288 81.4489 38.2352 81.6742C45.8179 83.4355 52.6429 85.1814 57.5837 86.4409C60.0362 87.086 62.0278 87.6032 63.4307 87.9769L65.0128 88.4121L65.4224 88.5299L65.5555 88.5504Z" fill="#263238"/>
<path d="M41.6041 87.1526C41.6041 87.1526 41.4915 87.2703 41.2508 87.4495C41.0102 87.6287 40.6671 87.8745 40.2268 88.1715C39.0828 88.9611 37.8443 89.6044 36.5404 90.0863C35.2203 90.5639 33.8024 90.7064 32.4137 90.5011C31.9954 90.4299 31.5866 90.3114 31.1951 90.1478C31.0476 90.1006 30.9104 90.0258 30.7906 89.9276C31.3315 90.0904 31.8822 90.2186 32.4393 90.3116C33.7961 90.4609 35.1691 90.2981 36.4534 89.8355C37.7362 89.3551 38.9663 88.7443 40.1244 88.0127C40.5972 87.6923 41.0916 87.4049 41.6041 87.1526Z" fill="#263238"/>
<path d="M42.92 90.1222C42.9523 90.1818 42.9764 90.2455 42.9916 90.3116C43.0495 90.4997 43.0957 90.6912 43.1299 90.8851C43.2533 91.6052 43.2533 92.341 43.1299 93.0611C42.9305 94.1309 42.4736 95.136 41.7987 95.9897C40.9477 97.0294 39.7984 97.7832 38.5057 98.1494C37.213 98.5156 35.8391 98.4766 34.5692 98.0377C33.5481 97.6584 32.6356 97.0343 31.912 96.2201C31.4273 95.6737 31.0395 95.0486 30.7651 94.3718C30.6951 94.1875 30.6353 93.9995 30.5859 93.8086C30.5552 93.6806 30.5398 93.6089 30.55 93.6089C30.89 94.5234 31.3989 95.3657 32.0502 96.0921C32.7686 96.8612 33.6603 97.4475 34.6512 97.8022C35.8708 98.2159 37.1868 98.252 38.4273 97.9058C39.6678 97.5596 40.775 96.8472 41.6041 95.8617C42.2671 95.0446 42.7253 94.0809 42.9404 93.0508C43.1188 92.0821 43.1118 91.0883 42.92 90.1222Z" fill="#263238"/>
<path d="M33.0844 19.1027L33.151 38.1798C33.1555 38.9475 33.3157 39.7062 33.6219 40.4102C33.9282 41.1141 34.3741 41.7485 34.9327 42.2751C35.4914 42.8016 36.151 43.2093 36.8718 43.4735C37.5926 43.7376 38.3595 43.8527 39.126 43.8118C40.5768 43.7333 41.9424 43.1021 42.9422 42.048C43.9421 40.9939 44.5002 39.5969 44.502 38.144C44.502 36.7053 44.502 35.5072 44.502 35.3587C44.502 35.3587 49.3558 34.8877 49.6886 30.08C49.8525 27.7555 49.791 22.9427 49.6886 18.5856C49.6381 16.3292 48.7388 14.1747 47.1701 12.5519C45.6014 10.9292 43.4787 9.95737 41.2253 9.8304H40.7593C35.752 9.80992 32.936 14.08 33.0844 19.1027Z" fill="#F9AC84"/>
<path d="M44.5123 35.2819C42.289 35.1961 40.1414 34.4512 38.3427 33.1417C38.3427 33.1417 39.6278 36.6899 44.4508 36.526L44.5123 35.2819Z" fill="#AA6550"/>
<path d="M48.5008 21.4066C48.4915 21.5864 48.4125 21.7554 48.2806 21.8778C48.1487 22.0001 47.9742 22.0662 47.7943 22.062C47.7065 22.0641 47.6192 22.0485 47.5376 22.0161C47.4559 21.9838 47.3816 21.9354 47.3191 21.8738C47.2565 21.8122 47.207 21.7386 47.1734 21.6575C47.1398 21.5764 47.1228 21.4893 47.1236 21.4015C47.1328 21.2227 47.2111 21.0544 47.3419 20.9322C47.4728 20.81 47.646 20.7433 47.825 20.7462C47.913 20.7441 48.0006 20.7597 48.0825 20.792C48.1644 20.8242 48.239 20.8726 48.302 20.9341C48.365 20.9956 48.415 21.0691 48.4491 21.1503C48.4833 21.2314 48.5009 21.3186 48.5008 21.4066Z" fill="#263238"/>
<path d="M48.6339 20.5925C48.5469 20.6796 48.0451 20.2649 47.3078 20.2239C46.5706 20.1829 46.0022 20.5209 45.9306 20.4287C45.8589 20.3365 45.9869 20.229 46.2326 20.0703C46.5661 19.867 46.9538 19.7705 47.3437 19.7938C47.7285 19.814 48.0966 19.9576 48.3933 20.2034C48.6134 20.3877 48.68 20.5567 48.6339 20.5925Z" fill="#263238"/>
<path d="M41.3122 21.3504C41.3043 21.5296 41.2264 21.6986 41.0952 21.8212C40.9641 21.9437 40.7902 22.0099 40.6108 22.0057C40.523 22.0078 40.4357 21.9922 40.3541 21.9598C40.2725 21.9275 40.1982 21.8791 40.1356 21.8175C40.073 21.7559 40.0235 21.6823 39.9899 21.6012C39.9563 21.5201 39.9394 21.433 39.9401 21.3452C39.9481 21.166 40.026 20.997 40.1571 20.8745C40.2882 20.7519 40.4621 20.6857 40.6415 20.6899C40.7293 20.6878 40.8166 20.7034 40.8982 20.7358C40.9799 20.7681 41.0542 20.8165 41.1167 20.8781C41.1793 20.9397 41.2289 21.0133 41.2624 21.0944C41.296 21.1755 41.313 21.2626 41.3122 21.3504Z" fill="#263238"/>
<path d="M41.2765 20.4287C41.1843 20.5106 40.6877 20.0959 39.9453 20.055C39.2029 20.014 38.6448 20.357 38.568 20.2598C38.4912 20.1625 38.6294 20.0601 38.8752 19.9014C39.2062 19.6971 39.5931 19.6022 39.9811 19.63C40.3666 19.6497 40.736 19.7914 41.0358 20.0345C41.2509 20.2239 41.3174 20.3878 41.2765 20.4287Z" fill="#263238"/>
<path d="M43.6163 26.2399C44.0131 26.1401 44.4207 26.0903 44.8298 26.0915C45.0192 26.0915 45.2035 26.0556 45.2394 25.9276C45.266 25.7349 45.2339 25.5386 45.1472 25.3644C44.9936 24.8934 44.8349 24.407 44.6711 23.8899C44.0106 21.8009 43.5447 20.0857 43.6471 20.0601C43.7495 20.0345 44.3331 21.7087 44.9936 23.7977C45.1472 24.3097 45.3008 24.8217 45.4442 25.2774C45.5516 25.5119 45.5715 25.777 45.5005 26.0249C45.4688 26.0896 45.4228 26.1462 45.3661 26.1906C45.3093 26.2349 45.2432 26.2658 45.1728 26.2809C45.0658 26.295 44.9573 26.295 44.8503 26.2809C44.4389 26.3205 44.0242 26.3067 43.6163 26.2399Z" fill="#263238"/>
<path d="M41.5734 18.8927C41.4864 19.0924 40.7542 18.9541 39.8838 19.0105C39.0134 19.0668 38.2915 19.2613 38.1891 19.0719C38.143 18.9849 38.2761 18.8005 38.568 18.6213C38.9576 18.3995 39.3949 18.2748 39.8429 18.2578C40.2902 18.2302 40.7376 18.3092 41.1485 18.4882C41.4608 18.6316 41.6093 18.8005 41.5734 18.8927Z" fill="#263238"/>
<path d="M48.5519 18.8313C48.4137 18.9901 47.9119 18.7853 47.3026 18.7443C46.6934 18.7034 46.166 18.7904 46.0534 18.6112C46.0073 18.5241 46.0994 18.3603 46.335 18.2118C46.6507 18.04 47.0101 17.9653 47.3681 17.9972C47.7262 18.0291 48.0668 18.1661 48.3471 18.391C48.5519 18.5753 48.6338 18.7494 48.5519 18.8313Z" fill="#263238"/>
<path d="M33.2739 22.6867C33.192 22.6458 30.0227 21.5194 29.9408 24.8166C29.8589 28.1139 33.1818 27.5149 33.192 27.4227C33.2023 27.3306 33.2739 22.6867 33.2739 22.6867Z" fill="#F9AC84"/>
<path d="M32.2141 26.1478C32.2141 26.1478 32.1578 26.1836 32.0605 26.2297C31.9228 26.2866 31.7681 26.2866 31.6304 26.2297C31.4211 26.0895 31.2529 25.8961 31.1431 25.6693C31.0333 25.4425 30.9859 25.1906 31.0058 24.9394C31.0039 24.6565 31.0651 24.3766 31.185 24.1202C31.2196 24.0183 31.2781 23.926 31.3556 23.8512C31.433 23.7764 31.5273 23.7212 31.6304 23.6902C31.6969 23.674 31.7671 23.6821 31.8281 23.7131C31.8891 23.7441 31.9371 23.7959 31.9632 23.8591C32.0042 23.9513 31.9632 24.0178 31.9991 24.023C32.0349 24.0281 32.0708 23.9667 32.0503 23.8335C32.0314 23.7516 31.9865 23.6779 31.9223 23.6236C31.8788 23.5885 31.8289 23.5622 31.7753 23.5464C31.7217 23.5306 31.6655 23.5255 31.61 23.5314C31.472 23.5562 31.3428 23.6165 31.2351 23.7062C31.1273 23.796 31.0448 23.9122 30.9956 24.0434C30.8486 24.3246 30.773 24.6376 30.7754 24.9548C30.7513 25.248 30.8148 25.5418 30.9579 25.7989C31.101 26.056 31.3173 26.2647 31.5792 26.3986C31.6648 26.4236 31.7547 26.4301 31.8429 26.4178C31.9312 26.4054 32.0158 26.3745 32.0912 26.327C32.209 26.2246 32.2295 26.1529 32.2141 26.1478Z" fill="#F0A57E"/>
<path d="M31.4512 22.4716C31.7647 22.4691 32.0731 22.5515 32.3436 22.7102C32.614 22.8688 32.8364 23.0978 32.9872 23.3727C33.1715 23.854 33.192 24.3967 33.3763 24.8729C33.4477 25.1214 33.5995 25.3392 33.808 25.4921C34.0165 25.645 34.2699 25.7243 34.5283 25.7177C34.702 25.6735 34.8609 25.5845 34.9894 25.4596C35.1179 25.3347 35.2114 25.1783 35.2605 25.006C35.3492 24.6601 35.3718 24.3005 35.327 23.9462C35.2246 22.4102 34.984 20.8742 35.0147 19.3023C34.9864 17.7401 35.4211 16.2045 36.264 14.8889C36.6903 14.2375 37.2843 13.713 37.9834 13.3706C38.6826 13.0283 39.4611 12.8806 40.2371 12.9433C41.2611 13.0867 42.1622 13.6703 43.1658 13.87C43.766 13.9843 44.3844 13.9607 44.9742 13.801C45.564 13.6414 46.1099 13.3498 46.5706 12.9484C46.6217 12.9045 46.6765 12.8651 46.7344 12.8307C46.9019 12.7261 47.0297 12.5685 47.0975 12.383C47.1652 12.1974 47.1689 11.9946 47.1082 11.8067C47.0744 11.6862 47.015 11.5744 46.9341 11.479C45.0243 9.50267 41.4198 8.77563 38.7421 9.29275C37.3698 9.54936 36.0697 10.1013 34.9319 10.9102C33.7941 11.7191 32.8458 12.7657 32.1526 13.9775C30.8675 16.4095 31.0058 19.8963 31.4973 22.4563" fill="#263238"/>
<path d="M41.896 26.8185C42.0189 26.8185 42.0189 27.6121 42.7049 28.1804C43.391 28.7487 44.2409 28.6617 44.2409 28.7743C44.2409 28.8869 44.0515 28.933 43.688 28.9381C43.2186 28.9481 42.761 28.7901 42.3977 28.4927C42.0497 28.2072 41.8259 27.798 41.7731 27.3509C41.727 27.013 41.8192 26.8133 41.896 26.8185Z" fill="#263238"/>
<path d="M87.8787 53.9136C87.8787 53.9136 91.4883 50.7443 92.1692 50.5088C92.8502 50.2733 98.2876 50.176 98.6511 50.4474C99.0147 50.7187 104.519 53.7344 103.607 54.2003C102.696 54.6662 98.8815 52.48 98.8815 52.48L98.2415 52.567C98.2415 52.567 101.57 54.3437 102.158 55.0246C102.747 55.7056 102.184 56.4122 101.564 56.1203C100.945 55.8285 98.0879 54.185 97.8627 54.2464C97.6374 54.3078 100.904 56.2176 101.206 56.576C101.611 57.047 101.349 57.9686 100.72 57.7024C100.351 57.5488 97.3404 55.552 97.3404 55.552C98.1929 56.2493 99.0065 56.9928 99.7775 57.7792C100.044 58.2912 99.5318 58.7571 99.0044 58.4346C98.646 58.2144 97.0947 56.6886 96.6134 56.3866C96.6134 56.3866 96.1014 56.3456 95.2975 57.1853C94.4937 58.025 91.4166 59.1667 91.4166 59.1667L87.8787 53.9136Z" fill="#F9AC84"/>
<path d="M103.592 54.2105C103.202 54.2662 102.805 54.2418 102.425 54.1389C102.006 54.0547 101.596 53.9312 101.201 53.7702C100.776 53.5654 100.31 53.3299 99.8185 53.079L98.7945 52.567H98.8662C97.9338 52.6158 96.999 52.5901 96.0707 52.4902C96.9933 52.3432 97.9269 52.2764 98.8611 52.2905H98.8918H98.9276L99.9516 52.8025L101.288 53.504C101.664 53.6701 102.053 53.807 102.45 53.9136C103.152 54.1184 103.597 54.1645 103.592 54.2105Z" fill="#EEA47E"/>
<path d="M89.2201 54.83C89.3684 55.0406 89.5794 55.199 89.8231 55.2826C90.0667 55.3663 90.3305 55.3709 90.5769 55.2959C91.0889 55.1884 91.5343 54.917 92.0259 54.7839C93.5055 54.3589 95.1491 55.1474 96.6031 54.6508C96.8079 54.5791 97.0332 54.4306 97.0127 54.2207C96.9923 54.0108 96.767 53.9237 96.5775 53.8623L91.7238 52.3263" fill="#F9AC84"/>
<path d="M91.7238 52.3059C91.9093 52.3169 92.0921 52.3548 92.2666 52.4185C92.6096 52.5107 93.1011 52.6541 93.7104 52.8333L95.8403 53.4784L96.4547 53.6678C96.6493 53.7446 96.9309 53.76 97.1152 54.0621C97.151 54.1392 97.1629 54.2254 97.1492 54.3094C97.1355 54.3934 97.0969 54.4713 97.0384 54.5331C96.9425 54.6367 96.8231 54.7157 96.6902 54.7635C96.4516 54.8464 96.2042 54.9014 95.9529 54.9273C95.0375 54.9416 94.1223 54.892 93.2138 54.7789C92.83 54.7583 92.4452 54.7945 92.072 54.8864C91.729 54.9785 91.4115 55.1321 91.1094 55.2397C90.8694 55.3535 90.6071 55.4126 90.3414 55.4126C90.0758 55.4126 89.8134 55.3535 89.5734 55.2397C89.2458 55.0502 89.1946 54.8147 89.2048 54.8198C89.325 54.9508 89.4671 55.06 89.6246 55.1424C89.8557 55.2265 90.102 55.2609 90.3473 55.2433C90.5925 55.2256 90.8313 55.1563 91.048 55.04C91.3654 54.8922 91.69 54.7606 92.0208 54.6457C92.4169 54.5343 92.8282 54.4859 93.2394 54.5024C94.1355 54.5981 95.0364 54.6408 95.9376 54.6304C96.1622 54.6033 96.3835 54.5535 96.5981 54.4819C96.7978 54.4102 96.936 54.2669 96.8746 54.1747C96.8131 54.0825 96.5981 53.9853 96.3626 53.9238L95.7481 53.7241L93.6387 53.0176C93.0397 52.8128 92.5533 52.6438 92.2205 52.5056C92.0465 52.4622 91.8794 52.395 91.7238 52.3059Z" fill="#ECA37D"/>
<path d="M67.3834 80.3327L73.3686 79.7388C73.3686 79.7388 81.2842 85.1608 80.5366 86.3538C79.7891 87.5468 78.4886 86.3538 78.4886 86.3538C78.4886 86.3538 79.8966 88.0895 77.6182 88.6322C77.6182 88.6322 77.0755 89.8252 76.2102 89.7176H75.6675C75.6675 89.7176 75.1555 91.228 74.4438 90.9004C73.7322 90.5727 71.505 88.6271 71.505 88.6271L65.361 88.0844L67.3834 80.3327Z" fill="#F9AC84"/>
<path d="M71.1056 86.5023C71.1056 86.5023 69.5696 87.0911 69.2573 87.7106C68.945 88.3302 68.7453 89.7586 69.7386 90.0402C70.321 90.0777 70.9057 90.0588 71.4845 89.9839L71.1056 88.3711C71.3911 88.0399 71.6954 87.7253 72.017 87.429C72.3446 87.1577 71.9862 86.0978 71.1056 86.5023Z" fill="#FFBE9D"/>
<path d="M72.831 87.3215C72.831 87.3215 71.295 87.9103 70.9827 88.5247C70.8923 88.7057 70.8437 88.9046 70.8405 89.1069C70.8373 89.3091 70.8795 89.5095 70.964 89.6933C71.0485 89.877 71.1732 90.0395 71.3288 90.1686C71.4845 90.2978 71.6671 90.3904 71.8633 90.4396C72.3909 90.4816 72.9216 90.4644 73.4454 90.3884L73.2816 90.0761C72.9744 89.4719 72.8412 88.9804 73.384 88.5759C73.4147 88.5759 73.7219 88.2687 73.7424 88.2482C73.8195 88.1207 73.8519 87.9712 73.8346 87.8232C73.8172 87.6752 73.7511 87.5371 73.6466 87.4309C73.5421 87.3247 73.4052 87.2562 73.2576 87.2364C73.1099 87.2166 72.9598 87.2466 72.831 87.3215Z" fill="#FFBE9D"/>
<path d="M73.1997 90.3321C73.0702 90.1919 72.9885 90.0143 72.9664 89.8247C72.9443 89.6352 72.983 89.4435 73.0768 89.2774C73.2787 88.9483 73.6027 88.7127 73.9779 88.622C74.0937 88.5732 74.2208 88.5579 74.3448 88.5778C74.4688 88.5977 74.5847 88.6521 74.6794 88.7346C74.7256 88.801 74.758 88.876 74.7747 88.9552C74.7915 89.0343 74.7921 89.116 74.7766 89.1954C74.6726 89.6184 74.4569 90.0056 74.152 90.3167C74.0086 90.4959 73.8346 90.6905 73.6042 90.6854C73.3738 90.6802 73.2048 90.4652 73.0922 90.2706" fill="#FFBE9D"/>
<path d="M40.8515 42.071L42.198 41.5641L43.3603 43.6479L42.71 45.8751L41.3379 46.213L39.9708 44.4876L40.8515 42.071Z" fill="#FFC100"/>
<path d="M41.3379 46.213C41.3379 46.213 43.0838 55.7926 44.5328 62.5305C44.5328 62.5305 45.7257 68.1625 46.207 69.4322C46.7446 70.8812 48.4035 73.0162 48.4035 73.0162L50.088 73.6716L49.064 64.2047L42.7152 45.8751L41.3379 46.213Z" fill="#FFC100"/>
<g opacity="0.4">
<path d="M40.8515 42.071L42.198 41.5641L43.3603 43.6479L42.71 45.8751L41.3379 46.213L39.9708 44.4876L40.8515 42.071Z" fill="black"/>
</g>
<g opacity="0.4">
<path d="M41.3379 46.213C41.3379 46.213 43.0838 55.7926 44.5328 62.5305C44.5328 62.5305 45.8998 68.0908 46.207 69.4322C46.3862 70.2258 48.4035 73.0162 48.4035 73.0162L50.088 73.6716L49.064 64.2047L42.7152 45.8751L41.3379 46.213Z" fill="black"/>
</g>
<path d="M32.7722 36.2495L40.8515 42.0709L39.1056 46.8735L31.7533 39.3062L32.7722 36.2495Z" fill="#F5F5F5"/>
<path d="M42.1981 41.5641L44.4509 36.526L45.7309 40.6834L43.9543 45.0457L42.1981 41.5641Z" fill="#F5F5F5"/>
<path d="M40.872 42.071C40.8567 42.1972 40.8257 42.3211 40.7799 42.4397L40.4522 43.4637C40.1655 44.3187 39.7456 45.5117 39.2388 46.935L39.1722 47.1296L39.0288 46.976L37.1498 44.8973C35.6855 43.2742 34.3696 41.7945 33.4327 40.7142L32.3268 39.424C32.1822 39.2676 32.0551 39.0959 31.9479 38.912C32.114 39.0394 32.2667 39.1835 32.4036 39.3421L33.5709 40.5709C34.5488 41.5949 35.8852 43.0797 37.3444 44.7027C38.0048 45.44 38.6346 46.1465 39.2183 46.7917L39.0084 46.8326C39.5204 45.4297 39.9811 44.2368 40.3088 43.392L40.7031 42.4141C40.7427 42.2922 40.7996 42.1767 40.872 42.071Z" fill="#263238"/>
<path d="M45.7308 40.704C45.645 41.1084 45.518 41.503 45.3519 41.8816C45.0908 42.5933 44.7068 43.5763 44.2665 44.6515L44.0771 45.1174L43.9439 45.44L43.8313 45.1123C43.3859 43.9672 42.8464 42.8609 42.2185 41.8048C42.4878 42.0462 42.716 42.3298 42.8943 42.6445C43.3841 43.3877 43.7829 44.187 44.0822 45.0253H43.8313C43.8927 44.8717 43.9593 44.7181 44.0207 44.5593C44.4611 43.479 44.8707 42.5113 45.1779 41.815C45.3184 41.4244 45.504 41.0516 45.7308 40.704Z" fill="#263238"/>
<path d="M148.392 192.292L151.505 204.651L156.789 213.719C156.879 213.873 156.936 214.045 156.958 214.223C156.979 214.4 156.963 214.58 156.912 214.752C156.86 214.923 156.774 215.082 156.659 215.219C156.544 215.356 156.401 215.467 156.241 215.547C156.057 215.643 155.852 215.693 155.645 215.693C155.437 215.693 155.232 215.643 155.048 215.547C152.672 214.267 143.968 209.51 143.784 208.594C143.579 207.534 139.632 195.794 139.632 195.794L148.392 192.292Z" fill="#FFC100"/>
<g opacity="0.6">
<path d="M156.261 215.547L143.584 207.749L143.728 208.261C143.851 208.712 144.13 209.104 144.516 209.367C145.54 210.068 148.448 211.927 155.028 215.511C155.218 215.612 155.429 215.665 155.645 215.665C155.86 215.665 156.071 215.612 156.261 215.511V215.547Z" fill="white"/>
</g>
<g opacity="0.6">
<path d="M145.008 203.09C145.19 203.158 145.341 203.292 145.431 203.465C145.521 203.638 145.543 203.838 145.494 204.027C145.432 204.212 145.301 204.365 145.128 204.456C144.956 204.546 144.755 204.567 144.567 204.513C144.374 204.441 144.214 204.299 144.119 204.116C144.024 203.932 144.002 203.72 144.055 203.52C144.14 203.332 144.294 203.185 144.486 203.111C144.677 203.036 144.89 203.039 145.079 203.121" fill="white"/>
</g>
<path d="M151.976 210.954C152.163 210.488 152.438 210.063 152.785 209.7C153.188 209.399 153.642 209.175 154.126 209.039C154.126 209.009 153.947 208.957 153.65 208.993C153.261 209.058 152.898 209.231 152.603 209.493C152.308 209.755 152.092 210.094 151.981 210.473C151.904 210.77 151.935 210.954 151.976 210.954Z" fill="#263238"/>
<path d="M153.297 212.357C153.374 212.398 153.655 211.886 154.239 211.528C154.616 211.345 155.002 211.183 155.396 211.041C155.174 210.976 154.94 210.964 154.713 211.008C154.486 211.052 154.272 211.149 154.091 211.292C153.43 211.712 153.225 212.342 153.297 212.357Z" fill="#263238"/>
<path d="M149.759 209.295C150.536 208.243 151.604 207.442 152.831 206.991C152.153 207.044 151.504 207.289 150.96 207.697C150.416 208.105 150 208.659 149.759 209.295Z" fill="#263238"/>
<path d="M148.494 205.619C148.551 205.681 149.15 205.21 150.03 204.938C150.911 204.667 151.664 204.677 151.669 204.595C151.103 204.414 150.492 204.439 149.943 204.667C149.364 204.806 148.852 205.143 148.494 205.619Z" fill="#263238"/>
<path d="M147.491 202.015C147.976 201.69 148.506 201.437 149.063 201.262C149.638 201.167 150.224 201.152 150.804 201.216C150.804 201.185 150.64 201.073 150.292 200.986C149.859 200.882 149.408 200.882 148.976 200.986C148.543 201.087 148.141 201.291 147.803 201.58C147.568 201.805 147.465 201.984 147.491 202.015Z" fill="#263238"/>
<path d="M148.848 200.581C148.848 200.418 148.811 200.257 148.74 200.11C148.58 199.695 148.34 199.316 148.034 198.994C147.828 198.741 147.546 198.561 147.23 198.482C147.123 198.464 147.013 198.481 146.917 198.53C146.82 198.579 146.742 198.657 146.692 198.753C146.602 198.942 146.588 199.158 146.651 199.357C146.792 199.763 147.07 200.107 147.438 200.329C147.805 200.552 148.239 200.639 148.663 200.576C149.082 200.504 149.47 200.309 149.778 200.016C150.086 199.724 150.3 199.347 150.394 198.932C150.416 198.828 150.415 198.72 150.392 198.616C150.369 198.512 150.325 198.414 150.261 198.328C150.188 198.249 150.091 198.195 149.985 198.174C149.88 198.153 149.77 198.166 149.672 198.211C149.387 198.36 149.147 198.583 148.976 198.856C148.715 199.214 148.521 199.616 148.402 200.043C148.345 200.195 148.321 200.358 148.331 200.52C148.522 199.971 148.792 199.453 149.134 198.984C149.293 198.753 149.506 198.565 149.754 198.436C149.808 198.411 149.868 198.404 149.926 198.416C149.984 198.428 150.037 198.458 150.076 198.502C150.113 198.561 150.138 198.627 150.148 198.696C150.159 198.764 150.155 198.834 150.138 198.902C150.045 199.26 149.851 199.583 149.578 199.833C149.306 200.083 148.967 200.248 148.602 200.31C148.241 200.361 147.873 200.287 147.559 200.101C147.245 199.915 147.005 199.627 146.876 199.286C146.827 199.148 146.827 198.998 146.876 198.861C146.903 198.807 146.946 198.763 147 198.735C147.053 198.707 147.114 198.698 147.173 198.707C147.439 198.775 147.679 198.921 147.86 199.127C148.273 199.549 148.608 200.041 148.848 200.581Z" fill="#263238"/>
<path d="M109.803 194.596L110.463 204.124C110.463 204.124 101.001 207.995 100.95 209.756L119.469 209.152L119.054 194.263L109.803 194.596Z" fill="#FFC100"/>
<path d="M116.162 203.131C116.343 203.179 116.499 203.293 116.601 203.45C116.703 203.607 116.744 203.796 116.715 203.981C116.674 204.163 116.565 204.324 116.409 204.428C116.254 204.533 116.065 204.575 115.88 204.544C115.689 204.492 115.524 204.371 115.417 204.205C115.311 204.038 115.269 203.838 115.301 203.643C115.365 203.458 115.497 203.305 115.671 203.215C115.844 203.125 116.046 203.106 116.233 203.161" fill="#E0E0E0"/>
<path d="M119.469 209.152L119.372 207.652L101.651 208.804C101.651 208.804 100.837 209.193 100.95 209.771L119.469 209.152Z" fill="#E0E0E0"/>
<path d="M110.161 204.032C110.161 204.119 110.622 204.15 111.072 204.421C111.523 204.692 111.779 205.071 111.861 205.035C111.943 205 111.789 204.477 111.236 204.15C110.683 203.822 110.14 203.96 110.161 204.032Z" fill="#263238"/>
<path d="M108.246 204.907C108.246 205 108.625 205.138 108.942 205.512C109.26 205.885 109.367 206.285 109.454 206.28C109.541 206.275 109.588 205.768 109.178 205.302C108.768 204.836 108.246 204.826 108.246 204.907Z" fill="#263238"/>
<path d="M107.217 207.273C107.304 207.273 107.411 206.833 107.166 206.346C106.92 205.86 106.485 205.675 106.449 205.752C106.413 205.829 106.684 206.085 106.884 206.484C107.084 206.884 107.13 207.263 107.217 207.273Z" fill="#263238"/>
<path d="M110.253 201.856C110.294 201.933 110.704 201.794 111.216 201.815C111.728 201.835 112.132 201.979 112.173 201.902C112.214 201.825 111.825 201.513 111.221 201.498C110.617 201.482 110.202 201.784 110.253 201.856Z" fill="#263238"/>
<path d="M110.156 199.936C110.463 200.004 110.782 199.992 111.083 199.9C111.414 199.828 111.735 199.716 112.04 199.567C112.218 199.48 112.389 199.379 112.552 199.265C112.657 199.207 112.75 199.131 112.829 199.04C112.885 198.974 112.919 198.891 112.923 198.804C112.928 198.717 112.904 198.63 112.854 198.559C112.806 198.498 112.744 198.448 112.674 198.415C112.604 198.381 112.527 198.364 112.45 198.364C112.331 198.367 112.214 198.387 112.101 198.426C111.905 198.479 111.715 198.551 111.533 198.641C111.226 198.791 110.944 198.99 110.699 199.229C110.279 199.644 110.146 199.987 110.187 200.003C110.228 200.018 110.427 199.741 110.852 199.398C111.101 199.194 111.374 199.022 111.666 198.886C111.832 198.812 112.003 198.752 112.178 198.707C112.373 198.651 112.537 198.641 112.593 198.707C112.649 198.774 112.593 198.753 112.593 198.81C112.533 198.876 112.464 198.933 112.388 198.979C112.234 199.087 112.073 199.186 111.907 199.276C111.624 199.425 111.33 199.55 111.026 199.649C110.729 199.721 110.438 199.817 110.156 199.936Z" fill="#263238"/>
<path d="M110.274 200.054C110.309 200.054 110.478 199.736 110.489 199.153C110.494 198.805 110.44 198.458 110.33 198.129C110.265 197.935 110.179 197.75 110.074 197.576C110.02 197.455 109.936 197.351 109.83 197.272C109.725 197.193 109.601 197.142 109.47 197.125C109.387 197.13 109.308 197.158 109.241 197.206C109.174 197.254 109.122 197.32 109.091 197.396C109.045 197.506 109.016 197.621 109.004 197.739C108.973 197.946 108.973 198.157 109.004 198.364C109.067 198.71 109.215 199.036 109.434 199.311C109.813 199.777 110.192 199.874 110.197 199.823C110.202 199.772 109.905 199.613 109.613 199.158C109.444 198.898 109.334 198.604 109.291 198.297C109.265 198.119 109.265 197.938 109.291 197.76C109.291 197.565 109.383 197.401 109.454 197.422C109.526 197.442 109.71 197.56 109.792 197.714C109.887 197.878 109.97 198.049 110.038 198.226C110.152 198.521 110.223 198.832 110.248 199.147C110.309 199.7 110.228 200.043 110.274 200.054Z" fill="#263238"/>
<path d="M104.749 90.9517L107.729 201.83L122.341 201.39L121.215 106.23L139.831 204.037L153.026 200.591L135.991 91.1667L104.749 90.9517Z" fill="#263238"/>
<path d="M112.757 201.984C112.68 201.984 112.624 179 112.624 150.651C112.624 122.301 112.68 99.3177 112.757 99.3177C112.834 99.3177 112.89 122.296 112.89 150.651C112.89 179.005 112.828 201.984 112.757 201.984Z" fill="#455A64"/>
<path d="M143.999 204.001C143.927 204.001 140.517 181.985 136.38 154.793C132.244 127.601 128.936 105.544 129.023 105.533C129.11 105.523 132.505 127.549 136.642 154.752C140.779 181.955 144.076 203.991 143.999 204.001Z" fill="#455A64"/>
<path d="M125.685 21.6166C126.194 20.4772 126.607 19.2972 126.919 18.0889C127.093 17.1673 127.369 15.79 127.001 14.9299C126.632 14.0697 125.736 13.2403 124.61 13.4758C124.493 12.571 124.147 11.711 123.605 10.9772C123.063 10.2434 122.342 9.66012 121.512 9.28251C119.909 8.50713 118.169 8.0548 116.392 7.95131C115.742 7.88553 115.086 7.9678 114.472 8.19195C113.951 8.45627 113.541 8.89725 113.315 9.43611C112.778 9.04987 112.158 8.79455 111.504 8.69054C110.851 8.58653 110.182 8.63671 109.552 8.83707C108.139 9.21595 106.531 9.97883 105.911 11.2998C105.468 12.2884 105.429 13.4114 105.804 14.4281C106.075 15.2883 106.987 16.6399 107.852 16.3225" fill="#263238"/>
<path d="M118.563 45.5321C117.715 45.5148 116.88 45.3272 116.107 44.9806C115.333 44.634 114.637 44.1354 114.06 43.5145C113.483 42.8936 113.037 42.163 112.748 41.3662C112.459 40.5693 112.333 39.7225 112.378 38.8761C112.465 37.1097 112.547 35.6812 112.547 35.6812C112.547 35.6812 107.724 35.0566 107.545 30.254C107.365 25.4515 107.924 14.4127 107.924 14.4127C110.626 13.1753 113.61 12.6818 116.566 12.9833C119.523 13.2849 122.346 14.3705 124.743 16.1279L125.465 16.6399L125.019 39.3267C125.003 40.1582 124.823 40.9784 124.49 41.7405C124.157 42.5025 123.677 43.1914 123.077 43.7677C122.478 44.344 121.77 44.7965 120.996 45.0992C120.221 45.402 119.394 45.5491 118.563 45.5321Z" fill="#FFBE9D"/>
<path d="M112.552 35.6301C114.77 35.6151 116.933 34.9414 118.768 33.6947C118.768 33.6947 117.288 37.4169 112.485 37.1046L112.552 35.6301Z" fill="#EB996E"/>
<path d="M124.999 21.632C125.081 21.5961 128.276 20.5721 128.25 23.8592C128.224 27.1462 124.937 26.4448 124.932 26.3475C124.927 26.2502 124.999 21.632 124.999 21.632Z" fill="#FFBE9D"/>
<path d="M125.941 25.1084C125.941 25.1084 126.002 25.1493 126.094 25.1954C126.162 25.2242 126.236 25.239 126.309 25.239C126.383 25.239 126.456 25.2242 126.524 25.1954C126.738 25.0632 126.913 24.8762 127.03 24.6538C127.147 24.4315 127.202 24.1818 127.19 23.9308C127.2 23.6492 127.146 23.3689 127.031 23.1116C127.002 23.009 126.948 22.9151 126.874 22.8383C126.8 22.7615 126.708 22.7042 126.606 22.6713C126.541 22.6526 126.471 22.6579 126.409 22.686C126.347 22.7141 126.297 22.7634 126.268 22.8249C126.222 22.917 126.243 22.9785 126.227 22.9836C126.212 22.9887 126.156 22.9324 126.181 22.7941C126.202 22.7129 126.248 22.6408 126.315 22.5893C126.407 22.5236 126.52 22.4944 126.632 22.5074C126.766 22.5363 126.89 22.5983 126.994 22.6877C127.098 22.7772 127.178 22.8912 127.226 23.0194C127.365 23.3041 127.43 23.6193 127.415 23.9359C127.429 24.2284 127.356 24.5184 127.206 24.7698C127.056 25.0211 126.835 25.2226 126.571 25.349C126.484 25.371 126.393 25.3742 126.305 25.3583C126.216 25.3424 126.132 25.3078 126.059 25.2569C125.946 25.1903 125.931 25.1186 125.941 25.1084Z" fill="#EB996E"/>
<path d="M109.168 21.9238C109.172 22.1027 109.245 22.2731 109.372 22.3991C109.499 22.5252 109.67 22.5971 109.849 22.5997C109.936 22.6045 110.023 22.5918 110.106 22.5623C110.188 22.5328 110.264 22.4871 110.328 22.428C110.393 22.3688 110.444 22.2973 110.481 22.2178C110.517 22.1382 110.537 22.0522 110.54 21.9648C110.537 21.7855 110.464 21.6144 110.337 21.488C110.21 21.3617 110.038 21.2903 109.859 21.2889C109.772 21.2848 109.685 21.298 109.603 21.3278C109.521 21.3575 109.445 21.4032 109.381 21.4623C109.317 21.5213 109.265 21.5925 109.228 21.6717C109.192 21.7509 109.171 21.8366 109.168 21.9238Z" fill="#263238"/>
<path d="M108.999 21.1558C109.086 21.2429 109.598 20.8486 110.335 20.8333C111.072 20.8179 111.625 21.1712 111.702 21.079C111.779 20.9869 111.651 20.8793 111.41 20.7104C111.085 20.4981 110.703 20.3909 110.315 20.4032C109.93 20.4116 109.559 20.5426 109.255 20.7769C109.029 20.9561 108.968 21.12 108.999 21.1558Z" fill="#263238"/>
<path d="M116.397 21.9187C116.402 22.0967 116.476 22.2658 116.603 22.3907C116.73 22.5157 116.9 22.5868 117.078 22.5894C117.166 22.595 117.253 22.5827 117.336 22.5535C117.419 22.5243 117.494 22.4787 117.559 22.4194C117.624 22.36 117.675 22.2883 117.712 22.2084C117.748 22.1285 117.767 22.0422 117.769 21.9545C117.767 21.7761 117.695 21.6057 117.568 21.4796C117.442 21.3534 117.272 21.2813 117.093 21.2787C117.006 21.2746 116.918 21.2879 116.835 21.3179C116.752 21.3479 116.677 21.394 116.612 21.4535C116.547 21.513 116.495 21.5848 116.458 21.6646C116.421 21.7445 116.4 21.8308 116.397 21.9187Z" fill="#263238"/>
<path d="M116.254 21.1148C116.346 21.2018 116.853 20.8025 117.59 20.7871C118.327 20.7718 118.88 21.125 118.957 21.0329C119.034 20.9407 118.906 20.8332 118.665 20.6694C118.341 20.4537 117.958 20.3446 117.57 20.357C117.185 20.3655 116.814 20.4964 116.51 20.7308C116.284 20.91 116.213 21.0738 116.254 21.1148Z" fill="#263238"/>
<path d="M113.714 26.6495C113.322 26.539 112.918 26.4771 112.511 26.4652C112.322 26.4652 112.142 26.4191 112.107 26.2911C112.09 26.0965 112.129 25.9011 112.219 25.7279C112.388 25.2671 112.562 24.7859 112.731 24.279C113.453 22.231 113.97 20.526 113.888 20.4953C113.806 20.4646 113.151 22.1183 112.429 24.1766L111.917 25.6358C111.803 25.8659 111.774 26.1288 111.835 26.3782C111.867 26.4422 111.911 26.499 111.966 26.5448C112.02 26.5907 112.084 26.6246 112.153 26.6444C112.258 26.6699 112.367 26.6819 112.475 26.6803C112.888 26.7266 113.305 26.7162 113.714 26.6495Z" fill="#263238"/>
<path d="M115.9 27.1104C115.778 27.1104 115.798 27.904 115.127 28.4928C114.457 29.0816 113.591 29.0048 113.591 29.1225C113.591 29.2403 113.786 29.271 114.149 29.271C114.618 29.2668 115.07 29.0962 115.424 28.7897C115.767 28.4964 115.981 28.0815 116.023 27.6326C116.049 27.2998 115.957 27.1001 115.9 27.1104Z" fill="#263238"/>
<path d="M115.993 18.2272C116.069 18.4269 116.807 18.3142 117.672 18.3961C118.537 18.4781 119.249 18.6931 119.356 18.5139C119.408 18.4269 119.28 18.2374 118.993 18.0531C118.613 17.8199 118.183 17.6812 117.739 17.6486C117.293 17.6058 116.844 17.669 116.428 17.8329C116.136 17.9712 115.962 18.1299 115.993 18.2272Z" fill="#263238"/>
<path d="M109.219 19.0156C109.352 19.1795 109.854 19.0156 110.468 18.9696C111.083 18.9235 111.6 19.0515 111.712 18.8774C111.764 18.7904 111.676 18.6214 111.446 18.4678C111.137 18.2865 110.782 18.2009 110.425 18.2219C110.067 18.2428 109.724 18.3694 109.439 18.5856C109.224 18.7596 109.157 18.9337 109.219 19.0156Z" fill="#263238"/>
<path d="M125.721 17.0188C125.69 18.4217 126.043 19.9731 125.828 21.3503C125.797 21.5603 125.275 22.1286 125.229 22.3334C124.978 23.5571 124.487 24.0895 123.734 22.8454C123.442 22.3692 123.222 21.0329 123.109 20.4902L122.126 16.0819C121.014 16.695 119.767 17.0239 118.496 17.0393C117.862 17.0378 117.239 16.8749 116.685 16.5659C116.132 16.2568 115.666 15.8118 115.332 15.2729C115.044 15.7796 114.646 16.2149 114.167 16.5465C113.687 16.878 113.14 17.0972 112.564 17.1877C111.988 17.2782 111.4 17.2378 110.842 17.0694C110.284 16.901 109.771 16.6089 109.342 16.215C109.116 16.5515 108.773 16.7909 108.379 16.8858C107.986 16.9806 107.571 16.9239 107.217 16.727C106.874 16.5102 106.608 16.1903 106.458 15.8131C106.308 15.4359 106.282 15.021 106.382 14.6278C106.684 13.4502 107.918 12.7846 109.081 12.4108C113.612 10.9516 118.691 11.8988 122.853 14.1823C123.474 14.4984 124.043 14.9057 124.543 15.3907C125.024 15.9027 125.69 16.4761 125.726 17.1724" fill="#263238"/>
<path d="M122.28 16.6399C122.532 16.639 122.783 16.6787 123.022 16.7577C123.273 16.8662 123.505 17.0149 123.708 17.198C123.944 17.4028 124.174 17.669 124.456 17.9301C124.718 18.1944 125.037 18.3958 125.388 18.5189C125.686 18.6035 126.001 18.6035 126.299 18.5189C126.811 18.3756 127.006 18.0991 126.985 18.0786C126.749 18.1785 126.506 18.2607 126.258 18.3244C125.994 18.3693 125.723 18.3464 125.47 18.2578C125.159 18.1382 124.878 17.9531 124.645 17.7151C124.379 17.4642 124.133 17.2031 123.877 16.9881C123.644 16.7958 123.377 16.6498 123.089 16.558C122.562 16.4146 122.244 16.6399 122.28 16.6399Z" fill="#455A64"/>
<path d="M122.828 18.0735C122.828 18.1145 123.074 18.0735 123.34 18.3039C123.497 18.447 123.637 18.6066 123.76 18.7801C123.927 19.0128 124.139 19.2096 124.384 19.3586C124.83 19.6358 125.359 19.7481 125.879 19.6761C126.274 19.6146 126.478 19.4713 126.463 19.4406C126.448 19.4098 126.222 19.4713 125.859 19.4764C125.391 19.4886 124.931 19.364 124.533 19.118C124.062 18.8569 123.826 18.3551 123.452 18.1401C123.079 17.925 122.792 18.0377 122.828 18.0735Z" fill="#455A64"/>
<path d="M110.166 8.73473C110.166 8.73473 110.007 8.69377 109.741 8.77569C109.366 8.90108 109.043 9.14561 108.82 9.47201C108.231 10.2963 108.092 11.7555 108.548 13.1738C108.951 14.3949 109.789 15.4248 110.903 16.0666C111.233 16.2584 111.586 16.408 111.953 16.512C112.085 16.5625 112.226 16.5868 112.368 16.5837C111.905 16.377 111.454 16.1463 111.016 15.8925C109.985 15.2354 109.213 14.2425 108.83 13.0816C108.395 11.7453 108.497 10.3475 108.994 9.57953C109.187 9.27352 109.464 9.0299 109.792 8.87809C110.018 8.77057 110.166 8.76033 110.166 8.73473Z" fill="#455A64"/>
<path d="M106.188 10.7263C106.133 11.0345 106.147 11.3509 106.229 11.653C106.523 13.1458 107.398 14.4607 108.661 15.3087C108.908 15.5018 109.195 15.6381 109.5 15.7081C108.66 15.1184 107.922 14.3955 107.314 13.5679C106.357 12.1548 106.28 10.711 106.188 10.7263Z" fill="#455A64"/>
<path d="M79.7123 77.6396L72.6877 77.9929C72.2567 78.0154 71.8512 78.2039 71.5562 78.5189C71.2612 78.834 71.0997 79.251 71.1056 79.6825C71.1415 81.2902 71.4128 83.4867 72.6416 83.2665L73.4403 79.7696L79.272 84.8896C79.8619 85.421 80.5893 85.7758 81.3712 85.9136L82.7434 85.7702L79.7123 77.6396Z" fill="#FFBE9D"/>
<path d="M113.305 40.0128L109.634 41.2262L107.811 71.7158V98.7648L130.354 101.258L130.615 62.2541L129.161 42.8441L125.716 38.7277L113.305 40.0128Z" fill="#E0E0E0"/>
<path d="M112.173 41.472V38.5177L125.572 36.6541L125.035 43.4585L121.957 48.7936L116.924 49.0752L113.289 46.8326L112.173 41.472Z" fill="#E0E0E0"/>
<path d="M113.376 41.1289C113.262 40.6878 113.236 40.2285 113.3 39.7772C113.277 39.3221 113.341 38.8668 113.489 38.4358C113.603 38.8769 113.629 39.3362 113.566 39.7875C113.589 40.2426 113.524 40.6979 113.376 41.1289Z" fill="#263238"/>
<path d="M116.725 40.8831C116.624 40.3859 116.608 39.8752 116.679 39.3727C116.665 38.865 116.741 38.3589 116.904 37.8777C117.007 38.3833 117.021 38.9032 116.945 39.4137C116.959 39.9127 116.885 40.4102 116.725 40.8831Z" fill="#263238"/>
<path d="M119.966 40.5452C119.878 40.0164 119.878 39.4767 119.966 38.9478C119.961 38.4119 120.046 37.8789 120.217 37.3708C120.301 37.9 120.301 38.4392 120.217 38.9683C120.218 39.504 120.134 40.0365 119.966 40.5452Z" fill="#263238"/>
<path d="M123.079 40.0333C122.875 39.0355 122.923 38.0027 123.217 37.0278C123.285 37.5273 123.285 38.0336 123.217 38.5331C123.237 39.0371 123.191 39.5415 123.079 40.0333Z" fill="#263238"/>
<path d="M121.589 52.9203C121.553 53.0985 121.493 53.2709 121.41 53.4323C121.282 53.7497 121.082 54.2003 120.821 54.7532C120.309 55.854 119.525 57.3542 118.573 58.9516C117.621 60.5491 116.674 61.952 115.952 62.935C115.593 63.447 115.296 63.8208 115.081 64.087C114.979 64.2329 114.858 64.3654 114.723 64.4812C115.051 63.9109 115.41 63.3588 115.798 62.8275C116.479 61.8035 117.396 60.4108 118.358 58.8185C119.321 57.2262 120.104 55.7465 120.667 54.6662C120.944 54.0686 121.251 53.4858 121.589 52.9203Z" fill="#263238"/>
<path d="M125.649 38.2515L129.284 40.0025L136.309 41.7279C137.793 41.986 139.121 42.8064 140.015 44.0186C140.91 45.2307 141.302 46.7411 141.111 48.2355L137.43 76.9075L141.823 104.709L124.415 104.197L123.391 93.8547V65.1827L125.649 38.2515Z" fill="#455A64"/>
<path d="M123.391 71.7875C123.399 71.6669 123.416 71.5471 123.442 71.429C123.493 71.173 123.56 70.8402 123.642 70.405L124.415 66.7084L127.072 54.5382C127.364 53.2326 127.646 51.9782 127.917 50.7391L127.953 50.862L126.745 49.5974L126.678 49.5257L126.729 49.4438L128.752 46.0799V46.1772L126.519 40.7705C126.268 40.1407 126.064 39.6339 125.915 39.2345C125.836 39.0592 125.771 38.8777 125.721 38.6918C125.823 38.8532 125.909 39.0248 125.977 39.2038L126.642 40.6937L128.936 46.1055L128.962 46.1567L128.931 46.2079C128.311 47.2319 127.641 48.3839 126.929 49.5922V49.4386L128.137 50.693L128.188 50.7442V50.8108C127.917 52.0345 127.635 53.3043 127.349 54.6099C126.284 59.3459 125.301 63.6313 124.615 66.7647C124.261 68.3007 123.97 69.5449 123.76 70.446L123.514 71.4393C123.485 71.5593 123.444 71.676 123.391 71.7875Z" fill="#263238"/>
<path d="M80.0093 76.4824L95.4102 67.8962L102.87 47.7695C103.387 46.3792 104.184 45.11 105.212 44.0407C106.24 42.9714 107.476 42.1249 108.845 41.5538L110.827 40.7295V93.7164L111.221 106.271L102.875 103.772L107.135 78.5407L105.66 66.1247L104.201 72.1304C103.945 73.196 103.475 74.1987 102.822 75.0785C102.168 75.9583 101.343 76.6971 100.397 77.2504L84.392 85.5653L80.0093 76.4824Z" fill="#455A64"/>
<path d="M80.1936 76.8716L78.8982 77.2607L82.5436 85.9545L84.2435 85.294L80.1936 76.8716Z" fill="#E0E0E0"/>
<path d="M98.216 71.4701C97.8988 70.7826 97.5128 70.129 97.064 69.5193C96.5463 68.9675 95.9752 68.4684 95.359 68.0294C96.1043 68.2868 96.7648 68.7437 97.2685 69.3503C97.7723 69.957 98.0999 70.6901 98.216 71.4701Z" fill="#263238"/>
<path d="M81.8576 76.5952C81.8576 76.631 81.7808 76.6976 81.7705 76.8461C81.7603 76.9945 81.8576 77.1686 82.0624 77.1072C82.1011 77.0982 82.1366 77.079 82.1653 77.0515C82.1939 77.0239 82.2146 76.9892 82.2251 76.9509C82.2356 76.9125 82.2355 76.8721 82.2249 76.8338C82.2143 76.7955 82.1935 76.7608 82.1647 76.7334C82.0777 76.6105 81.9651 76.6054 81.96 76.5645C81.9548 76.5235 82.1033 76.4518 82.2979 76.5952C82.3539 76.6397 82.3988 76.6966 82.429 76.7615C82.4593 76.8264 82.474 76.8974 82.472 76.9689C82.4635 77.0608 82.4271 77.1479 82.3676 77.2184C82.3081 77.2889 82.2283 77.3395 82.1392 77.3632C82.0615 77.3903 81.9778 77.3948 81.8978 77.3763C81.8177 77.3578 81.7445 77.317 81.6866 77.2586C81.6287 77.2002 81.5886 77.1266 81.5708 77.0464C81.5531 76.9661 81.5584 76.8825 81.5862 76.8051C81.6732 76.5747 81.832 76.544 81.8576 76.5952Z" fill="#263238"/>
<path d="M83.0966 76.0729C83.0966 76.1088 83.0198 76.1753 83.0147 76.3238C83.0096 76.4723 83.1018 76.6464 83.3066 76.5849C83.3453 76.5751 83.3806 76.5551 83.4091 76.5271C83.4375 76.499 83.458 76.4639 83.4684 76.4254C83.4788 76.3868 83.4788 76.3462 83.4684 76.3077C83.4579 76.2691 83.4374 76.234 83.409 76.206C83.3219 76.0883 83.2093 76.078 83.199 76.0422C83.1888 76.0064 83.3424 75.9244 83.5421 76.0729C83.598 76.1164 83.6429 76.1724 83.6732 76.2364C83.7034 76.3005 83.7182 76.3708 83.7162 76.4416C83.7062 76.5341 83.669 76.6216 83.6094 76.693C83.5497 76.7645 83.4702 76.8166 83.3809 76.8429C83.2916 76.8692 83.1965 76.8685 83.1077 76.8408C83.0188 76.8131 82.9401 76.7597 82.8816 76.6873C82.8422 76.6276 82.817 76.5595 82.8082 76.4885C82.7993 76.4175 82.8069 76.3453 82.8304 76.2777C82.9174 76.032 83.0966 76.032 83.0966 76.0729Z" fill="#263238"/>
<path d="M110.826 72.6016C110.792 72.4971 110.769 72.3888 110.76 72.279C110.724 72.0333 110.673 71.721 110.617 71.3318C110.499 70.4768 110.34 69.2838 110.146 67.8554C109.767 64.8857 109.255 60.8358 108.686 56.3661C108.61 55.7312 108.533 55.1065 108.456 54.487V54.4563V54.4256C108.845 53.4374 109.224 52.48 109.582 51.5635V51.6608C109.193 50.775 108.819 49.9251 108.471 49.1008V49.065V49.024C109.157 46.5613 109.731 44.4877 110.14 42.9926C110.345 42.2861 110.509 41.7229 110.627 41.303C110.677 41.1 110.744 40.9014 110.826 40.7091C110.799 40.9152 110.757 41.1189 110.698 41.3184C110.596 41.7433 110.453 42.3168 110.274 43.0285C109.884 44.5286 109.342 46.6125 108.702 49.0854V49.0086L109.833 51.5379V51.584V51.6352L108.712 54.528V54.4614C108.789 55.0758 108.866 55.7056 108.947 56.3405C109.459 60.8153 109.971 64.8653 110.325 67.8349C110.489 69.2838 110.622 70.4665 110.714 71.3267L110.806 72.2739C110.826 72.3819 110.833 72.4919 110.826 72.6016Z" fill="#263238"/>
<path d="M107.12 78.6893C107.095 78.6075 107.077 78.5235 107.068 78.4384C107.043 78.2438 107.007 78.0032 106.966 77.7165C106.884 77.0458 106.777 76.1446 106.638 75.049C106.367 72.7962 105.983 69.6883 105.522 66.2579C105.061 62.8275 104.611 59.7248 104.283 57.4822C104.124 56.3917 103.991 55.4906 103.894 54.825C103.858 54.5331 103.827 54.313 103.802 54.0979C103.788 54.0131 103.788 53.9267 103.802 53.8419C103.832 53.9214 103.855 54.0037 103.868 54.0877C103.909 54.2822 103.955 54.5178 104.012 54.8045C104.13 55.4291 104.293 56.3405 104.483 57.4515C104.862 59.689 105.343 62.7866 105.804 66.2221C106.265 69.6576 106.618 72.7706 106.828 75.0285C106.94 76.1549 107.022 77.0765 107.074 77.7011C107.074 77.993 107.109 78.2131 107.12 78.4333C107.133 78.5181 107.133 78.6045 107.12 78.6893Z" fill="#263238"/>
<path d="M104.995 97.5359C105.093 97.6941 105.212 97.8387 105.348 97.966C105.543 98.1229 105.771 98.2331 106.015 98.2881C106.259 98.3431 106.513 98.3415 106.756 98.2834C107.112 98.1715 107.436 97.9774 107.703 97.7168C107.97 97.4561 108.172 97.1363 108.292 96.7833C108.573 95.892 108.718 94.9633 108.722 94.0287C108.833 93.1027 108.737 92.1636 108.441 91.2793C108.114 90.5942 107.636 89.992 107.043 89.518C106.642 89.175 106.285 88.7848 105.978 88.3557C105.858 88.2052 105.773 88.0305 105.727 87.8438C105.727 87.8438 105.834 88.0178 106.06 88.3045C106.394 88.7013 106.766 89.0648 107.171 89.39C107.807 89.864 108.319 90.4838 108.666 91.1973C108.994 92.1117 109.104 93.0899 108.988 94.0543C108.984 95.0168 108.827 95.9725 108.522 96.8857C108.384 97.2668 108.156 97.6094 107.859 97.8854C107.561 98.1614 107.203 98.3627 106.812 98.4729C106.542 98.5359 106.259 98.5305 105.991 98.4572C105.723 98.3839 105.477 98.245 105.276 98.053C105.172 97.9493 105.087 97.828 105.026 97.6946C104.995 97.5769 104.985 97.5359 104.995 97.5359Z" fill="#263238"/>
<path d="M99.2708 77.6396C99.2708 77.6396 99.7828 71.767 104.432 71.2242C104.432 71.2242 104.519 76.0319 99.2708 77.6396Z" fill="#263238"/>
<path d="M124.195 99.63L137.737 108.488L139.273 107.264L139.995 87.4137L127.098 77.6396L125.326 78.2489L124.195 99.63Z" fill="#FFC100"/>
<path d="M126.949 77.9213L127.477 99.4048H124.63L125.582 78.3462L126.949 77.9213Z" fill="#E0E0E0"/>
<path d="M131.209 104.34C131.336 104.644 131.549 104.903 131.822 105.085C132.096 105.267 132.417 105.364 132.745 105.364C132.77 105.371 132.793 105.384 132.813 105.4C132.832 105.417 132.848 105.438 132.858 105.462C132.985 105.695 133.17 105.89 133.395 106.03C133.621 106.17 133.878 106.25 134.143 106.26C134.658 106.26 135.161 106.114 135.597 105.841C136.304 105.411 137.563 102.584 137.563 102.584L140.548 95.9283L135.531 94.5715L129.151 96.5581C129.151 96.6758 127.656 102.702 127.656 102.702C128.019 102.788 128.402 102.739 128.732 102.564C129.062 102.389 129.316 102.099 129.448 101.75C129.772 101.02 130.148 100.315 130.574 99.6403L131.051 102.359L129.233 102.979C129.174 103.264 129.22 103.561 129.363 103.815C129.506 104.069 129.737 104.263 130.011 104.361L131.209 104.34Z" fill="#FFBE9D"/>
<path d="M133.462 57.6307L141.823 73.0214L135.019 93.2198L142.581 97.4848L152.201 75.008C152.553 74.1836 152.727 73.2945 152.713 72.3983C152.699 71.5021 152.497 70.619 152.119 69.806L140.343 44.4672L133.462 57.6307Z" fill="#455A64"/>
<path d="M135.019 93.2197L134.312 94.7864L141.449 98.6367L142.197 97.2645L135.019 93.2197Z" fill="#E0E0E0"/>
<path d="M135.019 93.2198C135.019 93.2198 135.019 93.1839 135.019 93.1174C135.019 93.0508 135.07 92.9433 135.106 92.8204L135.469 91.6786C135.802 90.6546 136.273 89.2262 136.857 87.4342C138.065 83.8092 139.749 78.7609 141.675 72.9804V73.0879C140.702 71.4342 139.698 69.6882 138.69 67.886C136.846 64.5938 135.157 61.4194 133.708 58.4857C132.991 57.0162 132.325 55.6134 131.762 54.2668C131.209 53.0138 130.97 51.6447 131.066 50.2783C131.111 49.1548 131.363 48.0492 131.808 47.0169C132.16 46.2425 132.663 45.5463 133.288 44.9689C133.68 44.604 134.13 44.3064 134.619 44.0882C134.784 44.0097 134.955 43.9463 135.131 43.8988C134.473 44.1699 133.869 44.5585 133.349 45.0457C132.746 45.6267 132.265 46.3232 131.936 47.0937C131.512 48.1129 131.276 49.2006 131.24 50.3039C131.162 51.6393 131.406 52.974 131.952 54.1951C132.525 55.5314 133.196 56.9292 133.918 58.3935C135.372 61.317 137.072 64.4812 138.915 67.7682C139.939 69.5705 140.917 71.3164 141.884 72.9702L141.915 73.0214V73.0777C139.949 78.8479 138.239 83.886 137.005 87.5007L135.592 91.7094C135.418 92.1855 135.285 92.5593 135.187 92.8358L135.075 93.1276C135.059 93.1598 135.04 93.1906 135.019 93.2198Z" fill="#263238"/>
<path d="M147.476 72.878C147.194 72.7999 146.919 72.7024 146.651 72.5861C145.325 72.1463 143.887 72.1916 142.591 72.7141C142.332 72.8477 142.063 72.9624 141.787 73.0572C141.987 72.8327 142.236 72.6574 142.514 72.5452C143.166 72.2264 143.878 72.0518 144.603 72.0332C145.328 72.0079 146.05 72.1407 146.718 72.4223C147.002 72.5144 147.261 72.6702 147.476 72.878Z" fill="#263238"/>
<path d="M131.788 53.9698L137.794 74.071L138.644 67.461L131.788 53.9698Z" fill="#263238"/>
<path d="M141.736 93.4656C141.736 93.5014 141.659 93.568 141.654 93.7164C141.649 93.8649 141.741 94.039 141.946 93.9776C141.985 93.9677 142.02 93.9477 142.048 93.9197C142.077 93.8917 142.097 93.8566 142.108 93.818C142.118 93.7795 142.118 93.7389 142.108 93.7003C142.097 93.6618 142.077 93.6267 142.048 93.5987C141.961 93.4809 141.849 93.4707 141.843 93.4348C141.838 93.399 141.982 93.3222 142.181 93.4656C142.238 93.5095 142.283 93.5664 142.314 93.6314C142.344 93.6964 142.358 93.7677 142.355 93.8393C142.346 93.9316 142.309 94.0188 142.248 94.0893C142.188 94.1597 142.107 94.2101 142.018 94.2336C141.927 94.2668 141.828 94.2698 141.736 94.2421C141.644 94.2144 141.563 94.1575 141.506 94.08C141.466 94.0212 141.441 93.954 141.432 93.8838C141.423 93.8136 141.431 93.7423 141.454 93.6755C141.531 93.44 141.736 93.44 141.736 93.4656Z" fill="#263238"/>
<path d="M142.315 92.0166C142.315 92.0524 142.238 92.119 142.233 92.2726C142.226 92.3113 142.229 92.3511 142.242 92.3883C142.255 92.4255 142.277 92.4588 142.306 92.485C142.335 92.5112 142.371 92.5294 142.409 92.538C142.448 92.5465 142.488 92.5451 142.525 92.5338C142.563 92.5226 142.597 92.5019 142.625 92.4737C142.652 92.4454 142.672 92.4107 142.682 92.3727C142.692 92.3347 142.692 92.2947 142.683 92.2566C142.673 92.2184 142.654 92.1834 142.627 92.1548C142.54 92.0319 142.422 92.0268 142.417 91.9859C142.412 91.9449 142.56 91.8732 142.76 92.0166C142.816 92.0611 142.861 92.118 142.891 92.1829C142.921 92.2478 142.936 92.3188 142.934 92.3903C142.932 92.456 142.916 92.5204 142.887 92.5793C142.857 92.6381 142.816 92.6899 142.765 92.7312C142.714 92.7724 142.654 92.8021 142.59 92.8182C142.527 92.8343 142.46 92.8365 142.396 92.8245C142.331 92.8126 142.27 92.7868 142.216 92.749C142.162 92.7112 142.118 92.6622 142.085 92.6054C142.052 92.5486 142.031 92.4853 142.025 92.4199C142.019 92.3545 142.027 92.2885 142.048 92.2265C142.135 91.9961 142.315 91.9807 142.315 92.0166Z" fill="#263238"/>
<path d="M150.532 66.4115C149.636 66.8825 149.324 68.2035 149.426 69.2121C149.529 70.2208 149.902 71.1987 149.877 72.2073C149.81 72.9287 149.681 73.6429 149.493 74.3424C149.3 75.0443 149.321 75.7878 149.554 76.4774C149.678 76.8182 149.912 77.1082 150.219 77.3018C150.526 77.4955 150.888 77.5819 151.249 77.5475L151.961 76.1139C152.515 74.9917 152.795 73.7538 152.777 72.5022C152.759 71.2506 152.444 70.0212 151.858 68.9152L150.532 66.4115Z" fill="#263238"/>
<path d="M84.0798 4.66001C84.1658 4.67484 84.25 4.6986 84.3311 4.73091L85.0702 4.93946C85.4679 5.05974 85.8559 5.21011 86.2307 5.38925C86.4561 5.49541 86.7054 5.59234 86.9562 5.72162L87.7489 6.17403C89.0984 6.96829 90.3086 7.97827 91.3315 9.16384C93.7951 12.0364 95.0654 15.7433 94.8814 19.5231C94.6974 23.303 93.0732 26.8689 90.3423 29.4887C88.0087 31.7172 85.0158 33.1294 81.812 33.5136C80.126 33.7121 78.4183 33.6121 76.767 33.218C75.0582 32.8481 73.4328 32.1641 71.9738 31.2007L71.8398 31.1097L71.9532 31.1416L62.8382 31.6767L62.4698 31.7004L62.6706 31.3847L66.7753 25.095L66.7625 25.2722C65.7521 23.2037 65.239 20.9277 65.2641 18.6257C65.2892 16.3237 65.8519 14.0594 66.9072 12.0133C67.7898 10.2929 69.0073 8.7662 70.4883 7.52297C71.7555 6.4476 73.1959 5.59485 74.7482 5.00097C75.9951 4.49979 77.3109 4.19119 78.6506 4.08577C79.1872 4.02239 79.7277 3.9971 80.2679 4.0101C80.7217 4.01007 81.1749 4.04195 81.6242 4.10549C82.0287 4.16112 82.3904 4.19931 82.693 4.25809L83.4588 4.44756L83.9466 4.5852C84.0012 4.59147 84.0545 4.60649 84.1043 4.62969C84.049 4.6273 83.9939 4.62066 83.9397 4.60983L83.4717 4.51503L82.7074 4.35791C82.402 4.30898 82.0439 4.27711 81.6415 4.23272C81.1957 4.17968 80.7468 4.15789 80.298 4.16754C79.7577 4.15364 79.2172 4.17893 78.6806 4.2432C78.0632 4.31149 77.4501 4.41377 76.844 4.54958C76.163 4.71761 75.4945 4.93249 74.8431 5.19266C73.3268 5.79121 71.92 6.63637 70.6795 7.69395C69.2316 8.92894 68.0453 10.441 67.1904 12.1411C66.1725 14.1433 65.6348 16.355 65.6198 18.6009C65.6047 20.8469 66.1128 23.0656 67.1037 25.0812L67.1518 25.1746L67.0958 25.2599C65.7836 27.2836 64.4203 29.3816 63.0059 31.5538L62.8368 31.2667L71.9211 30.8028L71.9802 30.8194L72.0394 30.8361L72.1698 30.9208C73.592 31.8578 75.175 32.5245 76.8391 32.8873C78.4483 33.2716 80.1123 33.372 81.7561 33.184C84.8828 32.8134 87.8058 31.4417 90.0891 29.2736C92.7603 26.7082 94.3561 23.2231 94.5529 19.5248C94.7498 15.8264 93.533 12.1916 91.1493 9.35715C90.1499 8.17966 88.9701 7.16806 87.6539 6.36001L86.8801 5.89699C86.6307 5.76278 86.3878 5.66231 86.1687 5.55262C85.8011 5.3634 85.4197 5.20243 85.0278 5.07112L84.3102 4.80483C84.2297 4.76276 84.1526 4.71433 84.0798 4.66001Z" fill="#FFC100"/>
<path d="M71.2657 20.4249L73.3696 17.9987L78.0083 21.5747L86.0061 12.7256L88.2641 14.8463L77.9923 25.9641L71.2657 20.4249Z" fill="#FFC100"/>
</svg>
