<svg width="109" height="109" viewBox="0 0 109 109" fill="none" xmlns="http://www.w3.org/2000/svg">
<g clip-path="url(#clip0_1513_17100)">
<path d="M9.03613 80.2894L20.4027 80.2371L31.7692 80.2175L54.5 80.1826L77.2309 80.2175L88.5974 80.2371L99.9639 80.2894L88.5974 80.3439L77.2309 80.3635L54.5 80.3984L31.7692 80.3635L20.4027 80.3439L9.03613 80.2894Z" fill="#263238"/>
<path d="M54.5001 100.147C78.0583 100.147 97.1561 97.462 97.1561 94.1498C97.1561 90.8377 78.0583 88.1526 54.5001 88.1526C30.9418 88.1526 11.844 90.8377 11.844 94.1498C11.844 97.462 30.9418 100.147 54.5001 100.147Z" fill="#EBEBEB"/>
<path d="M9.58129 33.1639C9.50938 33.6172 9.30466 34.039 8.99301 34.3759C8.68137 34.7128 8.2768 34.9497 7.83049 35.0566C7.38419 35.1636 6.91618 35.1358 6.48569 34.9767C6.05519 34.8176 5.68155 34.5344 5.41201 34.163C5.14247 33.7915 4.98916 33.3485 4.97145 32.8899C4.95375 32.4313 5.07246 31.9777 5.31256 31.5866C5.55266 31.1955 5.90336 30.8844 6.32031 30.6926C6.73726 30.5008 7.20173 30.437 7.65495 30.5092C7.95581 30.5569 8.24431 30.6634 8.50398 30.8227C8.76364 30.9819 8.98938 31.1908 9.16828 31.4373C9.34718 31.6839 9.47574 31.9633 9.5466 32.2595C9.61747 32.5558 9.62926 32.8631 9.58129 33.1639Z" fill="#FFC727"/>
<path opacity="0.1" d="M6.9266 35.092C6.62568 35.0441 6.33714 34.9375 6.07743 34.7782C5.81772 34.6188 5.59193 34.4099 5.41297 34.1633C5.23401 33.9167 5.10537 33.6372 5.0344 33.3409C4.96343 33.0446 4.95152 32.7372 4.99934 32.4363C5.04717 32.1354 5.1538 31.8468 5.31314 31.5871C5.47248 31.3274 5.68142 31.1016 5.92802 30.9227C6.17462 30.7437 6.45405 30.6151 6.75037 30.5441C7.04668 30.4731 7.35407 30.4612 7.65499 30.509C8.12297 30.5815 8.55699 30.7972 8.89731 31.1265C8.61019 30.8687 8.2544 30.6998 7.87314 30.6403C7.4418 30.5713 6.99972 30.644 6.61313 30.8473C6.22655 31.0507 5.9163 31.3739 5.72885 31.7685C5.54141 32.163 5.48687 32.6077 5.57341 33.0359C5.65996 33.4641 5.88292 33.8526 6.2089 34.1434C6.53487 34.4342 6.9463 34.6115 7.38153 34.6488C7.81675 34.6861 8.25234 34.5813 8.62302 34.3502C8.9937 34.1191 9.2795 33.7741 9.4376 33.3669C9.59571 32.9597 9.6176 32.5122 9.49999 32.0915C9.6118 32.4374 9.63968 32.805 9.58133 33.1638C9.53385 33.4648 9.42748 33.7535 9.26832 34.0134C9.10915 34.2732 8.90032 34.4992 8.65375 34.6783C8.40718 34.8574 8.12772 34.9861 7.83136 35.0571C7.535 35.1281 7.22755 35.1399 6.9266 35.092Z" fill="black"/>
<path d="M65.0249 26.829C65.9819 20.5129 61.6375 14.6169 55.3214 13.6599C49.0053 12.7029 43.1093 17.0473 42.1523 23.3634C41.1953 29.6795 45.5398 35.5755 51.8559 36.5325C58.172 37.4895 64.0679 33.1451 65.0249 26.829Z" fill="#FFC727"/>
<path opacity="0.1" d="M51.6289 36.4971C49.8385 36.2089 48.141 35.5033 46.6738 34.4374C45.2067 33.3715 44.011 31.9752 43.1836 30.3615C42.3562 28.7478 41.9202 26.9619 41.911 25.1485C41.9018 23.335 42.3197 21.5448 43.1307 19.9228C43.9417 18.3007 45.1231 16.8924 46.5794 15.8117C48.0357 14.7309 49.726 14.0082 51.5134 13.7019C53.3008 13.3956 55.1353 13.5143 56.8683 14.0485C58.6013 14.5827 60.1843 15.5173 61.4891 16.7768C59.6895 15.1711 57.3715 14.2678 54.9599 14.2324C52.5484 14.197 50.2049 15.0319 48.3589 16.5841C46.513 18.1363 45.2883 20.3018 44.9093 22.6837C44.5304 25.0655 45.0226 27.5042 46.2956 29.5526C47.5687 31.601 49.5374 33.122 51.8409 33.8368C54.1443 34.5516 56.6282 34.4122 58.8373 33.4443C61.0463 32.4764 62.8326 30.7447 63.8685 28.5668C64.9045 26.3888 65.1208 23.9104 64.4779 21.5859C65.0765 23.4667 65.1834 25.4694 64.7883 27.4032C64.3932 29.337 63.5093 31.1374 62.2209 32.6326C60.9325 34.1278 59.2825 35.268 57.4283 35.9446C55.5741 36.6211 53.5775 36.8113 51.6289 36.4971Z" fill="black"/>
<path d="M46.774 21.6994C46.7777 21.4644 46.8282 21.2326 46.9225 21.0173C47.0168 20.8021 47.1531 20.6078 47.3234 20.4459C47.4998 20.2708 47.7138 20.1381 47.9491 20.0578C48.1904 19.9771 48.4476 19.9554 48.699 19.9946C48.9493 20.037 49.1861 20.1378 49.39 20.2889C49.5877 20.4397 49.7493 20.6326 49.8631 20.8536C49.9733 21.061 50.041 21.2884 50.0624 21.5223C50.0837 21.7562 50.0582 21.9921 49.9874 22.2161C49.9622 21.7893 49.8204 21.3776 49.5775 21.0258C49.4683 20.8658 49.328 20.7294 49.1652 20.6246C49.0023 20.5197 48.8201 20.4486 48.6292 20.4154C48.4378 20.3864 48.2425 20.3965 48.0552 20.4453C47.8678 20.494 47.6923 20.5802 47.5392 20.6988C47.1968 20.9554 46.932 21.3017 46.774 21.6994Z" fill="#263238"/>
<path d="M57.6742 23.4562C57.6776 23.2214 57.7277 22.9896 57.8217 22.7744C57.9156 22.5592 58.0515 22.3648 58.2214 22.2027C58.3982 22.0281 58.612 21.8954 58.847 21.8146C59.0882 21.7325 59.3458 21.7106 59.5973 21.7508C59.8489 21.7911 60.0868 21.8924 60.2902 22.0457C60.4878 22.1965 60.6494 22.3894 60.7633 22.6103C60.8739 22.8176 60.9419 23.045 60.9633 23.279C60.9846 23.513 60.9588 23.7489 60.8875 23.9728C60.8619 23.5462 60.7202 23.1346 60.4777 22.7826C60.3707 22.6207 60.2312 22.4828 60.0681 22.3776C59.9051 22.2724 59.7219 22.2022 59.5303 22.1715C59.3387 22.1407 59.1428 22.1501 58.955 22.199C58.7672 22.2479 58.5916 22.3353 58.4394 22.4556C58.0962 22.7115 57.8313 23.058 57.6742 23.4562Z" fill="#263238"/>
<path d="M56.3116 22.7068C56.2773 23.0347 56.1765 23.3522 56.0155 23.64C55.8545 23.9278 55.6367 24.1798 55.3752 24.3807C55.1137 24.5816 54.8141 24.7272 54.4946 24.8086C54.1751 24.8901 53.8423 24.9057 53.5166 24.8544C53.1908 24.8032 52.8789 24.6862 52.5998 24.5106C52.3207 24.3351 52.0803 24.1045 51.8931 23.833C51.7059 23.5616 51.5759 23.2549 51.511 22.9316C51.4461 22.6083 51.4477 22.2752 51.5156 21.9525L56.3116 22.7068Z" fill="#263238"/>
<path d="M55.5443 24.1279C55.2752 24.3726 54.9547 24.5538 54.6063 24.6583C54.258 24.7627 53.8906 24.7877 53.5313 24.7315C53.172 24.6752 52.8298 24.5391 52.5301 24.3332C52.2303 24.1272 51.9805 23.8567 51.7991 23.5415C52.3906 23.1761 53.0933 23.0344 53.7802 23.142C54.467 23.2495 55.0928 23.5992 55.5443 24.1279Z" fill="#C95F50"/>
<path d="M46.5866 21.6165C46.5866 21.6165 44.8426 21.0191 43.7068 21.6775C42.571 22.3359 42.9198 23.6395 44.0752 23.7354C45.2306 23.8313 46.5866 21.6165 46.5866 21.6165Z" fill="white"/>
<path d="M61.1621 23.9733C61.1621 23.9733 62.9998 24.1063 63.7781 25.1549C64.5564 26.2035 63.741 27.2608 62.6358 26.8989C61.5305 26.537 61.1621 23.9733 61.1621 23.9733Z" fill="white"/>
<path d="M29.5249 32.452C29.9998 27.5556 26.4155 23.2012 21.519 22.7262C16.6225 22.2513 12.2681 25.8357 11.7932 30.7322C11.3182 35.6287 14.9026 39.9831 19.7991 40.458C24.6956 40.9329 29.05 37.3485 29.5249 32.452Z" fill="#FFC727"/>
<path opacity="0.1" d="M23.2162 40.1223C21.8775 40.5215 20.4636 40.6002 19.0888 40.3521C17.714 40.104 16.4168 39.536 15.3021 38.694C14.1873 37.852 13.2862 36.7596 12.6716 35.505C12.057 34.2505 11.7461 32.8689 11.764 31.472C11.7819 30.0751 12.1282 28.702 12.7747 27.4636C13.4213 26.2253 14.3501 25.1563 15.4861 24.3432C16.622 23.53 17.9333 22.9955 19.314 22.7827C20.6948 22.5699 22.1062 22.6848 23.4342 23.1183C21.647 22.6091 19.7361 22.761 18.0518 23.5461C16.3674 24.3312 15.0224 25.697 14.2631 27.3932C13.5039 29.0894 13.3812 31.0024 13.9177 32.7816C14.4542 34.5609 15.6139 36.0872 17.1842 37.081C18.7546 38.0747 20.6304 38.4693 22.4681 38.1925C24.3057 37.9156 25.982 36.9859 27.1899 35.5736C28.3978 34.1613 29.0563 32.361 29.0447 30.5027C29.0332 28.6444 28.3524 26.8524 27.1272 25.4552C28.1748 26.5589 28.9222 27.9125 29.2983 29.3871C29.6744 30.8616 29.6665 32.4079 29.2755 33.8785C28.8844 35.3491 28.1232 36.6951 27.0645 37.7881C26.0057 38.8811 24.6846 39.6847 23.2271 40.1223H23.2162Z" fill="black"/>
<path d="M15.0217 31.96C14.9389 31.7968 14.8907 31.6183 14.8802 31.4356C14.8697 31.2529 14.8971 31.07 14.9607 30.8983C15.0242 30.7139 15.1285 30.5463 15.2659 30.4078C15.4097 30.2686 15.5845 30.1655 15.776 30.107C15.9686 30.0505 16.1721 30.0415 16.3689 30.0808C16.5599 30.1213 16.7394 30.204 16.8943 30.3228C17.0408 30.4325 17.163 30.5711 17.2534 30.7302C17.3438 30.8892 17.4004 31.0652 17.4197 31.2471C17.2516 30.9673 17.0114 30.7377 16.7243 30.5822C16.5992 30.5099 16.4607 30.4637 16.3172 30.4465C16.1737 30.4293 16.0282 30.4414 15.8895 30.4822C15.7509 30.523 15.622 30.5915 15.5106 30.6837C15.3993 30.7758 15.3079 30.8897 15.2419 31.0182C15.0868 31.3073 15.0108 31.6322 15.0217 31.96Z" fill="#263238"/>
<path d="M25.4267 28.3219C25.4971 28.5591 25.4958 28.8118 25.4228 29.0482C25.3499 29.2847 25.2086 29.4942 25.0168 29.6505C24.825 29.8068 24.5912 29.9028 24.3449 29.9265C24.0986 29.9501 23.8509 29.9004 23.6328 29.7835C23.4147 29.6665 23.2361 29.4877 23.1195 29.2695C23.0029 29.0513 22.9535 28.8034 22.9775 28.5572C23.0014 28.3109 23.0978 28.0773 23.2543 27.8857C23.4108 27.6941 23.6206 27.5531 23.8571 27.4804C24.0154 27.4321 24.1817 27.4156 24.3464 27.4318C24.5111 27.448 24.671 27.4966 24.8169 27.5748C24.9628 27.653 25.0917 27.7592 25.1964 27.8875C25.301 28.0157 25.3793 28.1633 25.4267 28.3219Z" fill="#263238"/>
<path d="M18.3178 30.7874C18.3178 30.7874 18.8846 31.5525 20.2428 31.4283C20.2428 31.4283 20.0509 33.9854 18.4421 33.3903C16.8333 32.7951 18.3178 30.7874 18.3178 30.7874Z" fill="#C95F50"/>
<path d="M17.8229 30.0332C18.097 30.5033 18.5033 30.8823 18.9914 31.1232C19.469 31.3216 20.0021 31.3417 20.4934 31.1798C20.9954 31.0569 21.4346 30.7535 21.7273 30.3275C22.0108 29.8678 22.168 29.3414 22.1829 28.8015C22.3259 29.369 22.2585 29.9692 21.9932 30.491C21.8509 30.7591 21.6514 30.9928 21.409 31.1755C21.1651 31.352 20.8921 31.4841 20.6024 31.5657C20.3134 31.6476 20.0128 31.6807 19.7129 31.6638C19.4101 31.6413 19.116 31.552 18.8518 31.4022C18.3435 31.0974 17.9743 30.6062 17.8229 30.0332Z" fill="#263238"/>
<path d="M18.7537 32.7075C18.7675 32.4636 18.8182 32.2233 18.9041 31.9946C18.9805 31.7605 19.093 31.5399 19.2376 31.3406C19.2256 31.5845 19.1756 31.825 19.0894 32.0535C19.0113 32.2872 18.8981 32.5077 18.7537 32.7075Z" fill="#263238"/>
<path d="M25.0371 15.8962C26.3417 13.3858 25.3642 10.2931 22.8538 8.98842C20.3433 7.68379 17.2506 8.6613 15.946 11.1717C14.6414 13.6822 15.6189 16.7749 18.1293 18.0796C20.6398 19.3842 23.7325 18.4067 25.0371 15.8962Z" fill="#FFC727"/>
<path opacity="0.1" d="M20.4436 18.6589C19.6398 18.6513 18.8491 18.4547 18.1354 18.0849C17.4218 17.7152 16.8051 17.1827 16.3353 16.5305C15.8655 15.8783 15.5558 15.1247 15.4312 14.3306C15.3066 13.5365 15.3706 12.7243 15.618 11.9595C15.8654 11.1948 16.2893 10.499 16.8554 9.9284C17.4216 9.3578 18.114 8.92843 18.8768 8.675C19.6396 8.42157 20.4513 8.35118 21.2463 8.46954C22.0413 8.58789 22.7973 8.89167 23.4532 9.3563C22.5589 8.77482 21.4849 8.53505 20.4282 8.6809C19.3714 8.82675 18.4026 9.34847 17.6991 10.1505C16.9957 10.9525 16.6048 11.9811 16.598 13.0478C16.5912 14.1146 16.969 15.1481 17.6621 15.959C18.3553 16.7699 19.3174 17.3039 20.3722 17.4632C21.427 17.6225 22.504 17.3964 23.4057 16.8264C24.3074 16.2564 24.9735 15.3805 25.282 14.3593C25.5906 13.3381 25.5208 12.24 25.0856 11.266C25.4735 12.0509 25.6539 12.9222 25.6094 13.7966C25.565 14.671 25.2972 15.5195 24.8317 16.261C24.3662 17.0026 23.7185 17.6125 22.9503 18.0326C22.1821 18.4527 21.3191 18.669 20.4436 18.6608V18.6589Z" fill="black"/>
<path d="M76.2625 16.8349C77.3262 14.788 76.5292 12.2664 74.4823 11.2027C72.4355 10.139 69.9138 10.936 68.8501 12.9828C67.7864 15.0297 68.5834 17.5513 70.6303 18.6151C72.6771 19.6788 75.1988 18.8818 76.2625 16.8349Z" fill="#FFC727"/>
<path opacity="0.1" d="M72.5172 19.0874C71.8618 19.0812 71.2172 18.9209 70.6353 18.6194C70.0534 18.318 69.5506 17.8838 69.1675 17.352C68.7845 16.8202 68.532 16.2058 68.4304 15.5584C68.3288 14.9109 68.381 14.2487 68.5827 13.6251C68.7844 13.0016 69.13 12.4343 69.5916 11.9691C70.0532 11.5038 70.6178 11.1538 71.2397 10.9471C71.8616 10.7405 72.5235 10.6831 73.1717 10.7796C73.8199 10.8761 74.4363 11.1238 74.9711 11.5026C74.2419 11.0285 73.3662 10.833 72.5046 10.9519C71.643 11.0709 70.8531 11.4962 70.2795 12.1501C69.706 12.804 69.3873 13.6427 69.3817 14.5125C69.3762 15.3823 69.6842 16.2249 70.2494 16.8861C70.8145 17.5472 71.599 17.9826 72.459 18.1125C73.319 18.2424 74.1971 18.0581 74.9323 17.5933C75.6675 17.1285 76.2106 16.4144 76.4622 15.5818C76.7137 14.7492 76.6569 13.8538 76.302 13.0597C76.6183 13.6997 76.7653 14.41 76.7291 15.123C76.6929 15.8359 76.4745 16.5277 76.095 17.1323C75.7155 17.7369 75.1873 18.2342 74.561 18.5767C73.9347 18.9193 73.231 19.0956 72.5172 19.0889V19.0874Z" fill="black"/>
<path d="M41.4953 13.6655C44.316 10.8448 44.316 6.27151 41.4953 3.45081C38.6746 0.630119 34.1014 0.630119 31.2807 3.45081C28.46 6.27151 28.46 10.8448 31.2807 13.6655C34.1014 16.4862 38.6746 16.4862 41.4953 13.6655Z" fill="#FFC727"/>
<path opacity="0.1" d="M37.0677 15.7486C35.9396 15.8549 34.8023 15.6943 33.7477 15.2797C32.6931 14.8651 31.7509 14.2083 30.9971 13.3622C30.2434 12.5161 29.6992 11.5046 29.4088 10.4093C29.1183 9.31403 29.0895 8.16578 29.3249 7.05736C29.5602 5.94894 30.0531 4.91144 30.7636 4.02873C31.4741 3.14601 32.3823 2.44285 33.4148 1.97606C34.4473 1.50928 35.5752 1.29197 36.7072 1.34171C37.8393 1.39145 38.9437 1.70683 39.9313 2.26237C38.5896 1.57491 37.0451 1.394 35.5808 1.75279C34.1165 2.11158 32.8306 2.98604 31.9586 4.21591C31.0867 5.44579 30.6872 6.94869 30.8333 8.44919C30.9794 9.94969 31.6614 11.3473 32.7542 12.3858C33.8471 13.4244 35.2776 14.0343 36.7836 14.1038C38.2895 14.1734 39.7702 13.6979 40.954 12.7645C42.1379 11.831 42.9458 10.5023 43.2296 9.02161C43.5134 7.54097 43.2541 6.00764 42.4992 4.70265C43.1565 5.747 43.5354 6.94223 43.6 8.1745C43.6646 9.40678 43.4126 10.6351 42.8682 11.7424C42.3237 12.8498 41.5047 13.7993 40.4894 14.5005C39.4741 15.2018 38.2961 15.6314 37.0677 15.7486Z" fill="black"/>
<path d="M33.8308 7.36323C33.85 7.56341 33.8094 7.76479 33.7141 7.94189C33.6189 8.119 33.4732 8.26388 33.2956 8.35822C33.1181 8.45256 32.9165 8.49211 32.7164 8.47189C32.5163 8.45166 32.3267 8.37256 32.1716 8.24458C32.0165 8.1166 31.9028 7.94551 31.8449 7.75292C31.787 7.56033 31.7876 7.3549 31.8464 7.16261C31.9053 6.97032 32.0199 6.79981 32.1756 6.67263C32.3314 6.54545 32.5214 6.46733 32.7216 6.44813C32.8545 6.43538 32.9886 6.44894 33.1163 6.48802C33.244 6.52711 33.3627 6.59097 33.4657 6.67595C33.5687 6.76092 33.654 6.86535 33.7166 6.98328C33.7793 7.1012 33.8181 7.23031 33.8308 7.36323Z" fill="#263238"/>
<path d="M40.6724 7.05758C40.8101 6.51316 40.4803 5.96023 39.9359 5.82257C39.3915 5.68491 38.8386 6.01465 38.7009 6.55907C38.5633 7.10349 38.893 7.65642 39.4374 7.79408C39.9818 7.93174 40.5348 7.602 40.6724 7.05758Z" fill="#263238"/>
<path d="M37.7611 8.26323C37.8535 9.24673 37.3082 10.1119 36.5409 10.1748C35.7737 10.2376 35.0768 9.50925 34.9825 8.52574C34.8882 7.54224 35.4354 6.67705 36.2026 6.61419C36.9698 6.55134 37.6705 7.27972 37.7611 8.26323Z" fill="#263238"/>
<path d="M31.3849 6.14096C31.3849 6.14096 32.0375 5.00586 33.5349 5.54013L31.3849 6.14096Z" fill="#263238"/>
<path d="M40.852 5.24305C40.852 5.24305 39.9979 4.25215 38.6335 5.05819L40.852 5.24305Z" fill="#263238"/>
<path d="M90.4044 28.5936C89.4503 24.1379 85.0648 21.2992 80.6091 22.2532C76.1533 23.2073 73.3146 27.5928 74.2687 32.0485C75.2227 36.5043 79.6082 39.343 84.0639 38.3889C88.5197 37.4349 91.3584 33.0494 90.4044 28.5936Z" fill="#FFC727"/>
<path opacity="0.1" d="M86.8544 37.2333C85.7705 37.9432 84.5346 38.3879 83.2468 38.5313C81.9591 38.6747 80.6556 38.513 79.442 38.059C78.2284 37.6051 77.1387 36.8717 76.2612 35.9184C75.3837 34.965 74.743 33.8185 74.391 32.5715C74.039 31.3245 73.9855 30.0121 74.235 28.7406C74.4845 27.4691 75.0298 26.2743 75.8269 25.2527C76.624 24.2312 77.6504 23.4117 78.8231 22.8606C79.9958 22.3095 81.2818 22.0422 82.5769 22.0805C80.8535 22.1002 79.1949 22.7404 77.9053 23.8838C76.6156 25.0272 75.7813 26.5971 75.5552 28.3058C75.3292 30.0144 75.7266 31.7473 76.6745 33.1867C77.6225 34.6261 79.0575 35.6756 80.7165 36.1428C82.3756 36.61 84.1474 36.4636 85.7072 35.7304C87.267 34.9972 88.5102 33.7263 89.209 32.1508C89.9078 30.5753 90.0153 28.8006 89.5118 27.1523C89.0083 25.5039 87.9276 24.0923 86.4677 23.1762C87.6879 23.882 88.707 24.8886 89.428 26.0999C90.149 27.3112 90.5479 28.6869 90.5866 30.096C90.6253 31.5051 90.3026 32.9007 89.6491 34.1497C88.9957 35.3988 88.0334 36.4598 86.8538 37.2316L86.8544 37.2333Z" fill="black"/>
<path d="M82.7206 27.7073C82.9188 28.0107 83.018 28.3681 83.0044 28.7303C82.9909 29.0925 82.8653 29.4415 82.645 29.7292C82.4246 30.017 82.1204 30.2293 81.7743 30.3368C81.4282 30.4443 81.0573 30.4417 80.7127 30.3295C80.3336 30.2049 80.0081 29.9551 79.7897 29.6212L82.7206 27.7073Z" fill="#263238"/>
<path d="M82.998 28.8364C82.972 29.097 82.888 29.3484 82.752 29.5722C82.6161 29.796 82.4318 29.9865 82.2126 30.1298C81.9934 30.273 81.7449 30.3652 81.4853 30.3998C81.2257 30.4343 80.9617 30.4103 80.7127 30.3294C80.8519 29.8483 81.1591 29.433 81.5784 29.159C81.9977 28.8851 82.5014 28.7706 82.998 28.8364Z" fill="#FF99BA"/>
<path d="M76.9539 32.0068C77.8334 32.4463 78.9783 32.2359 78.9783 32.2359C78.9783 32.2359 79.4911 31.1915 79.3088 30.2268C79.1548 29.4207 78.4913 28.9269 77.9293 29.1342C77.1226 29.4315 77.8185 30.7036 77.8185 30.7036C77.8185 30.7036 76.7877 29.6942 76.2774 30.383C75.9263 30.8729 76.2213 31.6451 76.9539 32.0068Z" fill="#FF99BA"/>
<path d="M85.666 26.0597C85.7152 27.0417 85.0644 28.0054 85.0644 28.0054C85.0644 28.0054 83.9057 28.054 83.0898 27.5001C82.4134 27.0363 82.2279 26.2354 82.643 25.7995C83.2404 25.18 84.1256 26.3268 84.1256 26.3268C84.1256 26.3268 83.6089 24.974 84.4508 24.7879C85.0375 24.662 85.6258 25.243 85.666 26.0597Z" fill="#FF99BA"/>
<path d="M26.4325 93.9754L66.7625 94.1498C76.5725 86.4523 77.5775 75.0487 70.584 68.1381C66.3526 63.9568 60.9789 64.8005 55.8603 64.1356H55.8472C54.064 63.9023 52.3156 63.4816 50.6566 62.6096C45.3876 59.8301 42.4162 53.2727 37.9843 47.7573C37.4306 47.064 36.8492 46.3933 36.2403 45.7451C32.5953 41.8516 25.3403 41.7252 21.5449 47.197C11.905 61.101 16.3216 81.798 26.4325 93.9754Z" fill="#FFC727"/>
<path opacity="0.2" d="M26.4325 93.9754L66.7625 94.1498C76.5725 86.4523 77.5775 75.0487 70.584 68.1381C66.3526 63.9568 60.9789 64.8005 55.8603 64.1356H55.8472C54.064 63.9023 52.3156 63.4816 50.6566 62.6096C45.3876 59.8301 42.4162 53.2727 37.9843 47.7573C37.4306 47.064 36.8492 46.3933 36.2403 45.7451C32.5953 41.8516 25.3403 41.7252 21.5449 47.197C11.905 61.101 16.3216 81.798 26.4325 93.9754Z" fill="black"/>
<path opacity="0.1" d="M25.5365 62.1627C26.596 78.698 45.6994 84.8827 57.6349 79.9275C68.0095 75.6177 64.6109 65.7815 55.856 64.1356H55.8429C54.0597 63.9024 52.3113 63.4816 50.6523 62.6096C45.3833 59.8301 42.4119 53.2727 37.98 47.7573C31.3746 44.3259 24.7626 50.0484 25.5365 62.1627Z" fill="black"/>
<path d="M61.1164 95.2856C60.5343 95.0676 47.3954 84.5709 47.1469 83.8537C47.051 83.5834 48.4702 81.58 50.2512 79.2081C50.6349 78.6958 51.036 78.1705 51.4459 77.6385C54.1011 74.1789 56.9983 70.5688 56.9983 70.5688L65.8099 77.5688L60.0133 84.4445L58.7423 85.9552C58.7423 85.9552 61.9753 92.2249 62.1628 93.0402C62.3502 93.8556 61.6941 95.4993 61.1164 95.2856Z" fill="#C95F50"/>
<path d="M61.1163 95.2856C60.5342 95.0676 47.3954 84.5709 47.1469 83.8537C47.0313 83.5223 49.1481 80.636 51.4458 77.6385L60.0132 84.4445L58.7423 85.9552C58.7423 85.9552 61.9752 92.2249 62.1627 93.0402C62.3502 93.8555 61.694 95.4993 61.1163 95.2856Z" fill="white"/>
<path d="M61.1164 95.2856C60.5343 95.0676 47.3954 84.5709 47.1469 83.8537C47.051 83.5834 48.4702 81.58 50.2512 79.2081L58.7423 85.9661C58.7423 85.9661 61.9753 92.2358 62.1628 93.0511C62.3502 93.8664 61.6941 95.4993 61.1164 95.2856Z" fill="#FFC727"/>
<path d="M61.3474 94.612C59.1892 92.7982 50.3079 85.674 48.0363 84.0542C48.0167 84.0412 48.008 84.0542 48.0363 84.0673C50.1357 85.9116 59.0737 92.9552 61.3343 94.6469C61.367 94.6817 61.3932 94.6469 61.3474 94.612Z" fill="#263238"/>
<path d="M61.694 91.8935C61.455 91.6913 61.1765 91.541 60.8763 91.4521C60.5761 91.3631 60.2607 91.3375 59.95 91.3769C59.3897 91.4438 58.8767 91.7241 58.5178 92.1595C58.5069 92.1726 58.5309 92.1922 58.5439 92.1813C58.9671 91.8046 59.501 91.5755 60.0655 91.5283C60.6301 91.4811 61.1947 91.6185 61.6744 91.9197C61.694 91.9328 61.7115 91.9066 61.694 91.8935Z" fill="#263238"/>
<path d="M59.4203 86.8556C58.5483 86.1383 57.2796 85.6347 56.1503 85.916C56.1067 85.9269 56.122 85.9901 56.1503 85.9966C57.2448 86.2086 58.3133 86.5375 59.3375 86.9776C59.3455 86.9831 59.3545 86.9869 59.364 86.9888C59.3735 86.9908 59.3833 86.9909 59.3928 86.989C59.4023 86.9872 59.4114 86.9835 59.4194 86.9782C59.4275 86.9729 59.4345 86.966 59.4399 86.958C59.4454 86.95 59.4492 86.941 59.4511 86.9315C59.4531 86.922 59.4532 86.9122 59.4514 86.9027C59.4495 86.8932 59.4459 86.8841 59.4405 86.876C59.4352 86.868 59.4283 86.861 59.4203 86.8556Z" fill="#263238"/>
<path d="M59.8889 87.6643C59.0169 86.9493 57.746 86.4435 56.6189 86.7269C56.5753 86.7378 56.5906 86.7989 56.6189 86.8054C57.7127 87.0174 58.7805 87.3463 59.8039 87.7864C59.8119 87.792 59.821 87.7959 59.8305 87.798C59.8401 87.8001 59.8499 87.8003 59.8595 87.7986C59.8692 87.7969 59.8783 87.7933 59.8866 87.788C59.8948 87.7827 59.9019 87.7759 59.9075 87.7679C59.9131 87.7599 59.917 87.7508 59.9191 87.7413C59.9212 87.7317 59.9214 87.7219 59.9197 87.7123C59.9179 87.7026 59.9143 87.6935 59.9091 87.6852C59.9038 87.677 59.897 87.6699 59.8889 87.6643Z" fill="#263238"/>
<path d="M60.3577 88.4753C59.4857 87.7581 58.2148 87.2523 57.0877 87.5357C57.0441 87.5357 57.0594 87.6077 57.0877 87.6164C58.1813 87.8276 59.2491 88.1558 60.2727 88.5952C60.2886 88.6065 60.3083 88.611 60.3275 88.6077C60.3467 88.6044 60.3639 88.5937 60.3751 88.5778C60.3864 88.5619 60.3909 88.5421 60.3876 88.5229C60.3844 88.5037 60.3736 88.4866 60.3577 88.4753Z" fill="#263238"/>
<path d="M60.8221 89.2841C59.9501 88.5668 58.6791 88.0611 57.5521 88.3445C57.5085 88.3554 57.5237 88.4164 57.5521 88.4251C58.6457 88.6364 59.7135 88.9646 60.737 89.404C60.7449 89.4095 60.7538 89.4135 60.7632 89.4157C60.7726 89.4178 60.7824 89.4181 60.7919 89.4165C60.8014 89.4148 60.8105 89.4114 60.8187 89.4062C60.8268 89.4011 60.8339 89.3944 60.8395 89.3865C60.8451 89.3787 60.8491 89.3698 60.8512 89.3604C60.8533 89.3509 60.8536 89.3412 60.852 89.3317C60.8504 89.3222 60.8469 89.3131 60.8418 89.3049C60.8366 89.2967 60.8299 89.2897 60.8221 89.2841Z" fill="#263238"/>
<path d="M50.2687 82.404C49.2768 81.617 48.0516 83.1561 49.0435 83.9453C50.0354 84.7344 51.2606 83.1975 50.2687 82.404Z" fill="white"/>
<path d="M62.2542 85.2642C62.1038 84.5382 61.2514 84.451 60.6694 84.6102C59.675 84.9109 58.7773 85.468 58.0665 86.2255C58.0629 86.2282 58.0599 86.2316 58.0579 86.2356C58.0559 86.2396 58.0548 86.244 58.0548 86.2484C58.0548 86.2529 58.0559 86.2573 58.0579 86.2613C58.0599 86.2652 58.0629 86.2687 58.0665 86.2713C58.0565 86.2906 58.0513 86.312 58.0513 86.3336C58.0512 86.3553 58.0563 86.3767 58.066 86.3961C58.0758 86.4154 58.09 86.4322 58.1075 86.445C58.1251 86.4578 58.1453 86.4663 58.1667 86.4697C59.1412 86.5373 60.1767 86.7313 61.1424 86.4959C61.7158 86.3651 62.3959 85.953 62.2542 85.2642ZM59.6753 86.2735C59.1935 86.2539 58.7183 86.2081 58.2387 86.2037C58.736 85.8748 59.2497 85.5714 59.7778 85.2947C60.036 85.1647 60.3025 85.0518 60.5756 84.9568C61.0007 84.8194 62.4548 84.7737 61.7746 85.8026C61.4019 86.3716 60.2465 86.2997 59.6753 86.2735Z" fill="#263238"/>
<path d="M55.6162 84.802C56.2898 85.5323 57.2555 85.9465 58.1036 86.4327C58.1233 86.4418 58.1449 86.4461 58.1666 86.4452C58.1883 86.4443 58.2095 86.4383 58.2284 86.4277C58.2473 86.4171 58.2635 86.4021 58.2755 86.384C58.2875 86.3659 58.2951 86.3452 58.2976 86.3237C58.3172 86.3237 58.3346 86.3128 58.3303 86.2888C58.1597 85.2644 57.7229 84.3029 57.0637 83.5006C56.6713 83.0406 55.9148 82.6395 55.3851 83.1605C54.8554 83.6815 55.2216 84.3791 55.6162 84.802ZM55.4854 83.8733C55.4854 82.6416 56.6757 83.4875 56.9525 83.8385C57.1269 84.0688 57.2857 84.3106 57.4278 84.5622C57.7128 85.0858 57.9711 85.6235 58.2017 86.1732C57.8005 85.9095 57.3798 85.6827 56.9678 85.4342C56.4795 85.1399 55.481 84.5579 55.4854 83.8777V83.8733Z" fill="#263238"/>
<path d="M74.7065 64.1094C74.1026 68.6874 62.8233 81.8982 61.5196 83.4155L61.2231 83.7599L51.884 76.5899L51.9909 76.4504L60.2073 65.6921L35.6997 65.5482L45.0061 58.3128C45.0061 58.3128 45.7604 58.7488 47.33 58.5199C52.7386 57.7286 64.9335 55.9758 67.8089 56.0914C71.5258 56.244 75.2602 59.9107 74.7065 64.1094Z" fill="#37474F"/>
<path d="M63.1677 61.694C62.8627 62.0393 62.5794 62.4034 62.3197 62.784C62.0298 63.1655 61.7355 63.5427 61.4477 63.9242V63.935C61.4979 63.8239 61.548 63.717 61.6025 63.5993C61.7856 63.2222 61.9317 62.8298 62.1475 62.4679C62.1606 62.4439 62.1279 62.4243 62.1148 62.4461C61.8968 62.8058 61.633 63.1481 61.4434 63.5361C61.354 63.7149 61.269 63.8936 61.1905 64.0767C61.1469 64.177 61.1011 64.2795 61.064 64.3798C61.0427 64.4279 61.0245 64.4775 61.0095 64.528C60.8787 64.7046 60.7523 64.8812 60.6259 65.0621C60.349 65.4632 60.1048 65.8861 59.8258 66.2851C59.8105 66.3047 59.8454 66.3243 59.8607 66.3047C60.1441 65.9319 60.4624 65.5831 60.7501 65.2147C61.0379 64.8463 61.3213 64.4473 61.596 64.0571C61.8706 63.6669 62.1257 63.2898 62.3938 62.9083C62.6874 62.5313 62.9575 62.1367 63.2026 61.7267C63.1983 61.694 63.1808 61.6809 63.1677 61.694Z" fill="#263238"/>
<path d="M39.9877 51.6922C42.0173 56.8958 48.4897 62.9628 50.6915 63.159C53.2552 63.39 59.8781 60.4492 62.4417 56.8849C63.0478 56.0413 57.6196 52.0192 56.7018 52.6492C54.8183 53.9397 51.2692 55.7012 50.964 55.7143C50.358 55.76 46.3294 52.6056 43.116 50.3515C39.1136 47.5502 39.179 49.619 39.9877 51.6922Z" fill="#C95F50"/>
<path d="M61.6591 57.8289C61.6591 57.8289 64.007 55.4047 64.2555 53.1222C64.4277 51.5417 64.2664 47.3518 60.4667 44.5134C59.5642 43.8398 57.8027 43.5215 58.8753 45.1543C59.6383 46.3163 60.471 46.822 60.7915 47.5763C60.7915 47.5763 58.5025 47.4368 57.8638 48.3655C57.3054 49.1776 56.8056 50.0285 56.3683 50.9117C56.5111 51.0302 56.6619 51.1387 56.8195 51.2365C56.8195 51.2365 56.3029 52.1609 56.6604 53.7283L61.6591 57.8289Z" fill="#C95F50"/>
<path d="M56.05 42.8871L53.434 51.1711C53.3316 51.4131 53.434 51.6202 53.6847 51.6333L58.0295 51.884C58.1622 51.8822 58.2916 51.8424 58.4025 51.7694C58.5134 51.6964 58.601 51.5932 58.6551 51.472L61.2602 43.188C61.3649 42.946 61.2602 42.7389 61.0117 42.7236L56.68 42.4773C56.547 42.4789 56.4171 42.5182 56.3055 42.5908C56.194 42.6634 56.1054 42.7661 56.05 42.8871Z" fill="#A6A6A6"/>
<path d="M56.5645 42.9133L53.9485 51.1973C53.8461 51.4371 53.9485 51.6464 54.1992 51.6595L58.5331 51.9124C58.6659 51.9099 58.7954 51.8699 58.9065 51.797C59.0176 51.7241 59.1058 51.6213 59.1609 51.5003L61.7638 43.2163C61.8685 42.9744 61.7638 42.7694 61.5153 42.7542L57.1924 42.51C57.0605 42.5117 56.9316 42.5503 56.8206 42.6217C56.7096 42.693 56.6209 42.794 56.5645 42.9133Z" fill="#C7C7C7"/>
<path d="M57.7308 43.3667C57.7249 43.4394 57.6977 43.5086 57.6525 43.5658C57.6073 43.6229 57.5462 43.6654 57.4768 43.6878C57.4075 43.7102 57.3331 43.7116 57.263 43.6917C57.1929 43.6718 57.1303 43.6316 57.083 43.5761C57.0358 43.5206 57.0061 43.4524 56.9976 43.38C56.9891 43.3077 57.0023 43.2344 57.0355 43.1695C57.0686 43.1047 57.1203 43.0511 57.1839 43.0156C57.2475 42.98 57.3202 42.9642 57.3929 42.97C57.4411 42.9738 57.4881 42.9872 57.5312 43.0092C57.5743 43.0312 57.6126 43.0615 57.644 43.0984C57.6754 43.1352 57.6992 43.1779 57.7141 43.2239C57.729 43.27 57.7347 43.3185 57.7308 43.3667Z" fill="#263238"/>
<path d="M64.0267 50.8747C63.5492 50.1923 62.5159 48.7622 61.2624 47.8859C59.8716 46.9136 56.9264 45.4138 56.2201 46.4493C55.7012 47.2079 56.7738 47.8793 56.7738 47.8793C56.7738 47.8793 55.4266 47.5153 55.1083 48.3153C54.8183 49.0326 55.6794 49.5013 55.6794 49.5013C55.6794 49.5013 54.8249 49.4228 54.6766 50.1683C54.5022 51.0643 56.3225 51.0839 56.9286 52.1478C57.0637 52.3745 64.0267 50.8747 64.0267 50.8747Z" fill="#C95F50"/>
<path d="M60.4797 49.5274C59.4531 48.6121 58.1716 48.0318 56.8064 47.8641C56.7715 47.8641 56.7497 47.8859 56.7824 47.8946C58.0738 48.2924 59.3124 48.8451 60.471 49.5405C60.471 49.5405 60.4863 49.534 60.4797 49.5274Z" fill="#263238"/>
<path d="M59.4574 50.9052C58.9298 50.4692 57.2469 49.5361 55.6904 49.462C55.6555 49.462 55.6359 49.486 55.6686 49.4947C56.9782 49.8252 58.2463 50.3028 59.4487 50.9182C59.4487 50.9182 59.4639 50.9095 59.4574 50.9052Z" fill="#263238"/>
<path d="M56.6342 51.7685C56.6342 52.272 56.6342 52.7604 56.6909 53.2465C56.7127 53.4907 56.7519 53.7305 56.7955 53.9703C56.849 54.2112 56.9152 54.4492 56.9939 54.6831C56.6885 54.2712 56.5084 53.78 56.4751 53.2683C56.4522 53.0152 56.4522 52.7606 56.4751 52.5075C56.4973 52.2555 56.5507 52.0073 56.6342 51.7685Z" fill="#263238"/>
<path d="M42.7389 57.0768L46.7414 52.6056C46.7414 52.6056 43.5586 49.8784 41.2544 48.8473C38.9501 47.8161 38.6231 49.3029 39.6368 51.5461C40.6505 53.7893 42.7389 57.0768 42.7389 57.0768Z" fill="#C7C7C7"/>
<path d="M45.6776 53.7915L42.7389 57.0767C42.7389 57.0767 40.6505 53.7893 39.6368 51.5461C38.876 49.8588 38.8672 48.5987 39.894 48.5181L45.6776 53.7915Z" fill="#A6A6A6"/>
<path d="M45.597 51.9276C44.919 52.5642 43.1336 54.3496 42.1329 55.6663C42.1329 55.6663 42.1569 55.7034 42.1635 55.6946C43.1684 54.7333 45.0236 52.6645 45.6384 51.969C45.6515 51.956 45.61 51.9167 45.597 51.9276Z" fill="#263238"/>
<path d="M30.5353 68.234C30.5767 68.2776 46.5256 64.783 46.6673 64.5977C46.8853 64.3361 44.023 52.3418 41.0168 48.7644C40.2647 47.8684 37.871 47.9295 36.7985 48.8342C31.4945 53.3053 30.3827 68.0748 30.5353 68.234Z" fill="#EBEBEB"/>
<path fill-rule="evenodd" clip-rule="evenodd" d="M40.2254 48.2739L36.4867 49.1197C36.5848 49.0216 36.6851 48.9323 36.7853 48.8472L39.7828 48.1714C39.9327 48.1946 40.0806 48.2288 40.2254 48.2739ZM40.7769 48.5377L36.0071 49.6146C35.9308 49.6974 35.8588 49.7803 35.7891 49.8675L40.9666 48.699C40.9089 48.6391 40.8453 48.585 40.7769 48.5377ZM41.2325 49.026L35.4228 50.334C35.3618 50.4125 35.3051 50.4931 35.2484 50.576L41.3524 49.196C41.3197 49.1415 41.2783 49.0827 41.2325 49.026ZM41.5922 49.5361L34.9454 51.036C34.8953 51.1144 34.8451 51.1929 34.7972 51.2736L41.7056 49.704L41.5922 49.5361ZM41.9105 50.055L34.5356 51.7205L34.4091 51.9537L42.0152 50.2359L41.9105 50.055ZM42.2048 50.576L34.1781 52.3876L34.0647 52.6056L42.292 50.7613L42.2048 50.576ZM42.4751 51.1035L33.8598 53.0503C33.8249 53.1244 33.7922 53.2007 33.7573 53.2683L42.5645 51.2779C42.5362 51.23 42.51 51.1689 42.4751 51.1079V51.1035ZM42.7302 51.6355L33.5742 53.7043L33.4826 53.9223L42.8196 51.8142C42.7891 51.7619 42.7607 51.7009 42.728 51.6398L42.7302 51.6355ZM42.9744 52.1717L33.3082 54.3517C33.2777 54.4259 33.2494 54.5 33.221 54.5697L43.0572 52.3483C43.0289 52.2982 43.0027 52.2371 42.9744 52.1761V52.1717ZM43.2076 52.7102L33.0663 55.0014C33.0386 55.0755 33.0125 55.1482 32.9878 55.2194L43.2861 52.8933L43.2076 52.7102ZM43.4256 53.2508L32.8374 55.6488C32.8112 55.723 32.7872 55.7949 32.7632 55.8668L43.4997 53.4427C43.4801 53.3795 43.454 53.3162 43.43 53.2552L43.4256 53.2508ZM43.6436 53.7937L32.6324 56.2811C32.6106 56.3552 32.5867 56.4271 32.5649 56.4991L43.7156 53.979L43.6436 53.7937ZM43.8616 54.3387L32.4406 56.9198L32.3752 57.1378L43.9292 54.5218L43.8616 54.3387ZM44.06 54.8837L32.264 57.552C32.2422 57.6239 32.2226 57.698 32.203 57.77L44.121 55.0755C44.0949 55.0123 44.0731 54.9491 44.0491 54.888L44.06 54.8837ZM44.254 55.4308L32.0896 58.1798C32.0722 58.2518 32.0526 58.3237 32.0351 58.3978L44.3085 55.6249L44.254 55.4308ZM44.4415 55.978L31.9436 58.8011C31.9232 58.8738 31.9058 58.9465 31.8912 59.0191L44.5047 56.1699C44.472 56.1088 44.4524 56.0456 44.4306 55.9824L44.4415 55.978ZM44.6268 56.5296L31.7931 59.4268C31.7757 59.4987 31.7604 59.5707 31.743 59.6448L44.6878 56.7214C44.6573 56.6604 44.6355 56.5971 44.6159 56.5339L44.6268 56.5296ZM44.8034 57.0789L31.6536 60.0503L31.6078 60.2683L44.8644 57.2751C44.8339 57.2119 44.8143 57.1465 44.7925 57.0833L44.8034 57.0789ZM44.9778 57.6305L31.5228 60.6694C31.5076 60.7413 31.4923 60.8133 31.4792 60.8874L45.0366 57.8354L44.9778 57.6305ZM45.1478 58.1842L31.392 61.2929C31.3789 61.3648 31.3637 61.4367 31.3528 61.5109L45.1958 58.3826C45.174 58.315 45.1544 58.2518 45.1369 58.1886L45.1478 58.1842ZM45.3113 58.7357L31.2721 61.912C31.259 61.9817 31.246 62.0537 31.2351 62.13L45.3549 58.9406C45.344 58.86 45.3179 58.8055 45.3004 58.7401L45.3113 58.7357ZM45.4705 59.2916L31.174 62.5246C31.1609 62.5965 31.1479 62.6663 31.137 62.7426L45.525 59.4944C45.4966 59.4246 45.4792 59.3614 45.4596 59.296L45.4705 59.2916ZM45.6274 59.8475L31.0737 63.1328L31.041 63.3508L45.6819 60.0459C45.6514 59.9805 45.634 59.9173 45.6165 59.8519L45.6274 59.8475ZM45.7778 60.4034L30.98 63.7454L30.9473 63.9634L45.8193 60.604C45.804 60.5364 45.78 60.4732 45.7669 60.4078L45.7778 60.4034ZM45.9283 60.9615L30.8863 64.3579C30.8863 64.4299 30.8666 64.4975 30.8579 64.5759L45.974 61.1621C45.9501 61.0945 45.9348 61.04 45.9174 60.9659L45.9283 60.9615ZM46.07 61.5196L30.81 64.9662L30.7838 65.1842L46.1201 61.7201C46.0939 61.6547 46.0765 61.5893 46.0591 61.5239L46.07 61.5196ZM46.2095 62.0777L30.7315 65.5657C30.7315 65.6376 30.7162 65.7074 30.7075 65.7837L46.2509 62.2717L46.2095 62.0777ZM46.3425 62.6379L30.6683 66.1782C30.6683 66.2509 30.6617 66.3236 30.6486 66.3962L46.3861 62.8407C46.3621 62.784 46.3468 62.7077 46.3316 62.6423L46.3425 62.6379ZM46.4689 63.2004L30.6116 66.7821C30.6116 66.854 30.5985 66.9238 30.5941 67.0001L46.5081 63.4053C46.4863 63.3377 46.4733 63.2723 46.458 63.2047L46.4689 63.2004ZM46.5844 63.7672L30.5636 67.386C30.5636 67.4579 30.5636 67.5277 30.5505 67.5909L46.6215 63.9612C46.5997 63.9045 46.5866 63.8413 46.5735 63.7715L46.5844 63.7672ZM46.6804 64.3361L30.52 67.9876C30.5166 68.0552 30.5166 68.1228 30.52 68.1904L46.6804 64.5411C46.6805 64.4741 46.6769 64.4071 46.6695 64.3405L46.6804 64.3361Z" fill="#DBDBDB"/>
<path d="M40.3082 51.5308C39.5823 51.6137 37.9756 50.3602 37.3042 49.2549C37.2606 49.1786 37.3413 48.3546 37.3958 47.3474C37.4241 46.737 37.4437 46.0568 37.4154 45.4355L41.3612 46.2094C41.173 46.9947 41.0822 47.8001 41.0909 48.6074C41.0949 48.6927 41.1073 48.7774 41.1279 48.8603C41.1279 48.8734 41.1279 48.8865 41.1279 48.9017C41.2369 49.3922 41.444 51.4 40.3082 51.5308Z" fill="#C95F50"/>
<path d="M41.1279 48.8691C41.1279 48.8821 41.1279 48.893 41.1279 48.9127C40.9954 48.9357 40.8613 48.9481 40.7268 48.9497C38.5054 48.9999 37.8427 46.3206 37.6923 45.4922L41.3612 46.216C41.1742 47.0015 41.0827 47.8066 41.0887 48.614C41.0957 48.6999 41.1088 48.7851 41.1279 48.8691Z" fill="#263238"/>
<path d="M36.2163 40.6417C35.9831 42.0718 37.2409 45.9391 38.3353 46.6912C39.9223 47.7812 42.2593 47.5937 43.116 45.7473C43.951 43.9553 42.2222 38.9435 41.0232 38.2873C39.2574 37.3194 36.5629 38.5315 36.2163 40.6417Z" fill="#C95F50"/>
<path d="M39.3295 41.8211C39.4363 41.7579 39.5235 41.6816 39.6238 41.6031C39.724 41.5246 39.8418 41.4658 39.8832 41.3306C39.8957 41.2893 39.8934 41.2449 39.8767 41.2051C39.86 41.1653 39.8299 41.1326 39.7916 41.1126C39.7142 41.0839 39.6305 41.0764 39.5492 41.091C39.468 41.1055 39.3921 41.1416 39.3295 41.1954C39.186 41.2861 39.0811 41.4266 39.0352 41.59C39.0233 41.6287 39.0234 41.6701 39.0356 41.7088C39.0477 41.7474 39.0712 41.7815 39.1031 41.8065C39.1349 41.8315 39.1736 41.8463 39.214 41.8489C39.2544 41.8515 39.2947 41.8418 39.3295 41.8211Z" fill="#263238"/>
<path d="M41.9192 41.0625C41.7986 41.069 41.6778 41.069 41.5573 41.0625C41.4299 41.0841 41.299 41.0635 41.1845 41.0036C41.1534 40.9778 41.1313 40.9428 41.1215 40.9035C41.1117 40.8643 41.1147 40.823 41.13 40.7856C41.1746 40.7153 41.2371 40.6581 41.311 40.6198C41.3849 40.5815 41.4676 40.5635 41.5508 40.5676C41.7187 40.5526 41.8863 40.5999 42.0216 40.7006C42.0547 40.7247 42.0796 40.7584 42.0929 40.7972C42.1063 40.8359 42.1075 40.8778 42.0963 40.9172C42.0851 40.9566 42.0622 40.9916 42.0305 41.0176C41.9989 41.0436 41.96 41.0592 41.9192 41.0625Z" fill="#263238"/>
<path d="M40.4041 44.823C40.4848 44.8666 40.572 44.9342 40.6701 44.9145C40.7673 44.8839 40.8571 44.8334 40.9338 44.7663C40.9338 44.7663 40.9535 44.7663 40.9491 44.7663C40.927 44.8292 40.8881 44.8848 40.8366 44.9271C40.7851 44.9694 40.723 44.9967 40.657 45.0061C40.5993 45.0077 40.5424 44.9922 40.4936 44.9616C40.4447 44.9309 40.406 44.8865 40.3823 44.8339C40.3736 44.8295 40.3932 44.8186 40.4041 44.823Z" fill="#263238"/>
<path d="M40.4522 43.9553C40.5494 44.0391 40.663 44.1017 40.7857 44.1392C40.9084 44.1767 41.0376 44.1883 41.165 44.1733C41.2773 44.1635 41.3875 44.1371 41.492 44.0949C41.5123 44.0886 41.532 44.0805 41.5509 44.0709L41.6076 44.0447C41.6204 44.0376 41.6308 44.0266 41.637 44.0133C41.6433 44 41.6452 43.985 41.6424 43.9706L41.6315 43.9444V43.9226C41.5792 43.7177 41.4702 43.4147 41.4702 43.4147C41.5552 43.43 41.9803 43.491 41.9455 43.3864C41.6561 42.4782 41.2756 41.6018 40.8097 40.7704C40.8068 40.764 40.8015 40.759 40.7949 40.7566C40.7884 40.7541 40.7812 40.7544 40.7748 40.7573C40.7684 40.7602 40.7635 40.7655 40.761 40.772C40.7586 40.7785 40.7588 40.7858 40.7617 40.7922C41.0255 41.6293 41.4332 42.4163 41.71 43.2556C41.5575 43.2338 41.4026 43.2338 41.25 43.2556C41.2239 43.2708 41.468 43.8354 41.4877 43.9292C41.4884 43.9328 41.4884 43.9365 41.4877 43.9401C41.3262 44.0041 41.1536 44.0354 40.9799 44.032C40.8062 44.0287 40.635 43.9907 40.4761 43.9205C40.4456 43.9161 40.4304 43.9401 40.4522 43.9553Z" fill="#263238"/>
<path d="M41.3437 44.036C41.2733 44.2127 41.1593 44.3687 41.0123 44.4894C40.9309 44.5524 40.8318 44.5882 40.7289 44.5919C40.5109 44.5919 40.4412 44.4066 40.4303 44.23C40.4272 44.1365 40.4345 44.0429 40.4521 43.951C40.7325 44.0741 41.045 44.1039 41.3437 44.036Z" fill="#263238"/>
<path d="M41.0124 44.4873C40.9309 44.5502 40.8318 44.586 40.729 44.5897C40.511 44.5897 40.4412 44.4044 40.4303 44.2279C40.5424 44.1994 40.6607 44.2095 40.7663 44.2566C40.8719 44.3037 40.9586 44.3849 41.0124 44.4873Z" fill="#FF9BBC"/>
<path d="M39.5518 42.4664C39.5472 42.391 39.563 42.3156 39.5976 42.2484C39.6173 42.2127 39.6445 42.1816 39.6772 42.1571C39.7099 42.1327 39.7474 42.1155 39.7872 42.1067C39.8279 42.0983 39.8699 42.0995 39.91 42.1101C39.9501 42.1206 39.9872 42.1404 40.0183 42.1677C40.0716 42.2173 40.1126 42.2785 40.1382 42.3465C40.1546 42.3866 40.167 42.4283 40.1753 42.4708C40.196 42.559 40.196 42.6507 40.1753 42.7389C40.1649 42.6747 40.1474 42.6118 40.123 42.5514C40.1027 42.4964 40.0779 42.4432 40.0488 42.3923C39.9878 42.2877 39.9006 42.2092 39.8134 42.2353C39.7262 42.2615 39.6673 42.3443 39.6543 42.4642C39.6424 42.5889 39.6424 42.7145 39.6543 42.8392C39.5921 42.7244 39.557 42.5969 39.5518 42.4664Z" fill="#263238"/>
<path d="M42.1046 41.6532C42.0685 41.5891 42.0168 41.5351 41.9542 41.4963C41.918 41.477 41.8782 41.4653 41.8374 41.4619C41.7965 41.4586 41.7554 41.4636 41.7165 41.4767C41.6779 41.4917 41.6433 41.5155 41.6153 41.5461C41.5873 41.5768 41.5668 41.6134 41.5552 41.6532C41.5368 41.7247 41.5368 41.7997 41.5552 41.8712C41.5645 41.914 41.5762 41.9562 41.5901 41.9977C41.6213 42.0801 41.6704 42.1546 41.734 42.2157C41.7083 42.1562 41.6893 42.0941 41.6773 42.0304C41.6671 41.9727 41.6598 41.9144 41.6555 41.856C41.6555 41.7361 41.6838 41.6227 41.771 41.5966C41.8202 41.5844 41.872 41.5886 41.9184 41.6087C41.9649 41.6288 42.0035 41.6636 42.0283 41.7077C42.1025 41.8088 42.1668 41.9169 42.2201 42.0304C42.2117 41.8973 42.1721 41.7682 42.1046 41.6532Z" fill="#263238"/>
<path d="M42.0456 39.4231C40.8597 40.7006 38.6121 39.6825 38.6121 39.6825C38.5598 40.0142 38.4024 40.3204 38.163 40.5559C37.9236 40.7914 37.6149 40.9437 37.2823 40.9905C37.2823 40.9905 37.5418 43.4234 36.9161 43.5608C35.9613 43.7788 34.9345 40.6025 35.0914 39.9005C35.2484 39.1986 36.0223 38.8498 36.0223 38.8498C36.0232 38.4441 36.1792 38.0542 36.4583 37.7598C36.9968 37.1058 39.3969 37.2758 39.3969 37.2758C39.4571 36.9461 39.5946 36.6353 39.7981 36.3689C39.8463 36.3022 39.9077 36.246 39.9785 36.2039C40.0493 36.1617 40.1279 36.1345 40.2096 36.1239C40.2912 36.1133 40.3742 36.1195 40.4534 36.1421C40.5326 36.1648 40.6063 36.2034 40.6701 36.2556C40.5903 36.4578 40.5575 36.6754 40.5741 36.8921C40.6177 37.6115 41.1867 37.4829 41.0385 36.8551C40.9919 36.6174 40.8611 36.4045 40.6701 36.2556C40.8575 35.7803 41.2848 35.5427 41.6118 35.7019C42.2004 35.9962 43.0332 38.368 42.0456 39.4231Z" fill="#263238"/>
<path d="M40.0576 43.7766C39.8503 43.8174 39.6358 43.7993 39.4383 43.7243C39.2408 43.6493 39.0683 43.5205 38.9405 43.3523C38.8126 43.1842 38.7344 42.9836 38.7148 42.7733C38.6952 42.563 38.7351 42.3514 38.8297 42.1625C38.9244 41.9737 39.0701 41.8152 39.2504 41.7051C39.4306 41.5949 39.6382 41.5375 39.8494 41.5394C40.0606 41.5413 40.2671 41.6025 40.4453 41.7158C40.6235 41.8292 40.7664 41.9903 40.8576 42.1808C40.9867 42.4506 41.0036 42.7606 40.9047 43.0429C40.8059 43.3252 40.5993 43.5568 40.3301 43.6872C40.2439 43.7297 40.1522 43.7597 40.0576 43.7766ZM39.6477 41.7077C39.5679 41.7239 39.4904 41.7495 39.4167 41.784C39.1912 41.8911 39.0149 42.0801 38.9239 42.3125C38.8329 42.545 38.8339 42.8034 38.9268 43.0351C39.0196 43.2668 39.1973 43.4544 39.4236 43.5597C39.65 43.665 39.9079 43.68 40.145 43.6018C40.382 43.5235 40.5803 43.3578 40.6994 43.1385C40.8186 42.9191 40.8496 42.6626 40.7862 42.4211C40.7229 42.1797 40.5698 41.9715 40.3583 41.8389C40.1467 41.7064 39.8926 41.6595 39.6477 41.7077Z" fill="#FFC727"/>
<path d="M42.4686 42.9787C42.0326 43.0419 41.5966 42.6604 41.4331 42.0914C41.3552 41.821 41.3636 41.5329 41.4571 41.2674C41.4903 41.1507 41.5531 41.0445 41.6394 40.9592C41.7258 40.8738 41.8327 40.8123 41.9498 40.7805C42.067 40.7487 42.1903 40.7477 42.308 40.7776C42.4256 40.8076 42.5335 40.8674 42.6212 40.9513C42.8367 41.1336 42.9892 41.3793 43.0572 41.6533C43.2207 42.2528 42.9896 42.8414 42.5405 42.9613L42.4686 42.9787ZM42.0457 40.9164L41.989 40.9273C41.8974 40.9569 41.8142 41.0079 41.7463 41.0762C41.6784 41.1445 41.6278 41.2279 41.5988 41.3197C41.5155 41.5558 41.5086 41.812 41.5791 42.0522C41.7208 42.5732 42.1329 42.9242 42.5013 42.8174C42.8697 42.7106 43.0528 42.2135 42.9111 41.6925C42.8517 41.4491 42.7166 41.2308 42.5253 41.069C42.4606 41.0112 42.3845 40.9677 42.3018 40.9414C42.2191 40.9151 42.1318 40.9066 42.0457 40.9164Z" fill="#FFC727"/>
<path d="M40.8619 42.3182L40.7355 42.2375C40.8532 42.0478 41.1715 41.7426 41.5246 41.9388L41.4505 42.0696C41.1344 41.8931 40.8728 42.292 40.8619 42.3182Z" fill="#FFC727"/>
<path d="M36.1619 44.145L36.0115 44.1188C36.0246 44.0491 36.1336 43.4365 36.4475 43.2795C36.7614 43.1226 38.7169 42.6931 38.7997 42.6735L38.8324 42.8217C38.2634 42.9482 36.7352 43.3013 36.5151 43.4147C36.2949 43.5281 36.1881 43.975 36.1619 44.145Z" fill="#FFC727"/>
<path d="M37.496 43.7591C37.496 43.7591 36.406 42.619 35.874 43.0288C35.3421 43.4387 36.31 45.187 37.0229 45.3331C37.114 45.3589 37.2093 45.3659 37.3032 45.3537C37.397 45.3416 37.4875 45.3105 37.569 45.2624C37.6505 45.2144 37.7214 45.1502 37.7774 45.0739C37.8334 44.9977 37.8734 44.9108 37.8949 44.8186L37.496 43.7591Z" fill="#C95F50"/>
<path d="M36.164 43.5237C36.1509 43.5237 36.164 43.539 36.164 43.5411C36.672 43.661 36.9924 44.0643 37.2388 44.496C37.2034 44.4526 37.1592 44.4174 37.109 44.3928C37.0588 44.3681 37.0039 44.3546 36.948 44.3531C36.8921 44.3517 36.8365 44.3623 36.7851 44.3844C36.7337 44.4064 36.6877 44.4392 36.6502 44.4807C36.6393 44.4916 36.6502 44.5091 36.6676 44.5047C36.7477 44.4655 36.8378 44.4518 36.9259 44.4655C37.014 44.4791 37.0958 44.5194 37.1603 44.581C37.267 44.6852 37.362 44.8007 37.4437 44.9254C37.472 44.9647 37.5461 44.9254 37.5222 44.8818C37.4306 44.254 36.8267 43.4823 36.164 43.5237Z" fill="#263238"/>
<path d="M35.4817 53.2596C36.5891 60.0394 39.3512 64.443 40.6439 64.6566C44.121 65.23 50.0026 59.5423 51.7619 58.2082C52.4704 57.6675 46.6869 52.8279 46.0045 53.4907C44.3913 55.0515 42.2244 57.5019 42.111 57.528C41.893 57.5825 41.0646 56.0413 38.2873 51.6813C36.0332 48.1518 35.0304 50.4888 35.4817 53.2596Z" fill="#C95F50"/>
<path d="M54.9752 46.955C55.457 47.6875 53.5495 48.7186 53.5495 48.7186C53.9274 48.7208 54.2924 48.8558 54.5807 49.1001C55.069 49.5514 54.5807 50.5171 54.5807 50.5171C54.9719 50.6012 55.3289 50.801 55.6053 51.0905C56.0282 51.5701 55.6663 52.6165 55.6663 52.6165C55.9778 52.8965 56.1834 53.2752 56.2484 53.689C56.4664 55.542 52.4246 58.1907 51.1123 58.703L45.8083 53.907C45.8083 53.907 47.7703 49.5078 49.3792 48.372C50.2621 47.742 54.2406 45.8345 54.9752 46.955Z" fill="#C95F50"/>
<path d="M53.5212 48.7077C52.3811 49.0522 51.3238 49.6691 50.3101 50.2751C50.2883 50.2882 50.3101 50.3231 50.3319 50.31C51.3325 49.6953 52.5228 49.3334 53.5452 48.7601C53.5735 48.7448 53.5517 48.699 53.5212 48.7077Z" fill="#263238"/>
<path d="M54.5 50.4583C54.2476 50.5615 54.0101 50.6979 53.7937 50.8637C53.5539 51.0229 53.3185 51.1864 53.0852 51.3542C52.6165 51.69 52.1543 52.0366 51.7053 52.3985C51.6835 52.4137 51.7053 52.4486 51.7249 52.4333C52.1936 52.0976 52.6666 51.7793 53.1462 51.4567C53.3882 51.2997 53.6302 51.145 53.8744 50.9924C54.1127 50.8611 54.3363 50.7047 54.5414 50.5258C54.5676 50.4975 54.5371 50.4452 54.5 50.4583Z" fill="#263238"/>
<path d="M55.6401 52.6295C55.4141 52.7257 55.2061 52.8599 55.0254 53.0263L54.391 53.495C53.9681 53.8046 53.543 54.1163 53.1092 54.4106C53.1045 54.4135 53.1012 54.4181 53.1 54.4234C53.0988 54.4287 53.0997 54.4343 53.1026 54.4389C53.1055 54.4436 53.1101 54.4469 53.1154 54.4481C53.1207 54.4493 53.1263 54.4484 53.131 54.4455C53.567 54.149 54.0204 53.8569 54.4608 53.5539C54.6788 53.4056 54.8968 53.2574 55.1148 53.1179C55.3235 52.9989 55.5095 52.8439 55.6641 52.6601C55.6682 52.6569 55.6708 52.6522 55.6714 52.6471C55.672 52.642 55.6706 52.6369 55.6674 52.6328C55.6642 52.6288 55.6595 52.6261 55.6544 52.6255C55.6493 52.6249 55.6442 52.6264 55.6401 52.6295Z" fill="#263238"/>
<path d="M56.0261 53.083C56.224 53.3688 56.3129 53.7161 56.2768 54.0618C56.2317 54.4078 56.0989 54.7365 55.8909 55.0167C55.4997 55.5763 55.0447 56.0884 54.5349 56.5427C54.0309 57.0015 53.4915 57.4199 52.9217 57.794C52.3524 58.168 51.7505 58.4897 51.1232 58.7554H51.1385C50.7388 59.0838 50.3363 59.4072 49.9308 59.7255C50.3014 59.365 50.6763 59.0104 51.0557 58.6616C51.6612 58.3656 52.2441 58.0253 52.7997 57.6436C53.3537 57.2649 53.8831 56.8513 54.3845 56.4053C54.8875 55.9639 55.348 55.4764 55.7601 54.9491C55.9656 54.6952 56.1082 54.3965 56.1765 54.0771C56.2448 53.7383 56.1915 53.3864 56.0261 53.083Z" fill="#263238"/>
<path d="M36.1641 58.7706L41.4985 56.026C41.4985 56.026 39.506 52.344 37.714 50.5542C35.9221 48.7644 35.098 50.0397 35.2376 52.4966C35.3771 54.9535 36.1641 58.7706 36.1641 58.7706Z" fill="#C7C7C7"/>
<path d="M40.548 54.9927C39.6869 55.3459 37.3826 56.3726 35.97 57.2446C35.97 57.2446 35.97 57.2861 35.9874 57.2817C37.2693 56.7432 39.7414 55.4767 40.5654 55.0472C40.5872 55.0385 40.5632 54.9862 40.548 54.9927Z" fill="#263238"/>
<path d="M95.1788 83.385C94.9608 83.9649 84.4205 97.0711 83.7011 97.3174C83.4308 97.4111 81.4317 95.9876 79.0664 94.1978C78.5563 93.812 78.0309 93.4087 77.499 92.9966C74.048 90.3305 70.4489 87.418 70.4489 87.418L77.475 78.6304L84.3333 84.4489L85.8397 85.7242C85.8397 85.7242 92.1202 82.513 92.9356 82.3277C93.7509 82.1424 95.3924 82.803 95.1788 83.385Z" fill="#C95F50"/>
<path d="M95.1788 83.385C94.9608 83.9649 84.4205 97.071 83.7011 97.3174C83.3698 97.4307 80.49 95.3052 77.499 92.9966L84.3333 84.4532L85.8397 85.7285C85.8397 85.7285 92.1203 82.5174 92.9356 82.3321C93.7509 82.1468 95.3925 82.8029 95.1788 83.385Z" fill="white"/>
<path d="M95.1788 83.385C94.9608 83.9649 84.4205 97.071 83.7011 97.3174C83.4308 97.4111 81.4317 95.9876 79.0664 94.1978L85.8397 85.7285C85.8397 85.7285 92.1202 82.5174 92.9356 82.3321C93.7509 82.1468 95.3924 82.8029 95.1788 83.385Z" fill="#FFC727"/>
<path d="M94.5031 83.1496C92.6806 85.3034 85.5389 94.1607 83.9017 96.4279C83.8886 96.4476 83.9017 96.4563 83.917 96.4388C85.7678 94.3439 92.8375 85.4298 94.5379 83.1801C94.575 83.1321 94.5423 83.106 94.5031 83.1496Z" fill="#263238"/>
<path d="M91.778 82.7942C91.5756 83.0333 91.4248 83.3116 91.3352 83.6118C91.2455 83.9119 91.2189 84.2273 91.257 84.5382C91.3222 85.0987 91.6009 85.6124 92.0352 85.9727C92.0483 85.9836 92.0679 85.9596 92.057 85.9465C91.6815 85.522 91.4541 84.987 91.4088 84.422C91.3636 83.857 91.5031 83.2927 91.8063 82.8138C91.8082 82.8101 91.8086 82.8058 91.8075 82.8018C91.8065 82.7978 91.804 82.7943 91.8006 82.7919C91.7972 82.7895 91.793 82.7885 91.7889 82.7889C91.7847 82.7893 91.7809 82.7912 91.778 82.7942Z" fill="#263238"/>
<path d="M86.7444 85.0527C86.0228 85.9247 85.5149 87.1913 85.7939 88.3227C85.8048 88.3663 85.8659 88.3489 85.8746 88.3118C86.0896 87.2192 86.4214 86.1529 86.8643 85.1312C86.8747 85.1153 86.8784 85.0959 86.8745 85.0773C86.8706 85.0587 86.8595 85.0424 86.8436 85.032C86.8277 85.0216 86.8083 85.0179 86.7897 85.0218C86.7711 85.0257 86.7548 85.0368 86.7444 85.0527Z" fill="#263238"/>
<path d="M87.5532 84.584C86.8338 85.456 86.3258 86.7226 86.6049 87.854C86.6158 87.8976 86.6768 87.8823 86.6855 87.854C86.9006 86.7607 87.2324 85.6936 87.6753 84.6712C87.6868 84.655 87.6915 84.6349 87.6882 84.6153C87.6849 84.5956 87.674 84.5781 87.6578 84.5666C87.6416 84.555 87.6215 84.5503 87.6019 84.5536C87.5823 84.5569 87.5647 84.5678 87.5532 84.584Z" fill="#263238"/>
<path d="M88.3642 84.1197C87.6448 84.9917 87.1346 86.2582 87.4159 87.3897C87.4268 87.4333 87.4878 87.418 87.4944 87.3897C87.7111 86.2965 88.0436 85.2296 88.4862 84.2069C88.4978 84.1907 88.5025 84.1706 88.4992 84.1509C88.4959 84.1313 88.485 84.1138 88.4688 84.1022C88.4526 84.0907 88.4325 84.086 88.4129 84.0893C88.3933 84.0925 88.3757 84.1035 88.3642 84.1197Z" fill="#263238"/>
<path d="M89.1751 83.6553C88.4557 84.5273 87.9456 85.7939 88.2268 86.9253C88.2268 86.9689 88.2987 86.9515 88.3053 86.9253C88.521 85.8329 88.8528 84.7667 89.295 83.7447C89.3068 83.7288 89.3119 83.7089 89.309 83.6892C89.3062 83.6696 89.2956 83.6519 89.2797 83.6401C89.2638 83.6282 89.2439 83.6232 89.2242 83.626C89.2046 83.6289 89.1869 83.6394 89.1751 83.6553Z" fill="#263238"/>
<path d="M82.2667 94.1913C81.4754 95.1788 83.0101 96.4105 83.8036 95.4186C84.5971 94.4267 83.0581 93.1994 82.2667 94.1913Z" fill="white"/>
<path d="M85.1618 82.2143C84.4337 82.3626 84.3443 83.2128 84.5078 83.797C84.8043 84.795 85.3584 85.6972 86.1144 86.413C86.1173 86.4166 86.1209 86.4196 86.1251 86.4216C86.1292 86.4236 86.1338 86.4246 86.1384 86.4246C86.143 86.4246 86.1476 86.4236 86.1517 86.4216C86.1559 86.4196 86.1595 86.4166 86.1624 86.413C86.1819 86.4224 86.2033 86.4272 86.225 86.4269C86.2467 86.4267 86.268 86.4213 86.2872 86.4114C86.3065 86.4014 86.3231 86.3872 86.3359 86.3697C86.3487 86.3521 86.3572 86.3319 86.3608 86.3105C86.4305 85.3361 86.6267 84.3028 86.3957 83.337C86.2605 82.7571 85.8485 82.0748 85.1618 82.2143ZM86.1624 84.802C86.1384 85.2838 86.0926 85.759 86.0883 86.2408C85.7608 85.742 85.4588 85.2268 85.1836 84.6973C85.0542 84.4383 84.9421 84.1711 84.8479 83.8973C84.7127 83.4722 84.6713 82.0181 85.698 82.7005C86.2648 83.0711 86.1907 84.2243 86.1624 84.802Z" fill="#263238"/>
<path d="M84.6799 88.8503C85.4145 88.1788 85.8309 87.2153 86.3192 86.3694C86.3288 86.3498 86.3335 86.3281 86.3329 86.3063C86.3324 86.2844 86.3267 86.2631 86.3163 86.2439C86.3058 86.2247 86.2909 86.2083 86.2729 86.196C86.2548 86.1837 86.2341 86.1759 86.2124 86.1732C86.2128 86.1686 86.2121 86.164 86.2105 86.1597C86.2088 86.1555 86.2062 86.1516 86.2029 86.1485C86.1995 86.1453 86.1955 86.143 86.1911 86.1416C86.1867 86.1402 86.1821 86.1399 86.1775 86.1405C85.1527 86.3083 84.1898 86.742 83.385 87.3984C82.9228 87.7886 82.513 88.5451 83.0383 89.0748C83.5637 89.6045 84.2526 89.2427 84.6799 88.8503ZM83.7534 88.9789C82.5195 88.968 83.3697 87.7864 83.7207 87.5117C83.9516 87.3378 84.1942 87.1797 84.4466 87.0387C84.9717 86.755 85.5109 86.4982 86.062 86.2691C85.796 86.6703 85.5671 87.0888 85.3164 87.5008C85.0199 87.9892 84.4335 88.9854 83.7534 88.9789Z" fill="#263238"/>
<path d="M83.9671 83.1256L76.6532 92.9922L51.9756 75.864L49.5973 74.2115C49.5973 74.2115 48.9236 74.665 47.9078 75.2252C46.4995 76.0035 44.435 76.991 42.6082 77.2592C39.5562 77.7126 34.431 77.6647 31.8477 74.2072C29.6677 71.2991 30.8536 67.5059 30.8536 67.5059L34.2261 66.0736C34.2261 66.0736 42.1874 59.4399 47.3431 59.2415C49.534 59.1543 52.7234 60.8133 55.6751 62.5485C58.6268 64.2838 83.9671 83.1256 83.9671 83.1256Z" fill="#37474F"/>
<path d="M49.5972 74.2181C49.5972 74.2181 48.9236 74.6715 47.9077 75.2318C46.1158 73.0867 42.3204 69.1867 42.2048 69.0493L49.5972 74.2181Z" fill="#263238"/>
<path d="M37.1341 63.8522C36.6589 64.1836 36.1989 64.5345 35.7302 64.8724C35.2615 65.2103 34.7906 65.5264 34.3524 65.884C33.9142 66.2415 33.4804 66.6513 33.0619 67.0503C32.8591 67.2421 32.6586 67.4361 32.4624 67.6367C32.2551 67.8283 32.0634 68.036 31.889 68.258C31.8738 68.2798 31.9043 68.3038 31.9239 68.2907C32.1474 68.1312 32.3608 67.958 32.5626 67.7718L33.2166 67.2072C33.6526 66.8432 34.0886 66.49 34.5094 66.1172C34.9301 65.7444 35.3247 65.3586 35.7454 64.9923C36.1662 64.6261 36.6698 64.2337 37.1363 63.8609L37.1341 63.8522Z" fill="#263238"/>
<path d="M82.2492 82.7724C81.774 83.2847 81.3358 83.8363 80.8933 84.3769C80.4507 84.9175 80.006 85.4669 79.5678 86.0119C78.6958 87.1019 77.8064 88.1919 76.9518 89.3059C76.4788 89.9141 76.0101 90.5267 75.5697 91.1611C75.5501 91.1894 75.5959 91.2199 75.6177 91.1959C76.5616 90.1583 77.4249 89.0508 78.2991 87.9565C79.1733 86.8621 80.0431 85.7612 80.9151 84.6516C81.386 84.0434 81.8699 83.4395 82.3037 82.8051C82.3103 82.779 82.2689 82.7506 82.2492 82.7724Z" fill="#263238"/>
<path d="M61.9971 82.8727C60.7697 81.9048 59.4966 80.9914 58.2235 80.0845C56.9504 79.1776 55.6903 78.2773 54.4063 77.4009C54.0357 77.148 53.6629 76.9017 53.2923 76.6553C52.9217 76.409 52.5337 76.1801 52.1718 75.925C52.15 75.9098 52.1304 75.9447 52.1522 75.9599C52.4857 76.1997 52.8062 76.4679 53.1288 76.7164C53.4515 76.9649 53.7523 77.1938 54.0684 77.4271C54.6854 77.8827 55.3088 78.3318 55.9301 78.7808C57.1902 79.6921 58.4611 80.5895 59.743 81.4731C60.4733 81.9724 61.197 82.4738 61.9426 82.949C61.9862 82.9773 62.0385 82.9054 61.9971 82.8727Z" fill="#263238"/>
<path d="M69.8887 72.6921C68.7551 71.7525 67.5386 70.9067 66.3484 70.0368C65.1581 69.167 63.9504 68.271 62.7426 67.3969L59.1478 64.8005C57.9859 63.959 56.8305 63.1066 55.6031 62.3632C54.9317 61.9578 54.245 61.5806 53.5365 61.2405C52.85 60.8907 52.1354 60.599 51.4001 60.3685C51.3952 60.3665 51.3897 60.3665 51.3848 60.3686C51.3799 60.3706 51.376 60.3745 51.3739 60.3794C51.3719 60.3844 51.3719 60.3899 51.374 60.3948C51.376 60.3997 51.3799 60.4036 51.3848 60.4056C51.9909 60.7435 52.6253 61.0291 53.2357 61.3539C53.8461 61.6787 54.4368 62.0079 55.0233 62.3698C56.2419 63.1088 57.3907 63.9481 58.5461 64.7787C60.9441 66.5031 63.3421 68.2362 65.7554 69.9366C67.107 70.8892 68.4303 71.8986 69.8342 72.7706C69.8778 72.7945 69.9301 72.727 69.8887 72.6921Z" fill="#263238"/>
<path d="M97.0275 60.798C94.3635 64.4059 91.5775 68.5937 90.9082 73.1172C90.9082 73.187 91.0107 73.2088 91.0259 73.1412C91.3359 71.9069 91.7329 70.6962 92.214 69.518C93.958 69.0362 95.6846 68.646 96.6045 66.902C97.5419 65.1144 97.422 62.784 97.2455 60.8373C97.228 60.7326 97.082 60.7283 97.0275 60.798Z" fill="#FFC727"/>
<path d="M92.2315 69.4832C93.4283 66.7974 94.9652 64.1007 96.9185 61.8924C96.9316 61.8771 96.9512 61.8924 96.9381 61.9142C95.6607 63.486 94.6884 65.1995 93.7401 66.9435C94.623 66.0475 95.5887 65.2452 96.4237 64.2948C96.4411 64.2773 96.4673 64.2948 96.452 64.3231C95.6214 65.3172 94.708 66.4006 93.6333 67.1375C93.3426 67.6708 93.0519 68.2064 92.7613 68.7441L92.9793 68.6308C92.9923 68.6308 93.0032 68.6439 92.9902 68.6504C92.9095 68.6918 92.8267 68.7354 92.7416 68.7725C92.6021 69.0254 92.4626 69.2804 92.3187 69.5333C92.2838 69.59 92.2141 69.542 92.2315 69.4832Z" fill="#263238"/>
<path d="M93.121 68.5458C93.8381 68.1464 94.5219 67.6901 95.1658 67.1811C95.1833 67.168 95.2094 67.192 95.192 67.2072C94.5666 67.7465 93.8821 68.2131 93.1515 68.5981C93.1166 68.6133 93.0861 68.5654 93.121 68.5458Z" fill="#263238"/>
<path d="M90.6008 72.4458C90.6008 72.5003 90.6989 72.4981 90.6989 72.4458C90.712 70.9547 90.6989 69.457 90.7207 67.9615C91.1044 67.1898 91.9219 66.7647 92.493 66.1477C92.9019 65.6962 93.2581 65.1996 93.5547 64.6675C94.2423 63.3956 94.6623 61.9964 94.7886 60.5561C94.9455 58.9625 94.3417 53.7021 93.6681 53.8852C93.3214 53.9812 92.1922 56.5863 91.8935 57.4474C91.4085 58.8654 91.0539 60.3248 90.8341 61.8074C90.2891 65.315 90.3348 68.9164 90.6008 72.4458Z" fill="#FFC727"/>
<path d="M90.5899 66.0169C90.6727 64.1312 91.0957 62.2281 91.4946 60.3991C91.9306 58.4371 92.4233 56.5754 93.437 54.8183C93.4407 54.8116 93.447 54.8067 93.4544 54.8047C93.4617 54.8027 93.4696 54.8036 93.4762 54.8074C93.4829 54.8111 93.4878 54.8174 93.4898 54.8247C93.4919 54.8321 93.4909 54.84 93.4871 54.8466C92.8115 56.213 92.2881 57.6496 91.9263 59.1303C91.9938 59.0257 92.0767 58.9254 92.1443 58.8251C92.1704 58.7837 92.2358 58.8251 92.2097 58.8622C92.1183 59.0177 92.0117 59.1638 91.8914 59.2982C91.8914 59.2982 91.8914 59.2982 91.8783 59.2982C91.5295 60.7065 91.2788 62.1474 91.0652 63.5841C91.08 63.5642 91.096 63.5453 91.1131 63.5274C91.124 63.5274 91.1414 63.5274 91.1349 63.5448C91.1087 63.5928 91.0782 63.6407 91.0499 63.6865C90.9409 64.4168 90.8319 65.1449 90.7403 65.8665C92.0483 64.7569 93.1383 63.4489 93.7727 61.8357C93.7727 61.8357 93.788 61.8357 93.7858 61.8357C93.1732 63.5078 92.2075 64.9923 90.7207 66.0082C90.6924 66.2022 90.6662 66.3963 90.6379 66.5903C90.6379 66.6295 90.5681 66.6186 90.5681 66.5903C90.5681 66.4181 90.5681 66.2458 90.5834 66.0736C90.577 66.0651 90.5741 66.0545 90.5753 66.044C90.5765 66.0334 90.5818 66.0237 90.5899 66.0169Z" fill="#263238"/>
<path d="M91.2026 63.2854C92.1945 61.8052 93.121 60.3664 93.8469 58.7292C93.8486 58.7249 93.852 58.7214 93.8563 58.7196C93.8606 58.7177 93.8655 58.7177 93.8698 58.7194C93.8741 58.7211 93.8776 58.7245 93.8795 58.7288C93.8813 58.7331 93.8814 58.738 93.8796 58.7423C93.267 60.3686 92.4103 62.0123 91.2505 63.3203C91.2287 63.3508 91.1808 63.3159 91.2026 63.2854Z" fill="#263238"/>
<path d="M92.5215 58.363C92.9313 57.6349 93.3651 56.9285 93.751 56.183C93.7619 56.1612 93.7902 56.183 93.7815 56.2004C93.4647 56.9741 93.0634 57.7103 92.5847 58.3957C92.5564 58.4371 92.4975 58.4044 92.5215 58.363Z" fill="#263238"/>
<path d="M89.598 68.1359C89.5764 69.1225 89.4582 70.1045 89.2448 71.068L89.2906 71.3885C89.5933 70.3228 89.7696 69.2253 89.816 68.1185C89.8246 68.1031 89.8291 68.0859 89.8291 68.0683C89.8291 68.0508 89.8246 68.0335 89.816 68.0182C89.8578 66.5328 89.7475 65.047 89.4868 63.5841C89.0247 60.846 88.0175 58.2169 86.1056 56.1721C86.0899 56.1569 86.0708 56.1457 86.0498 56.1396C86.0288 56.1334 86.0067 56.1324 85.9852 56.1367C85.9638 56.141 85.9437 56.1504 85.9267 56.1642C85.9097 56.1779 85.8963 56.1956 85.8876 56.2157C85.1159 58.1777 85.3862 60.5124 86.0424 62.4679C86.3989 63.5262 86.9087 64.5266 87.5553 65.4371C88.2246 66.3505 89.0595 67.1287 89.598 68.1359Z" fill="#FFC727"/>
<path d="M86.328 57.079C88.1374 60.0176 89.3975 63.5012 89.5523 66.9718C89.5523 67.0328 89.452 67.0481 89.4433 66.9849C89.3997 66.6731 89.3517 66.3658 89.3016 66.0562C88.5516 65.339 87.7756 64.5825 87.248 63.6865C87.2371 63.6691 87.2611 63.6517 87.272 63.6647C87.8931 64.431 88.5599 65.159 89.2689 65.8447C89.1381 65.0796 88.9855 64.3187 88.8023 63.5797L88.6606 63.4119C88.6279 63.3748 88.6803 63.3203 88.713 63.3574L88.7566 63.4053C88.5051 62.3807 88.1913 61.3724 87.817 60.386C87.357 59.8367 86.8403 59.3614 86.509 58.6987C86.509 58.6834 86.5242 58.6704 86.533 58.6856C86.8033 59.0628 87.0649 59.4443 87.3701 59.7952C87.4922 59.9369 87.6273 60.0677 87.7538 60.2029C87.3367 59.138 86.8412 58.1055 86.2714 57.1138C86.2719 57.1074 86.274 57.1012 86.2774 57.0957C86.2808 57.0902 86.2854 57.0855 86.2909 57.0821C86.2964 57.0787 86.3027 57.0767 86.3091 57.0761C86.3156 57.0756 86.322 57.0766 86.328 57.079Z" fill="#263238"/>
<path d="M86.703 60.7043C87.2872 61.4913 87.9543 62.2434 88.4993 63.0565C88.5146 63.0805 88.4797 63.1045 88.4601 63.0848C87.7625 62.4308 87.1695 61.5349 86.6638 60.7261C86.6485 60.7021 86.6856 60.6803 86.703 60.7043Z" fill="#263238"/>
<path d="M88.58 63.2396L88.6062 63.2636C88.6236 63.2811 88.5953 63.3072 88.5779 63.2898L88.5539 63.2658C88.5504 63.2623 88.5485 63.2576 88.5485 63.2527C88.5485 63.2478 88.5504 63.2431 88.5539 63.2396C88.5573 63.2362 88.5621 63.2342 88.567 63.2342C88.5719 63.2342 88.5766 63.2362 88.58 63.2396Z" fill="#263238"/>
<path d="M83.494 62.7273C83.7088 64.3679 84.3693 65.9181 85.4037 67.2094C85.8307 67.7154 86.3587 68.1268 86.9537 68.4171C87.6251 68.7485 88.3271 69.1322 89.0203 69.4047C89.3503 70.2443 89.5957 71.1148 89.7528 72.0032C89.7746 71.9291 89.7964 71.8485 89.8204 71.7743C89.3735 67.9463 86.897 64.6763 83.7317 62.5769C83.7068 62.5608 83.6779 62.5522 83.6483 62.552C83.6187 62.5518 83.5897 62.5602 83.5647 62.576C83.5397 62.5918 83.5197 62.6145 83.5072 62.6413C83.4947 62.6681 83.4901 62.698 83.494 62.7273Z" fill="#FFC727"/>
<path d="M84.595 63.8588C84.5732 63.8391 84.595 63.7977 84.6277 63.8152C86.3681 65.1093 87.7556 66.8199 88.6628 68.7899C88.6868 68.8422 88.6149 68.888 88.5844 68.8357C88.4383 68.5785 88.2879 68.3278 88.1353 68.0814C87.4115 67.9441 86.727 67.4274 86.1907 66.9522C86.1755 66.9391 86.1907 66.9195 86.2125 66.9326C86.4889 67.1837 86.7958 67.3991 87.1259 67.5735C87.4224 67.7239 87.7385 67.8176 88.0459 67.9375C87.7778 67.5124 87.4987 67.1048 87.2066 66.7102C86.4232 66.4131 85.6885 66.0009 85.0266 65.4872C85.022 65.4843 85.0187 65.4797 85.0175 65.4744C85.0162 65.4691 85.0172 65.4635 85.0201 65.4589C85.0229 65.4543 85.0276 65.451 85.0329 65.4497C85.0382 65.4485 85.0438 65.4494 85.0484 65.4523C85.7016 65.8478 86.3754 66.208 87.0671 66.5314C86.6255 65.9497 86.1494 65.395 85.6414 64.8703C85.395 64.7395 85.1465 64.6109 84.9089 64.4713C84.904 64.4693 84.9001 64.4654 84.898 64.4605C84.896 64.4556 84.896 64.4501 84.898 64.4452C84.9 64.4403 84.9039 64.4364 84.9088 64.4343C84.9137 64.4323 84.9192 64.4323 84.9241 64.4343C85.1219 64.5039 85.3108 64.5968 85.4866 64.7111C85.2054 64.4212 84.9111 64.1356 84.595 63.8588Z" fill="#263238"/>
<path d="M84.6625 65.182C84.7059 65.2071 84.7468 65.2363 84.7846 65.2692C84.7955 65.2692 84.7846 65.2932 84.7694 65.2888C84.7258 65.2674 84.6836 65.2434 84.6429 65.2169C84.6211 65.1994 84.6407 65.1646 84.6625 65.182Z" fill="#263238"/>
<path d="M94.769 80.2894H86.0905L86.7902 72.3869L86.945 70.6429H93.9145L94.0693 72.3869L94.769 80.2894Z" fill="#455A64"/>
<path d="M94.0692 72.3869H86.7902L86.9449 70.6429H93.9144L94.0692 72.3869Z" fill="#263238"/>
<path d="M94.3286 69.4243H86.5286V71.1487H94.3286V69.4243Z" fill="#455A64"/>
</g>
<defs>
<clipPath id="clip0_1513_17100">
<rect width="109" height="109" fill="white"/>
</clipPath>
</defs>
</svg>
