<svg width="750" height="500" viewBox="0 0 750 500" fill="none" xmlns="http://www.w3.org/2000/svg">
<path opacity="0.1" d="M55.46 247C260.18 246.39 489.82 246.38 694.54 247C489.82 247.62 260.18 247.61 55.46 247V247Z" fill="#263238"/>
<path d="M467.45 388.57L566.76 364.16L692.94 381.74L589.34 407.96L467.45 388.57Z" fill="#DBDBDB"/>
<path d="M467.45 388.57L566.73 364.05C566.73 364.05 693 381.51 693 381.5L694.27 381.67L693 382L589.34 408.1C589.34 408.1 467.49 388.56 467.45 388.57V388.57ZM467.45 388.57C467.45 388.57 589.53 407.84 589.31 407.83L692.88 381.5V381.99C692.88 381.99 566.6 364.26 566.79 364.27L467.45 388.57V388.57Z" fill="#DBDBDB"/>
<path d="M585.39 401.16C591.5 399.28 597.8 397.53 604.12 395.8C610.44 394.07 616.86 392.41 623.3 390.8C629.74 389.19 636.3 387.56 642.88 386.03L652.8 383.74C656.18 383.02 659.49 382.26 662.91 381.58C659.91 382.53 656.73 383.4 653.64 384.32L644.19 386.93C637.89 388.68 631.45 390.33 625.01 391.93C618.57 393.53 612.01 395.17 605.43 396.7C598.85 398.23 592.21 399.76 585.39 401.16Z" fill="#C7C7C7"/>
<path d="M601.8 391.23C608.8 388.83 616.36 386.77 624.02 384.81C631.68 382.85 639.58 381 648 379.56C641 381.97 633.45 384.02 625.78 385.98C618.11 387.94 610.17 389.75 601.8 391.23Z" fill="#C7C7C7"/>
<path d="M555.47 397.19C561.58 395.31 567.88 393.56 574.2 391.83C580.52 390.1 586.94 388.44 593.38 386.83C599.82 385.22 606.38 383.59 612.95 382.06L622.88 379.78C626.25 379.06 629.57 378.3 632.99 377.61C629.99 378.56 626.81 379.44 623.72 380.35L614.27 382.97C607.96 384.71 601.53 386.36 595.09 387.97C588.65 389.58 582.09 391.21 575.51 392.74C568.93 394.27 562.29 395.79 555.47 397.19Z" fill="#C7C7C7"/>
<path d="M551.65 392.38C562.04 389.12 572.95 386.22 583.99 383.38C595.03 380.54 606.29 377.9 617.99 375.57C607.6 378.83 596.69 381.73 585.66 384.57C574.63 387.41 563.39 390.05 551.65 392.38Z" fill="#C7C7C7"/>
<path d="M564.63 383.33C570.36 381.25 576.63 379.52 583 377.88C589.37 376.24 596 374.76 603.07 373.6C597.34 375.69 591.07 377.41 584.71 379.05C578.35 380.69 571.71 382.17 564.63 383.33Z" fill="#C7C7C7"/>
<path d="M57.06 286.06L194.86 259.98L327.83 298.83L190.72 325.85L57.06 286.06Z" fill="#EBEBEB"/>
<path d="M57.06 286.06L194.87 259.85C194.87 259.85 327.87 298.6 327.87 298.59L328.87 298.88L327.87 299.08L190.72 326C190.67 326 57.1 286.09 57.06 286.09V286.06ZM57.06 286.06L190.76 325.72C190.43 325.79 327.87 298.56 327.76 298.59V299.07L194.83 260.07C195.09 260.01 57.02 286.07 57.06 286.07V286.06Z" fill="#DBDBDB"/>
<path d="M188.79 317.93C197.79 315.85 206.86 313.93 215.97 312C225.08 310.07 234.26 308.23 243.45 306.41C252.64 304.59 261.88 302.81 271.18 301.12L285.13 298.58C289.82 297.78 294.47 296.94 299.2 296.18C294.72 297.23 290.2 298.18 285.66 299.18L272 302.11C262.9 304.05 253.71 305.88 244.53 307.7C235.35 309.52 226.1 311.3 216.8 312.99C207.5 314.68 198.21 316.39 188.79 317.93Z" fill="#DBDBDB"/>
<path d="M224.11 304.1C233.93 301.57 244.11 299.43 254.32 297.39C264.53 295.35 274.93 293.49 285.61 291.98C275.79 294.51 265.61 296.65 255.4 298.69C245.19 300.73 234.79 302.59 224.11 304.1Z" fill="#DBDBDB"/>
<path d="M175.2 306.86C183.05 305 191.01 303.29 198.99 301.59C206.97 299.89 214.99 298.28 223.07 296.67C231.15 295.06 239.24 293.52 247.41 292.05L259.66 289.85C263.79 289.16 267.87 288.43 272.03 287.78C268.12 288.72 264.14 289.58 260.19 290.48L248.24 293.05C240.24 294.76 232.24 296.36 224.16 297.97C216.08 299.58 208 301.11 199.83 302.59C191.66 304.07 183.5 305.54 175.2 306.86Z" fill="#DBDBDB"/>
<path d="M168.79 301.25C176.04 299.51 183.4 297.91 190.79 296.33C198.18 294.75 205.62 293.25 213.08 291.77C220.54 290.29 228.08 288.85 235.62 287.5L246.97 285.5C250.8 284.87 254.59 284.2 258.45 283.61C254.84 284.5 251.15 285.29 247.51 286.14L236.45 288.53C229.08 290.12 221.62 291.61 214.16 293.09C206.7 294.57 199.16 296 191.62 297.36C184.08 298.72 176.49 300 168.79 301.25Z" fill="#DBDBDB"/>
<path d="M134.46 301.14C143.46 299.06 152.53 297.14 161.64 295.2C170.75 293.26 179.93 291.44 189.12 289.61C198.31 287.78 207.55 286.02 216.84 284.32L230.84 281.78C235.53 280.99 240.18 280.14 244.91 279.38C240.43 280.44 235.91 281.38 231.37 282.38L217.72 285.28C208.62 287.21 199.43 289.04 190.25 290.87C181.07 292.7 171.82 294.46 162.52 296.16C153.22 297.86 143.88 299.59 134.46 301.14Z" fill="#DBDBDB"/>
<path d="M133.32 294.49C141.26 292.61 149.32 290.88 157.39 289.16C165.46 287.44 173.61 285.81 181.76 284.16C189.91 282.51 198.11 280.97 206.37 279.48L218.77 277.25C222.94 276.55 227.08 275.81 231.28 275.16C227.28 276.11 223.28 276.97 219.28 277.89L207.19 280.48C199.13 282.21 190.98 283.83 182.83 285.48C174.68 287.13 166.47 288.67 158.21 290.16C149.95 291.65 141.71 293.15 133.32 294.49Z" fill="#DBDBDB"/>
<path d="M107.29 292.74C116.29 290.66 125.36 288.74 134.48 286.81C143.6 284.88 152.77 283 162 281.22C171.23 279.44 180.43 277.62 189.73 275.93L203.68 273.39C208.37 272.59 213.03 271.75 217.75 270.99C213.27 272.04 208.75 272.99 204.22 273.99L190.57 276.9C181.47 278.83 172.28 280.66 163.09 282.48C153.9 284.3 144.66 286.08 135.36 287.77C126.06 289.46 116.72 291.2 107.29 292.74Z" fill="#DBDBDB"/>
<path d="M138.86 279.65C149.31 276.99 160.09 274.73 170.95 272.57C181.81 270.41 192.81 268.42 204.12 266.79C193.67 269.45 182.9 271.7 172.03 273.87C161.16 276.04 150.17 278 138.86 279.65Z" fill="#DBDBDB"/>
<path d="M258.98 419.2L434.1 386.06L603.06 435.43L428.83 469.76L258.98 419.2Z" fill="#EBEBEB"/>
<path d="M259 419.2L434.1 385.93C434.1 385.93 603.1 435.2 603.1 435.19L604.1 435.48L603.1 435.68L428.83 469.89C428.78 469.9 259 419.2 259 419.2ZM259 419.2L428.89 469.64C428.58 469.64 603.11 435.17 603.03 435.19V435.67L434.06 386.18C434.32 386.1 258.94 419.25 258.98 419.18L259 419.2Z" fill="#DBDBDB"/>
<path d="M426.37 459.7C437.78 457.06 449.37 454.59 460.92 452.16C472.47 449.73 484.16 447.38 495.83 445.06C507.5 442.74 519.25 440.49 531.07 438.33L548.8 435.11C554.8 434.11 560.67 433.02 566.68 432.06C560.99 433.4 555.21 434.63 549.48 435.92L532.13 439.6C520.57 442.06 508.89 444.38 497.22 446.7C485.55 449.02 473.8 451.27 461.98 453.42C450.16 455.57 438.35 457.74 426.37 459.7Z" fill="#DBDBDB"/>
<path d="M471.26 442.12C483.74 438.91 496.64 436.19 509.64 433.6C522.64 431.01 535.84 428.6 549.42 426.72C536.94 429.94 524.03 432.66 511.03 435.25C498.03 437.84 484.83 440.2 471.26 442.12Z" fill="#DBDBDB"/>
<path d="M409.11 445.63C419.11 443.27 429.2 441.09 439.34 438.94C449.48 436.79 459.71 434.73 469.94 432.69C480.17 430.65 490.48 428.69 500.86 426.81L516.44 424.01C521.68 423.14 526.87 422.21 532.16 421.39C527.16 422.59 522.16 423.68 517.16 424.82L501.98 428.08C491.85 430.25 481.61 432.29 471.38 434.33C461.15 436.37 450.83 438.33 440.45 440.2C430.07 442.07 419.65 444 409.11 445.63Z" fill="#DBDBDB"/>
<path d="M401 438.5C410.21 436.29 419.57 434.26 429 432.26C438.43 430.26 447.84 428.34 457.32 426.45C466.8 424.56 476.32 422.75 485.96 421.03L500.4 418.45C505.26 417.66 510.07 416.8 514.98 416.05C510.39 417.18 505.71 418.19 501.07 419.26L487.02 422.26C477.66 424.26 468.18 426.17 458.7 428.06C449.22 429.95 439.7 431.76 430.06 433.48C420.42 435.2 410.74 437 401 438.5Z" fill="#DBDBDB"/>
<path d="M357.33 438.36C368.74 435.72 380.33 433.25 391.88 430.82C403.43 428.39 415.12 426.04 426.79 423.72C438.46 421.4 450.21 419.15 462 417L479.73 413.78C485.73 412.78 491.6 411.69 497.61 410.78C491.92 412.12 486.14 413.35 480.41 414.64L463.06 418.32C451.5 420.78 439.82 423.1 428.15 425.42C416.48 427.74 404.73 429.99 392.91 432.14C381.09 434.29 369.31 436.4 357.33 438.36Z" fill="#DBDBDB"/>
<path d="M355.89 429.91C365.98 427.53 376.22 425.32 386.48 423.15C396.74 420.98 407.08 418.89 417.48 416.82C427.88 414.75 438.26 412.77 448.76 410.88L464.47 408C469.78 407.12 475.03 406.18 480.38 405.34C475.38 406.55 470.23 407.65 465.15 408.81L449.79 412.11C439.54 414.3 429.18 416.37 418.79 418.43C408.4 420.49 398.01 422.43 387.51 424.37C377.01 426.31 366.55 428.21 355.89 429.91Z" fill="#DBDBDB"/>
<path d="M322.81 427.69C334.22 425.05 345.81 422.58 357.36 420.15C368.91 417.72 380.6 415.37 392.27 413.05C403.94 410.73 415.69 408.48 427.51 406.32L445.24 403.1C451.24 402.1 457.11 401.01 463.11 400.05C457.43 401.39 451.65 402.62 445.92 403.91L428.57 407.59C417.01 410.05 405.33 412.37 393.66 414.69C381.99 417.01 370.24 419.26 358.42 421.41C346.6 423.56 334.79 425.73 322.81 427.69Z" fill="#DBDBDB"/>
<path d="M362.93 411.05C376.21 407.68 389.93 404.81 403.7 402.05C417.47 399.29 431.49 396.77 445.86 394.7C432.58 398.08 418.86 400.95 405.08 403.7C391.3 406.45 377.3 409 362.93 411.05Z" fill="#DBDBDB"/>
<path d="M686.9 335.21L362.68 424.79V360.22L686.9 270.64C704.08 302.32 686.9 335.21 686.9 335.21Z" fill="#37474F"/>
<path d="M46.3 380L362.68 424.79V408.42L75.23 373.26L46.3 375V380Z" fill="#455A64"/>
<path d="M362.69 360.52C374.51 388.97 362.69 424.79 362.69 424.79L61.56 377.23V321.42L362.69 360.52Z" fill="#455A64"/>
<path d="M355.24 359.56C366.75 387.9 356.19 418.42 356.19 418.42L61.56 377V321.4L355.24 359.56Z" fill="white"/>
<path d="M355.24 359.56C355.63 360.66 356.76 363.76 357.15 364.85C359.489 372.635 360.675 380.721 360.67 388.85C360.714 398.878 359.254 408.855 356.34 418.45C356.48 418.89 61.59 377.34 61.49 377.45L61.06 377.39V377V321.4V320.89L61.56 320.96L208.46 340.19L355.18 359.54L355.24 359.56ZM355.24 359.56C283 349.85 131.83 331.93 62 321.42L62.05 377.02L61.62 376.52C61.62 376.63 356.86 418.11 356.02 418.37C357.513 413.608 358.63 408.737 359.36 403.8C361.59 389.03 360.73 373.53 355.23 359.56H355.24Z" fill="#DBDBDB"/>
<path d="M204.12 345.5C253.28 351.5 308.34 358.9 357.33 366.17C308.17 360.17 253.11 352.76 204.12 345.5V345.5Z" fill="#DBDBDB"/>
<path d="M61.56 341.76C103.7 346.76 150.45 353.1 192.44 359.41C150.27 354.41 103.54 348.09 61.56 341.76Z" fill="#DBDBDB"/>
<path d="M68.58 347.25C140.19 356.25 220.42 367.07 291.84 377.36C220.24 368.36 140.01 357.54 68.58 347.25V347.25Z" fill="#DBDBDB"/>
<path d="M107.29 366.14C181.57 375.33 264.8 386.37 338.9 396.85C264.63 387.67 181.4 376.62 107.29 366.14V366.14Z" fill="#DBDBDB"/>
<path d="M157.22 377.9C222 386 294.65 395.78 359.28 405.16C294.47 397.08 221.86 387.28 157.22 377.9V377.9Z" fill="#DBDBDB"/>
<path d="M99 377.79C182 388.37 275 400.91 357.79 412.7C274.79 402.13 181.79 389.58 99 377.79V377.79Z" fill="#DBDBDB"/>
<path d="M362.69 360.52L686.9 270.64L359.28 255.8L46.3 313.84V319.44L362.69 360.52Z" fill="#455A64"/>
<path d="M371 350.64C411.22 338.45 452.53 327.44 493.8 317.93C453.59 330.13 412.28 341.12 371 350.64Z" fill="#37474F"/>
<path d="M293.22 344.92C304.42 345.5 315.99 346.8 327.11 348.15C338.23 349.5 349.71 351.15 360.61 353.4C349.41 352.83 337.84 351.52 326.73 350.17C315.62 348.82 304.13 347.12 293.22 344.92Z" fill="#37474F"/>
<path d="M55 314.93C131.15 323.11 207.91 332.76 283.55 343.69C207.34 335.53 130.59 325.86 55 314.93Z" fill="#37474F"/>
<path d="M583 307.06C614.64 297.12 646.663 288.063 679.07 279.89C647.443 289.83 615.42 298.887 583 307.06Z" fill="#455A64"/>
<path d="M414.89 257.81C410.69 258.63 393.35 259.56 393 255.81C392.46 250.17 433.93 210.17 448.81 202.65C462.96 195.49 508.55 179.87 519.81 179.53L519.91 215.45C513.54 217.07 462.79 212.12 452.13 217.78C447.5 220.24 441.37 230.44 428.89 246.64C424.5 252.35 417.37 257.32 414.89 257.81Z" fill="#FFC727"/>
<g opacity="0.3">
<path d="M414.89 257.81C410.69 258.63 393.35 259.56 393 255.81C392.46 250.17 433.93 210.17 448.81 202.65C462.96 195.49 508.55 179.87 519.81 179.53L519.91 215.45C513.54 217.07 462.79 212.12 452.13 217.78C447.5 220.24 441.37 230.44 428.89 246.64C424.5 252.35 417.37 257.32 414.89 257.81Z" fill="black"/>
</g>
<path d="M406.28 257.81C402.07 258.63 385.95 259.56 385.59 255.81C385.06 250.17 426.53 210.17 441.4 202.65C455.55 195.49 508.55 179.87 519.81 179.53L519.91 215.45C513.54 217.07 455.39 212.12 444.73 217.78C440.1 220.24 432.73 230.44 420.27 246.64C415.89 252.35 408.76 257.32 406.28 257.81Z" fill="#FFC727"/>
<g opacity="0.2">
<path d="M406.28 257.81C402.07 258.63 385.95 259.56 385.59 255.81C385.06 250.17 426.53 210.17 441.4 202.65C455.55 195.49 508.55 179.87 519.81 179.53L519.91 215.45C513.54 217.07 455.39 212.12 444.73 217.78C440.1 220.24 432.73 230.44 420.27 246.64C415.89 252.35 408.76 257.32 406.28 257.81Z" fill="black"/>
</g>
<path d="M569.79 305.47C573.41 306.99 587.65 307.76 590.09 304.69C593.77 300.04 548.87 236.77 522.49 225.29C497.82 214.64 149.77 147.04 142.59 145.92L142.33 174C190.82 181.58 498.5 230.6 517.53 238.89C529.94 244.28 545.75 272.72 557.11 292.37C561.7 300.35 565.59 303.71 569.79 305.47Z" fill="#FFC727"/>
<g opacity="0.2">
<path d="M569.79 305.47C573.41 306.99 587.65 307.76 590.09 304.69C593.77 300.04 548.87 236.77 522.49 225.29C497.82 214.64 149.77 147.04 142.59 145.92L142.33 174C190.82 181.58 498.5 230.6 517.53 238.89C529.94 244.28 545.75 272.72 557.11 292.37C561.7 300.35 565.59 303.71 569.79 305.47Z" fill="black"/>
</g>
<path d="M563.78 305.47C567.4 306.99 581.64 307.76 584.08 304.69C587.76 300.04 543.19 235.24 516.82 223.76C492.14 213.11 149.77 147 142.59 145.92L136.32 174C184.81 181.58 492.49 230.6 511.52 238.89C523.93 244.28 539.74 272.72 551.1 292.37C555.69 300.35 559.58 303.71 563.78 305.47Z" fill="#FFC727"/>
<g opacity="0.1">
<path d="M563.78 305.47C567.4 306.99 581.64 307.76 584.08 304.69C587.76 300.04 543.19 235.24 516.82 223.76C492.14 213.11 149.77 147 142.59 145.92L136.32 174C184.81 181.58 492.49 230.6 511.52 238.89C523.93 244.28 539.74 272.72 551.1 292.37C555.69 300.35 559.58 303.71 563.78 305.47Z" fill="black"/>
</g>
<g opacity="0.1">
<path d="M210 158.88L183.66 181.53C161.75 178.03 144.94 175.38 136.34 174.03L142.6 145.92C144.55 146.22 171.42 151.37 210 158.88Z" fill="black"/>
<path d="M277.36 196.69L261 194L245.8 165.88L269.89 170.64L277.36 196.69Z" fill="black"/>
<path d="M369.5 190.66L351 208.89L334.57 206.13L347.71 186.22C355.01 187.693 362.273 189.173 369.5 190.66Z" fill="black"/>
<path d="M514.56 222.93L508.19 237.82C505.13 236.96 500.52 235.88 494.59 234.63L490 216.48C501.54 219.2 510.06 221.41 514.56 222.93Z" fill="black"/>
</g>
<path d="M208.74 320.18C172.48 318.43 144.89 277.36 147.23 228.64C148.34 205.39 156.03 183.77 168.87 167.76C182.14 151.22 199.27 142.54 217.27 143.45C235.27 144.36 251.49 154.56 263.1 172.31C274.35 189.45 279.93 211.72 278.8 234.99C276.58 281.09 248.32 317.79 214.55 320.12C212.616 320.25 210.676 320.27 208.74 320.18V320.18ZM178.1 175.18C166.81 189.23 160 208.43 159 229.22C157 271.42 179.53 306.93 209.29 308.36C239.05 309.79 264.92 276.62 266.97 234.36C267.97 213.57 263.06 193.82 253.19 178.73C243.68 164.24 230.71 155.89 216.67 155.22C215.175 155.13 213.675 155.13 212.18 155.22C199.74 156.17 187.78 163.1 178.1 175.16V175.18ZM147.28 234.83C145.45 199.19 149.44 193.61 147.82 183.1C147.05 178.1 140.01 173.3 140.01 173.3L146.16 147.71C146.16 147.71 165.33 149.58 169.75 149.65C177.61 149.76 194.58 144.02 209.36 143.65C209.36 143.65 177.23 158.09 166.9 176.5C156.57 194.91 147.28 234.81 147.28 234.81V234.83Z" fill="#FFC727"/>
<path opacity="0.1" d="M208.74 320.18C172.48 318.43 144.89 277.36 147.23 228.64C148.34 205.39 156.03 183.77 168.87 167.76C182.14 151.22 199.27 142.54 217.27 143.45C235.27 144.36 251.49 154.56 263.1 172.31C274.35 189.45 279.93 211.72 278.8 234.99C276.58 281.09 248.32 317.79 214.55 320.12C212.616 320.25 210.676 320.27 208.74 320.18V320.18ZM178.1 175.18C166.81 189.23 160 208.43 159 229.22C157 271.42 179.53 306.93 209.29 308.36C239.05 309.79 264.92 276.62 266.97 234.36C267.97 213.57 263.06 193.82 253.19 178.73C243.68 164.24 230.71 155.89 216.67 155.22C215.175 155.13 213.675 155.13 212.18 155.22C199.74 156.17 187.78 163.1 178.1 175.16V175.18ZM147.28 234.83C145.45 199.19 149.44 193.61 147.82 183.1C147.05 178.1 140.01 173.3 140.01 173.3L146.16 147.71C146.16 147.71 165.33 149.58 169.75 149.65C177.61 149.76 194.58 144.02 209.36 143.65C209.36 143.65 177.23 158.09 166.9 176.5C156.57 194.91 147.28 234.81 147.28 234.81V234.83Z" fill="black"/>
<path d="M203.81 320.18C167.54 318.43 139.95 277.36 142.29 228.64C143.4 205.39 151.09 183.77 163.93 167.76C177.2 151.22 194.33 142.54 212.33 143.45C230.33 144.36 246.55 154.56 258.16 172.31C269.41 189.45 274.99 211.72 273.86 234.99C271.64 281.09 243.38 317.79 209.61 320.12C207.679 320.25 205.743 320.27 203.81 320.18V320.18ZM173.16 175.18C161.87 189.25 155.1 208.45 154.1 229.24C152.1 271.44 174.62 306.95 204.38 308.38C234.14 309.81 260.01 276.64 262.06 234.38C263.06 213.59 258.15 193.84 248.28 178.75C238.78 164.26 225.8 155.91 211.76 155.24C210.265 155.15 208.765 155.15 207.27 155.24C194.81 156.17 182.84 163.1 173.16 175.16V175.18ZM142.34 234.83C140.51 199.19 144.5 193.61 142.88 183.1C142.11 178.1 135.07 173.3 135.07 173.3L141.5 144.78C141.5 144.78 160.99 148.23 165.4 148.29C173.26 148.41 189.64 144.02 204.4 143.69C204.4 143.69 172.27 158.13 161.94 176.54C151.61 194.95 142.34 234.81 142.34 234.81V234.83Z" fill="#FFC727"/>
<path d="M160.72 157.83C160.49 159.6 157.2 160.62 153.37 160.11C149.54 159.6 146.64 157.75 146.88 155.99C147.12 154.23 150.4 153.2 154.23 153.71C158.06 154.22 161 156.06 160.72 157.83Z" fill="#A6A6A6"/>
<path d="M148.56 156.05C148.87 155.2 152.2 154.24 155.84 155.22Z" fill="white"/>
<path d="M140 173.53C146.92 177.41 149.88 183.13 149.1 191.05C148.33 204.79 146.78 218.4 146.76 232.14C146.666 238.997 147.107 245.851 148.08 252.64C143.65 235.9 144.97 218.25 146.53 201.2L147.53 190.96C148.61 183.3 146.19 178.06 139.98 173.53H140Z" fill="white"/>
<path d="M176.14 149.94C185.74 147.2 195.71 144.94 205.75 145.39C195.75 146.28 186.04 148.52 176.14 149.94Z" fill="white"/>
<path opacity="0.1" d="M176.13 175.89C165.22 189.89 158.68 208.97 157.7 229.65C155.75 271.65 177.55 306.93 206.31 308.36C235.07 309.79 260.08 276.79 262.06 234.81C263.06 214.14 258.29 194.49 248.75 179.49C239.56 165.07 227.02 156.77 213.44 156.1C211.995 156.01 210.545 156.01 209.1 156.1C197.05 157 185.49 163.88 176.13 175.89Z" fill="#EBEBEB"/>
<g opacity="0.2">
<path d="M231.32 161.74L157.62 237.57C157.55 234.95 157.62 232.32 157.71 229.64C158.059 221.816 159.259 214.054 161.29 206.49L210.29 156.1C211.29 156.1 212.4 156.1 213.46 156.1C219.791 156.46 225.93 158.399 231.32 161.74V161.74Z" fill="white"/>
<path d="M257 197L171.17 285.31C169.591 282.862 168.162 280.32 166.89 277.7L253.6 188.48C254.894 191.253 256.029 194.098 257 197Z" fill="white"/>
<path d="M260.34 249.76C259.292 255.457 257.76 261.053 255.76 266.49L215.81 307.59C212.691 308.263 209.497 308.522 206.31 308.36C205.41 308.31 204.51 308.24 203.62 308.12L260.34 249.76Z" fill="white"/>
<path d="M260.5 210.59L178.65 294.8C178.26 294.42 177.89 294.02 177.53 293.61L260.12 208.61C260.27 209.27 260.38 209.94 260.5 210.59Z" fill="white"/>
</g>
<path d="M321.72 237.17L329.72 228.48C316.86 216.58 286.59 199.96 263.91 222.01L272.15 230.49C292.47 210.7 320.53 236.09 321.72 237.17Z" fill="#FFC727"/>
<path d="M398.26 331C375.174 326.761 354.714 313.534 341.374 294.221C328.033 274.909 322.903 251.092 327.11 228V228C330.261 210.781 338.447 194.883 350.633 182.316C362.819 169.75 378.457 161.079 395.571 157.399C412.685 153.72 430.506 155.198 446.779 161.647C463.053 168.095 477.05 179.224 486.999 193.627C496.948 208.03 502.403 225.059 502.674 242.562C502.945 260.064 498.02 277.255 488.522 291.958C479.023 306.662 465.378 318.22 449.312 325.169C433.246 332.118 415.48 334.147 398.26 331V331ZM338.75 230.16C335.901 245.854 338.025 262.045 344.825 276.473C351.625 290.901 362.762 302.845 376.679 310.636C390.596 318.428 406.6 321.679 422.454 319.934C438.308 318.189 453.222 311.536 465.112 300.904C477.002 290.272 485.274 276.193 488.774 260.631C492.273 245.07 490.825 228.804 484.632 214.105C478.439 199.407 467.809 187.01 454.228 178.645C440.647 170.281 424.793 166.367 408.88 167.45C391.889 168.638 375.775 175.444 363.078 186.798C350.381 198.152 341.823 213.407 338.75 230.16V230.16Z" fill="#FFC727"/>
<path d="M493 206.12C486.91 185.9 451.44 163.67 451.44 163.67C465.8 167.2 481.64 174.38 489.34 175.98C493.66 176.87 519.86 179.55 519.86 179.55L519.96 215.47C519.96 215.47 512.76 215.87 510.96 220.58C507.1 230.49 509.05 232.89 499.53 267.27C499.44 267.27 499 226.33 493 206.12Z" fill="#FFC727"/>
<g opacity="0.1">
<path d="M398.26 331C375.174 326.761 354.714 313.534 341.374 294.221C328.033 274.909 322.903 251.092 327.11 228V228C330.261 210.781 338.447 194.883 350.633 182.316C362.819 169.75 378.457 161.079 395.571 157.399C412.685 153.72 430.506 155.198 446.779 161.647C463.053 168.095 477.05 179.224 486.999 193.627C496.948 208.03 502.403 225.059 502.674 242.562C502.945 260.064 498.02 277.255 488.522 291.958C479.023 306.662 465.378 318.22 449.312 325.169C433.246 332.118 415.48 334.147 398.26 331V331ZM338.75 230.16C335.901 245.854 338.025 262.045 344.825 276.473C351.625 290.901 362.762 302.845 376.679 310.636C390.596 318.428 406.6 321.679 422.454 319.934C438.308 318.189 453.222 311.536 465.112 300.904C477.002 290.272 485.274 276.193 488.774 260.631C492.273 245.07 490.825 228.804 484.632 214.105C478.439 199.407 467.809 187.01 454.228 178.645C440.647 170.281 424.793 166.367 408.88 167.45C391.889 168.638 375.775 175.444 363.078 186.798C350.381 198.152 341.823 213.407 338.75 230.16V230.16Z" fill="black"/>
<path d="M493 206.12C486.91 185.9 451.44 163.67 451.44 163.67C465.8 167.2 481.64 174.38 489.34 175.98C493.66 176.87 519.86 179.55 519.86 179.55L519.96 215.47C519.96 215.47 512.76 215.87 510.96 220.58C507.1 230.49 509.05 232.89 499.53 267.27C499.44 267.27 499 226.33 493 206.12Z" fill="black"/>
</g>
<path d="M390.39 329.71C367.323 325.47 346.878 312.256 333.54 292.964C320.202 273.672 315.059 249.878 319.24 226.8V226.8C322.371 209.562 330.545 193.64 342.727 181.049C354.91 168.458 370.554 159.764 387.68 156.067C404.805 152.37 422.643 153.836 438.935 160.28C455.227 166.724 469.241 177.857 479.204 192.268C489.167 206.68 494.631 223.723 494.904 241.241C495.177 258.759 490.248 275.964 480.74 290.68C471.231 305.395 457.571 316.959 441.489 323.909C425.406 330.858 407.623 332.881 390.39 329.72V329.71ZM330.88 228.92C328.019 244.626 330.136 260.834 336.935 275.278C343.734 289.722 354.876 301.681 368.804 309.485C382.731 317.288 398.749 320.545 414.618 318.801C430.487 317.058 445.414 310.4 457.315 299.759C469.216 289.117 477.495 275.024 480.995 259.448C484.496 243.872 483.043 227.591 476.839 212.881C470.636 198.171 459.992 185.767 446.395 177.401C432.798 169.035 416.927 165.126 401 166.22C384.012 167.409 367.902 174.216 355.207 185.567C342.512 196.918 333.954 212.17 330.88 228.92V228.92Z" fill="#FFC727"/>
<path d="M485.08 204.88C478.99 184.66 443.52 162.43 443.52 162.43C457.88 165.96 473.72 173.14 481.42 174.74C485.74 175.63 511.94 178.31 511.94 178.31L512.04 211.2C512.04 211.2 504.84 213.38 503.04 218.08C499.17 227.99 501.12 231.65 491.6 266.08C491.57 266 491.17 225.09 485.08 204.88Z" fill="#FFC727"/>
<path d="M500.72 193.08C500.48 194.85 497.19 195.87 493.37 195.36C489.55 194.85 486.63 193.01 486.87 191.24C487.11 189.47 490.4 188.45 494.22 188.96C498.04 189.47 501 191.32 500.72 193.08Z" fill="#A6A6A6"/>
<path d="M488.55 191.31C488.86 190.46 492.19 189.49 495.83 190.48Z" fill="white"/>
<path d="M365.83 168.87C373.413 163.095 382.699 160.003 392.23 160.08C383.23 162.72 374.57 165.58 365.83 168.87Z" fill="white"/>
<path d="M328.38 213C332.86 195.11 347.82 177.85 364.29 169.8C348.87 180.8 335.94 195.56 328.38 213Z" fill="white"/>
<path opacity="0.1" d="M334.53 228.92C327.13 270.49 354.11 310.49 394.69 318.08C435.27 325.67 474.29 298.01 481.69 256.45C489.09 214.89 462.1 174.87 421.52 167.29C415.418 166.141 409.194 165.782 403 166.22C369.67 168.57 340.79 193.77 334.53 228.92Z" fill="#EBEBEB"/>
<g opacity="0.2">
<path d="M482.84 246.22L411.55 319.22C405.903 319.48 400.245 319.084 394.69 318.04C392.285 317.594 389.905 317.023 387.56 316.33L480 221.64C482.259 229.628 483.218 237.927 482.84 246.22V246.22Z" fill="white"/>
<path d="M417.7 166.68L333.93 252.52C332.939 244.668 333.141 236.711 334.53 228.92C334.87 226.98 335.3 225.05 335.78 223.16L389 168.59C393.578 167.345 398.267 166.551 403 166.22C407.903 165.867 412.829 166.021 417.7 166.68V166.68Z" fill="white"/>
<path d="M470.69 200.79L367.2 306.79C364.836 305.217 362.569 303.504 360.41 301.66L465.7 193.83C467.497 196.051 469.163 198.375 470.69 200.79V200.79Z" fill="white"/>
<path d="M438.31 172.55L339.69 273.55C338.451 270.678 337.389 267.732 336.51 264.73L429.7 169.25C432.636 170.17 435.511 171.272 438.31 172.55V172.55Z" fill="white"/>
<path d="M481.88 255.39C481.83 255.74 481.76 256.1 481.7 256.45C481.6 257.07 481.48 257.69 481.35 258.29L423.35 317.73C422.42 317.93 421.47 318.11 420.51 318.27L481.88 255.39Z" fill="white"/>
<path d="M459.81 187.33L354.09 295.65C353.71 295.25 353.34 294.84 352.98 294.43L458.63 186.18L459.81 187.33Z" fill="white"/>
</g>
</svg>
