<svg width="760" height="760" viewBox="0 0 760 760" fill="none" xmlns="http://www.w3.org/2000/svg">
<path d="M698.182 721.908C698.182 722.136 552.14 722.319 372.035 722.319C191.93 722.319 45.8584 722.136 45.8584 721.908C45.8584 721.68 191.87 721.498 372.035 721.498C552.201 721.498 698.182 721.68 698.182 721.908Z" fill="#263238"/>
<path d="M223.744 100.503L224.762 61.4691C224.813 59.5021 225.262 57.5657 226.082 55.7772C226.902 53.9886 228.077 52.3851 229.535 51.0636C230.993 49.7421 232.704 48.7302 234.564 48.089C236.424 47.4477 238.395 47.1906 240.358 47.3331C287.888 50.9659 332.287 67.6555 363.979 97.4931C366.766 100.128 368.98 103.308 370.484 106.836C371.988 110.363 372.749 114.163 372.719 117.998L368.98 721.97H240.981V414.747H224.474L223.668 328.32H227.255C249.827 328.32 260.878 312.087 262.595 289.591L272.825 155.481C273.617 148.37 271.933 141.203 268.056 135.189C264.18 129.175 258.348 124.682 251.545 122.467L232.53 114.168C229.87 113.025 227.612 111.114 226.046 108.679C224.481 106.244 223.679 103.397 223.744 100.503Z" fill="#FFC100"/>
<g opacity="0.3">
<path d="M223.744 100.503L224.762 61.4691C224.813 59.5021 225.262 57.5657 226.082 55.7772C226.902 53.9886 228.077 52.3851 229.535 51.0636C230.993 49.7421 232.704 48.7302 234.564 48.089C236.424 47.4477 238.395 47.1906 240.358 47.3331C287.888 50.9659 332.287 67.6555 363.979 97.4931C366.766 100.128 368.98 103.308 370.484 106.836C371.988 110.363 372.749 114.163 372.719 117.998L368.98 721.97H240.981V414.747H224.474L223.668 328.32H227.255C249.827 328.32 260.878 312.087 262.595 289.591L272.825 155.481C273.617 148.37 271.933 141.203 268.056 135.189C264.18 129.175 258.348 124.682 251.545 122.467L232.53 114.168C229.87 113.025 227.612 111.114 226.046 108.679C224.481 106.244 223.679 103.397 223.744 100.503Z" fill="black"/>
</g>
<path d="M354.114 144.355L256.774 105.169H465.758L514.368 144.902L354.114 144.355Z" fill="#FFC100"/>
<path d="M240.008 100.503L241.026 61.4691C241.077 59.5021 241.526 57.5657 242.346 55.7772C243.166 53.9886 244.341 52.3851 245.799 51.0636C247.257 49.7421 248.968 48.7302 250.828 48.089C252.688 47.4477 254.659 47.1906 256.622 47.3331C304.152 50.9659 348.551 67.6555 380.228 97.4931C383.02 100.125 385.238 103.304 386.745 106.832C388.251 110.36 389.013 114.162 388.983 117.998L385.244 721.97H257.245V383.284H240.738L239.932 328.32H243.519C266.091 328.32 277.142 312.087 278.859 289.591L289.089 155.481C289.865 148.368 288.165 141.204 284.275 135.198C280.385 129.192 274.542 124.712 267.733 122.512L248.733 114.213C246.077 113.059 243.827 111.137 242.272 108.693C240.717 106.25 239.929 103.398 240.008 100.503Z" fill="#FFC100"/>
<g opacity="0.3">
<path d="M359.358 146.483L256.774 105.169H465.758L514.368 144.902L359.358 146.483Z" fill="black"/>
</g>
<path d="M436.818 51.5586H256.774V105.154H436.818V51.5586Z" fill="#FFC100"/>
<g opacity="0.6">
<path d="M436.802 51.5586H256.226V67.2146H436.802V51.5586Z" fill="white"/>
</g>
<path d="M436.802 86.1694H256.226V105.169H436.802V86.1694Z" fill="#455A64"/>
<path d="M332.348 294.425L353.172 150.602C353.523 148.822 354.492 147.223 355.908 146.088C357.323 144.954 359.095 144.356 360.909 144.401H510.279C519.627 144.401 526.802 152.153 525.479 160.817L503.743 302.481C503.078 306.073 501.132 309.302 498.267 311.569C495.402 313.836 491.812 314.987 488.163 314.808L344.888 311.601C335.662 311.342 330.98 302.982 332.348 294.425Z" fill="#263238"/>
<path d="M341.514 296.75L363.143 157.792C363.375 156.294 364.136 154.928 365.287 153.941C366.438 152.954 367.904 152.411 369.421 152.411H509.99C510.862 152.382 511.73 152.54 512.535 152.876C513.341 153.212 514.064 153.717 514.657 154.358C515.249 154.998 515.697 155.758 515.97 156.587C516.243 157.415 516.334 158.293 516.238 159.16L494.578 300.961C494.304 302.437 493.505 303.764 492.329 304.698C491.153 305.631 489.678 306.107 488.178 306.038L347.609 303.514C346.748 303.522 345.896 303.347 345.108 303C344.32 302.654 343.614 302.144 343.038 301.505C342.462 300.865 342.028 300.111 341.765 299.291C341.503 298.472 341.417 297.606 341.514 296.75Z" fill="#455A64"/>
<path d="M432.501 174.938V166.456H434.72V170.089H438.018V166.456H440.207V174.938H438.018V171.305H434.72V174.938H432.501Z" fill="white"/>
<path d="M442.32 174.938V173.722H444.509V167.642H442.32V166.426H448.902V167.642H446.713V173.722H448.902V174.938H442.32Z" fill="white"/>
<path d="M451.136 171.305V170.089H457.718V171.305H451.136Z" fill="white"/>
<path d="M459.906 174.938V173.722H458.812V172.506H461.001V173.722H464.299V171.305H459.906V170.089H458.812V167.672H459.906V166.456H465.394V167.672H466.488V168.873H464.299V167.672H461.001V170.089H465.394V171.305H466.488V173.722H465.394V174.938H459.906Z" fill="white"/>
<path d="M469.771 174.938V173.722H468.677V172.506H467.582V168.873H468.677V167.672H469.771V166.456H474.24V167.672H475.334V168.873H473.146V167.672H470.942V168.873H469.847V172.506H470.942V173.722H473.146V172.506H475.334V173.722H474.24V174.938H469.771Z" fill="white"/>
<path d="M477.447 174.938V173.722H476.353V167.642H477.447V166.426H482.934V167.642H484.029V173.722H482.934V174.938H477.447ZM478.542 173.722H481.84V167.642H478.542V173.722Z" fill="white"/>
<path d="M485.123 174.938V166.456H491.705V167.672H492.799V171.305H490.61V172.506H491.705V173.722H492.799V174.938H489.516V173.722H488.406V172.506H487.312V174.938H485.123ZM487.312 171.305H489.516V170.089H490.61V167.672H487.312V171.305Z" fill="white"/>
<path d="M493.894 174.938V166.456H501.6V167.672H496.113V170.089H500.506V171.305H496.113V173.722H501.6V174.938H493.894Z" fill="white"/>
<path d="M445.178 186.384V185.168H447.366V180.334H446.272V179.118H447.366V177.841H449.57V185.107H451.759V186.323L445.178 186.384Z" fill="white"/>
<path d="M457.231 186.384V183.921H452.854V181.489H453.948V180.289H455.042V179.073H456.137V177.841H459.435V182.69H460.56V183.906H459.466V186.323L457.231 186.384ZM455.042 182.751H457.231V180.334H456.137V181.535H455.042V182.751Z" fill="white"/>
<path d="M463.813 186.384V185.168H462.718V183.921H461.624V180.289H462.718V179.073H463.813V177.841H467.111V179.057H468.16V180.273H469.254V183.921H468.16V185.122H467.066V186.338L463.813 186.384ZM464.907 185.168H467.111V180.334H466.002V179.118H463.813V183.921H464.907V185.168Z" fill="white"/>
<path d="M472.583 186.384V185.168H471.489V183.921H470.394V180.289H471.489V179.073H472.583V177.841H475.882V179.057H476.976V180.273H478.07V183.921H476.976V185.122H475.882V186.338L472.583 186.384ZM473.678 185.168H475.882V180.334H474.787V179.118H472.583V183.921H473.678V185.168Z" fill="white"/>
<path d="M481.354 186.384V185.168H480.32V183.921H479.226V180.289H480.32V179.073H481.414V177.841H484.713V179.057H485.807V180.273H486.902V183.921H485.807V185.122H484.713V186.338L481.354 186.384ZM482.448 185.168H484.652V180.334H483.542V179.118H481.354V183.921H482.448V185.168Z" fill="white"/>
<path d="M368.965 174.269V173.053H371.169V168.204H370.059V166.988H371.169V165.788H373.358V173.053H375.546V174.269H368.965Z" fill="white"/>
<path d="M377.735 174.269V173.053H376.641V165.788H378.83V173.053H382.128V165.788H384.317V173.053H383.222V174.269H377.735Z" fill="white"/>
<path d="M385.411 174.269V165.788H391.993V166.988H393.087V170.636H391.993V171.837H387.6V174.269H385.411ZM387.615 170.636H390.898V166.988H387.6L387.615 170.636Z" fill="white"/>
<g opacity="0.3">
<path d="M354.297 303.682C354.069 303.682 359.556 269.755 366.457 227.986C373.358 186.216 379.27 152.381 379.498 152.411C379.726 152.442 374.239 186.338 367.262 228.122C360.286 269.907 354.51 303.727 354.297 303.682Z" fill="black"/>
<path d="M372.932 303.682C372.719 303.682 378.191 269.755 385.183 227.986C392.175 186.216 397.997 152.381 398.225 152.411C398.453 152.442 392.966 186.338 385.989 228.122C379.012 269.907 373.16 303.727 372.932 303.682Z" fill="black"/>
<path d="M391.582 303.682C391.37 303.682 396.842 269.755 403.818 227.986C410.795 186.216 416.647 152.381 416.875 152.411C417.103 152.442 411.616 186.338 404.624 228.122C397.632 269.907 391.81 303.727 391.582 303.682Z" fill="black"/>
<path d="M410.233 303.682C410.005 303.682 415.492 269.755 422.469 227.986C429.446 186.216 435.298 152.381 435.51 152.411C435.723 152.442 430.266 186.338 423.35 228.122C416.434 269.907 410.4 303.727 410.233 303.682Z" fill="black"/>
<path d="M428.883 303.682C428.655 303.682 434.127 269.755 441.043 227.986C447.959 186.216 453.857 152.381 454.085 152.411C454.313 152.442 448.826 186.338 441.849 228.122C434.872 269.907 429.096 303.727 428.883 303.682Z" fill="black"/>
<path d="M447.518 303.682C447.306 303.682 452.778 269.755 459.754 227.986C466.731 186.216 472.583 152.381 472.811 152.411C473.039 152.442 467.552 186.338 460.575 228.122C453.598 269.907 447.746 303.727 447.518 303.682Z" fill="black"/>
<path d="M466.169 303.682C465.941 303.682 471.428 269.755 478.405 227.986C485.382 186.216 491.234 152.381 491.446 152.411C491.659 152.442 486.202 186.338 479.21 228.122C472.218 269.907 466.397 303.727 466.169 303.682Z" fill="black"/>
<path d="M484.88 303.682C484.652 303.682 490.139 269.755 497.116 227.986C504.093 186.216 509.93 152.381 510.158 152.411C510.386 152.442 504.898 186.338 497.998 228.122C491.097 269.907 485.032 303.727 484.88 303.682Z" fill="black"/>
<path d="M515.28 165.529C515.28 165.757 481.065 165.939 438.839 165.939C396.614 165.939 362.398 165.757 362.398 165.529C362.398 165.301 396.614 165.118 438.839 165.118C481.065 165.118 515.28 165.301 515.28 165.529Z" fill="black"/>
<path d="M512.346 182.006C512.346 182.234 478.116 182.416 435.906 182.416C393.695 182.416 359.45 182.234 359.45 182.006C359.45 181.778 393.68 181.595 435.906 181.595C478.131 181.595 512.346 181.778 512.346 182.006Z" fill="black"/>
<path d="M507.908 198.087C507.908 198.315 473.678 198.498 431.467 198.498C389.257 198.498 355.011 198.315 355.011 198.087C355.011 197.859 389.242 197.677 431.467 197.677C473.693 197.677 507.908 197.859 507.908 198.087Z" fill="black"/>
<path d="M509.808 214.169C509.808 214.397 475.578 214.579 433.367 214.579C391.157 214.579 356.926 214.397 356.926 214.169C356.926 213.941 391.142 213.758 433.367 213.758C475.593 213.758 509.808 213.941 509.808 214.169Z" fill="black"/>
<path d="M505.37 230.25C505.37 230.463 471.139 230.661 428.929 230.661C386.718 230.661 352.473 230.463 352.473 230.25C352.473 230.037 386.703 229.84 428.929 229.84C471.154 229.84 505.37 230.022 505.37 230.25Z" fill="black"/>
<path d="M500.931 246.317C500.931 246.545 466.701 246.727 424.49 246.727C382.28 246.727 348.034 246.545 348.034 246.317C348.034 246.089 382.265 245.921 424.49 245.921C466.716 245.921 500.931 246.104 500.931 246.317Z" fill="black"/>
<path d="M500.931 263.037C500.931 263.265 466.701 263.447 424.49 263.447C382.28 263.447 348.034 263.265 348.034 263.037C348.034 262.809 382.265 262.626 424.49 262.626C466.716 262.626 500.931 262.809 500.931 263.037Z" fill="black"/>
<path d="M497.04 279.681C497.04 279.909 462.81 280.091 420.599 280.091C378.389 280.091 344.143 279.909 344.143 279.681C344.143 279.453 378.374 279.271 420.599 279.271C462.825 279.271 497.04 279.514 497.04 279.681Z" fill="black"/>
<path d="M497.04 295.899C497.04 296.127 462.81 296.31 420.599 296.31C378.389 296.31 344.143 296.127 344.143 295.899C344.143 295.671 378.374 295.489 420.599 295.489C462.825 295.489 497.04 295.671 497.04 295.899Z" fill="black"/>
</g>
<path d="M365.04 220.806V219.286H363.52V217.766H362V213.115H363.52V211.595H365.04V210.075H372.306V211.595H366.484V213.115H364.964V217.766H366.484V219.286H369.357V216.246H367.837V214.726H372.199V220.806H365.04Z" fill="white"/>
<path d="M373.765 220.806V213.039H375.209V211.519H376.729V209.999H381.092V211.519H382.536V213.039H384.056V220.806H381.152V217.766H376.79V220.806H373.765ZM376.668 216.14H381.031V213.1H379.511V211.58H377.991V213.1H376.547L376.668 216.14Z" fill="white"/>
<path d="M385.4 221.126V210.243H388.303V211.763H389.823V213.283H391.343V211.763H392.863V210.243H395.766V221.126H392.863V214.91H391.343V217.95H389.823V214.91H388.303V221.126H385.4Z" fill="white"/>
<path d="M397.013 221.052V210.169H407.197V211.689H399.932V214.805H405.738V216.325H399.932V219.365H407.197V220.885L397.013 221.052Z" fill="white"/>
<path d="M421.728 221.124V219.604H420.284V211.822H421.728V210.302H428.993V211.822H430.513V219.604H428.993V221.124H421.728ZM423.248 219.604H427.61V211.822H423.248V219.604Z" fill="white"/>
<path d="M436.244 221.125V219.605H434.8V218.085H433.28V216.565H431.76V210.349H434.663V215.015H436.244V216.535H437.764V215.015H439.284V210.349H442.188V216.565H440.668V218.085H439.223V219.605H437.703V221.125H436.244Z" fill="white"/>
<path d="M443.54 221.126V210.243H453.709V211.763H446.443V214.879H452.25V216.399H446.443V219.439H453.709V220.959L443.54 221.126Z" fill="white"/>
<path d="M455.168 221.126V210.243H463.878V211.763H465.398V216.566H462.495V218.086H463.939V219.606H465.459V221.126H461.096V219.606H459.652V218.086H458.132V221.126H455.168ZM458.072 216.46H460.975V214.94H462.495V211.824H458.132L458.072 216.46Z" fill="white"/>
<g opacity="0.2">
<path d="M348.027 303.179L451.175 152H467.363L363.379 303.453L348.027 303.179Z" fill="white"/>
</g>
<path d="M443.49 328.367H235.266V414.734H443.49V328.367Z" fill="#FFC100"/>
<path d="M383.238 348.644H377.325C369.652 348.644 363.432 354.864 363.432 362.537V368.45C363.432 376.122 369.652 382.342 377.325 382.342H383.238C390.91 382.342 397.13 376.122 397.13 368.45V362.537C397.13 354.864 390.91 348.644 383.238 348.644Z" fill="#E0E0E0"/>
<path d="M383.238 382.343C384.675 382.202 386.095 381.922 387.478 381.507C389.326 380.868 391.018 379.847 392.445 378.512C393.872 377.176 395.002 375.556 395.762 373.755C396.247 372.567 396.569 371.32 396.72 370.046C396.842 368.724 396.796 367.295 396.796 365.82C396.796 364.346 396.796 362.78 396.705 361.26C396.46 358.788 395.54 356.43 394.048 354.444C392.555 352.458 390.545 350.92 388.238 349.997C384.986 348.584 381.155 349.146 377.34 349.04C373.8 349.039 370.402 350.427 367.875 352.906C365.348 355.384 363.895 358.755 363.827 362.294C363.827 363.951 363.827 365.562 363.827 367.128C363.752 368.627 363.875 370.129 364.192 371.596C364.801 374.217 366.183 376.595 368.159 378.421C369.775 379.955 371.751 381.058 373.905 381.628C375.539 382.036 377.222 382.215 378.906 382.16H382.143C382.52 382.152 382.897 382.183 383.268 382.252C382.896 382.309 382.52 382.334 382.143 382.328H378.906C377.187 382.442 375.461 382.304 373.783 381.917C371.513 381.384 369.419 380.274 367.703 378.695C366.699 377.82 365.837 376.795 365.15 375.655C364.376 374.418 363.811 373.062 363.478 371.642C363.134 370.148 362.99 368.614 363.052 367.082C363.052 365.562 363.052 363.89 363.052 362.233C363.108 358.485 364.636 354.909 367.307 352.278C369.978 349.647 373.576 348.173 377.325 348.173H383.04C384.928 348.16 386.802 348.511 388.558 349.207C390.997 350.185 393.118 351.819 394.688 353.927C396.257 356.035 397.213 358.537 397.45 361.154C397.571 362.78 397.45 364.27 397.45 365.714C397.486 367.149 397.445 368.585 397.328 370.016C397.146 371.342 396.794 372.64 396.279 373.876C395.349 375.995 393.92 377.857 392.114 379.303C390.756 380.379 389.21 381.193 387.554 381.704C386.511 382.016 385.434 382.2 384.347 382.252C383.981 382.317 383.61 382.348 383.238 382.343Z" fill="#263238"/>
<path d="M380.35 355.165H380.213C379.163 355.165 378.313 356.016 378.313 357.065V373.922C378.313 374.971 379.163 375.822 380.213 375.822H380.35C381.399 375.822 382.25 374.971 382.25 373.922V357.065C382.25 356.016 381.399 355.165 380.35 355.165Z" fill="#263238"/>
<path d="M512.301 409.718H274.147V721.911H512.301V409.718Z" fill="#FFC100"/>
<path d="M415.674 612.669C415.674 612.669 415.674 612.441 415.674 612.031C415.674 611.62 415.674 610.982 415.674 610.191C415.674 608.55 415.674 606.163 415.674 603.047C415.674 596.785 415.674 587.65 415.583 576.022C415.583 552.781 415.477 519.614 415.401 479.836L415.75 480.186H282.933L283.343 479.775C283.343 528.415 283.343 574.015 283.343 612.608L282.994 612.258L379.179 612.441L406.205 612.532H413.349H415.188H413.379H406.311L379.362 612.623L282.948 612.806H282.598V612.456C282.598 573.848 282.598 528.263 282.598 479.623V479.213H283.024H415.842H416.206V479.563C416.206 519.432 416.07 552.675 416.024 575.961C416.024 587.559 416.024 596.678 415.933 602.91C415.933 605.95 415.933 608.367 415.933 609.994C415.933 610.769 415.933 611.377 415.933 611.803C415.933 612.228 415.674 612.669 415.674 612.669Z" fill="#263238"/>
<path d="M234.855 328.367L329.992 309.337L485.29 312.711L483.147 314.703L443.49 328.367H234.855Z" fill="#FFC100"/>
<path d="M234.855 328.322L443.49 327.927H443.369L483.01 314.247L482.874 314.323L484.576 312.727L485.002 312.331L485.275 313.046L329.992 309.656L234.855 328.322L329.931 308.972H330.007L485.29 312.271H486.294L485.564 312.955L485.138 313.365L483.36 315.007L443.703 328.687H443.627L234.855 328.322Z" fill="#263238"/>
<g opacity="0.3">
<path d="M427.12 100.503L428.138 61.469C428.191 59.5026 428.641 57.5673 429.462 55.7798C430.283 53.9922 431.458 52.3896 432.915 51.0685C434.373 49.7475 436.083 48.7354 437.942 48.0934C439.801 47.4513 441.772 47.1927 443.734 47.333C491.264 50.9658 535.663 67.6554 567.355 97.493C570.132 100.122 572.339 103.293 573.84 106.809C575.34 110.326 576.103 114.114 576.08 117.937L572.341 721.909H444.296V414.96H440.8C437.354 414.96 434.047 413.6 431.599 411.175C429.151 408.749 427.76 405.456 427.728 402.01L426.983 328.32H430.57C453.142 328.32 464.193 312.087 465.91 289.591L476.14 155.481C476.932 148.37 475.248 141.203 471.372 135.189C467.495 129.175 461.664 124.682 454.86 122.467L435.784 114.213C433.142 113.046 430.907 111.119 429.364 108.677C427.821 106.236 427.04 103.39 427.12 100.503Z" fill="black"/>
</g>
<path d="M443.566 100.503L444.585 61.4691C444.635 59.5021 445.084 57.5657 445.904 55.7772C446.725 53.9886 447.899 52.3851 449.357 51.0636C450.815 49.7421 452.526 48.7302 454.386 48.089C456.246 47.4477 458.217 47.1906 460.18 47.3331C507.71 50.9659 552.11 67.6555 583.802 97.4931C586.588 100.128 588.803 103.308 590.306 106.836C591.81 110.363 592.571 114.163 592.542 117.998L588.802 721.97H460.803V414.96H454.586C451.847 414.96 449.219 413.88 447.272 411.953C445.325 410.026 444.218 407.409 444.19 404.67L443.49 328.366H447.078C469.65 328.366 480.7 312.132 482.418 289.636L492.647 155.527C493.439 148.416 491.755 141.249 487.879 135.235C484.002 129.221 478.171 124.727 471.367 122.512L452.352 114.213C449.685 113.068 447.422 111.15 445.856 108.706C444.29 106.262 443.492 103.404 443.566 100.503Z" fill="#FFC100"/>
<g opacity="0.4">
<path d="M460.834 492.862L591.569 274.529V352.551L460.834 572.388V492.862Z" fill="white"/>
</g>
<path d="M370.148 235.479L367.526 235.455L367.448 243.907L364.826 243.883L364.903 235.431L362.281 235.407L362.294 233.998L370.161 234.07L370.148 235.479Z" fill="white"/>
<path d="M382.371 244.045L378.437 244.008L378.45 242.6L377.139 242.588L377.152 241.179L375.841 241.167L375.815 243.984L373.193 243.96L373.283 234.099L381.15 234.171L381.137 235.58L382.449 235.592L382.41 239.818L379.787 239.794L379.774 241.203L381.086 241.215L381.073 242.624L382.384 242.636L382.371 244.045ZM379.8 238.385L379.826 235.568L375.893 235.532L375.854 239.758L378.476 239.782L378.489 238.373L379.8 238.385Z" fill="white"/>
<path d="M393.412 238.51L392.101 238.498L392.088 239.907L390.777 239.895L390.738 244.121L388.116 244.097L388.154 239.871L386.83 239.859L386.843 238.45L385.545 238.438L385.584 234.212L388.206 234.236L388.167 238.462L390.79 238.486L390.829 234.26L393.451 234.284L393.412 238.51Z" fill="white"/>
<path d="M410.619 244.304L407.997 244.28L408.023 241.462L404.089 241.426L404.063 244.244L401.441 244.22L401.505 237.176L402.817 237.188L402.829 235.779L404.141 235.791L404.154 234.383L408.087 234.419L408.074 235.827L409.385 235.84L409.373 237.248L410.684 237.26L410.619 244.304ZM408.035 240.054L408.061 237.236L406.75 237.224L406.763 235.815L405.452 235.803L405.439 237.212L404.128 237.2L404.102 240.018L408.035 240.054Z" fill="white"/>
<path d="M422.264 244.411L415.708 244.351L415.721 242.914L414.41 242.902L414.423 241.521L413.112 241.509L413.15 237.283L414.462 237.295L414.475 235.886L415.786 235.898L415.799 234.49L422.355 234.55L422.342 235.959L417.097 235.91L417.084 237.319L415.773 237.307L415.734 241.533L417.045 241.545L417.032 242.954L419.655 242.978L419.68 240.161L418.369 240.149L418.382 238.74L422.316 238.776L422.264 244.411Z" fill="white"/>
<path d="M433.331 236.059L430.709 236.035L430.644 243.079L433.266 243.103L433.253 244.512L425.386 244.44L425.399 243.031L428.022 243.055L428.086 236.011L425.464 235.987L425.477 234.578L433.344 234.651L433.331 236.059Z" fill="white"/>
<path d="M445.554 244.625L442.932 244.601L442.958 241.783L439.024 241.747L438.998 244.565L436.376 244.541L436.44 237.497L437.752 237.509L437.765 236.1L439.076 236.112L439.089 234.703L443.022 234.74L443.009 236.148L444.321 236.16L444.308 237.569L445.619 237.581L445.554 244.625ZM442.971 240.375L442.996 237.557L441.685 237.545L441.698 236.136L440.387 236.124L440.374 237.533L439.063 237.521L439.037 240.338L442.971 240.375Z" fill="white"/>
<path d="M457.199 244.732L454.577 244.708L454.59 243.299L453.279 243.287L453.291 241.878L451.98 241.866L451.993 240.458L450.682 240.445L450.643 244.672L448.021 244.648L448.111 234.786L450.734 234.81L450.721 236.219L452.032 236.231L452.019 237.64L453.33 237.652L453.317 239.061L454.629 239.073L454.667 234.847L457.29 234.871L457.199 244.732Z" fill="white"/>
<path d="M372.424 257.639L369.801 257.615L369.724 266.068L367.101 266.044L367.179 257.591L364.556 257.567L364.569 256.158L372.437 256.231L372.424 257.639Z" fill="white"/>
<path d="M384.66 264.796L383.348 264.784L383.335 266.193L376.779 266.132L376.792 264.724L375.481 264.712L375.546 257.668L376.857 257.68L376.87 256.271L383.426 256.331L383.413 257.74L384.724 257.752L384.66 264.796ZM382.037 264.772L382.102 257.728L378.168 257.692L378.104 264.736L382.037 264.772Z" fill="white"/>
<path d="M396.292 266.312L393.669 266.288L393.708 262.061L392.397 262.049L392.384 263.458L391.073 263.446L391.086 262.037L389.774 262.025L389.736 266.251L387.113 266.227L387.204 256.366L389.826 256.39L389.813 257.799L391.125 257.811L391.112 259.22L392.423 259.232L392.436 257.823L393.747 257.835L393.76 256.426L396.382 256.45L396.292 266.312Z" fill="white"/>
<path d="M407.95 265.01L406.638 264.998L406.625 266.407L400.07 266.346L400.082 264.938L398.771 264.926L398.836 257.882L400.147 257.894L400.16 256.485L406.716 256.545L406.703 257.954L408.014 257.966L407.95 265.01ZM405.327 264.986L405.392 257.942L401.458 257.906L401.394 264.95L405.327 264.986Z" fill="white"/>
<path d="M419.582 266.526L415.648 266.49L415.661 265.081L414.35 265.069L414.363 263.66L413.052 263.648L413.026 266.465L410.403 266.441L410.494 256.58L418.361 256.652L418.348 258.061L419.659 258.073L419.621 262.299L416.998 262.275L416.985 263.684L418.296 263.696L418.283 265.105L419.595 265.117L419.582 266.526ZM417.011 260.867L417.037 258.049L413.103 258.013L413.065 262.239L415.687 262.263L415.7 260.855L417.011 260.867Z" fill="white"/>
<path d="M431.227 266.633L427.293 266.596L427.306 265.188L425.995 265.176L426.008 263.767L424.697 263.755L424.671 266.572L422.048 266.548L422.139 256.687L430.006 256.759L429.993 258.168L431.304 258.18L431.266 262.406L428.643 262.382L428.63 263.791L429.941 263.803L429.928 265.212L431.24 265.224L431.227 266.633ZM428.656 260.974L428.682 258.156L424.748 258.12L424.71 262.346L427.332 262.37L427.345 260.962L428.656 260.974Z" fill="white"/>
<path d="M442.885 265.331L441.574 265.319L441.561 266.728L435.005 266.667L435.018 265.259L433.706 265.247L433.771 258.203L435.082 258.215L435.095 256.806L441.651 256.866L441.638 258.275L442.949 258.287L442.885 265.331ZM440.262 265.307L440.327 258.263L436.393 258.227L436.329 265.271L440.262 265.307Z" fill="white"/>
<path d="M454.517 266.847L451.894 266.822L451.907 265.414L450.596 265.402L450.609 263.993L449.298 263.981L449.285 265.39L447.974 265.378L447.961 266.786L445.338 266.762L445.429 256.901L448.051 256.925L448.013 261.151L449.324 261.163L449.337 259.755L450.648 259.767L450.635 261.175L451.946 261.188L451.985 256.961L454.607 256.985L454.517 266.847Z" fill="white"/>
<path d="M427.12 100.502L428.139 61.468C428.191 59.5017 428.641 57.5663 429.462 55.7788C430.283 53.9913 431.458 52.3886 432.915 51.0676C434.373 49.7465 436.083 48.7344 437.942 48.0924C439.802 47.4504 441.772 47.1917 443.734 47.332C491.264 50.9648 535.663 67.6544 567.355 97.492C570.132 100.121 572.339 103.292 573.84 106.808C575.341 110.325 576.103 114.113 576.08 117.936L572.341 721.908H444.296V414.959H427.789L426.983 328.319H430.571C453.143 328.319 464.193 312.086 465.911 289.59L476.14 155.48C476.932 148.369 475.248 141.202 471.372 135.188C467.495 129.174 461.664 124.681 454.86 122.466L435.784 114.212C433.142 113.045 430.907 111.118 429.364 108.676C427.821 106.235 427.04 103.389 427.12 100.502Z" fill="#FFC100"/>
<path d="M460.834 572.388L591.569 352.551L591.158 433.369L460.834 643.828V572.388Z" fill="white"/>
<path d="M443.673 47.3328H443.232C442.928 47.3328 442.487 47.3328 441.91 47.3328C438.76 47.5341 435.761 48.7555 433.367 50.8123C430.973 52.869 429.314 55.6493 428.64 58.7328C428.311 60.7419 428.174 62.7778 428.23 64.8128C428.017 73.4768 427.758 84.0864 427.454 96.4288C427.454 97.9488 427.363 99.56 427.363 101.141C427.411 103.627 428.108 106.057 429.386 108.19C430.663 110.323 432.476 112.085 434.644 113.301C440.952 116.234 447.853 119.092 454.982 122.238C462.706 124.756 469.17 130.142 473.039 137.286C475.032 141.062 476.257 145.195 476.642 149.446C476.748 150.526 476.718 151.635 476.748 152.73L476.52 156.028C476.368 158.217 476.201 160.436 476.034 162.67C474.681 180.53 473.237 199.637 471.702 219.792C470.166 239.947 468.57 261.151 466.898 283.191C466.655 288.785 465.969 294.35 464.846 299.835C463.643 305.455 461.339 310.781 458.067 315.506C454.686 320.309 449.965 324.01 444.494 326.146L442.426 326.922C441.727 327.134 441.013 327.302 440.298 327.484C438.866 327.859 437.408 328.128 435.936 328.29C432.998 328.596 430.043 328.713 427.09 328.639L427.5 328.229C427.591 338.519 427.698 349.509 427.804 360.544C427.91 371.579 428.002 382.782 428.108 393.665C428.382 399.03 427.226 404.837 430.616 409.108C432.122 411.22 434.246 412.814 436.696 413.668C439.193 414.381 441.799 414.639 444.387 414.428H444.798V414.96C444.798 502.254 444.691 578.983 444.661 633.84C444.661 661.291 444.554 683.286 444.539 698.44C444.539 706.04 444.539 711.831 444.539 715.814C444.539 717.79 444.539 719.279 444.539 720.374C444.539 721.468 444.539 721.894 444.539 721.894C444.539 721.894 444.539 721.377 444.539 720.374C444.539 719.37 444.539 717.85 444.539 715.814C444.539 711.831 444.539 705.994 444.539 698.44C444.539 683.24 444.539 661.291 444.418 633.84C444.418 578.922 444.326 502.193 444.281 414.96L444.676 415.37C443.354 415.37 442.062 415.37 440.709 415.37C439.345 415.322 437.997 415.066 436.711 414.61C434.106 413.682 431.843 411.987 430.221 409.746C428.593 407.479 427.692 404.77 427.637 401.979C427.637 399.274 427.637 396.568 427.637 393.832C427.546 382.949 427.444 371.914 427.333 360.726C427.226 349.646 427.135 338.702 427.044 328.411V328.001H427.454C430.377 328.068 433.301 327.952 436.21 327.651C437.646 327.495 439.069 327.231 440.466 326.861C441.165 326.678 441.864 326.526 442.548 326.314L444.57 325.554C449.899 323.462 454.493 319.845 457.778 315.157C460.993 310.52 463.255 305.292 464.436 299.774C465.553 294.33 466.234 288.805 466.473 283.252C468.16 261.212 469.786 240.008 471.337 219.853C472.887 199.698 474.377 180.591 475.73 162.731C475.912 160.497 476.079 158.278 476.246 156.089L476.474 152.836C476.474 151.757 476.474 150.678 476.368 149.614C476.01 145.424 474.822 141.347 472.872 137.621C469.089 130.601 462.756 125.301 455.179 122.816C448.035 119.639 441.21 116.736 434.811 113.802C432.573 112.534 430.706 110.702 429.394 108.489C428.082 106.276 427.372 103.759 427.333 101.186C427.333 99.5752 427.409 98.0096 427.439 96.4744C427.804 84.1168 428.093 73.5072 428.351 64.8432C428.315 62.8068 428.467 60.7714 428.807 58.7632C429.21 56.9962 429.932 55.3172 430.935 53.808C432.516 51.4413 434.757 49.5913 437.38 48.488C438.978 47.8193 440.681 47.4385 442.411 47.3632C443.08 47.272 443.673 47.3328 443.673 47.3328Z" fill="#263238"/>
<path d="M443.597 100.503C443.597 100.503 443.597 100.7 443.597 101.111C443.68 104.118 444.688 107.027 446.485 109.44C447.556 110.868 448.874 112.093 450.376 113.058C452.287 114.084 454.256 114.998 456.274 115.794L471.382 122.36C477.316 124.293 482.542 127.943 486.4 132.848C491.011 138.723 493.352 146.061 492.997 153.52C491.811 169.328 490.443 187.386 488.938 207.526C487.434 227.666 485.731 249.873 483.907 273.98C483.421 280.06 483.071 286.14 482.387 292.403C482.038 295.566 481.465 298.7 480.67 301.781C479.823 304.929 478.662 307.985 477.204 310.901L476.657 312.011L476.018 313.059C475.578 313.759 475.167 314.473 474.696 315.157C473.741 316.513 472.69 317.798 471.55 319.003C470.406 320.23 469.165 321.363 467.841 322.392C466.474 323.391 465.03 324.28 463.524 325.052C462.012 325.832 460.442 326.493 458.827 327.028C458.006 327.287 457.17 327.469 456.334 327.682L455.088 328.001L453.811 328.199L451.242 328.563L448.658 328.7C446.926 328.807 445.193 328.7 443.46 328.776L443.764 328.457C443.916 343.657 444.068 359.48 444.22 375.942C444.311 384.18 444.392 392.555 444.463 401.067C444.333 403.169 444.507 405.278 444.98 407.33C445.614 409.332 446.831 411.1 448.476 412.407C450.126 413.731 452.141 414.521 454.252 414.671C456.38 414.747 458.599 414.671 460.773 414.671H461.122V414.96C461.122 505.187 461.122 609.642 461.122 721.909L460.712 721.499H588.711L588.301 721.894C588.301 719.599 588.301 717.106 588.301 714.613C589.821 488.665 591.052 284.149 591.994 136.101C591.994 131.48 592.025 126.92 592.086 122.421C592.086 120.171 592.192 117.861 592.086 115.718C591.925 113.528 591.506 111.365 590.839 109.273C589.519 105.16 587.249 101.416 584.212 98.3442C582.692 96.8242 581.05 95.4866 579.5 94.073C578.71 93.3738 577.98 92.6442 577.129 91.9754L574.697 90.0146C571.505 87.3394 568.146 84.9834 564.878 82.597C563.206 81.457 561.518 80.393 559.846 79.2834L557.354 77.6722L554.815 76.1522C548.295 72.259 541.544 68.7666 534.599 65.6946C511.489 55.7134 486.888 49.6222 461.791 47.6674C459.319 47.2751 456.789 47.4677 454.404 48.2298C452.178 48.9953 450.17 50.2887 448.552 51.9994C447.067 53.6072 445.974 55.5375 445.36 57.6386C444.835 59.6211 444.594 61.6683 444.646 63.7186C444.433 71.6834 444.235 78.417 444.083 83.8738C443.931 89.3306 443.794 93.465 443.718 96.2618C443.642 99.0586 443.566 100.487 443.566 100.487C443.566 100.487 443.566 98.9674 443.566 96.2618C443.566 93.5562 443.734 89.3002 443.855 83.8586C443.977 78.417 444.159 71.6986 444.342 63.7186C444.277 61.6376 444.517 59.5584 445.056 57.5474C445.697 55.3911 446.832 53.4136 448.37 51.7714C450.06 50.0073 452.158 48.6866 454.48 47.9258C456.903 47.1483 459.474 46.9454 461.989 47.333C487.134 49.2334 511.789 55.2944 534.949 65.269C541.918 68.3349 548.695 71.8222 555.241 75.7114L557.779 77.2314L560.287 78.8578C561.959 79.9522 563.662 81.0314 565.334 82.1714C568.617 84.5578 571.976 86.9138 575.183 89.6042L577.6 91.5498C578.421 92.2186 579.12 92.9482 579.986 93.6322C581.506 95.061 583.178 96.429 584.729 97.9338C587.828 101.064 590.145 104.881 591.493 109.075C592.184 111.204 592.613 113.409 592.77 115.642C592.937 117.907 592.77 120.202 592.77 122.391C592.77 126.9 592.739 131.46 592.678 136.071C591.797 284.103 590.581 488.619 589.228 714.567C589.228 717.06 589.228 719.568 589.228 721.863V722.274H460.423V721.879C460.423 609.611 460.423 505.157 460.423 414.93L460.773 415.279C458.569 415.279 456.426 415.279 454.206 415.279C451.968 415.112 449.831 414.276 448.072 412.88C446.313 411.485 445.014 409.594 444.342 407.451C444.018 406.397 443.844 405.302 443.825 404.199V401.007C443.744 392.474 443.673 384.099 443.612 375.881C443.46 359.404 443.323 343.535 443.186 328.396V328.077H443.49C445.223 328.077 446.971 328.077 448.658 328.077L451.227 327.94L453.75 327.591L454.997 327.393L456.228 327.089C457.034 326.876 457.87 326.694 458.675 326.451C460.242 325.917 461.766 325.266 463.235 324.505C464.715 323.751 466.133 322.882 467.476 321.906C468.768 320.894 469.983 319.786 471.109 318.592C472.216 317.409 473.233 316.144 474.149 314.807C474.605 314.139 475.015 313.424 475.441 312.74L476.079 311.707L476.611 310.627C478.058 307.763 479.209 304.758 480.046 301.659C480.865 298.585 481.464 295.456 481.84 292.296C482.478 286.079 482.843 279.908 483.36 273.889C485.214 249.797 486.932 227.575 488.482 207.45C490.033 187.325 491.416 169.252 492.632 153.475C492.985 146.1 490.677 138.844 486.126 133.031C482.311 128.175 477.144 124.558 471.276 122.634L456.198 116.022C454.177 115.21 452.207 114.276 450.3 113.225C448.783 112.25 447.455 111.009 446.378 109.562C444.952 107.602 444.033 105.32 443.703 102.919C443.622 102.32 443.582 101.716 443.582 101.111C443.582 100.7 443.597 100.503 443.597 100.503Z" fill="#263238"/>
<path d="M460.834 721.911V643.828L591.158 433.369L588.833 721.911H460.834Z" fill="#455A64"/>
<path d="M359.358 146.483L358.948 146.361L357.778 145.935L353.294 144.187L336.878 137.667L282.842 115.87L256.09 104.971L255.846 104.88V104.622C255.846 88.9963 255.968 75.6355 255.998 66.1051C255.998 61.4083 256.074 57.6691 256.105 55.0395C256.105 53.7931 256.105 52.8203 256.105 52.0907C256.105 51.3611 256.105 51.0723 256.105 51.0723C256.163 51.4085 256.188 51.7496 256.181 52.0907C256.181 52.8203 256.181 53.7931 256.181 55.0395C256.181 57.6691 256.181 61.4083 256.287 66.1051C256.287 75.6355 256.378 88.9963 256.439 104.622L256.196 104.272L282.963 115.11L336.923 137.135L353.233 143.899L357.656 145.783L358.796 146.285C359.237 146.407 359.374 146.467 359.358 146.483Z" fill="#263238"/>
<path d="M439.417 320.798C439.417 322.5 431.68 323.838 422.15 323.838C412.619 323.838 404.882 322.47 404.882 320.798C404.882 319.126 412.604 317.758 422.15 317.758C431.695 317.758 439.417 319.095 439.417 320.798Z" fill="#455A64"/>
<path d="M426.117 299.442H417.362V319.354C418.712 320.061 420.214 320.43 421.739 320.43C423.264 320.43 424.766 320.061 426.117 319.354V299.442Z" fill="#E0E0E0"/>
<path d="M426.117 299.442C426.19 299.904 426.221 300.372 426.208 300.84C426.208 301.919 426.208 303.287 426.314 304.914C426.314 308.44 426.482 313.471 426.497 319.354V319.597L426.284 319.703C424.941 320.379 423.469 320.762 421.967 320.828C420.36 320.869 418.768 320.514 417.331 319.794L417.179 319.718L416.951 319.612V319.354C416.951 311.602 416.951 304.564 417.058 299.442V299.138H417.346C420.113 299.138 422.332 299.244 423.837 299.305C424.594 299.288 425.352 299.334 426.102 299.442C426.102 299.442 425.174 299.518 423.654 299.578C422.134 299.639 419.976 299.7 417.346 299.73L417.635 299.442C417.711 304.564 417.757 311.602 417.757 319.354L417.529 318.989L417.681 319.065C418.997 319.721 420.451 320.05 421.922 320.022C423.316 319.969 424.683 319.622 425.934 319.004L425.706 319.354C425.706 313.639 425.813 308.714 425.889 305.187C425.889 303.515 425.98 302.147 425.995 301.007C426.004 300.483 426.045 299.961 426.117 299.442Z" fill="#263238"/>
<path d="M421.739 269.878C420.653 269.877 419.578 270.095 418.578 270.518C417.578 270.942 416.673 271.562 415.917 272.341C415.161 273.121 414.57 274.045 414.179 275.058C413.787 276.071 413.603 277.152 413.638 278.238L414.58 308.121C416.746 309.028 419.071 309.495 421.42 309.495C423.769 309.495 426.094 309.028 428.26 308.121L429.78 278.405C429.838 277.311 429.673 276.217 429.295 275.188C428.918 274.16 428.336 273.218 427.584 272.421C426.832 271.624 425.927 270.988 424.922 270.551C423.918 270.113 422.835 269.885 421.739 269.878Z" fill="#FFC100"/>
<path d="M421.739 269.878C422.022 269.845 422.308 269.845 422.59 269.878C423.414 269.94 424.223 270.124 424.992 270.425C426.434 271.021 427.678 272.012 428.582 273.284C429.485 274.556 430.011 276.057 430.099 277.615C429.856 285.367 429.278 296.037 428.67 308.167V308.425L428.442 308.516C426.238 309.477 423.855 309.958 421.45 309.93C419.051 309.878 416.679 309.405 414.443 308.532L414.2 308.44V308.167C413.85 296.007 413.516 285.367 413.41 277.615C413.506 275.827 414.184 274.119 415.34 272.751C416.198 271.74 417.281 270.944 418.502 270.425C419.276 270.124 420.09 269.939 420.918 269.878C421.201 269.845 421.487 269.845 421.77 269.878C420.687 269.984 419.627 270.251 418.623 270.668C417.474 271.205 416.46 271.995 415.659 272.979C414.63 274.285 414.03 275.878 413.942 277.539C414.215 285.321 414.595 295.976 415.021 308.045L414.747 307.68C416.896 308.516 419.175 308.968 421.481 309.018C423.77 309.047 426.038 308.591 428.138 307.68L427.895 308.045C428.564 295.976 429.157 285.321 429.598 277.554C429.51 275.89 428.904 274.296 427.865 272.994C427.077 271.999 426.067 271.202 424.916 270.668C423.899 270.259 422.83 269.993 421.739 269.878Z" fill="#263238"/>
<path d="M416.222 297.511C415.915 296.344 415.741 295.146 415.705 293.939C415.492 291.705 415.279 288.635 415.158 285.23C414.971 282.303 415.083 279.364 415.492 276.459C415.664 275.554 416.061 274.707 416.647 273.997C417.088 273.511 417.422 273.359 417.438 273.404C416.713 274.322 416.236 275.411 416.054 276.566C415.831 279.439 415.806 282.323 415.978 285.199C416.085 288.437 416.191 291.355 416.282 293.894C416.402 295.098 416.382 296.312 416.222 297.511Z" fill="white"/>
<path d="M328.837 320.6C328.837 321.755 325.614 322.698 321.647 322.698C317.68 322.698 314.458 321.755 314.458 320.6V318.974C316.828 318.537 319.241 318.384 321.647 318.518C324.383 318.518 327.53 318.168 328.746 318.822C328.746 318.822 328.837 320.251 328.837 320.6Z" fill="#263238"/>
<path d="M328.837 319.08C328.837 320.129 325.614 320.98 321.647 320.98C317.68 320.98 314.458 320.129 314.458 319.08C314.458 318.031 317.68 317.18 321.647 317.18C325.614 317.18 328.837 318.031 328.837 319.08Z" fill="#455A64"/>
<path d="M350.77 320.6C350.77 321.755 347.548 322.698 343.581 322.698C339.614 322.698 336.406 321.755 336.406 320.6V318.974C338.771 318.537 341.18 318.384 343.581 318.518C346.332 318.518 349.478 318.168 350.694 318.822C350.694 318.822 350.77 320.251 350.77 320.6Z" fill="#263238"/>
<path d="M350.77 319.08C350.77 320.129 347.548 320.98 343.581 320.98C339.614 320.98 336.406 320.129 336.406 319.08C336.406 318.031 339.614 317.18 343.581 317.18C347.548 317.18 350.77 318.031 350.77 319.08Z" fill="#455A64"/>
<path d="M372.719 320.6C372.719 321.755 369.497 322.698 365.53 322.698C361.562 322.698 358.34 321.755 358.34 320.6V318.974C360.71 318.537 363.123 318.384 365.53 318.518C368.281 318.518 371.427 318.168 372.628 318.822C372.628 318.822 372.719 320.251 372.719 320.6Z" fill="#263238"/>
<path d="M372.719 319.08C372.719 320.129 369.497 320.98 365.53 320.98C361.562 320.98 358.34 320.129 358.34 319.08C358.34 318.031 361.562 317.18 365.53 317.18C369.497 317.18 372.719 318.031 372.719 319.08Z" fill="#455A64"/>
<path d="M394.653 320.6C394.653 321.755 391.446 322.698 387.478 322.698C383.511 322.698 380.289 321.755 380.289 320.6V318.974C382.659 318.537 385.072 318.384 387.478 318.518C390.214 318.518 393.361 318.168 394.577 318.822C394.577 318.822 394.653 320.251 394.653 320.6Z" fill="#263238"/>
<path d="M394.653 319.08C394.653 320.129 391.446 320.98 387.478 320.98C383.511 320.98 380.289 320.129 380.289 319.08C380.289 318.031 383.496 317.18 387.478 317.18C391.461 317.18 394.653 318.031 394.653 319.08Z" fill="#455A64"/>
<path d="M441.423 414.749C441.423 414.962 392.783 415.144 332.956 415.144C273.129 415.144 224.474 414.962 224.474 414.749C224.474 414.536 273.038 414.339 332.956 414.339C392.874 414.339 441.423 414.521 441.423 414.749Z" fill="#263238"/>
<path d="M426.983 328.322C426.983 328.55 383.192 328.732 329.186 328.732C275.181 328.732 231.374 328.55 231.374 328.322C231.374 328.094 275.15 327.912 329.186 327.912C383.222 327.912 426.983 328.155 426.983 328.322Z" fill="#263238"/>
<path d="M286.642 496.951H279.057V527.898H286.642V496.951Z" fill="#E0E0E0"/>
<path d="M286.642 527.898C286.554 527.086 286.519 526.268 286.535 525.451C286.535 523.794 286.535 521.59 286.414 518.9C286.338 513.367 286.246 505.691 286.231 496.951L286.642 497.346H279.042L279.452 496.936V506.162C279.452 509.111 279.452 511.938 279.452 514.583C279.452 519.812 279.361 524.341 279.33 527.883L279.087 527.64L284.605 527.777C285.912 527.777 286.626 527.777 286.672 527.883C286.031 527.957 285.387 527.993 284.742 527.989L279.087 528.126H278.844V527.883C278.844 524.341 278.768 519.812 278.722 514.583C278.722 511.938 278.722 509.111 278.722 506.162C278.722 504.642 278.722 503.122 278.722 501.602V497.042L279.133 496.632H287.113V497.042C287.113 505.949 287.006 513.762 286.93 519.28C286.93 521.925 286.839 524.098 286.824 525.725C286.799 526.452 286.738 527.177 286.642 527.898Z" fill="#263238"/>
<path d="M286.642 563.877H279.057V594.824H286.642V563.877Z" fill="#E0E0E0"/>
<path d="M286.642 594.824C286.554 594.011 286.519 593.194 286.535 592.377C286.535 590.72 286.535 588.516 286.414 585.825C286.338 580.293 286.246 572.617 286.231 563.877L286.642 564.272H279.042C279.847 563.451 279.27 564.044 279.452 563.861V573.072C279.452 576.021 279.452 578.833 279.452 581.493C279.452 586.707 279.361 591.236 279.33 594.778L279.087 594.535L284.605 594.672C285.912 594.672 286.626 594.748 286.672 594.778C286.032 594.863 285.387 594.898 284.742 594.884L279.087 595.021H278.844V594.763C278.844 591.221 278.768 586.692 278.722 581.478C278.722 578.818 278.722 576.006 278.722 573.057C278.722 571.537 278.722 570.017 278.722 568.497V563.922L279.133 563.512H287.113V563.922C287.113 572.829 287.006 580.642 286.93 586.16C286.93 588.805 286.839 590.978 286.824 592.62C286.801 593.357 286.74 594.093 286.642 594.824Z" fill="#263238"/>
<path d="M243.322 343.126C244.614 343.126 245.662 342.078 245.662 340.786C245.662 339.493 244.614 338.445 243.322 338.445C242.029 338.445 240.981 339.493 240.981 340.786C240.981 342.078 242.029 343.126 243.322 343.126Z" fill="#263238"/>
<path d="M416.237 343.126C417.53 343.126 418.578 342.078 418.578 340.786C418.578 339.493 417.53 338.445 416.237 338.445C414.944 338.445 413.896 339.493 413.896 340.786C413.896 342.078 414.944 343.126 416.237 343.126Z" fill="#263238"/>
<path d="M460.834 67.2148C460.834 67.6778 460.696 68.1304 460.439 68.5153C460.182 68.9002 459.816 69.2003 459.389 69.3774C458.961 69.5546 458.49 69.601 458.036 69.5106C457.582 69.4203 457.165 69.1974 456.838 68.87C456.51 68.5427 456.287 68.1256 456.197 67.6715C456.107 67.2174 456.153 66.7468 456.33 66.319C456.507 65.8913 456.807 65.5257 457.192 65.2685C457.577 65.0113 458.03 64.874 458.493 64.874C459.114 64.874 459.709 65.1206 460.148 65.5596C460.587 65.9986 460.834 66.594 460.834 67.2148Z" fill="#263238"/>
<path d="M456.35 338.506C457.642 338.506 458.69 337.458 458.69 336.165C458.69 334.872 457.642 333.824 456.35 333.824C455.057 333.824 454.009 334.872 454.009 336.165C454.009 337.458 455.057 338.506 456.35 338.506Z" fill="#263238"/>
<path d="M460.682 105.341C460.682 105.804 460.544 106.256 460.287 106.641C460.03 107.026 459.664 107.326 459.237 107.503C458.809 107.681 458.338 107.727 457.884 107.637C457.43 107.546 457.013 107.323 456.686 106.996C456.358 106.669 456.135 106.252 456.045 105.797C455.955 105.343 456.001 104.873 456.178 104.445C456.355 104.017 456.655 103.652 457.04 103.394C457.425 103.137 457.878 103 458.341 103C458.962 103 459.557 103.247 459.996 103.686C460.435 104.125 460.682 104.72 460.682 105.341Z" fill="#263238"/>
<path d="M456.35 407.666C457.642 407.666 458.69 406.618 458.69 405.325C458.69 404.032 457.642 402.984 456.35 402.984C455.057 402.984 454.009 404.032 454.009 405.325C454.009 406.618 455.057 407.666 456.35 407.666Z" fill="#263238"/>
<path d="M407.223 494.596C407.226 495.063 407.09 495.521 406.832 495.91C406.575 496.3 406.207 496.604 405.776 496.785C405.345 496.965 404.87 497.013 404.411 496.922C403.953 496.832 403.532 496.607 403.201 496.277C402.871 495.946 402.646 495.525 402.556 495.067C402.465 494.608 402.513 494.133 402.693 493.702C402.874 493.271 403.178 492.903 403.568 492.646C403.958 492.388 404.415 492.252 404.882 492.255C405.19 492.255 405.494 492.315 405.778 492.433C406.062 492.551 406.32 492.723 406.538 492.941C406.755 493.158 406.927 493.416 407.045 493.7C407.163 493.984 407.223 494.288 407.223 494.596Z" fill="#263238"/>
<path d="M268.614 427.122C268.614 427.588 268.476 428.043 268.217 428.431C267.958 428.818 267.591 429.12 267.16 429.298C266.729 429.477 266.256 429.523 265.799 429.432C265.342 429.341 264.922 429.117 264.592 428.788C264.263 428.458 264.039 428.038 263.948 427.581C263.857 427.124 263.903 426.651 264.082 426.22C264.26 425.79 264.562 425.422 264.949 425.163C265.337 424.904 265.792 424.766 266.258 424.766C266.568 424.764 266.876 424.823 267.162 424.941C267.449 425.059 267.71 425.232 267.929 425.451C268.148 425.67 268.321 425.931 268.439 426.218C268.557 426.504 268.616 426.812 268.614 427.122Z" fill="#263238"/>
<path d="M514.976 144.401C514.979 144.868 514.843 145.325 514.586 145.714C514.329 146.103 513.962 146.408 513.532 146.588C513.102 146.769 512.628 146.818 512.17 146.729C511.712 146.639 511.291 146.416 510.96 146.087C510.628 145.759 510.403 145.339 510.31 144.881C510.218 144.424 510.264 143.949 510.442 143.518C510.62 143.087 510.922 142.718 511.31 142.458C511.697 142.199 512.153 142.06 512.62 142.06C512.929 142.058 513.235 142.117 513.52 142.234C513.806 142.351 514.066 142.523 514.285 142.74C514.504 142.958 514.678 143.217 514.796 143.502C514.915 143.787 514.976 144.092 514.976 144.401Z" fill="#263238"/>
<path d="M300.534 144.143C300.534 144.606 300.397 145.058 300.14 145.443C299.883 145.828 299.517 146.128 299.089 146.305C298.662 146.482 298.191 146.529 297.737 146.438C297.283 146.348 296.866 146.125 296.538 145.798C296.211 145.47 295.988 145.053 295.898 144.599C295.807 144.145 295.854 143.674 296.031 143.247C296.208 142.819 296.508 142.453 296.893 142.196C297.278 141.939 297.731 141.802 298.194 141.802C298.814 141.802 299.41 142.048 299.849 142.487C300.288 142.926 300.534 143.522 300.534 144.143Z" fill="#263238"/>
<path d="M266.258 715.023C267.551 715.023 268.599 713.975 268.599 712.683C268.599 711.39 267.551 710.342 266.258 710.342C264.966 710.342 263.918 711.39 263.918 712.683C263.918 713.975 264.966 715.023 266.258 715.023Z" fill="#263238"/>
<path d="M434.006 424.781C434.009 425.248 433.873 425.705 433.616 426.094C433.359 426.484 432.992 426.788 432.562 426.969C432.132 427.149 431.657 427.198 431.199 427.109C430.741 427.02 430.32 426.797 429.989 426.468C429.658 426.139 429.432 425.719 429.34 425.262C429.248 424.804 429.294 424.33 429.472 423.898C429.649 423.467 429.951 423.098 430.339 422.839C430.727 422.579 431.183 422.44 431.65 422.44C431.958 422.438 432.264 422.498 432.55 422.614C432.836 422.731 433.096 422.903 433.315 423.121C433.534 423.338 433.707 423.597 433.826 423.882C433.945 424.167 434.006 424.473 434.006 424.781Z" fill="#263238"/>
<path d="M434.006 712.683C434.009 713.149 433.873 713.606 433.616 713.996C433.359 714.385 432.992 714.689 432.562 714.87C432.132 715.051 431.657 715.1 431.199 715.01C430.741 714.921 430.32 714.698 429.989 714.369C429.658 714.04 429.432 713.621 429.34 713.163C429.248 712.706 429.294 712.231 429.472 711.8C429.649 711.368 429.951 711 430.339 710.74C430.727 710.48 431.183 710.342 431.65 710.342C431.958 710.34 432.264 710.399 432.55 710.516C432.836 710.632 433.096 710.804 433.315 711.022C433.534 711.24 433.707 711.498 433.826 711.783C433.945 712.068 434.006 712.374 434.006 712.683Z" fill="#263238"/>
<path d="M407.223 600.858C407.226 601.326 407.09 601.783 406.832 602.173C406.575 602.563 406.207 602.867 405.776 603.047C405.345 603.227 404.87 603.275 404.411 603.185C403.953 603.095 403.532 602.87 403.201 602.539C402.871 602.209 402.646 601.788 402.556 601.329C402.465 600.871 402.513 600.396 402.693 599.965C402.874 599.534 403.178 599.166 403.568 598.908C403.958 598.651 404.415 598.515 404.882 598.518C405.503 598.518 406.099 598.764 406.538 599.203C406.977 599.642 407.223 600.238 407.223 600.858Z" fill="#263238"/>
<path d="M580.341 118.682C581.634 118.682 582.682 117.634 582.682 116.341C582.682 115.048 581.634 114 580.341 114C579.048 114 578 115.048 578 116.341C578 117.634 579.048 118.682 580.341 118.682Z" fill="#263238"/>
<path d="M243.322 407.666C244.614 407.666 245.662 406.618 245.662 405.325C245.662 404.032 244.614 402.984 243.322 402.984C242.029 402.984 240.981 404.032 240.981 405.325C240.981 406.618 242.029 407.666 243.322 407.666Z" fill="#263238"/>
<path d="M413.896 407.666C415.189 407.666 416.237 406.618 416.237 405.325C416.237 404.032 415.189 402.984 413.896 402.984C412.603 402.984 411.555 404.032 411.555 405.325C411.555 406.618 412.603 407.666 413.896 407.666Z" fill="#263238"/>
<g opacity="0.3">
<path d="M317.741 680.688H283.054V712.668H317.741V680.688Z" fill="black"/>
</g>
<path d="M269.268 87.8563V71.2123H272.612V67.8684H275.941V64.5396H285.927V67.8684H289.271V71.2123H292.6V87.8563H285.927V81.1987H275.941V87.8563H269.268ZM275.941 77.87H285.927V71.2123H282.598V67.8684H279.27V71.2123H275.941V77.87Z" fill="white"/>
<path d="M359 56H313V82H359V56Z" stroke="black" stroke-width="2" stroke-miterlimit="10"/>
<path d="M336.768 69.5543L337.803 69.6108C338.493 68.3529 339.045 67.0668 339.459 65.7383L340.01 65.9785C340.148 66.0916 340.121 66.1623 339.941 66.2047C339.541 67.3636 339.031 68.4943 338.424 69.6108L340.976 69.6956C340.673 69.2009 340.424 68.8335 340.245 68.6073L340.755 68.2964C341.266 68.9607 341.735 69.7239 342.176 70.6001L341.611 70.9393L341.266 70.2609H337.127C337.017 70.4164 336.948 70.4164 336.906 70.2468L336.768 69.5543Z" fill="black"/>
<path d="M332.777 67.1543L330.308 70.3071L330.609 70.5548L333.078 67.4019L332.777 67.1543Z" fill="black"/>
<path d="M329.967 67.6884H325.883C326.118 67.01 326.173 66.4871 326.173 66.4447L325.483 66.3599C325.483 66.374 325.276 68.07 324.187 69.3137L324.697 69.7801C325.083 69.3278 325.373 68.8473 325.594 68.3809H327.691C327.649 69.031 327.401 70.5292 325.925 71.7729L326.366 72.31C328.063 70.8684 328.353 69.1441 328.381 68.3809H329.953L329.967 67.6884Z" fill="black"/>
<path d="M328.993 65.9514L328.663 66.2515L329.505 67.2243L329.835 66.9242L328.993 65.9514Z" fill="black"/>
<path d="M350.164 63.9576L349.902 58.8555L348.095 61.8376C348.205 63.9576 348.302 65.7101 348.385 67.0669C348.468 68.4237 348.509 69.7381 348.523 71.0242C347.792 71.3493 347.06 71.6037 346.343 71.7591C345.86 71.8722 345.225 71.9994 344.425 72.1407L343.598 60.1981L341.79 63.3074L342.397 71.1373C341.625 71.5471 340.493 71.8722 339.017 72.0983C337.541 72.3245 336.368 72.4375 335.499 72.4234C335.347 72.4234 335.209 72.4093 335.072 72.4093L335.941 71.0242C336.134 70.7274 336.313 70.3317 336.465 69.8511C336.506 69.6957 336.534 69.5402 336.534 69.413C336.534 69.1162 336.424 68.8477 336.189 68.6215C335.927 68.3671 335.444 68.2258 334.768 68.2117H334.533C333.954 68.2117 333.485 68.2682 333.126 68.3671C332.988 68.4802 332.574 68.9466 331.898 69.7805C331.278 70.5295 330.974 71.0525 330.974 71.321C330.974 71.3493 330.974 71.3634 330.988 71.3917L331.471 73.0594L330.767 73.1866L327.704 73.7095C327.856 73.2997 327.994 72.9322 328.091 72.6071C328.132 72.4658 328.16 72.3245 328.16 72.169C328.16 72.0842 328.16 72.0418 328.118 72.0277C328.091 72.0277 328.049 72.0559 328.022 72.1125C327.801 72.6495 327.456 73.0735 326.973 73.342C326.366 73.6954 324.918 73.9922 322.627 74.2607L322.696 74.1335L322.255 67.4626C322.241 66.3602 321.938 65.6818 321.331 65.4416C321.193 65.385 321.041 65.3568 320.875 65.3568C320.379 65.3568 319.827 65.6536 319.22 66.233C318.999 66.445 318.654 66.8832 318.213 67.5474C317.757 68.2117 317.344 68.9183 316.957 69.6957C316.571 70.473 316.295 71.2221 316.13 71.9287C316.074 72.169 316.047 72.381 316.047 72.5789C316.047 72.9605 316.157 73.2714 316.378 73.4975C316.861 73.978 317.385 74.2183 317.951 74.2183C318.158 74.2183 318.365 74.19 318.585 74.1194C319.372 73.8791 320.034 73.4551 320.544 72.8333L320.834 77.257L320.779 77.6244C320.806 77.6244 320.834 77.6244 320.862 77.6103V77.6244V77.6103C321.551 77.5396 322.393 77.4124 323.386 77.2287C324.38 77.045 325.138 76.833 325.704 76.6068L325.621 77.0732C326.697 76.8895 327.829 76.6492 329.001 76.3666C330.174 76.0698 331.029 75.8154 331.567 75.5892C331.76 75.5327 332.009 75.4196 332.285 75.2642C332.299 75.2783 332.312 75.2924 332.326 75.3066C332.602 75.4903 332.919 75.6034 333.264 75.6458C334.865 75.8154 336.562 75.6882 338.341 75.2924C340.135 74.8967 341.514 73.9498 342.494 72.4658L342.687 75.0239L342.604 75.5327L342.563 75.6175V75.6316C342.618 75.6175 342.673 75.6034 342.728 75.5892V75.6316L342.756 75.5751C344.95 75.0098 346.329 74.5858 346.881 74.2748C348.536 73.3703 349.599 71.957 350.054 70.0349C350.151 69.6815 350.22 69.2717 350.289 68.8053C350.344 68.3389 350.358 67.8301 350.33 67.3071L350.164 63.9576ZM320.186 70.8546C319.923 70.9253 319.661 70.9677 319.413 70.9677C319.178 70.9677 318.944 70.9394 318.709 70.8687C318.227 70.7274 317.909 70.473 317.73 70.1197C317.661 69.9925 317.62 69.8794 317.62 69.7663C317.62 69.6391 317.661 69.5261 317.757 69.413C317.951 69.1727 318.199 68.9183 318.502 68.6781C318.696 68.5085 318.916 68.4378 319.151 68.4378C319.275 68.4378 319.413 68.4661 319.565 68.5085C319.91 68.6357 320.13 68.9607 320.186 69.4978C320.227 69.8087 320.241 70.0914 320.241 70.3458C320.227 70.5154 320.213 70.6991 320.186 70.8546Z" fill="black"/>
<path d="M354.372 60.2549L352.551 63.2229L353.255 73.9783L355.062 71.0103L354.372 60.2549Z" fill="black"/>
<path d="M310.623 90.9392V97.3939H309.682V90.9392H308V89.9761H312.305V90.9392H310.623Z" fill="white" stroke="white" stroke-width="0.2" stroke-miterlimit="10"/>
<path d="M319.348 96.38C318.606 97.1065 317.748 97.4783 316.792 97.4783C315.769 97.4783 314.895 97.1065 314.186 96.38C313.46 95.6365 313.114 94.7578 313.114 93.7102C313.114 92.6626 313.477 91.7671 314.186 91.0405C314.912 90.297 315.769 89.9253 316.792 89.9253C317.748 89.9253 318.656 90.3308 319.513 91.125L318.821 91.784C318.177 91.1926 317.501 90.9053 316.808 90.9053C316.05 90.9053 315.406 91.1757 314.862 91.7333C314.318 92.2909 314.054 92.9499 314.054 93.7271C314.054 94.5044 314.318 95.1803 314.862 95.721C315.406 96.2786 316.05 96.5489 316.808 96.5489C317.452 96.5489 317.996 96.38 318.425 96.0251V93.7947H319.365V96.38H319.348Z" fill="white" stroke="white" stroke-width="0.2" stroke-miterlimit="10"/>
<path d="M325.747 89.9927L328.37 97.3936H327.38L326.456 94.7745H324.543L323.619 97.3936H322.613L325.236 89.9927H325.747ZM326.11 93.8114L325.483 92.071L324.873 93.8114H326.11Z" fill="white" stroke="white" stroke-width="0.2" stroke-miterlimit="10"/>
<path d="M333.071 95.7558L334.012 96.0937C333.781 96.4148 333.616 96.6344 333.517 96.7358C333.005 97.2596 332.412 97.5131 331.702 97.5131C330.993 97.5131 330.383 97.2596 329.888 96.7358C329.377 96.212 329.129 95.6037 329.129 94.8772C329.129 94.1506 329.377 93.5254 329.888 93.0185C330.399 92.4947 330.993 92.2412 331.702 92.2412C332.412 92.2412 333.022 92.4947 333.517 93.0185C333.616 93.1199 333.781 93.3395 334.012 93.6606L333.071 94.0154C332.956 93.8633 332.873 93.7619 332.824 93.7281C332.511 93.4071 332.131 93.255 331.686 93.255C331.241 93.255 330.861 93.424 330.548 93.745C330.234 94.0661 330.069 94.4547 330.069 94.9109C330.069 95.3672 330.234 95.7558 330.548 96.0768C330.861 96.3979 331.241 96.5669 331.686 96.5669C332.131 96.5669 332.511 96.4148 332.824 96.0937C332.873 96.0092 332.939 95.9079 333.071 95.7558Z" fill="white" stroke="white" stroke-width="0.2" stroke-miterlimit="10"/>
<path d="M339.124 92.9678V92.6298H340.064V97.3948H339.124V96.8034C338.679 97.2765 338.151 97.5131 337.557 97.5131C336.848 97.5131 336.238 97.2596 335.743 96.7358C335.248 96.2289 334.984 95.6037 334.984 94.8772C334.984 94.1506 335.232 93.5254 335.743 93.0185C336.238 92.5116 336.848 92.2412 337.557 92.2412C338.135 92.2581 338.662 92.4947 339.124 92.9678ZM339.124 95.232V94.5223C339.075 94.2182 338.926 93.9478 338.695 93.7113C338.382 93.3902 338.003 93.2381 337.557 93.2381C337.112 93.2381 336.733 93.4071 336.419 93.7113C336.106 94.0323 335.941 94.4209 335.941 94.8772C335.941 95.3334 336.106 95.722 336.419 96.043C336.733 96.3641 337.112 96.5331 337.557 96.5331C338.003 96.5331 338.382 96.381 338.695 96.0599C338.926 95.8065 339.058 95.5361 339.124 95.232Z" fill="white" stroke="white" stroke-width="0.2" stroke-miterlimit="10"/>
<path d="M345.457 92.9499V89.9761H346.398V97.377H345.457V96.7856C345.012 97.2587 344.484 97.4952 343.874 97.4952C343.165 97.4952 342.554 97.2418 342.06 96.718C341.565 96.1942 341.301 95.5859 341.301 94.8593C341.301 94.1327 341.548 93.5075 342.06 93.0006C342.554 92.4768 343.165 92.2234 343.874 92.2234C344.484 92.2403 344.996 92.4768 345.457 92.9499ZM345.457 95.231V94.5214C345.408 94.2172 345.259 93.9469 345.012 93.7103C344.699 93.3893 344.319 93.2203 343.874 93.2203C343.429 93.2203 343.049 93.3893 342.736 93.7103C342.423 94.0314 342.258 94.42 342.258 94.8762C342.258 95.3324 342.423 95.7211 342.736 96.0421C343.049 96.3631 343.429 96.5152 343.874 96.5152C344.319 96.5152 344.699 96.3631 345.012 96.0421C345.259 95.8055 345.391 95.5352 345.457 95.231Z" fill="white" stroke="white" stroke-width="0.2" stroke-miterlimit="10"/>
<path d="M349.3 96.3126C349.449 96.4478 349.746 96.5323 350.158 96.5323C350.603 96.5323 350.983 96.3802 351.296 96.0592C351.329 96.0085 351.411 95.924 351.543 95.7719L352.484 96.1098C352.253 96.4309 352.088 96.6505 351.989 96.7519C351.477 97.2757 350.884 97.5292 350.174 97.5292C349.465 97.5292 348.855 97.2757 348.36 96.7519C347.849 96.2281 347.601 95.6198 347.601 94.8933C347.601 94.1667 347.849 93.5415 348.36 93.0346C348.871 92.5108 349.465 92.2573 350.174 92.2573C350.785 92.2573 351.313 92.4432 351.774 92.8149C351.857 92.8825 351.923 92.9501 351.989 93.0177C352.022 93.0515 352.104 93.1529 352.253 93.3049L351.791 93.7949L349.3 96.3126ZM350.867 93.3556C350.768 93.2711 350.521 93.2373 350.158 93.2373C349.713 93.2373 349.333 93.4063 349.02 93.7274C348.706 94.0484 348.542 94.437 348.542 94.8933C348.542 95.265 348.575 95.5015 348.657 95.6198L350.867 93.3556Z" fill="white" stroke="white" stroke-width="0.2" stroke-miterlimit="10"/>
<path d="M353.557 92.6294H354.546V93.0688C354.728 92.5956 355.107 92.376 355.635 92.376C356.179 92.376 356.476 92.6463 356.542 93.1701C356.69 92.6463 357.119 92.376 357.829 92.376C358.521 92.376 358.868 92.7815 358.868 93.6095V97.3944H357.878V94.0488C357.878 93.5757 357.68 93.3391 357.301 93.3391C357.136 93.3391 357.004 93.3898 356.888 93.5081C356.773 93.6264 356.707 93.9981 356.707 94.6233V97.3944H355.717V94.0488C355.717 93.5757 355.519 93.3391 355.124 93.3391C354.959 93.3391 354.827 93.3898 354.711 93.5081C354.612 93.6095 354.546 93.8629 354.546 94.2684V97.3944H353.557V92.6294Z" fill="white" stroke="white" stroke-width="0.2" stroke-miterlimit="10"/>
<path d="M361.424 99.0001H360.435L361.672 96.3303L359.94 92.6299H360.995L362.183 95.232L363.371 92.6299H364.426L361.424 99.0001Z" fill="white" stroke="white" stroke-width="0.2" stroke-miterlimit="10"/>
<path d="M515.524 86.9997L514.088 86.5673L513.656 88.0037L506.474 85.8417L506.906 84.4054L505.47 83.973L507.2 78.2277L508.636 78.6601L509.068 77.2237L510.505 77.6561L510.937 76.2198L516.682 77.9494L516.25 79.3857L511.941 78.0885L511.509 79.5249L510.072 79.0925L509.64 80.5288L515.385 82.2584L514.953 83.6947L516.389 84.1271L515.524 86.9997ZM512.652 86.1349L513.517 83.2623L509.208 81.9651L508.343 84.8378L512.652 86.1349ZM524.69 89.7589L524.258 91.1952L519.949 89.8981L520.381 88.4617L518.945 88.0294L519.377 86.593L517.941 86.1606L519.238 81.8517L520.674 82.284L521.107 80.8477L522.543 81.2801L520.813 87.0254L522.25 87.4578L521.817 88.8941L524.69 89.7589ZM527.995 89.1874L526.559 88.755L526.126 90.1913L524.69 89.7589L526.42 84.0136L524.983 83.5812L525.416 82.1449L522.543 81.2801L522.975 79.8438L527.284 81.1409L526.852 82.5773L528.288 83.0097L527.856 84.446L529.292 84.8784L527.995 89.1874ZM474.221 93.3638L472.785 92.9314L472.352 94.3677L466.607 92.6382L467.039 91.2018L465.603 90.7694L466.036 89.3331L464.599 88.9007L465.896 84.5917L467.333 85.0241L467.765 83.5878L469.201 84.0202L469.634 82.5839L475.379 84.3134L474.947 85.7497L476.383 86.1821L475.951 87.6185L473.078 86.7537L473.51 85.3174L470.638 84.4526L470.205 85.8889L468.769 85.4565L467.472 89.7655L468.908 90.1979L468.476 91.6342L471.348 92.499L471.781 91.0627L474.653 91.9274L474.221 93.3638ZM485.827 98.4241L482.954 97.5593L484.251 93.2503L479.942 91.9531L478.645 96.2621L475.773 95.3973L478.799 85.343L481.672 86.2078L480.375 90.5168L484.684 91.814L485.981 87.505L488.854 88.3698L485.827 98.4241ZM497.865 102.048L494.992 101.183L495.857 98.3106L491.548 97.0134L490.684 99.8861L487.811 99.0213L489.973 91.8397L491.409 92.2721L491.842 90.8357L493.278 91.2681L493.71 89.8318L498.019 91.129L497.587 92.5653L499.023 92.9977L498.591 94.434L500.027 94.8664L497.865 102.048ZM496.29 96.8743L497.154 94.0016L495.718 93.5692L496.151 92.1329L494.714 91.7005L494.282 93.1368L492.845 92.7044L491.981 95.5771L496.29 96.8743ZM509.903 105.672L499.849 102.645L502.876 92.591L505.748 93.4558L503.154 102.074L510.336 104.236L509.903 105.672ZM521.942 109.296L511.887 106.269L514.914 96.2149L517.787 97.0797L515.192 105.698L522.374 107.86L521.942 109.296ZM533.98 112.92L523.926 109.893L526.952 99.8389L537.007 102.866L536.574 104.302L529.393 102.14L528.528 105.013L534.273 106.742L533.841 108.179L528.095 106.449L527.231 109.322L534.412 111.484L533.98 112.92ZM546.018 116.544L543.145 115.679L543.578 114.243L542.141 113.81L542.574 112.374L541.138 111.942L541.57 110.505L540.134 110.073L538.836 114.382L535.964 113.517L538.99 103.463L541.863 104.328L541.431 105.764L542.867 106.196L542.435 107.633L543.871 108.065L543.439 109.501L544.875 109.934L546.172 105.625L549.045 106.49L546.018 116.544ZM558.056 120.168L550.875 118.006L551.316 116.541L549.879 116.108L550.303 114.701L548.867 114.268L550.164 109.959L551.6 110.392L552.033 108.956L553.469 109.388L553.901 107.952L561.083 110.114L560.651 111.55L554.905 109.82L554.473 111.257L553.037 110.824L551.739 115.133L553.176 115.566L552.743 117.002L555.616 117.867L556.481 114.994L555.044 114.562L555.477 113.125L559.786 114.423L558.056 120.168ZM570.095 123.792L560.04 120.765L563.067 110.711L573.121 113.738L572.689 115.174L565.507 113.012L564.642 115.885L570.388 117.614L569.955 119.05L564.21 117.321L563.345 120.194L570.527 122.355L570.095 123.792Z" fill="black"/>
<path d="M495.003 419.521L480.928 410.614L482.706 407.802L479.894 406.009L481.673 403.197L478.8 401.433L484.15 392.982L486.962 394.761L488.741 391.949L491.568 393.727L493.346 390.915L507.422 399.822L503.865 405.446L498.226 401.889L492.936 410.401L498.56 413.958L495.003 419.521ZM490.109 408.547L495.459 400.096L489.82 396.539L488.042 399.351L485.23 397.573L483.451 400.385L486.263 402.163L484.485 404.975L490.109 408.547Z" fill="white"/>
<path d="M509.2 397.011L489.44 384.531L500.08 367.644L503.12 369.362L504.898 366.55L513.35 371.885L509.778 377.524L512.59 379.303L514.383 376.491L517.195 378.269L518.974 375.457L521.786 377.235L516.45 385.687L513.638 383.893L511.845 386.72L509.033 384.942L507.254 387.754L512.878 391.311L509.2 397.011ZM504.366 386.082L507.923 380.443L505.111 378.664L506.89 375.852L501.266 372.28L495.915 380.731L504.366 386.082Z" fill="white"/>
<path d="M527.06 368.845L524.248 367.067L522.454 369.878L519.642 368.1L517.864 370.882L509.413 365.547L511.191 362.735L508.379 360.941L510.158 358.129L507.346 356.351L514.474 345.087L517.286 346.866L519.065 344.054L521.877 345.832L518.32 351.502L515.508 349.708L511.951 355.347L514.763 357.126L512.985 359.938L521.421 365.288L523.199 362.476L526.026 364.255L529.583 358.615L526.771 356.837L530.328 351.213L533.14 352.991L531.362 355.803L534.174 357.582L527.06 368.845Z" fill="white"/>
<path d="M537.746 351.958L523.67 343.051L525.449 340.239L522.622 338.445L524.415 335.633L521.588 333.855L526.938 325.404L529.75 327.182L531.529 324.37L534.356 326.148L536.134 323.336L550.21 332.244L546.653 337.868L541.014 334.311L535.678 342.762L541.302 346.319L537.746 351.958ZM532.851 340.984L538.202 332.532L532.562 328.976L530.784 331.788L527.972 330.009L526.194 332.882L529.006 334.66L527.227 337.442L532.851 340.984Z" fill="white"/>
<path d="M551.988 329.431L532.228 316.952L541.135 302.877L543.947 304.655L545.741 301.843L548.553 303.622L550.331 300.81L558.782 306.145L557.004 308.972L559.816 310.75L558.038 313.562L560.85 315.341L551.988 329.431ZM552.733 322.014L556.29 316.374L553.478 314.642L555.256 311.83L546.82 306.479L545.026 309.306L542.214 307.528L538.658 313.152L552.733 322.014Z" fill="white"/>
<path d="M566.23 306.905L546.47 294.426L558.934 274.666L561.746 276.444L552.839 290.52L558.478 294.076L565.592 282.813L568.419 284.607L561.29 295.87L566.96 299.442L575.852 285.367L578.679 287.145L566.23 306.905Z" fill="white"/>
<g opacity="0.2">
<path d="M397.708 51.5586L359.495 105.169H385.989L423.928 51.5586H397.708Z" fill="white"/>
</g>
<path d="M170.453 128.668C177.154 119.014 179.96 107.185 178.308 95.5501C176.656 83.9152 170.667 73.3345 161.543 65.9285C152.419 58.5224 140.833 54.8381 129.107 55.6139C117.381 56.3897 106.382 61.5683 98.3126 70.1119C90.2437 78.6554 85.7016 89.9328 85.5965 101.684C85.4915 113.435 89.8313 124.792 97.7462 133.478C105.661 142.165 116.566 147.539 128.277 148.524C139.987 149.51 151.637 146.033 160.892 138.791L175.134 141.831L170.453 128.668Z" fill="white"/>
<path d="M170.453 128.668C170.453 128.668 170.59 128.972 170.818 129.534L171.76 132.042L175.332 141.709L175.469 142.059H175.104L160.831 139.141H161.074C152.875 145.591 142.763 149.131 132.331 149.203C129.898 149.176 127.471 148.978 125.066 148.61C119.928 147.879 114.955 146.264 110.367 143.837C99.5842 138.168 91.4249 128.532 87.6107 116.962C83.7965 105.391 84.6256 92.792 89.9232 81.8214C94.4219 72.2805 102.056 64.5709 111.553 59.979C115.986 57.7453 120.766 56.2805 125.689 55.647C130.392 54.9661 135.173 55.0328 139.855 55.8446L141.573 56.103C142.135 56.2246 142.682 56.3766 143.245 56.5134C144.339 56.8174 145.464 57.0606 146.528 57.4102C148.641 58.1076 150.703 58.9507 152.699 59.9334C154.643 60.8792 156.527 61.9452 158.338 63.1254C159.205 63.7486 160.041 64.4022 160.877 65.0254L162.123 65.9678L163.278 67.0014C169.047 72.0532 173.449 78.4782 176.077 85.6822C178.242 91.5999 179.228 97.8841 178.98 104.181C178.757 108.923 177.808 113.603 176.168 118.058C175.128 120.883 173.809 123.597 172.231 126.16C171.684 127.041 171.243 127.68 170.939 128.09C170.792 128.314 170.629 128.527 170.453 128.729C170.562 128.493 170.695 128.269 170.848 128.06C171.137 127.604 171.547 126.935 172.049 126.053C175.954 119.42 178.147 111.919 178.433 104.226C178.599 98.0075 177.567 91.8148 175.393 85.9862C174.103 82.6175 172.447 79.4011 170.453 76.395C168.23 73.1803 165.621 70.2502 162.686 67.6702L161.561 66.6518L160.33 65.7246C159.509 65.1166 158.688 64.4782 157.837 63.8854C156.051 62.7597 154.199 61.7445 152.289 60.8454C150.323 59.8823 148.291 59.0594 146.209 58.383C145.16 58.0486 144.066 57.8206 142.986 57.5318C142.439 57.395 141.892 57.243 141.345 57.1214L139.673 56.863C135.077 56.097 130.391 56.0457 125.78 56.711C120.985 57.3003 116.321 58.682 111.978 60.7998C102.718 65.29 95.257 72.7934 90.82 82.0798C85.6222 92.8253 84.7978 105.169 88.5206 116.51C92.2434 127.851 100.223 137.305 110.778 142.88C115.277 145.283 120.156 146.893 125.202 147.637C127.562 148.003 129.944 148.206 132.331 148.245C134.616 148.245 136.897 148.072 139.156 147.729C147.015 146.568 154.44 143.395 160.71 138.517H160.816H160.953L175.18 141.557L174.952 141.831C173.432 137.605 172.338 134.307 171.547 132.027C171.198 130.948 170.909 130.112 170.696 129.504C170.593 129.232 170.512 128.952 170.453 128.668Z" fill="#263238"/>
<path d="M147.166 98.526C146.987 96.6639 146.238 94.9021 145.023 93.4796C143.898 92.0207 142.338 90.9563 140.57 90.4396C139.629 90.201 138.651 90.1548 137.692 90.3037C136.733 90.4526 135.815 90.7935 134.991 91.306C134.012 91.9209 133.198 92.7663 132.62 93.7684C132.137 92.8382 131.451 92.0279 130.614 91.3972C129.831 90.821 128.941 90.4083 127.995 90.1837C127.05 89.9591 126.069 89.9273 125.111 90.09C123.312 90.4496 121.673 91.3703 120.43 92.7196C119.099 94.0399 118.207 95.7383 117.876 97.5836C117.497 99.9384 117.886 102.353 118.986 104.469C120.268 106.634 122.057 108.454 124.199 109.774C127.68 112.084 132.24 114.942 132.24 114.942C132.24 114.942 136.298 112.16 139.931 110.169C142.169 109.023 144.098 107.355 145.555 105.305C146.802 103.275 147.367 100.9 147.166 98.526Z" fill="#FFC100"/>
<path d="M177.05 212.542C177.05 212.542 162.853 293.223 163.537 300.701C164.221 308.18 167.99 320.249 176.563 322.316C181.984 323.524 187.604 323.524 193.025 322.316L182.734 223.212L177.05 212.542Z" fill="#FFBF9D"/>
<path d="M290.183 303.589C290.183 303.589 311.098 297.388 314.503 296.932C317.404 296.703 320.317 297.172 323 298.3C323.912 298.756 333.564 301.75 335.631 304.745C337.698 307.739 335.631 312.785 335.631 312.785C335.631 312.785 338.854 314.153 337.698 316.692C336.543 319.23 333.792 318.759 330.798 318.759C327.803 318.759 323 318.592 319.778 318.759C316.555 318.926 304.851 322.635 298.498 321.024C292.144 319.412 290.214 317.573 290.214 317.573L290.183 303.589Z" fill="#FFBF9D"/>
<path d="M335.92 313.014C334.982 312.751 334.063 312.426 333.169 312.041C330.938 311.332 328.641 310.848 326.314 310.597C320.857 309.943 316.373 310.354 316.342 310.11C319.651 309.365 323.07 309.251 326.42 309.776C328.803 310.031 331.14 310.609 333.366 311.494C334.318 311.808 335.19 312.327 335.92 313.014Z" fill="#FF9A6C"/>
<path d="M331.117 311.068C331.117 311.068 330.98 310.931 330.858 310.627C330.672 310.169 330.672 309.656 330.858 309.198L331.178 309.563C329.51 310.122 327.742 310.321 325.991 310.145C324.241 309.969 322.548 309.424 321.024 308.545L321.389 308.271C321.495 309.441 320.826 309.897 320.796 309.791C320.766 309.685 321.1 309.198 320.872 308.271L320.75 307.785L321.252 307.997C322.823 308.655 324.482 309.075 326.177 309.244C327.799 309.382 329.433 309.279 331.026 308.94L331.634 308.818L331.36 309.32C331.17 309.673 331.095 310.077 331.147 310.475C331.178 310.87 331.178 311.053 331.117 311.068Z" fill="#FF9A6C"/>
<path d="M225.234 100.046L224.306 175.666C224.139 188.48 226.48 207.45 246.878 206.72C264.48 204.805 269.162 188.146 269.298 176.138C269.298 170.453 269.42 165.695 269.466 165.118C269.466 165.118 288.739 163.598 290.366 144.506C291.156 135.386 291.232 116.234 291.095 98.9064C290.989 89.9897 287.539 81.4378 281.428 74.9437C275.317 68.4497 266.99 64.487 258.096 63.84L256.257 63.7032C236.345 63.384 224.96 80.1344 225.234 100.046Z" fill="#FFBF9D"/>
<path d="M269.466 165.163C260.652 164.517 252.211 161.351 245.146 156.043C245.146 156.043 250.177 170.407 269.329 170.073L269.466 165.163Z" fill="#FF9A6C"/>
<path d="M258.552 106.81C258.172 107.206 255.983 105.427 252.791 105.29C249.599 105.154 247.213 106.81 246.878 106.37C246.544 105.929 247.106 105.473 248.155 104.743C249.559 103.816 251.216 103.348 252.898 103.406C254.555 103.46 256.152 104.04 257.458 105.062C258.4 105.914 258.734 106.643 258.552 106.81Z" fill="#263238"/>
<path d="M259.92 115.839C259.877 116.511 259.573 117.14 259.074 117.591C258.574 118.042 257.918 118.281 257.245 118.256C256.916 118.256 256.59 118.19 256.286 118.063C255.982 117.936 255.707 117.749 255.477 117.514C255.246 117.279 255.064 117.001 254.943 116.695C254.821 116.389 254.761 116.062 254.767 115.733C254.814 115.062 255.119 114.436 255.618 113.985C256.116 113.534 256.771 113.294 257.442 113.316C257.772 113.314 258.099 113.378 258.404 113.504C258.708 113.631 258.984 113.818 259.215 114.053C259.446 114.288 259.628 114.568 259.749 114.874C259.87 115.181 259.928 115.509 259.92 115.839Z" fill="#263238"/>
<path d="M266.547 129.002C268.126 128.631 269.744 128.457 271.366 128.485C272.11 128.485 272.886 128.364 272.992 127.862C273.114 127.096 272.997 126.31 272.658 125.613C272.08 123.758 271.487 121.797 270.864 119.761C268.386 111.431 266.654 104.561 266.988 104.561C267.322 104.561 269.602 111.142 272.08 119.472C272.673 121.524 273.235 123.485 273.782 125.354C274.184 126.292 274.243 127.341 273.95 128.318C273.823 128.574 273.639 128.798 273.412 128.972C273.186 129.145 272.922 129.265 272.642 129.321C272.222 129.401 271.793 129.431 271.366 129.413C269.749 129.48 268.13 129.342 266.547 129.002Z" fill="#263238"/>
<path d="M257.199 93.2368C256.895 93.9512 254.342 93.4192 251.271 93.5712C248.201 93.7232 245.708 94.4072 245.358 93.7232C245.191 93.404 245.678 92.7504 246.711 92.112C248.082 91.3457 249.613 90.9133 251.182 90.8499C252.751 90.7866 254.312 91.0939 255.74 91.7472C256.88 92.2944 257.336 92.9024 257.199 93.2368Z" fill="#263238"/>
<path d="M287.493 98.0245C287.158 98.6021 284.666 98.0245 281.641 97.8573C278.616 97.6901 276.123 98.1613 275.804 97.5533C275.667 97.2645 276.169 96.7477 277.218 96.2917C278.638 95.7296 280.161 95.4757 281.686 95.5469C283.221 95.5968 284.728 95.9697 286.11 96.6413C287.158 97.1885 287.63 97.7357 287.493 98.0245Z" fill="#263238"/>
<path d="M225.766 114.258C225.446 114.091 212.952 109.44 212.42 122.497C211.888 135.554 225.112 133.395 225.142 133.015C225.173 132.635 225.766 114.258 225.766 114.258Z" fill="#FFBF9D"/>
<path d="M221.358 127.908C221.358 127.908 221.13 128.06 220.734 128.212C220.465 128.325 220.176 128.384 219.883 128.384C219.591 128.384 219.301 128.325 219.032 128.212C217.664 127.649 216.6 125.415 216.63 123.059C216.646 121.936 216.911 120.83 217.406 119.821C217.546 119.42 217.781 119.059 218.09 118.768C218.4 118.477 218.775 118.265 219.184 118.149C219.45 118.089 219.728 118.125 219.97 118.25C220.212 118.375 220.402 118.582 220.506 118.833C220.658 119.198 220.506 119.457 220.643 119.487C220.78 119.517 220.932 119.274 220.841 118.727C220.778 118.405 220.613 118.111 220.37 117.891C220.017 117.611 219.572 117.475 219.123 117.511C218.581 117.593 218.069 117.814 217.638 118.152C217.206 118.49 216.87 118.934 216.661 119.441C216.053 120.545 215.729 121.783 215.718 123.044C215.718 125.673 216.95 128.197 218.758 128.82C219.105 128.935 219.473 128.972 219.836 128.927C220.199 128.882 220.547 128.757 220.856 128.561C221.327 128.227 221.403 127.938 221.358 127.908Z" fill="#FF9A6C"/>
<path d="M263.462 138.046C263.598 137.712 261.045 136.937 259.251 134.55C258.504 133.493 257.896 132.343 257.442 131.13C257.062 130.188 256.774 129.61 256.637 129.61C256.5 129.61 256.53 130.294 256.743 131.313C257.01 132.698 257.581 134.006 258.415 135.143C259.279 136.281 260.434 137.163 261.759 137.697C262.747 138.122 263.431 138.153 263.462 138.046Z" fill="#263238"/>
<path d="M316.373 81.9279C316.149 81.1582 315.63 80.508 314.929 80.1191C313.405 79.4324 311.727 79.1598 310.065 79.3287C304.981 79.2383 300.023 77.7329 295.746 74.9815C293.753 72.103 291.526 69.3933 289.089 66.8799C283.313 60.9215 278.57 56.8783 273.661 54.9023C267.307 52.3487 256.682 51.2999 250.055 53.0479C243.428 54.7959 237.485 60.1615 236.558 66.9407C232.849 63.7943 227.27 63.8247 222.741 65.6487H222.634C217.588 67.4423 214.73 72.7623 213.241 77.8999C211.751 83.0375 211.128 88.5399 208.407 93.0999C207.83 94.0575 207.161 95.2127 207.662 96.1399C207.888 96.5089 208.223 96.799 208.62 96.9705C209.017 97.1419 209.458 97.1863 209.882 97.0975C210.726 96.9136 211.523 96.5564 212.222 96.0487L210.535 100.077C212.368 100.382 214.246 100.257 216.022 99.7119C216.94 104.3 218.138 108.828 219.61 113.27C221.488 113.037 223.387 113.503 224.945 114.577C226.708 116.097 227.498 119.137 230.417 118.013C231.937 117.435 233.274 114.304 233.776 112.784C237.095 102.654 238.194 91.9278 236.998 81.3351C239.092 79.106 241.595 77.3 244.37 76.0151L244.142 76.2127C249.462 74.3735 255.482 72.5495 260.528 75.0423C264.45 76.9879 266.745 81.1223 269.648 84.2991C272.351 87.286 275.628 89.6966 279.285 91.3865C282.942 93.0764 286.902 94.0107 290.928 94.1335C291.217 99.4991 290.761 107.069 291.05 112.373L295.61 103.785C295.974 103.147 296.278 102.524 296.567 101.885L296.674 101.688C297.128 100.649 297.635 99.6346 298.194 98.6479C298.814 99.1778 299.607 99.4624 300.423 99.4481C301.239 99.4338 302.022 99.1216 302.624 98.5703C303.225 98.019 303.605 97.2666 303.69 96.455C303.776 95.6434 303.562 94.8285 303.088 94.1639C302.633 93.6095 302.1 93.1232 301.507 92.7199C302.165 93.3537 302.975 93.8071 303.859 94.0361C304.743 94.2651 305.671 94.262 306.554 94.0271C307.427 93.7609 308.189 93.215 308.722 92.4735C309.254 91.7319 309.529 90.8358 309.502 89.9231C309.429 89.306 309.196 88.7189 308.825 88.2202C308.454 87.7215 307.959 87.3286 307.39 87.0807C309.755 87.2617 312.121 86.7324 314.184 85.5607C315.522 84.8615 316.829 83.5999 316.373 81.9279Z" fill="#263238"/>
<path d="M242.562 69.1597C241.873 69.6845 241.232 70.2695 240.646 70.9077C239.136 72.7231 238.13 74.9037 237.728 77.2309C237.401 78.8212 237.238 80.4409 237.242 82.0645C237.242 83.8277 237.363 85.6973 237.5 87.6733C237.682 89.7504 237.733 91.8369 237.652 93.9205C237.586 95.0293 237.439 96.1317 237.211 97.2189C237.052 98.3816 236.591 99.4823 235.874 100.411C235.54 100.779 235.118 101.057 234.647 101.216C234.176 101.376 233.672 101.413 233.183 101.323C232.25 101.143 231.401 100.663 230.766 99.9549C229.731 98.5319 229.096 96.8576 228.927 95.1061H229.338C228.763 96.5458 227.98 97.8928 227.012 99.1037C226.079 100.226 224.752 100.95 223.303 101.125C222.63 101.188 221.952 101.067 221.342 100.776C220.779 100.484 220.318 100.028 220.02 99.4685C219.732 98.9486 219.59 98.3602 219.61 97.7661C219.627 97.2036 219.842 96.6652 220.218 96.2461L220.415 96.4285C219.282 97.7192 217.889 98.7552 216.326 99.4685C215.916 99.6564 215.495 99.8189 215.065 99.9549L214.609 100.076C214.742 99.9978 214.885 99.9365 215.034 99.8941C215.323 99.7725 215.749 99.6053 216.266 99.3317C217.778 98.5672 219.121 97.5077 220.218 96.2157L220.415 96.3981C220.105 96.7987 219.926 97.2859 219.904 97.7923C219.883 98.2988 220.019 98.7995 220.294 99.2253C220.569 99.7261 220.987 100.134 221.494 100.396C222.05 100.653 222.665 100.753 223.273 100.684C224.624 100.506 225.857 99.8216 226.723 98.7693C227.647 97.5805 228.394 96.2648 228.942 94.8629L229.216 94.2549L229.353 94.9085C229.524 96.5558 230.127 98.1288 231.101 99.4685C231.663 100.107 232.423 100.541 233.259 100.7C233.673 100.778 234.099 100.75 234.498 100.617C234.897 100.484 235.256 100.251 235.539 99.9397C236.206 99.0483 236.634 98.0023 236.786 96.8997C237.008 95.8378 237.151 94.7606 237.211 93.6773C237.302 91.6861 237.272 89.6912 237.12 87.7037C236.998 85.7277 236.877 83.8429 236.892 82.0645C236.907 80.4136 237.091 78.7686 237.439 77.1549C237.878 74.8026 238.926 72.6066 240.479 70.7861C241.075 70.1283 241.779 69.5781 242.562 69.1597Z" fill="#455A64"/>
<path d="M301.462 87.6885L301.31 87.8253L300.838 88.1597C300.589 88.3598 300.319 88.533 300.033 88.6765C299.662 88.9095 299.276 89.1177 298.878 89.2997C296.325 90.4753 293.52 90.9976 290.715 90.8197C286.556 90.5429 282.566 89.0702 279.224 86.5789C275.194 83.4956 271.838 79.6214 269.359 75.1941C267.976 72.8837 266.836 70.5277 265.59 68.3389C264.458 66.2131 263.025 64.2624 261.334 62.5477C259.822 60.9907 257.939 59.8449 255.862 59.2189C254.918 58.9521 253.938 58.8392 252.958 58.8845C252.059 58.9371 251.17 59.1057 250.314 59.3861C247.719 60.3078 245.554 62.153 244.234 64.5693C243.792 65.4777 243.465 66.4377 243.261 67.4269C243.261 67.4269 243.261 67.4269 243.261 67.2293C243.261 67.0317 243.261 66.8797 243.261 66.6365C243.425 65.8977 243.67 65.1791 243.99 64.4933C245.278 61.969 247.488 60.0368 250.162 59.0973C251.044 58.7878 251.964 58.5986 252.898 58.5349C253.921 58.4812 254.947 58.5889 255.938 58.8541C258.083 59.4874 260.034 60.6535 261.607 62.2437C263.345 63.9614 264.825 65.9224 266 68.0653C267.262 70.2693 268.402 72.6253 269.77 74.9053C272.224 79.2784 275.532 83.1137 279.498 86.1837C282.768 88.6598 286.685 90.1378 290.776 90.4397C293.528 90.6624 296.292 90.2138 298.832 89.1325C299.734 88.6996 300.612 88.2176 301.462 87.6885Z" fill="#455A64"/>
<path d="M303.194 79.3133C302.991 79.5075 302.761 79.6714 302.51 79.7997C301.864 80.1919 301.188 80.5324 300.489 80.8181C299.461 81.2695 298.392 81.6207 297.297 81.8669C295.95 82.1834 294.575 82.3667 293.193 82.4141C291.814 82.4508 290.435 82.3592 289.074 82.1405C287.967 81.9503 286.879 81.6656 285.821 81.2893C285.099 81.0459 284.398 80.746 283.723 80.3925C283.252 80.1493 283.009 79.9973 283.024 79.9669C283.039 79.9365 284.103 80.4381 285.912 81.0005C289.573 82.1277 293.463 82.29 297.206 81.4717C298.287 81.2389 299.349 80.9239 300.382 80.5293C302.146 79.8605 303.164 79.2525 303.194 79.3133Z" fill="#455A64"/>
<path d="M287.63 106.81C287.25 107.206 285.061 105.427 281.869 105.29C278.677 105.154 276.29 106.81 275.956 106.37C275.622 105.929 276.184 105.473 277.233 104.743C278.636 103.816 280.294 103.348 281.975 103.406C283.636 103.457 285.235 104.043 286.535 105.078C287.508 105.914 287.812 106.643 287.63 106.81Z" fill="#263238"/>
<path d="M286.961 115.839C286.914 116.518 286.603 117.151 286.094 117.603C285.585 118.055 284.92 118.289 284.24 118.256C283.91 118.258 283.583 118.194 283.279 118.067C282.974 117.94 282.698 117.754 282.467 117.519C282.236 117.283 282.055 117.004 281.933 116.697C281.812 116.39 281.754 116.062 281.762 115.733C281.805 115.063 282.107 114.437 282.603 113.986C283.1 113.535 283.752 113.295 284.422 113.316C284.757 113.307 285.089 113.367 285.4 113.491C285.711 113.614 285.993 113.8 286.23 114.035C286.467 114.271 286.654 114.552 286.78 114.862C286.906 115.172 286.967 115.505 286.961 115.839Z" fill="#263238"/>
<path d="M277.537 681.599V722.927L362.566 722.517C361.942 714.142 315.278 697.422 315.278 697.422L316.206 681.599H277.537Z" fill="#455A64"/>
<g opacity="0.6">
<path d="M291.278 693.683C290.458 693.973 289.771 694.55 289.344 695.307C288.917 696.064 288.777 696.95 288.952 697.802C289.158 698.639 289.684 699.363 290.417 699.818C291.15 700.272 292.032 700.422 292.874 700.234C293.745 699.928 294.476 699.315 294.926 698.508C295.377 697.702 295.517 696.759 295.321 695.856C294.728 694.199 292.448 692.938 290.974 693.789" fill="white"/>
</g>
<path d="M277.537 722.927V716.315L358.705 717.258C358.705 717.258 362.946 719.751 362.566 722.517L277.537 722.927Z" fill="#263238"/>
<path d="M315.278 698.212C315.278 698.653 313.211 698.866 311.19 700.279C309.168 701.693 308.15 703.502 307.739 703.319C307.329 703.137 307.937 700.659 310.399 699.002C312.862 697.346 315.354 697.817 315.278 698.212Z" fill="#263238"/>
<path d="M326.42 702.043C326.511 702.453 324.733 703.213 323.38 705.083C322.027 706.952 321.617 708.837 321.206 708.822C320.796 708.807 320.507 706.39 322.255 704.14C324.003 701.891 326.405 701.632 326.42 702.043Z" fill="#263238"/>
<path d="M331.36 712.576C330.995 712.667 330.387 710.539 331.36 708.168C332.333 705.797 334.309 704.839 334.491 705.204C334.674 705.569 333.488 706.831 332.682 708.776C331.877 710.722 331.831 712.531 331.36 712.576Z" fill="#263238"/>
<path d="M314.442 686.462C314.275 686.858 312.375 686.295 310.05 686.462C307.724 686.63 305.9 687.45 305.687 687.086C305.474 686.721 307.207 685.17 309.943 684.973C312.679 684.775 314.64 686.128 314.442 686.462Z" fill="#263238"/>
<path d="M314.914 700.066C315.17 699.251 315.232 698.387 315.096 697.543C314.91 695.214 314.136 692.97 312.846 691.022C311.964 689.681 310.834 688.52 309.518 687.602C309.129 687.273 308.659 687.052 308.157 686.964C307.655 686.876 307.138 686.923 306.66 687.101C306.164 687.365 305.747 687.756 305.451 688.234C305.154 688.712 304.99 689.259 304.973 689.821C305.122 691.992 305.913 694.07 307.244 695.791C308.575 697.512 310.388 698.799 312.451 699.489C314.483 700.129 316.658 700.154 318.704 699.558C320.749 698.963 322.572 697.775 323.942 696.145C324.604 695.402 325.12 694.54 325.462 693.606C325.63 693.067 325.63 692.489 325.462 691.949C325.367 691.678 325.215 691.431 325.015 691.223C324.816 691.016 324.575 690.854 324.307 690.749C323.419 690.501 322.471 690.593 321.647 691.007C318.902 692.324 316.546 694.33 314.807 696.829C314.274 697.483 313.876 698.238 313.637 699.048C315.395 696.608 317.591 694.516 320.112 692.877C321.252 692.238 322.742 691.357 323.942 691.721C324.474 691.934 324.687 692.542 324.429 693.241C324.122 694.02 323.668 694.732 323.091 695.339C321.847 696.771 320.213 697.811 318.389 698.332C316.565 698.852 314.629 698.832 312.816 698.273C311.005 697.667 309.406 696.551 308.212 695.061C307.018 693.57 306.279 691.767 306.082 689.867C306.077 689.506 306.167 689.15 306.343 688.836C306.519 688.521 306.775 688.258 307.086 688.073C307.406 687.97 307.748 687.95 308.078 688.017C308.408 688.083 308.715 688.234 308.97 688.453C310.201 689.27 311.277 690.3 312.147 691.493C313.423 693.306 314.27 695.385 314.625 697.573C314.868 699.2 314.822 700.066 314.914 700.066Z" fill="#263238"/>
<path d="M238.017 683.696V697.041L237.059 721.027L205.185 721.787L204.045 697.041L204.972 681.963L238.017 683.696Z" fill="#455A64"/>
<path d="M221.297 719.219C221.099 719.219 221.57 711.892 222.33 702.833C223.09 693.774 223.85 686.417 224.048 686.417C224.246 686.417 223.79 693.743 223.03 702.803C222.27 711.862 221.494 719.203 221.297 719.219Z" fill="#263238"/>
<path d="M237.181 717.029L204.972 717.394V721.787L237.211 721.741L237.181 717.029Z" fill="#263238"/>
<path d="M205.063 703.243C205.258 702.779 205.53 702.352 205.869 701.981C208.015 699.278 210.75 697.1 213.864 695.612C217.132 694.046 220.811 693.549 224.377 694.193C227.944 694.837 231.217 696.589 233.73 699.2C234.668 700.213 235.456 701.354 236.071 702.589C236.315 703.029 236.485 703.507 236.573 704.003C235.575 702.467 234.457 701.014 233.229 699.656C230.023 696.56 225.737 694.837 221.282 694.852C216.821 694.98 212.535 696.614 209.122 699.488C206.492 701.632 205.2 703.349 205.063 703.243Z" fill="#263238"/>
<path d="M309.791 371.959L306.067 366.138L186.96 371.746C186.96 371.746 184.68 408.743 186.337 422.302C186.869 426.649 189.377 443.49 189.377 443.49L192.326 574.013C193.435 584.379 196.247 693.333 196.247 693.333H243.458L253.095 518.685C254.114 499.244 253.369 469.787 254.357 448.279L270.56 514.155L282.629 554.694C282.629 554.694 280.03 574.803 277.172 598.774C273.174 632.305 273.311 691.858 273.311 691.858L321.769 692.634C321.769 692.634 328.502 630.77 333.777 594.654L338.337 551.532C338.337 544.327 335.206 526.68 334.643 523.792L309.791 371.959Z" fill="#263238"/>
<path d="M264.845 452.215C264.1 452.031 263.373 451.782 262.671 451.47C261.824 451.174 260.996 450.824 260.194 450.421C259.251 449.95 258.126 449.479 257.002 448.78C255.877 448.081 254.585 447.412 253.308 446.515C252.031 445.618 250.678 444.63 249.28 443.551C243.346 438.723 238.467 432.726 234.946 425.934C234.186 424.338 233.426 422.894 232.879 421.374C232.3 420.04 231.792 418.675 231.359 417.285C230.918 416.024 230.69 414.838 230.432 413.82C230.21 412.95 230.043 412.066 229.93 411.175C229.773 410.42 229.692 409.651 229.687 408.88C229.87 408.88 230.28 412.102 231.952 417.088C232.387 418.452 232.894 419.791 233.472 421.101C234.019 422.529 234.81 423.989 235.57 425.539C239.114 432.194 243.921 438.095 249.721 442.913C251.074 443.992 252.335 445.041 253.627 445.953C254.919 446.865 256.105 447.609 257.214 448.293C261.835 450.923 264.921 452.033 264.845 452.215Z" fill="#455A64"/>
<path d="M310.855 400.338C309.502 400.638 308.104 400.679 306.736 400.459C303.402 400.118 300.176 399.083 297.266 397.419C294.353 395.752 291.829 393.483 289.864 390.762C288.996 389.687 288.345 388.453 287.949 387.129C288.086 387.129 288.8 388.436 290.366 390.382C294.49 395.464 300.347 398.842 306.812 399.867C309.274 400.231 310.84 400.186 310.855 400.338Z" fill="#455A64"/>
<path d="M158.338 265.392L185.698 275.53L183.266 190.942C183.266 190.942 176.624 198.132 175.666 201.02C174.709 203.908 158.338 265.392 158.338 265.392Z" fill="#455A64"/>
<path d="M309.138 336.71L306.523 300.048L307.298 250.709L295.138 177.627L270.818 173.189L269.724 170.331L222.604 168.492C222.604 168.492 207.1 177.505 202.586 180.044C183.008 191.094 183.008 191.094 181.169 196.125C179.33 201.157 188.434 312.892 188.434 312.892L181.822 385.274L183.342 392.449L317.817 390.29C317.817 390.29 310.186 342.106 309.138 336.71Z" fill="#455A64"/>
<path d="M180.758 206.249C180.831 206.645 180.872 207.046 180.88 207.449C180.88 208.331 180.986 209.471 181.078 210.915C181.23 213.955 181.458 218.317 181.731 223.622C182.309 234.353 183.251 249.158 184.65 265.498C186.048 281.838 187.264 296.567 188.176 307.359C188.586 312.649 188.921 316.965 189.164 320.051C189.255 321.495 189.331 322.635 189.392 323.501C189.425 323.906 189.425 324.313 189.392 324.717C189.293 324.324 189.232 323.922 189.21 323.517C189.118 322.65 188.982 321.51 188.83 320.081C188.526 317.041 188.1 312.694 187.583 307.405C186.565 296.765 185.166 281.929 183.814 265.574C182.461 249.219 181.564 234.399 181.138 223.653C180.91 218.272 180.774 213.925 180.743 210.93C180.743 209.481 180.743 208.326 180.743 207.465C180.709 207.06 180.714 206.652 180.758 206.249Z" fill="#263238"/>
<g opacity="0.3">
<path d="M267.034 218.682C268.341 219.609 273.342 237.211 279.467 250.861C285.593 264.51 306.827 283.495 306.827 283.495L307.268 274.679L295.488 258.157L290.229 261.075L267.034 218.682Z" fill="black"/>
</g>
<g opacity="0.3">
<path d="M185.166 276.746C178.159 259.434 177.323 238.746 181.29 220.506L185.166 276.746Z" fill="black"/>
</g>
<path d="M401.28 306.128C401.28 306.128 411.494 306.614 416.48 307.253C418.674 307.569 420.892 307.691 423.107 307.618C423.107 307.618 428.594 308.925 431.756 306.66C432.827 305.852 433.761 304.877 434.522 303.772C435.335 302.653 435.742 301.29 435.676 299.908C435.609 298.526 435.074 297.208 434.158 296.172L433.899 295.868C436.316 293.725 435.556 289.074 434.188 288.496C434.558 286.931 434.847 285.348 435.054 283.754C435.054 280.714 432.014 280.318 429.385 279.072C426.755 277.826 422.59 273.372 418.866 275.226C416.784 276.245 405.399 283.465 403.332 286.718L392.084 285.699V304.76L401.28 306.128Z" fill="#FFBF9D"/>
<path d="M348.08 266.152C348.08 266.152 331.36 248.991 323.395 226.085L288.314 247.76C288.314 247.76 318.957 293.36 328.396 299.911C337.835 306.463 401.28 306.128 401.28 306.128C405.521 305.003 405.84 287.721 405.84 287.721L348.08 266.152Z" fill="#FFBF9D"/>
<path d="M290.183 261.075L336.634 235.235C336.634 235.235 299.759 180.013 295.123 177.597C295.123 177.597 277.415 172.216 274.117 185.607C270.818 198.998 267.034 218.652 267.034 218.652C266.927 219.047 290.183 261.075 290.183 261.075Z" fill="#455A64"/>
<path d="M287.052 255.36C286.829 255.085 286.64 254.783 286.49 254.463C286.11 253.794 285.638 252.943 284.97 251.864C283.708 249.493 281.93 246.209 279.771 242.181L272.171 227.787C270.758 225.066 269.253 222.209 267.702 219.26C266.166 216.135 265.14 212.784 264.662 209.334C264.178 205.87 264.245 202.351 264.86 198.907C265.475 195.724 266.561 192.65 268.082 189.787C269.488 187.212 271.176 184.8 273.114 182.597C274.805 180.636 276.942 179.109 279.346 178.144C281.333 177.409 283.429 177.008 285.547 176.958C287.13 176.908 288.714 176.959 290.29 177.11C291.582 177.232 292.585 177.369 293.33 177.46C293.678 177.5 294.024 177.566 294.363 177.657C294.015 177.694 293.663 177.694 293.314 177.657L290.274 177.46C288.71 177.375 287.142 177.375 285.578 177.46C283.497 177.557 281.445 177.983 279.498 178.721C275.166 180.348 271.609 184.923 268.69 190.197C267.237 193.008 266.212 196.021 265.65 199.135C265.064 202.49 265.002 205.915 265.468 209.289C265.965 212.656 266.991 215.924 268.508 218.971C270.028 221.935 271.548 224.793 272.916 227.513C275.728 232.94 278.251 237.849 280.394 241.999L285.365 251.788C285.912 252.897 286.338 253.779 286.687 254.463C286.831 254.753 286.953 255.052 287.052 255.36Z" fill="#263238"/>
<path d="M489.343 363.456L486.757 367.5L480.691 363.621L479.398 365.643L481.42 366.936L480.127 368.958L478.105 367.665L476.812 369.687L482.878 373.566L480.292 377.61L466.138 368.559L468.724 364.515L470.746 365.808L472.039 363.786L474.061 365.079L475.354 363.057L473.332 361.764L474.625 359.742L472.603 358.449L475.189 354.405L489.343 363.456ZM491.574 342.147L490.281 344.169L492.303 345.461L491.01 347.483L497.076 351.362L494.49 355.406L488.425 351.527L487.119 353.569L485.097 352.276L483.817 354.278L477.751 350.399L480.337 346.355L486.403 350.234L488.989 346.19L482.923 342.312L485.509 338.268L491.574 342.147ZM512.249 318.725L510.956 320.747L512.978 322.04L511.685 324.062L513.707 325.355L507.242 335.465L493.089 326.414L499.553 316.304L501.575 317.597L502.868 315.575L504.89 316.868L506.183 314.846L512.249 318.725ZM509.663 322.769L503.597 318.89L502.304 320.912L500.282 319.619L497.696 323.663L507.806 330.128L510.392 326.084L508.37 324.791L509.663 322.769ZM527.259 304.163L524.673 308.206L520.629 305.621L516.75 311.686L520.794 314.272L518.208 318.316L508.098 311.851L509.391 309.829L507.369 308.536L508.662 306.515L506.64 305.222L510.519 299.156L512.541 300.449L513.834 298.427L515.856 299.72L517.149 297.698L527.259 304.163ZM518.607 304.328L514.563 301.742L513.27 303.764L511.248 302.471L509.955 304.493L511.977 305.786L510.684 307.807L514.728 310.393L518.607 304.328ZM529.49 282.853L528.197 284.875L530.219 286.168L528.926 288.19L534.992 292.069L532.406 296.113L526.341 292.234L525.035 294.276L523.013 292.983L521.733 294.985L515.667 291.106L518.253 287.062L524.319 290.941L526.905 286.897L520.839 283.018L523.425 278.974L529.49 282.853Z" fill="black"/>
</svg>
